<svg xmlns="http://www.w3.org/2000/svg" width="107.081" height="114.046" viewBox="0 0 107.081 114.046">
  <g id="Group_1095" data-name="Group 1095" class="stroke-secondary-global" transform="matrix(-0.259, -0.966, 0.966, -0.259, 21.711, 110.956)">
    <path id="Path_4102" data-name="Path 4102" d="M52.737,54.182C68.726,44.212,77.4,22.963,67.968,10.569S49.594-1.709,43.054,2.766c-7.326,5.012-5.366,10.148-12.679,15.653s-13.383-.244-22.634,6.3c-6.579,4.657-11.308,14.517-4.2,25.043S30.687,67.933,52.737,54.182Z" transform="translate(0 0)" fill="none" stroke-linecap="round" stroke-linejoin="round" stroke-width="5"/>
    <path id="Path_4103" data-name="Path 4103" d="M21.76,14.085c1.708-2.868,1.123-7.345-3.191-10.135C13.847.9,2.32-2.186.361,2.137-1.87,7.057,6.854,14.5,9.715,16.279,15.708,20.007,19.8,17.382,21.76,14.085Z" transform="translate(69.376 55.215)" fill="none" stroke-linecap="round" stroke-linejoin="round" stroke-width="5"/>
    <path id="Path_4104" data-name="Path 4104" d="M14.348,23.173c-3.07,1.674-8.427,1.073-11.386-4.527C.209,13.437-1.909,2.179,2.693.3,7.932-1.839,15.612,8.073,17.381,11.127A8.47,8.47,0,0,1,14.348,23.173Z" transform="translate(47.485 70.029)" fill="none" stroke-linecap="round" stroke-linejoin="round" stroke-width="5"/>
    <path id="Path_4105" data-name="Path 4105" d="M6.639,18.87c-3.227.189-5.583-2.555-6.393-6.587C-.827,6.944,1.689-.238,6.278.006c5.224.278,6.463,7.141,6.629,10.4C13.149,15.168,10.347,18.653,6.639,18.87Z" transform="translate(18.632 71.309)" fill="none" stroke-linecap="round" stroke-linejoin="round" stroke-width="5"/>
    <path id="Path_4106" data-name="Path 4106" d="M19.5,9.46c.967-3.29-1.305-6.382-5.277-8.183C8.962-1.11.938-.227.092,4.574c-.963,5.465,5.833,8.387,9.161,9.339C14.117,15.3,18.389,13.241,19.5,9.46Z" transform="translate(78.07 29.434)" fill="none" stroke-linecap="round" stroke-linejoin="round" stroke-width="5"/>
  </g>
</svg>
