<svg xmlns="http://www.w3.org/2000/svg" width="127.129" height="6.448" viewBox="0 0 127.129 6.448">
  <path class="fill-primary" id="Path_5978" data-name="Path 5978" d="M3196.709,2798.617a.393.393,0,0,1-.435.2.481.481,0,0,0-.182.047c.029.244-.188.157-.312.174l-.094-.041c.08-.227-.13-.192-.276-.174-.108.012-.217-.222-.326.006-.007.023-.16-.006-.239-.006-.1.006-.232-.012-.29.034-.138.1-.2.2-.34-.011-.065-.1-.3-.041-.413.064-.058.046-.08.146-.152.011a.255.255,0,0,0-.188-.052,13.956,13.956,0,0,0-2.1.006c-.421-.135-.884.046-1.3-.07h-.043c-.45.023-.9.046-1.356.075-.1.012-.2.012-.2-.07.007-.18-.182-.169-.326-.238l.014.1c.029.07.167.135.014.2a.782.782,0,0,1-.189-.105c-.043-.041-.021-.11-.043-.163a.133.133,0,0,0-.232-.035.452.452,0,0,1-.5.21c-.2-.035-.225.029-.355-.081.007-.053.029-.1.036-.163l-.036-.047a.773.773,0,0,1-.08.053.952.952,0,0,0,.087.163.254.254,0,0,0-.253.087c-.145.2-.16.186-.37.058-.131-.075-.159-.151-.051-.256a.425.425,0,0,0,.08,0l.181-.036-.021-.052c-.065.017-.123.029-.181.047l-.065.045v-.168c-.159.012-.087.262-.312.187a.5.5,0,0,1-.036.093c.145.123.008.18-.058.239-.022.023-.123.011-.123.011a.878.878,0,0,0-.921.07c-.007-.023-.014-.04-.021-.064l-.022-.017c.014.023.036.052.05.076-.043.029-.087.081-.13.081-.384,0-.761-.011-1.145-.011-.486,0-.971.011-1.464.017a3.271,3.271,0,0,1-.341.006,2.751,2.751,0,0,1-.312-.064l.246-.164a.505.505,0,0,0-.507-.058,1.934,1.934,0,0,1-.754-.018c-.029,0-.051-.087-.08-.134a.8.8,0,0,1-.217.1c-.124.029-.261.053-.348-.058l.08.006a.155.155,0,0,0,.058-.035c.029-.024.015-.035.015-.035l-.08.029-.065.041c-.065.058-.189.1-.095.2a.247.247,0,0,0,.3.059c.152-.117.261-.059.413-.018a3.081,3.081,0,0,0,.464.012c.044,0,.087.041.13.064-.036.029-.073.082-.116.082-.254.011-.515.011-.768.011-.058,0-.138-.023-.167,0-.21.2-.413.035-.7.029.217-.122.275-.244.174-.355a1.593,1.593,0,0,0-.348-.238c-.043.134-.08.238-.123.367-.239-.053-.087-.274-.261-.373-.036.059-.058.14-.108.164s-.167-.018-.246,0a.225.225,0,0,0-.145.11c-.037.1-.044.2-.232.18s-.181-.128-.174-.233c.022-.012.051-.017.08-.029-.029.012-.051.023-.051.023-.08.018-.16.011-.189.041-.188.18-.188.18-.363.006a1.5,1.5,0,0,0-.312.454,1.459,1.459,0,0,1-.159-.117c-.181-.175-.181-.179-.457-.058a.213.213,0,0,1-.261-.047c.08-.052.167-.1.246-.157h.022l-.014.006c-.138-.006-.261.011-.247.163-.073-.076-.152-.146-.247-.233l-.2.331a1.355,1.355,0,0,0-.283-.134c-.123-.029-.355-.052-.355-.052-.152.238-.261.1-.392.07a2.133,2.133,0,0,0-.573.087,2.231,2.231,0,0,1-.573-.082l-.08.018a2.82,2.82,0,0,1-.841.152c-.231,0-.457.006-.681,0-.152-.006-.369.076-.413-.135a1.051,1.051,0,0,1-.456-.163c-.051-.018-.181-.006-.16.1a.313.313,0,0,1,0,.164.193.193,0,0,1-.138.058c-.036-.006-.051-.07-.051-.07l-.022-.059.007.024c-.131-.018-.261-.041-.348.075-.029.046-.058.093-.109.023s-.08-.088-.152-.023a.282.282,0,0,1-.413,0c-.13-.139-.3-.111-.464-.1s-.333-.024-.45.146c-.043.064-.261.075-.4.075-.623-.005-1.254-.023-1.877-.04a2.548,2.548,0,0,1-.471-.053.709.709,0,0,0-.348.011,2.142,2.142,0,0,1-.667-.041c-.188-.029-.362-.076-.529.064a.358.358,0,0,1-.239.029c-.146-.035-.29-.152-.406.047,0,0-.109.012-.124-.006-.174-.215-.485-.064-.71-.151-.043-.011-.145.053-.21.094a.4.4,0,0,1-.384.046,3.39,3.39,0,0,0-.645-.029,2.592,2.592,0,0,1-.9-.081.523.523,0,0,0-.478.081.577.577,0,0,1-.681.018.721.721,0,0,0-.645-.012c-.174.076-.3.181-.486.064-.021-.011-.08.024-.08.024h-.159c-.232-.187-.232-.193-.464-.088-.073.035-.145.082-.218.117-.029.012-.109-.018-.109-.018.007-.256-.232-.14-.37-.157,0,0-.109.046-.109.07.007.058.058.127-.058.127-.094-.006-.247-.029-.247-.029-.065-.232-.225-.169-.377-.123a.967.967,0,0,0,.1.006.227.227,0,0,1,.1.059l-.073.076c-.174-.053-.421.081-.515-.169-.037-.093-.355-.076-.471.006a1.389,1.389,0,0,1-.225.157c-.137.07-.3.07-.363-.063s-.188-.14-.341-.14c-.29.006-.573,0-.855,0a2.07,2.07,0,0,1-.341-.029c-.08-.011-.167-.087-.2.018-.015.035.094.093.094.093a.351.351,0,0,1,.087.1c-.167.012-.319.076-.442-.081-.036-.052-.166-.076-.261-.076-.326-.006-.66.006-.993.017-.182,0-.406-.093-.5.146a.291.291,0,0,1-.188.006c-.16-.093-.3-.2-.464-.314-.022.046-.051.1-.073.151-.051.134-.174.168-.333.151-.08-.011-.167-.006-.239-.017a.6.6,0,0,1-.108-.041c-.1-.1-.145-.192-.218-.25-.094-.076-.181-.1-.246.041-.015.034-.131.052-.2.075-.181.041-.42-.035-.522.168,0,0-.152.012-.181-.017-.145-.175-.3-.146-.478-.041-.109.064-.2.081-.29-.024s-.24-.093-.377-.023a.583.583,0,0,1-.217.093c-.385,0-.762-.017-1.146-.035-.073-.006-.174-.022-.2-.057-.152-.28-.341-.111-.515-.029-.116.052-.217.117-.355.041a.183.183,0,0,0-.124-.024c-.406.151-.783-.07-1.174-.081-.261-.006-.515-.1-.776.058a.547.547,0,0,1-.414-.029.835.835,0,0,0-.7-.012c-.123.035-.312.152-.319-.1-.008-.035-.131-.093-.2-.1-.355-.029-.71-.053-1.066-.059a.591.591,0,0,0-.3.123,1.009,1.009,0,0,1-.819.1,1.48,1.48,0,0,0-.964-.018,1.776,1.776,0,0,1-.181-.052c-.058-.023-.131-.1-.174-.088-.384.1-.74-.18-1.124-.046a.635.635,0,0,1-.29-.03c-.188-.023-.37-.064-.558-.075a.331.331,0,0,0-.2.081c-.2.169-.2.164-.493.1a.694.694,0,0,0-.326.017.736.736,0,0,1-.819-.209c-.188.081-.384.168-.58.262-.022-.1-.022-.221-.224-.169a2.4,2.4,0,0,1-.37.076,2.337,2.337,0,0,1-.413,0c-.043,0-.123-.07-.123-.07.1-.262-.109-.209-.268-.209-.072,0-.145.006-.217,0-.16-.006-.3-.006-.283.174l-.043.094c-.029.023-.08.058-.08.058a1.018,1.018,0,0,1-.138-.064c.015-.117.036-.192-.116-.209l.008.005c-.073-.11-.138-.209-.319-.076a.832.832,0,0,1-.348.094c-.138.017-.312-.041-.282.158a1.069,1.069,0,0,1-.319.017,1.5,1.5,0,0,0-1.486-.017.39.39,0,0,1-.406-.03.657.657,0,0,0-.776-.017.373.373,0,0,1-.348.034.664.664,0,0,0-.674.1.226.226,0,0,1-.327-.006.212.212,0,0,0-.3.006.418.418,0,0,1-.471.058c-.051-.023-.13.006-.2.006a.787.787,0,0,1-.29-.011.682.682,0,0,0-.609-.024.29.29,0,0,1-.044.006c-.529.029-1.058.069-1.587.069a.434.434,0,0,1-.449-.407c-.029-.164-.109-.221-.275-.268a2.172,2.172,0,0,1-.275-.1c-.1-.042-.182-.111-.08-.193.16-.122.065-.209-.065-.279-.153-.076-.145-.146-.051-.25.08-.087.3-.1.246-.245-.043-.1-.174-.186-.246-.291a.96.96,0,0,1-.152-.274,5.655,5.655,0,0,1-.159-.576c-.022-.11-.109-.128-.218-.128-.174,0-.225-.076-.21-.2s.073-.151.182-.093c.051.029.08.087.123.1.094.018.239.047.282.012.073-.064.2-.14.094-.267-.087-.105-.145-.228-.24-.367.363-.135.711-.285,1.08-.385a2.021,2.021,0,0,1,.551.029,2.039,2.039,0,0,0,.369-.047c.319-.058.631-.129.949-.192a.547.547,0,0,0,.167-.006,7.033,7.033,0,0,1,1.6-.169c.072-.006.145-.023.218-.023.21.006.26.046.2.232-.036.123.021.175.13.158a.985.985,0,0,0,.5-.158c.1-.115.225-.093.334-.139.362-.152.739,0,1.087-.07s.66.117.986.012c.123-.041.253-.052.377-.081.275-.07.275-.07.413.152.08.14.363.18.42.052.182-.43.587-.314.964-.285h.087c.058.082.109.227.182.239.181.023.145-.135.188-.227a.2.2,0,0,1,.058-.047.464.464,0,0,1,.167-.017,4.908,4.908,0,0,0,.87-.012,1.223,1.223,0,0,1,.42.076,3.333,3.333,0,0,1,.355.117c.2.075.391-.193.638.011a1.047,1.047,0,0,0,.594.116c.116.006.225-.1.319-.226h-.515l-.007-.07a.9.9,0,0,1,.21-.04c.145-.012.283-.012.427-.012s.312,0,.392.157a.247.247,0,0,0,.174.122,1.82,1.82,0,0,0,.739-.1c-.094-.041-.16-.07-.232-.1l.014-.035a3.274,3.274,0,0,1,.421-.006s.073.058.08.093c.08.2.08.21.3.174.116-.023.384.03.217-.2-.007-.006.029-.047.029-.047.2-.005.377-.011.558-.005a.336.336,0,0,1,.08.11c.007.087.065.116.167.122.543.035,1.08.064,1.624.1.145.012.261.024.276-.139,0,0,.137-.076.2-.064a1.165,1.165,0,0,0,.587.07c.036-.012.087.041.087.041a3.733,3.733,0,0,0,.544.209.566.566,0,0,0,.319-.058c.16-.076.3-.169.471-.244a.9.9,0,0,1,.282-.059c.095-.011.182.018.159.111-.029.076-.051.151.065.164a2.164,2.164,0,0,0,.377-.035s.037-.046.022-.059c-.2-.227.072-.192.2-.2a1.924,1.924,0,0,1,1.073.186c.08.046.167.046.2-.052a.167.167,0,0,1,.217-.122c.145.064.348-.081.457.094a.338.338,0,0,0,.2.116c.269.046.537.081.8.1a.88.88,0,0,0,.7-.227.239.239,0,0,1,.355.012c.166.175.341.244.471.14a1.138,1.138,0,0,1,.725-.151c.348-.006.689-.012,1.036-.006.189,0,.24.023.471.21.1.075.2.058.232-.071.029-.1.087-.133.2-.133s.225-.012.341-.012c.094,0,.167.012.174.111a.181.181,0,0,0,.1.128c.312-.035.21.151.268.291a3.591,3.591,0,0,0,.37-.413c.1-.145.246-.14.406-.123s.232.088.21.216c-.022.094.036.123.145.128.355.006.71.017,1.073.035.3.017.594.041.892.082.333.041.638.046.8-.256.021-.035.051-.076.051-.076a3.935,3.935,0,0,1,.435-.029l.059.081c-.094.152.036.187.174.2a3.4,3.4,0,0,0,.341.023c.333,0,.435-.058.58-.338a.154.154,0,0,1,.124-.064s.08.052.087.088c.014.064-.029.156.014.191.087.082.269.071.3.216.029-.011.065-.011.072-.023.087-.128.283-.07.37-.122.232-.129.457-.036.681-.059.2-.017.4-.005.6-.017a.221.221,0,0,0,.13-.064c.116-.128.167-.081.217.035l.124.123c.181,0,.37-.03.551-.03.2-.006.3-.1.363-.309a1.021,1.021,0,0,0,.145.25.3.3,0,0,0,.188.1c.232-.006.457-.047.681-.058a1.6,1.6,0,0,1,.377.011c.239.035.449.058.608-.152.109-.14.275-.111.362.053a.227.227,0,0,0,.283.128c.182-.023.37-.041.551-.047s.3-.04.341-.2l.13-.123a1.856,1.856,0,0,1,.08.175c.007.017-.008.047-.008.047a.122.122,0,0,1-.021.034l.007-.022c.326.022.645.041.972.052a.333.333,0,0,0,.13-.052c.087-.181.16-.169.261-.076a.208.208,0,0,0,.319.012c.051-.047.159-.047.247-.059.109-.017.167.006.145.111-.007.028.058.093.058.093.246-.093.283.07.341.192a1.093,1.093,0,0,1,.247-.146c.058-.017.268-.07.109.1.058.018.159.064.159.064.145-.146.391-.14.507-.245.145-.129.153-.07.218.017.022.03.1.03.152.035.094.006.13-.191.217-.087s.3.128.3.3.007.2-.232.286c-.1.035-.152.18-.312.1,0,0-.066.053-.066.076,0,0,.051.07.073.07a1.109,1.109,0,0,0,.486-.07c.188-.14.145.094.282.052-.08-.157.181-.32-.007-.5a.721.721,0,0,1,.109-.175,1.154,1.154,0,0,1,.566-.128.078.078,0,0,1,.051.012c.174.146.174.146.37,0,.087.122.181.227.044.384-.1.116-.167.238-.391.227-.08,0-.174.093-.283.152.276.1.276.1.515-.1.08.169.348.233.3.46-.021.087.08.1.174.093.312-.012.623-.018.957-.023-.036-.152-.043-.268-.247-.175-.123.053-.275.175-.377.07-.08-.082-.043-.239-.028-.36a1.458,1.458,0,0,1,.123-.321,1.026,1.026,0,0,1,.073.18.671.671,0,0,1-.015.2,1.021,1.021,0,0,0,.413.029c.058-.012.282-.053.08-.175a.144.144,0,0,1-.029-.134c.044-.123-.029-.187-.137-.256-.174-.1-.087-.187.072-.25l-.007-.006c.036.029.065.082.1,0l-.014.006c.036.035.087.064.109.1.051.075.261.064.16.232-.029.053.109.152.123.239.073.337.109.349.522.111.051.128.232.215.109.378-.014.018.058.063.087.1l.094-.093c.014-.041-.007-.1.022-.128a.3.3,0,0,1,.181-.064l.116.076a2.077,2.077,0,0,1-.015.286,1.412,1.412,0,0,1,.276-.029c.189.006.254-.082.268-.215a.3.3,0,0,1,.015-.1l.108-.076c.044.006.116.046.116.082.008.058-.043.127-.036.192a.528.528,0,0,0,.087.163l.008-.006-.218.111c.189.076.406.087.435.268-.073-.006-.145-.006-.217-.011a.318.318,0,0,0,.094.035.847.847,0,0,0,.116-.03,3.1,3.1,0,0,1,.247-.355c.109-.128.225-.239.087-.4,0,0,.058-.087.087-.134a.522.522,0,0,1,.167.076c.029.029.007.088.007.088.043.157.145.133.246.11-.073.094-.152.186-.276.332.2-.041.341.1.413-.093.051-.123.087-.233-.145-.233-.007-.081-.138-.181.007-.239a.694.694,0,0,1,.348,0,.347.347,0,0,1,.174.076.522.522,0,0,1,.058.128c-.2.069-.065.221-.138.314l-.094.017.022.012a.208.208,0,0,0,.043-.024.168.168,0,0,1,.08-.011c.218-.116.319-.059.392.093.015.041.116.052.174.075-.036.052-.072.1-.138.192.145-.059.225-.1.131-.187a.509.509,0,0,0,.225-.5c-.043-.227.1-.314.37-.279.116.011.225.04.334.058.188.035.239.134.174.279h.008l-.094.082.007-.012c-.08-.035-.225-.087-.225-.087.051-.117.029-.169-.116-.163-.058.006-.152.023-.174.053a.792.792,0,0,0-.051.215c.145.029.21.076.145.192l.022.03c.08.075.312-.047.3.11-.007.111.065.146.123.2.094.111.159.052.21-.029a.23.23,0,0,0,.021-.093c0-.146.065-.2.181-.175.239.058.413-.076.6-.14l-.007-.006c-.073.279-.073.279-.427.314.043.034.087.075.138.116a.155.155,0,0,0,.247-.012c.087-.146.123-.075.217-.006a.53.53,0,0,0,.377.111c.29-.105.254.075.326.18a.412.412,0,0,1,.015-.163.4.4,0,0,1,.094-.082,2.436,2.436,0,0,0,1.174,0c.079-.018.174.058.261.075a.418.418,0,0,0,.232-.011.234.234,0,0,0,.073-.216c-.015-.047-.131-.064-.2-.093l-.043-.006c-.109.012-.21.017-.319.023v-.408c.225.384.573.3.885.279.217-.017.21-.023.225.175,0,.053.1.146.1.146.167-.058.246.024.355.07.254.1.514-.029.769-.035a.176.176,0,0,0,.115-.081.617.617,0,0,1,.022-.379c.014-.093-.13-.192-.2-.291a.128.128,0,0,1-.036-.093.18.18,0,0,1,.065-.123l.109.024a.4.4,0,0,1,.275.343c.007.157.08.233.341.233-.326.081-.413.169-.348.308.022.047.159.116.159.116.224-.169.341.041.522.064a1.216,1.216,0,0,0,.014-.582l-.007.006c.116-.006.254.117.312-.1.037-.14.232-.094.363-.094.189.006.124.146.16.227a1.017,1.017,0,0,1-.131.006l-.043-.023c0-.006.029.005.051.017h.116a.883.883,0,0,0,.638-.076c-.072-.035-.167-.11-.2-.093-.232.093-.225-.024-.232-.146a.158.158,0,0,0-.058-.11.463.463,0,0,0-.1-.059.2.2,0,0,1,.152-.111,1.233,1.233,0,0,1,.29-.04c.428.017.442.035.37.39l-.014.023a.1.1,0,0,0,.007-.029.1.1,0,0,1,.029.023.859.859,0,0,1,.116.221,2.246,2.246,0,0,0,.688-.076c.065-.011.109-.116.145-.186,0,0-.043-.064-.036-.093.029-.1.036-.244.109-.273a.877.877,0,0,1,.406.011s.094.093.08.134a.767.767,0,0,1-.131.216.42.42,0,0,1-.065.005l-.015.018.08-.029a1.628,1.628,0,0,0,.189.058.605.605,0,0,1-.159.088.58.58,0,0,0-.254.069,1.486,1.486,0,0,0,.21.035c.2,0,.4-.012.6-.006.131,0,.232-.012.21-.151,0,0,.043-.064.073-.07a.309.309,0,0,1,.094.047c.109.117.094.111.21.017a.469.469,0,0,1,.225-.069c.108-.011.145-.058.152-.14s-.058-.117-.167-.111a.421.421,0,0,1-.123-.006.4.4,0,0,1-.065-.07.134.134,0,0,1,.1-.1c.246,0,.486.006.768.012a1.078,1.078,0,0,0-.13.326c.008.093.094.187.16.308.109-.093.174-.163.253-.233.087.093.116.245.312.117l-.007-.006c.029.081.072.169.2.128.239-.064.312.029.319.192a.491.491,0,0,1,.007.081c.073.041.146.075.146.075a.475.475,0,0,0,.174-.081,1.151,1.151,0,0,0,.029-.338c-.014-.151.022-.238.254-.227.058,0,.153-.087.189-.151a.61.61,0,0,0,.043-.233c.247.168.1.3.014.437a.232.232,0,0,1-.08.07c-.1.041-.246.07.008.1a.158.158,0,0,1,.1.111.841.841,0,0,1,.015.233l-.13-.035-.007.03h.137l.094-.042c-.022-.169.029-.349-.145-.477a1.343,1.343,0,0,1,.21-.017.432.432,0,0,1,.123.058c-.108.151.014.157.138.2.051.018.029.152.065.221,0,0,.1.1.137.093a.353.353,0,0,0,.2-.116c.014-.018-.051-.088-.087-.128s-.152-.07-.145-.087a1.892,1.892,0,0,1,.152-.32l.138.023c.268.344.268.344.645.082l.087-.018a.458.458,0,0,1-.043.134.2.2,0,0,0,.312-.035.909.909,0,0,0,.123-.21,1.552,1.552,0,0,0,.036-.273c-.3.158-.3.158-.464-.058.16-.047.326-.094.537-.152-.138-.1-.239-.175-.341-.25.2-.129.392-.262.594-.4.044.093.087.18.131.261.13.228.1.28-.218.414-.051.023-.058.128-.087.2-.037.088.043.088.116.106.152.035.08-.094.138-.128l.1-.029c.029.11.058.215.094.36a1.345,1.345,0,0,1,.152-.122c.094-.076.2-.093.2.041-.007.332.406.314.6.478.087.076.225-.024.276-.111a.769.769,0,0,1,.479-.39.7.7,0,0,0,.492-.325c.029.127.051.256.08.384,0,0,.015.116.051.145.073.058.174.1.2-.047a.951.951,0,0,1,.065-.122l.073-.029a.129.129,0,0,1,.065.07c.007.076-.029.151.109.191.2.064.253.035.326-.226l-.008.005c.123.128.232.256.486.128a.466.466,0,0,1,.3.023c.37.151.363.151.667-.07a.909.909,0,0,1,.29-.134.239.239,0,0,1,.3.123c.094.215.1.209.376.163-.021-.047-.051-.1-.08-.152.16-.011.312-.023.464-.035a.983.983,0,0,1,.015.291.632.632,0,0,1-.13.216c.239.035.239.035.3-.1s.1-.262.167-.42a1.834,1.834,0,0,1,.239.169c.1.1.123.2-.065.279a.621.621,0,0,0-.109.07,1.441,1.441,0,0,0,.1.134c.384-.088.79.023,1.116-.192,0,0,.021.029.036.046a.27.27,0,0,0-.029-.029l-.131-.058c-.131-.058-.16-.14-.058-.192.131-.07.276-.128.406-.192.167.192.174.192.7.145a1.494,1.494,0,0,1-.159-.023l-.065-.029s.029-.076.051-.082c.131-.023.261-.035.384-.047a1.039,1.039,0,0,0,.667-.163l.087-.023a.726.726,0,0,1,.138.064l-.044.082c-.08.058-.167.11-.319.215.232,0,.348,0,.435-.128.051-.076.138-.064.2.018a.989.989,0,0,0,.065.081c.066-.011.095-.064.131-.122l.051-.087c.145.012.29.024.42.047a.674.674,0,0,1,.138.053c.029.22.188.15.312.15.015-.005.029-.034.044-.052-.189-.093.036-.169.022-.221-.051-.239.108-.187.174-.076.1.163.29.123.435.169.116.035.254.024.319.134.036.064.073.128.109.2-.094.006-.2.046-.276.018-.109-.035-.159-.041-.174.058s.043.146.167.146c.384.005.775-.006,1.16.023a1.267,1.267,0,0,0,.732-.174,2.97,2.97,0,0,1-.457.006c-.138-.018-.319.087-.413-.076l-.152.006a2.7,2.7,0,0,0-.312.076c-.087-.1-.043-.187.044-.262l-.007.006a3.4,3.4,0,0,0,.413.053l.188-.053c.029-.256.261-.186.442-.2a1.3,1.3,0,0,0,.152-.029c.037-.227.232-.192.392-.2a.852.852,0,0,0,.6-.186l-.007-.006a.121.121,0,0,0,.167.11c.2-.041.4.088.6-.012a1.914,1.914,0,0,0,.188.053c.087.017.174.017.3.029-.007.041-.021.1-.029.163-.015.11-.036.216.152.232.152.018.109.1.087.187-.007.029.058.082.1.093,0,0,.131-.018.138-.041.116-.262.377-.2.6-.192.2.012.4.093.536-.1l.058-.029c.137.081.275.169.413.256a.652.652,0,0,0,.051.093c.065.093.094.25.29.186.138-.046.036-.157.036-.244,0-.041.065-.087.094-.134a.665.665,0,0,0,.123.082,2.227,2.227,0,0,1-.043.407c-.014.082-.232.169-.333.146a1.5,1.5,0,0,0-.2-.023c-.058.093-.094.2-.05.245a.525.525,0,0,0,.282.111c.094.018.2-.012.29.012a.188.188,0,0,1,.108.082c.109-.006.152-.065.225-.106a.336.336,0,0,1,.152-.011c.319.052.319.052.377-.193l.007-.07s-.014-.017-.036-.047c-.174-.006-.319.215-.521.094,0,0,.007,0,.007.006-.145-.141-.246-.28-.043-.443.152.023.3.052.457.07a.274.274,0,0,0,.1-.012.118.118,0,0,0-.029-.152.367.367,0,0,0-.13-.022c-.189,0-.312.006-.479.006.1-.216.174-.408.276-.588.036-.058.137-.093.21-.14a.616.616,0,0,1,.021.227,1.677,1.677,0,0,1-.145.279.215.215,0,0,0,.3,0c.1-.111.145-.111.261-.023a.773.773,0,0,0,.275.058c-.043.093-.087.186-.138.279l-.029.07c.116.006.232.006.34.012a.284.284,0,0,0,.312-.18c.116-.256.138-.251.479-.233.072.005.145.005.217.005.268-.005.268-.005.312.228a.421.421,0,0,0,.072.128c.109-.018.254-.012.232-.128a.115.115,0,0,1,.094-.163.772.772,0,0,1,.3-.024c.036.018.021.14.036.209-.043.024-.08.047-.124.071a.258.258,0,0,1,.051.035c.022-.035.043-.076.043-.076.225.1.225.1.275-.052a.854.854,0,0,0,.036-.111.2.2,0,0,1,.2-.063c.036.006.073.07.073.07-.029.1-.087.169.036.2.094.023.16.157.3.046.036-.023.152.006.225.029.1.035.188.012.2-.064,0,0-.087-.116-.145-.128s-.159.029-.246.029a.546.546,0,0,1-.217-.047c-.015-.006,0-.087,0-.087.072-.1.145-.123.239-.076a.322.322,0,0,0,.2.012.265.265,0,0,1,.34.134,2.951,2.951,0,0,0,.3.332c.094-.116.153-.192.218-.268,0-.006-.007-.006-.007-.006.015.1.029.221.225.174.152-.035.232-.093.13-.227a.1.1,0,0,1-.014-.07.376.376,0,0,1,.065-.093.2.2,0,0,1,.109.012,1.241,1.241,0,0,1,.094.146c.043.059.073.14.138.163a1.755,1.755,0,0,0,.369.053s.029-.064.065-.075a.227.227,0,0,1,.13-.018c.174.216.406.128.638.1-.123-.326-.073-.378.406-.466l-.015-.005c.225.163.015.314-.057.471a1.675,1.675,0,0,0,.739.029,2.007,2.007,0,0,1,.674-.011,7.6,7.6,0,0,0,1.45.047c.123,0,.246.017.37.011a.649.649,0,0,0,.246-.093,3.2,3.2,0,0,0-.747-.063,3.424,3.424,0,0,1-.79-.111c-.051-.012-.138-.035-.16-.018-.2.169-.428-.058-.63.035,0,0-.073-.052-.109-.081.043-.03.1-.087.13-.082.37.128.761-.123,1.139.023l.079-.017c.225.023.333-.146.515-.192.1.228.347.064.514.157-.036-.145-.109-.262-.087-.367s.138-.186.21-.274c.073.117.138.239.21.35s.167.239.247.355c.348-.157.45-.128.79.221.043-.076.065-.181.145-.21.058-.029.181.023.275.047-.072.082-.145.169-.225.267h.486c-.094-.093-.181-.174-.268-.262l.109-.122c.239.128.413-.046.609-.087.333-.076.362-.146.377-.454,0-.03.051-.065.08-.094a.666.666,0,0,0,.108.075,4.976,4.976,0,0,1-.123.646c-.022.07-.123.116-.21.187a1.1,1.1,0,0,0,.181.087c.2.041.225.023.239-.14.022-.239.065-.262.363-.192.217.052.217.052.261-.134,0,0,.015-.04.022-.064.108-.465.108-.465.7-.437a.806.806,0,0,1,.406.117c-.2-.006-.413-.012-.623,0s-.268.069-.261.279.044.239.29.239c.21,0,.42.093.623-.047.03-.023.152.029.225.058.109.035.175.041.232-.064.094-.168.138-.174.275-.07a.162.162,0,0,1,.043.064c.174.151.247.058.319-.041l-.015.006c.087.023.167.041.254.058.145.035.26.052.348-.1.073-.122.269-.168.319-.331.037-.117.232-.139.406-.076l-.21.07a.45.45,0,0,0,.377.437.457.457,0,0,0,.16-.058l.043-.122c.189-.087.088-.157-.021-.233a1.12,1.12,0,0,1-.138-.127,1.642,1.642,0,0,0,.247-.024,1.875,1.875,0,0,0,.2-.087c-.043-.053-.065-.135-.13-.152a.508.508,0,0,0-.514.006.619.619,0,0,1-.283.058.194.194,0,0,1-.123-.07.359.359,0,0,0-.4-.2,1.174,1.174,0,0,1-.493-.018c-.145-.035-.377.087-.478.029-.246-.134-.29.076-.457.123-.043-.047-.094-.1-.145-.146-.109-.092-.21-.162-.348-.023-.13.122-.275.18-.4-.018-.014-.022-.065-.022-.065-.022-.108.256-.573.011-.587.325-.312-.268-.312-.268-.3-.483-.392.006-.587.244-.827.507a.47.47,0,0,0-.021-.122,1.477,1.477,0,0,1,.13-.227.912.912,0,0,0-.312-.076c-.2.035-.413.169-.594.145a3.244,3.244,0,0,0-.609-.128,1.743,1.743,0,0,0-.427-.006,2.828,2.828,0,0,1-.8.25c-.109.25-.319.093-.515.093.044-.122.08-.228.123-.343a.382.382,0,0,0-.334.093c-.275.18-.347.157-.457-.116-.021-.052-.05-.1-.08-.169q.218-.052.413-.105h-.007a1.761,1.761,0,0,0,.761.017c.137,0,.283-.005.42-.005l.044.011c.188-.006.384-.017.58-.011s.392.017.587.017a2.4,2.4,0,0,1,.935.041.522.522,0,0,0,.167.041c.667-.035,1.334-.081,2-.1.174-.006.341.064.53.052.283-.011.573.023.863.029a1.465,1.465,0,0,0,.507-.053,4.291,4.291,0,0,1,.9-.11.456.456,0,0,1,.253.012.611.611,0,0,0,.442.011,3.487,3.487,0,0,1,.558-.005c.587-.012,1.174-.041,1.769-.046a16.122,16.122,0,0,1,1.914.046,4.13,4.13,0,0,1,1.261.1l.087.006a10.909,10.909,0,0,1,1.747-.1,6.42,6.42,0,0,1,.884.035c.188,0,.37-.052.551-.063a.718.718,0,0,1,.6.123.5.5,0,0,0,.348.023.2.2,0,0,0,.087-.209.343.343,0,0,0-.232-.117c-.37-.029-.739-.035-1.109-.052,0-.024-.007-.047-.007-.076a4.32,4.32,0,0,1,.609-.082,7.684,7.684,0,0,1,.8.087c.116.018.124.064.124.169a.816.816,0,0,0,.174.4.432.432,0,0,0,.232.082,1.784,1.784,0,0,1,.74.162.891.891,0,0,0,.159.012c.188-.006.435.1.471.226a.6.6,0,0,1,.007.227c-.087-.006-.181-.012-.268-.023s-.138-.041-.21-.058c-.218-.041-.232-.035-.261.151l-.014.1a.61.61,0,0,0,.007.152c-.326-.268-.674-.146-1.029-.128.138.046.282.081.268.232-.015.18.13.215.3.2a2.082,2.082,0,0,0,.333-.058c.058-.018.109-.076.174.012a.494.494,0,0,0,.5.122.445.445,0,0,1,.2.052l-.007-.006a.068.068,0,0,0,.021.006c.153.035.385.047.406.1.05.117-.015.262-.029.4a.653.653,0,0,0,0,.122c.261-.058.522-.116.682.192-.225.006-.435.023-.638.023-.124.006-.232.006-.283.116s-.138.146-.239.024c0,0-.094-.065-.109,0s-.014.128.022.157a.546.546,0,0,0,.2.041c.275.018.551.041.819.047.131.006.189.052.2.145.007.058.007.117.014.175.015.2-.058.25-.282.2a2.175,2.175,0,0,0-.333-.064c-.2-.012-.253.041-.261.2-.007.2-.007.209-.239.2-.159,0-.319-.006-.478.006-.036,0-.1.047-.1.069,0,0,.058.1.087.1a8.042,8.042,0,0,0,1.449.1.284.284,0,0,1,.189.029.153.153,0,0,1,.014.157.216.216,0,0,1-.159.07.3.3,0,0,0-.319.006,1.758,1.758,0,0,1-.986.163h-.3l-.05.047c0,.029,0,.081.021.094.08.034.167.052.239.087.043.018.1.064.1.093a.129.129,0,0,1-.094.1,2.305,2.305,0,0,1-.979.011.19.19,0,0,1-.094-.081c-.014-.065.022-.094.058-.123.094-.058.181-.123.341-.238-.362-.012-.609-.175-.877-.024a.291.291,0,0,1-.094.024c-.319-.164-.558.052-.827.041-.051,0-.094.046-.131.115.051,0,.109.006.109.006.188-.041.275.012.29.123s-.087.134-.2.128c-.131,0-.261-.011-.391-.023-.348-.035-.7-.076-1.131-.123a.959.959,0,0,0,.7.3,3.046,3.046,0,0,1,.594.082.828.828,0,0,1-.957.5,2.741,2.741,0,0,1-.558-.215l-.007-.07c.007-.175.21-.2.348-.274-.145-.1-.232.006-.333.035-.152.047-.289.053-.362-.087-.1-.216-.3-.21-.536-.2a2.6,2.6,0,0,1-.638.006,10.34,10.34,0,0,0-1.406-.1c-.217-.012-.427.012-.637.012a.347.347,0,0,1-.392-.327c0-.094.029-.18.036-.274.007-.127-.094-.2-.246-.151-.123.041-.2.076-.29-.029l-.109.041c-.051.017-.131.052-.131.052-.21-.209-.391-.047-.536.029-.167.087-.007.233,0,.355a.437.437,0,0,0,.051.063c.029-.1.058-.2.109-.349.138.181.152.4.442.378l.073.07a.533.533,0,0,1-.051.094,1,1,0,0,1-.282.012c-.1-.006-.2-.03-.3-.041-.2-.024-.225,0-.225.181,0,.023.029.058.014.064-.065.047-.145.127-.218.123-.123-.006-.145-.094-.08-.18a.191.191,0,0,0,.029-.065,8.37,8.37,0,0,0-1.131-.146l-.007-.064a1.033,1.033,0,0,1,.167-.057c.326-.047.37-.082.413-.338a.6.6,0,0,0-.123-.093s-.08.046-.094.076l.022.1c-.022.128-.072.14-.225.064-.051-.023-.094-.052-.152-.082-.094.117-.181.216-.29.344-.043-.041-.094-.07-.1-.1-.022-.145-.145-.169-.283-.145a.685.685,0,0,0-.3.1c-.145.111-.2.117-.261-.046-.015-.035-.13-.052-.2-.076l.007.006c.007-.035,0-.076.021-.1.182-.2.182-.244-.1-.256a5.962,5.962,0,0,0-1.16.046c.181.042.363.076.565.116-.065.152-.123.286-.188.449-.21-.14-.529.023-.7-.2l-.065-.006c-.254.216-.573.052-.855.087a3.194,3.194,0,0,1-.856-.018c-.224-.041-.4.064-.616.053a2.541,2.541,0,0,0-1.146-.006c-.044.017-.138-.03-.188-.064a.345.345,0,0,0-.355-.035c-.2.1-.254.023-.3-.111-.007-.017-.036-.029-.065-.046-.058.064-.116.175-.188.187a4.856,4.856,0,0,1-.645.058l-.087-.064a.163.163,0,0,1,.073-.11,1.464,1.464,0,0,1,.282-.064c-.181-.141-.442.011-.573-.18a2,2,0,0,1,.2-.042c.072-.005.159.03.217.006.138-.047.261-.158.4-.163.094,0,.137.2.319.168.246-.046.239.1.3.269.072-.292.3-.2.485-.2l-.007-.006a.158.158,0,0,0,.21.035c.137-.059.268-.075.347.081.058.105.138.116.225-.017s.211-.127.261.012c.043.11.109.121.218.11.239-.03.5.011.674-.2.087-.1.413-.035.522.088.131.151.145.156.232.023a.33.33,0,0,1,.319-.134c.188-.006.377-.012.558-.029.036,0,.058-.065.087-.094a.264.264,0,0,0-.094-.058c-.3-.024-.6-.047-.906-.059-.232,0-.464-.134-.71-.017l-.087-.059c-.138-.092-.254-.139-.348.053a.124.124,0,0,1-.225-.017c-.08-.152-.16-.076-.24,0v-.006a1.252,1.252,0,0,0-.225-.1s-.116.023-.138.052.087.133-.073.116a7.508,7.508,0,0,0-.957.052c-.115,0-.282.011-.326-.04-.21-.211-.515-.111-.761-.176-.116-.029-.282.069-.435.111-.029-.035-.065-.081-.1-.128-.036-.063-.218-.1-.109-.187a.671.671,0,0,1,.341-.086c.036-.006.08.07.131.074a.631.631,0,0,0,.138-.046c.065-.052.065-.087-.036-.11,0,0-.043-.053-.065-.082a.409.409,0,0,0,.087-.052c.24-.012.435-.006.652-.006-.014-.146-.283-.187-.181-.344,0,0-.116-.023-.123-.011-.029.046-.036.11-.065.157l-.131.059c-.058-.018-.137-.059-.145-.1a.862.862,0,0,1-.007-.239c.022-.233.08-.279.369-.233.138.024.247.024.283-.086.014-.064-.043-.152-.087-.216a.534.534,0,0,0-.188.029c-.087.029-.174.081-.261.116-.065.023-.152.064-.2.047-.24-.094-.515-.047-.761-.123a.874.874,0,0,0-.181-.018c-.152.134-.254.146-.37.064a.18.18,0,0,0-.254.011h-.16c-.174-.064-.34-.151-.485.029a.24.24,0,0,1-.065.024c-.2-.146-.471-.035-.667-.128a1.058,1.058,0,0,0-.971.024l.014-.012c-.058-.023-.116-.052-.167-.076l.007.006a.154.154,0,0,0-.022-.035.535.535,0,0,0-.079.035.006.006,0,0,0,.007-.006,1.045,1.045,0,0,1-.094.082l.007-.006a1.232,1.232,0,0,0-.819-.029.326.326,0,0,1-.2-.012c-.348-.11-.457-.075-.689.274a.476.476,0,0,0-.043-.14c.073-.186-.043-.209-.159-.215-.471-.011-.942-.011-1.421-.011-.247-.006-.319.076-.29.279a2.976,2.976,0,0,1,.051.512c0,.07-.21.152.008.221-.044.07-.094.146-.145.221l-.021-.006.014.006a2.282,2.282,0,0,1,.34-.023c.145,0,.1.075.073.146l.007-.006v.082l-.007-.006a1.426,1.426,0,0,0-.275.035.273.273,0,0,0-.173.152c.145,0,.3-.012.442,0,.2.012.414.017.45.232l.007-.005c-.123.011-.189-.163-.341-.07a.276.276,0,0,0-.153.361c.007.029,0,.064.007.1-.138.017-.268.029-.4.035-.239.011-.478.011-.718.011-.21.006-.457.076-.5-.2a.453.453,0,0,0-.159,0c-.043.022-.058.082-.094.116a.191.191,0,0,1-.08.035c-.065-.018-.1-.059-.1-.082a1.724,1.724,0,0,1,.1-.437c.029-.053.2-.053.3-.087.037-.005.08-.04.08-.058,0,0-.029-.076-.058-.082a2.764,2.764,0,0,0-.377-.046c-.131-.006-.2.064-.138.157.174.239-.058.425-.138.624a.381.381,0,0,1-.145.052.147.147,0,0,1-.094-.093,1.542,1.542,0,0,1,0-.262s-.066,0-.073.019c-.218.326-.218.314-.7.262-.2-.023-.4-.006-.442-.221,0-.018-.094-.024-.094-.024-.065.03-.1.076-.094.1.051.135.007.176-.174.187-.131.006-.131-.023-.16-.1-.065-.221-.174-.285-.391-.232-.08.017-.145.064-.225.087l-.072-.035c-.123-.047-.247-.1-.37-.146a.224.224,0,0,0,.036-.076c.428-.035.834-.058,1.247-.086a.693.693,0,0,0,.159-.018c.065-.029.145-.07.145-.07a.155.155,0,0,0-.108-.163.24.24,0,0,0-.181-.006c-.094.122-.2.111-.363.082a2.955,2.955,0,0,0-.536.029.592.592,0,0,1,.021-.222c.065-.1.181-.024.268-.018a.3.3,0,0,0,.123-.022l.058-.047-.036-.082c-.232.006-.283-.169-.413-.256a.966.966,0,0,0-.363-.157c-.152-.035-.21.057-.167.18s.152.116.261.134l-.007-.006c-.029.035-.087.1-.087.1-.138-.059-.3.1-.42-.029l-.007.005s.08-.081.08-.116a.827.827,0,0,0-.058-.221c-.073.046-.146.093-.218.134,0,0-.051.018-.108.041.014-.1.021-.2.036-.379-.138.187-.217.321-.427.285l-.015-.011.007.006a.39.39,0,0,0,.058.093c.109.1.094.181-.08.227l-.1.023.073.058c.138.006.232.076.21.169s-.152.128-.283.082a.339.339,0,0,0-.115-.024c-.029.006-.08.047-.08.07a.3.3,0,0,0,.036.1c.159,0,.319-.017.333.116a.923.923,0,0,1-.087.355c-.014.064-.014.151-.072.192h-.225c.029-.041.065-.082.095-.122,0,0,0-.011-.008-.011.008.006.008.011.008.011a.1.1,0,0,1-.022-.005c-.384-.117-.391-.117-.239-.431.051-.094.073-.169-.014-.25-.116-.106-.2-.006-.3.005a1.31,1.31,0,0,1-.427-.011c-.124-.024-.087-.123-.029-.164a1.922,1.922,0,0,1,.319-.156c-.058-.2-.2-.158-.355-.076a1.746,1.746,0,0,0-.014-.274l-.094-.046a.271.271,0,0,1-.058.064c.058.1.123.174.174.25-.174.087-.333.14-.478-.035,0,0-.131-.059-.2-.082-.022.07-.051.146-.073.215a.2.2,0,0,0-.268-.07,1.343,1.343,0,0,1-.348.053c-.036,0-.073-.006-.108-.006-.29-.1-.015-.256-.044-.379-.276-.093-.276-.093-.442.1a.648.648,0,0,1-.181.145c-.058.041-.152.123-.152.123-.188-.082-.021-.134.014-.2a.281.281,0,0,0,.029-.134c-.014-.076-.072-.122-.181-.1-.138.034-.282.151-.217.215.109.1-.167.333.174.338.058,0,.115.075.167.115a.686.686,0,0,1-.152.088c-.167.023-.1.092-.051.133.124.1.2.063.283-.11a3.8,3.8,0,0,1,.268-.419,1.171,1.171,0,0,1,.167.127c.145.152.232.076.312-.052a.585.585,0,0,1,.08.006.685.685,0,0,0,.646.017.5.5,0,0,1,.08.082c.131.157.094.256-.13.279a6.2,6.2,0,0,1-.747.018.447.447,0,0,0-.348.064.34.34,0,0,1,.051.051,4.864,4.864,0,0,1,1.123.03c.341.046.341.029.435-.233a.294.294,0,0,0,.022-.064l.007-.029c.189.134.036.285.022.431a.459.459,0,0,1-.08.152.217.217,0,0,1-.391.058c-.043-.041-.051-.093-.094-.175-.058.1-.094.157-.123.216l.007-.006c-.08.228-.269.3-.551.291-.355-.011-.7.012-1.058.012-.218.005-.261-.1-.232-.251l.014-.011-.014.017a1.136,1.136,0,0,1-.254.123c-.145.029-.312.017-.456.052-.21.053-.189-.093-.261-.163-.2-.187-.348-.158-.515.093l.007-.005c-.065-.035-.13-.07-.2-.1v.005c.072-.052.138-.14.022-.163a4.16,4.16,0,0,0-.667-.052.169.169,0,0,0-.094.128c.007.04.137.093.137.093.2-.181.21.018.29.076a.236.236,0,0,1,.036.052c-.319.046-.631.07-.971.1-.022-.094-.044-.18-.065-.274-.007-.041.065-.134-.073-.111a.28.28,0,0,0-.174.117.885.885,0,0,0-.008.291,2.385,2.385,0,0,0-.2-.146c-.036-.023-.087-.052-.087-.052-.21.04-.377.087-.58.134a1.691,1.691,0,0,0-.073-.291c-.021-.035-.108-.047-.166-.07v.1c.014.14.007.238-.232.262-.188.017-.094.122-.036.2.007.012-.022.047-.036.07a.212.212,0,0,0-.065-.011c-.261-.291-.457-.332-.935-.221-.21.046-.21.046-.232-.134v-.1a3.758,3.758,0,0,0-.218-.576,1.235,1.235,0,0,1-.369,1.025c-.174-.012-.087-.244-.348-.233a.378.378,0,0,0-.384.285c-.036-.116-.051-.156-.051-.156-.043-.158-.123-.164-.232-.1l-.2.1c-.094-.087-.268-.146-.21-.3a.67.67,0,0,1,.051-.093c-.022-.006-.044-.006-.065-.012C3196.695,2798.542,3196.7,2798.577,3196.709,2798.617Zm-13.475-1.979h.029a.087.087,0,0,1-.021.006v-.012Zm52.139-1.13.008,0,.014.011A.083.083,0,0,0,3235.373,2795.508Zm-43.68.746a.077.077,0,0,0-.021-.006h.007a.09.09,0,0,0,.021-.011C3191.7,2796.242,3191.693,2796.248,3191.693,2796.254Zm17.651-.006a.175.175,0,0,0-.022-.034l-.051.011.051.012.036.006C3209.358,2796.248,3209.351,2796.248,3209.344,2796.248Zm25.377-.005.014.035.029.012a.291.291,0,0,1-.051-.042.381.381,0,0,0-.073.006C3234.67,2796.248,3234.692,2796.248,3234.721,2796.242Zm-45.906.5-.021.012.014-.006.094-.041Zm12.323.012a.5.5,0,0,0,.123.064l.087-.047-.065-.029c-.051,0-.1.012-.159.018-.022-.065-.058-.047-.058-.047a.823.823,0,0,1-.312.006,1.114,1.114,0,0,0-.137-.018l-.029.052a.688.688,0,0,1,.087.058c.152.006.275.053.34-.063C3201.058,2796.749,3201.094,2796.755,3201.138,2796.755Zm-1.827,1.309v-.017l.008.023c-.123-.063-.24-.116-.363.07C3199.1,2798.111,3199.2,2798.088,3199.311,2798.064Zm-15.367-.7.007.006c-.253-.053-.253-.053-.355.145-.159.065-.137.164-.072.251l.152.052c.051-.042.123-.117.109-.151-.036-.064-.131-.1-.2-.157C3183.705,2797.465,3183.821,2797.412,3183.944,2797.366Zm26.378-.932c.022-.11.051-.221.065-.326l-.08-.041c-.007,0-.043.035-.043.035.014.122.043.227.065.332-.188.151-.21.227-.08.315a.268.268,0,0,0,.08.023c.029-.023.015-.052.015-.087C3210.329,2796.6,3210.329,2796.516,3210.322,2796.434Zm29.879-.518c-.014-.07-.022-.2-.051-.209-.167-.012-.181.1-.217.2.1,0,.188,0,.268.006l.087-.006.094-.011c.043-.03.029-.047.029-.047a.3.3,0,0,0-.146.023Zm-63.643,1.886c.014-.071.014-.151-.094-.146a.262.262,0,0,0-.182.111s.036.092.051.139l.2-.087.036-.023a.323.323,0,0,1,.043.029l.094.029.022-.023a.294.294,0,0,0-.087-.029Zm32.452-1.072c-.051-.087-.094-.168-.153-.285a1.171,1.171,0,0,0-.181.192c-.065.111-.007.181.145.163a1.276,1.276,0,0,0,.2-.075c.029.064.058.134.174.07a.072.072,0,0,0,.029-.041.4.4,0,0,0-.174-.018Zm-5.234-.472c-.015-.081.051-.2-.16-.168-.079.018-.167.012-.254.029a.451.451,0,0,0-.137.082.355.355,0,0,0,.13.063c.138.006.282-.006.42-.011a.441.441,0,0,0,.08-.006l.217-.034-.021-.053a1.126,1.126,0,0,0-.218.053A.413.413,0,0,0,3203.777,2796.259Zm-.21,1.846h-.021l.014-.012a.859.859,0,0,0,.58.034l.073-.069c-.007-.029-.058-.07-.087-.064C3203.936,2798.023,3203.755,2798.064,3203.566,2798.1Zm26.559.314c.036.035.08.111.116.111.225-.017.449-.046.674-.07l-.007-.029c-.261-.006-.522-.006-.79-.006l-.073-.011-.073.017.087.018Zm-3.407-1.589c-.022.075-.094.175.058.191a6.814,6.814,0,0,0,.688.059.151.151,0,0,0,.094-.041c-.268-.087-.6.011-.848-.2l-.044-.04-.021.035Zm-37.331,1.234c.036-.25.283-.3.536-.349a1.71,1.71,0,0,0-.442-.076c-.145-.012-.261,0-.188.169.029.064-.007.151-.007.227,0,.012.072.018.072.018l.363.058c.007-.023.007-.047.014-.07C3189.62,2798.047,3189.5,2798.058,3189.388,2798.064Zm-.616-.587h.007c-.058-.012-.13-.041-.167-.024-.08.035-.188.094-.2.151-.022.093.036.18.188.187l.392.034c-.051-.123-.08-.227-.131-.332Zm15.121-.787c.094.012.174,0,.16-.1a.112.112,0,0,0-.037-.035.305.305,0,0,0-.116.1v.035s-.1-.1-.145-.146c-.1-.11-.152-.11-.253.006a1.366,1.366,0,0,0-.1.169c-.036-.053-.058-.094-.087-.128-.08-.087-.145-.058-.174.029-.065.157-.014.2.167.222.131.006.254.035.377.029S3203.965,2796.854,3203.893,2796.69Zm-12.033.734c-.036-.07-.065-.151-.2-.146s-.116.07-.145.14-.13.152-.181.234c0,0,0,.093.037.117.21.122.565,0,.6-.2,0,0-.08-.1-.124-.146Zm22.6-.542a1.416,1.416,0,0,0,.065-.239s-.007-.134-.043-.145a.371.371,0,0,0-.24,0c-.065.029-.094.117-.159.157a.683.683,0,0,1-.174.035c-.109-.186-.312-.11-.486-.174.029.059.043.082.043.082,0,.064.124.164.182.168a1.309,1.309,0,0,1,.319.082.687.687,0,0,0,.493.029.333.333,0,0,1,.058.006l.087-.035-.021-.052-.044.023A.379.379,0,0,0,3214.461,2796.882Zm-34.207.716.008-.005c-.123-.006-.246-.011-.377-.011-.058,0-.174.005-.181.029a.479.479,0,0,0-.036.262.511.511,0,0,0,.218.07,2.44,2.44,0,0,0,.493-.117.885.885,0,0,1,.732.029c.159.082.275-.058.414-.029a.409.409,0,0,0,.057-.145l-.094-.087c-.181.005-.355-.146-.558-.006l-.182-.012A.409.409,0,0,0,3180.254,2797.6Zm32.336-.494-.014-.018s.014.018.014.024c-.087-.029-.159-.152-.268-.006a.193.193,0,0,1-.312.035c-.087-.064-.2-.058-.239.041a.29.29,0,0,0,.029.245.272.272,0,0,0,.232.058.31.31,0,0,1,.362.169c.116.163.051.256-.181.261-.138.006-.283.006-.42,0-.1-.005-.21-.017-.225.1s.087.115.2.093a.78.78,0,0,1,.138.006c.051.169.116.093.2.035s.188-.093.275-.146c.051-.035.116-.069.138-.116a.4.4,0,0,0,.021-.2c0-.175.116-.216.3-.221.138,0,.283-.023.421-.035l-.007.006c-.109-.088-.3-.064-.37-.209-.051-.1-.1-.041-.145.041-.094.168-.269.185-.522.058C3212.41,2797.3,3212.606,2797.3,3212.591,2797.1Zm1.74.827c.094-.245.2-.489.282-.74.044-.145-.05-.221-.232-.2a.279.279,0,0,0-.261.157c-.021.052-.058.1-.1.187-.145-.315-.145-.315-.536-.274.029.122,0,.291.087.355a1.179,1.179,0,0,0,.457.11c-.123.041-.268.094-.479.164.1.035.145.058.189.07.1.029.137.07.087.157-.116.187-.116.187.137.187a1.374,1.374,0,0,0,.384-.029c.116-.035.073-.1-.014-.145Zm-13.12.157.007.005c-.167.012-.246-.186-.449-.1l-.051-.04a.739.739,0,0,1,.153-.164c.014-.017.094.012.138.029a1.2,1.2,0,0,1,.145.117c.022-.14.022-.25.044-.355a.493.493,0,0,1,.115-.064s.065.052.065.082c.007.192,0,.39,0,.606.406-.176.326-.461.326-.682-.007-.168.065-.2.21-.226a2.949,2.949,0,0,0,.138.343c.007.018.123.006.181-.006.022-.005.036-.052.051-.081-.159-.047-.123-.291-.377-.25-.138-.1-.283.029-.406.011a.564.564,0,0,0-.435.006c-.2-.192-.282.029-.42.07,0,0-.1-.017-.152-.029a7.62,7.62,0,0,0-1.037-.058,1.017,1.017,0,0,0-.4.005,1.212,1.212,0,0,1-.747.011s-.138.018-.16.053c-.051.081.036.076.108.087.145.024.327.029.29.209-.014.07-.051.152.065.163.145.012.152-.076.152-.163,0-.035.051-.075.073-.116a.7.7,0,0,1,.131.1c.123.169.138.18.3.006.123-.122.2-.035.3-.018l-.008-.006c-.116.129-.116.14.022.151s.1.082.094.146c-.014.2.007.221.225.233.08.005.167-.006.253-.006.253,0,.253,0,.282-.2.022-.181.022-.181.24-.256-.036.111-.087.216-.116.326-.007.035.051.111.051.111C3200.819,2798.1,3201.044,2798.314,3201.21,2798.088Zm34.091-2.375c-.036-.088-.058-.174-.094-.262-.043-.1.008-.146.138-.14.312.023.623.035.935.058.116.006.182.058.152.157-.145-.041-.261.2-.435.012-.058-.059-.152.022-.159.1a.176.176,0,0,0,.181.2,3.279,3.279,0,0,0,.406.006v-.32c.087.012.231.134.224-.058,0-.111.094-.1.181-.1.217,0,.435-.006.754-.006-.4-.245-.8-.1-1.109-.25-.029-.018-.13.07-.2.1-.051.017-.116.035-.116.035a9.379,9.379,0,0,0-1.964-.082,1.335,1.335,0,0,0-.254.041.284.284,0,0,0,.007.064c.225.041.45.076.674.117-.7.047-1.391.041-2.08.029,0,0-.095-.029-.146-.046,0-.017.007-.04.007-.058l.8-.035v-.064c-.8-.035-1.595-.07-2.392-.1a4.114,4.114,0,0,0,1.5.2,1.2,1.2,0,0,1-.913.355c-.124-.012-.254,0-.3.157a1.919,1.919,0,0,1,.319.005c.275.041.566-.1.834.047.014.012.123-.041.152-.076a1.026,1.026,0,0,0,.087-.216c.167.088-.065.262.167.3a.729.729,0,0,0,.457-.023c.124-.058.174-.1.094-.215l.029-.082a4.139,4.139,0,0,1,.464.011.24.24,0,0,1,.145.116.254.254,0,0,0,.334.14c.058-.011.145.064.218.076a1.606,1.606,0,0,0,.5.023,1.469,1.469,0,0,0,.421-.227.31.31,0,0,0,.036.064l.051.018A1.136,1.136,0,0,1,3235.3,2795.713Zm3.421,2.049c-.159-.041-.3-.047-.246.145.021.046-.043.1-.036.157s.058.117.094.117a.989.989,0,0,0,.319-.017c.036-.006.043-.07.043-.07a.413.413,0,0,0-.094-.058c-.043-.012-.087-.035-.13-.052a.35.35,0,0,0,.065-.076c.116-.023.225-.035.225-.035.232.21.616.076.776.32a.283.283,0,0,0,.116.017c.275-.127.522.029.783.053a3.114,3.114,0,0,0,.457.029.24.24,0,0,0,.181-.11c.029-.1-.109-.076-.167-.111-.218-.122-.616.129-.725-.227l-.123-.017C3239.752,2797.8,3239.237,2797.785,3238.722,2797.762Zm-35.033-.478c-.225-.029-.413-.07-.609-.082-.218-.006-.42.018-.522.227-.08.163-.225.308-.073.483.022.03-.007.087-.029.128a.192.192,0,0,1-.109-.018c-.189-.185-.225.006-.4.1.479.013.863.019,1.254.019l.138-.1a.222.222,0,0,0,.014-.128C3203.617,2797.715,3203.566,2797.482,3203.689,2797.284Zm34.939-1.822c-.254-.012-.42-.023-.471-.221,0,0-.116-.053-.174-.082a.272.272,0,0,0-.05.117c-.015.139-.022.273-.029.413s.065.227.225.221a1.655,1.655,0,0,0,.3-.064c-.094-.064-.152-.11-.218-.151.073-.029.138-.058.21-.082.167-.04.2.03.2.146,0,.047.08.087.123.134.051-.035.123-.058.152-.1.051-.076.065-.169.116-.25l.108-.082a1.125,1.125,0,0,1,.42.1c.153.111.21.14.261-.041.007-.023.109-.029.167-.041l.072-.017-.05-.082c-.094-.023-.2-.041-.3-.058-.392-.059-.783.052-1.182-.024l-.043.041C3238.512,2795.369,3238.548,2795.4,3238.628,2795.462Zm-4.7,2.253c-.246-.006-.508-.21-.732-.006a.976.976,0,0,0-.188-.035c-.189-.017-.391-.082-.464.151-.022.07-.153.123-.232.187.384.128.384.128.486-.28a1.417,1.417,0,0,0,.124.152.471.471,0,0,0,.71.012A2.194,2.194,0,0,1,3233.931,2797.715Zm-37.345-.3c-.079-.022-.181-.058-.275-.093-.065-.023-.131-.059-.2-.087a.645.645,0,0,0-.014.2c0,.035.058.075.1.087a2.976,2.976,0,0,0,.391.087.735.735,0,0,0,.225-.012,1.545,1.545,0,0,1,.747-.052.5.5,0,0,1,.123.04c.167.058.275.064.3-.04s-.073-.146-.181-.146c-.131-.006-.261.011-.392.005a.842.842,0,0,1-.312-.058.216.216,0,0,0-.3.018C3196.774,2797.407,3196.68,2797.4,3196.586,2797.417Zm-.848.374h.094a1.727,1.727,0,0,0-.007-.332l-.138-.093c-.268.058-.536.011-.8.046a.392.392,0,0,0-.123.07.618.618,0,0,0,.109.25.23.23,0,0,0,.087.064c.08-.005.1-.069.131-.1a.717.717,0,0,1,.073-.07c.152.122.239-.017.333-.064.138-.058.21-.023.24.1A.388.388,0,0,1,3195.738,2797.791Zm8.6-1c.319-.041.616.111.935.017.152-.041.217-.087.137-.187s-.551-.2-.616-.1C3204.683,2796.685,3204.458,2796.644,3204.335,2796.79Zm30.48,1.146a3.149,3.149,0,0,0,.457.052.647.647,0,0,0,.507-.2c.073-.094.022-.134-.065-.146a4.823,4.823,0,0,0-.508.006C3234.917,2797.657,3234.917,2797.657,3234.815,2797.936Zm-44.71-.122c.283-.006.457-.006.624-.017.13-.005.247-.034.254-.186.007-.1.073-.2-.145-.175l-.029-.076c-.029-.129-.08-.1-.2-.047C3190.352,2797.424,3190.432,2797.68,3190.105,2797.814Zm36.338-1.153a2.183,2.183,0,0,1-.993.088c-.13-.012-.29-.129-.421.006.109.041.218.081.319.122.014.006.021.012.036.018.073.047.152.122.232.122a.472.472,0,0,0,.232-.122.208.208,0,0,1,.29.022c.152.134.21.129.269-.017C3226.428,2796.835,3226.421,2796.766,3226.443,2796.661Zm-2.748.1a1.194,1.194,0,0,1,.152.07c.146.1.269.286.464.047l.116.053.218.052a.643.643,0,0,0,.079-.222c0-.029-.094-.076-.159-.087a.852.852,0,0,0-.247,0C3224.124,2796.7,3223.928,2796.731,3223.7,2796.766Zm2.363.478c.116.076.189.111.247.157.073.058.116.146.2.175a.95.95,0,0,0,.319.023c.021,0,.036-.029.036-.029a.866.866,0,0,0-.2-.128l-.044-.082c.065-.018.123-.029.188-.047s.116-.041.225-.07A1.884,1.884,0,0,0,3226.059,2797.243Zm-48.442.519c-.072-.135-.116-.227-.174-.315l-.1-.046a.3.3,0,0,0-.094.041c.036.2-.1.209-.275.2-.123,0-.174.087-.094.163.051.058.087.123.232.034A1.791,1.791,0,0,1,3177.616,2797.762Zm52.5.134a1.509,1.509,0,0,0-.2-.064c-.2-.006-.471.081-.413-.227a.724.724,0,0,0-.254-.052c-.116.005-.043.081-.036.134s.007.134.029.2c.014.035.073.094.1.094C3229.575,2797.965,3229.8,2797.936,3230.118,2797.9Zm-4.944-.605a.776.776,0,0,1,.239.047.134.134,0,0,1,.015.128s-.073.07-.174.151c.225-.018.406.006.486-.052s.087-.2.073-.308c0-.029-.189-.064-.29-.058A1.919,1.919,0,0,0,3225.175,2797.29Zm-46.269.611c.2-.035.363-.047.508-.088.087-.023.131-.093.037-.163-.073-.053-.131-.1-.2-.158l-.072-.012c-.015.163-.2.094-.283.146-.058.035-.065.141-.065.215C3178.826,2797.866,3178.9,2797.9,3178.906,2797.9Zm29.285-2.038h.08c.153-.012.254-.116.2-.221-.05-.123-.123-.024-.188.011-.109.059-.138-.029-.21-.058-.2-.088-.4-.035-.442.117-.007.017.007.046.007.064l.065-.012c.072-.07.189-.163.2-.07C3207.923,2795.887,3208.053,2795.875,3208.191,2795.864Zm.232.664c-.312.07-.6.14-.892.209a.842.842,0,0,0,.312.053,1.061,1.061,0,0,1,.239.006c.326.093.341.087.348-.216C3208.43,2796.58,3208.423,2796.539,3208.423,2796.527Zm-68.037-1.245a2.836,2.836,0,0,0-.435-.14.5.5,0,0,0-.275.046c-.043.018-.065.1-.058.146,0,.029.08.07.123.076A.826.826,0,0,0,3140.387,2795.282Zm70.211,1.944c.072.191.3-.059.391.134.073.163-.036.238-.174.332a.52.52,0,0,0,.29-.047.655.655,0,0,0,.116-.238c-.247-.018-.022-.21-.146-.268C3210.917,2797.167,3210.771,2797.2,3210.6,2797.226Zm14.251.337a.971.971,0,0,0-.073-.291.452.452,0,0,0-.225-.128.531.531,0,0,0-.116.082l.036.087c.1.035.188.053.022.117,0,0-.08.082-.065.1a.288.288,0,0,0,.087.058A2.042,2.042,0,0,0,3224.849,2797.563Zm-41.035-1.31v.017l-.087-.006a.886.886,0,0,0-.116.047c-.015.076.014.158.072.163a1.519,1.519,0,0,0,.363-.005.49.49,0,0,0,.181-.053c-.043-.035-.08-.093-.13-.111A2.145,2.145,0,0,0,3183.814,2796.254Zm.7,1.484a2.254,2.254,0,0,0,.326.065,1.354,1.354,0,0,0,.377-.024c.036-.005.051-.1.072-.162l-.174-.012c-.109.14-.211.1-.3.006-.13-.134-.174-.035-.239.047A.614.614,0,0,1,3184.51,2797.738Zm22.4-1.856.188-.087a.587.587,0,0,0-.159-.227.256.256,0,0,0-.225-.006.161.161,0,0,0-.051.181A.818.818,0,0,0,3206.908,2795.881Zm-30.828,1.618s-.065-.023-.094-.035c-.109.1-.218.2-.333.3l-.094.093a.577.577,0,0,0,.138.035c.3.018.319.006.326-.245A.4.4,0,0,1,3176.08,2797.5Zm25.631-.722v.047c.2.006.413.023.616.023l.131-.07a1.384,1.384,0,0,0-.16-.228l-.08.035c.08.157-.073.14-.181.157Zm6.546.669c.152,0,.209-.034.181-.134a.255.255,0,0,0-.145-.174.292.292,0,0,0-.3.2C3208,2797.482,3208.155,2797.43,3208.257,2797.447Zm-29.655.414a.347.347,0,0,0-.232-.349c-.058.1-.116.2-.174.309,0,0,.014.035.03.064C3178.348,2797.877,3178.471,2797.866,3178.6,2797.86Zm27.646-1.124c.29.024.536.041.776.053.022.006.072-.029.065-.035s-.029-.065-.05-.07A1.071,1.071,0,0,0,3206.248,2796.737Zm-.551.134c.1-.023.159-.046.21-.052.1-.018.225-.006.167-.14-.043-.1-.108-.123-.21-.035-.058.046-.108.029-.181-.018a.09.09,0,0,0-.138.018A.632.632,0,0,0,3205.7,2796.871Zm36.12.943-.007.018c-.072-.006-.145-.023-.21-.023a.1.1,0,0,0-.065.03c-.007.046.007.087.036.093a1.309,1.309,0,0,0,.21.023c.13.012.283.1.377-.046C3242.042,2797.877,3241.927,2797.843,3241.818,2797.814Zm-7.713.594c-.087.07-.188.116-.188.163a.58.58,0,0,0,.08.285c.079.129.209.053.427.018C3234.025,2798.81,3234.127,2798.611,3234.1,2798.408Zm-83.983-3.516a1.246,1.246,0,0,0,.261.046.534.534,0,0,0,.159-.046.433.433,0,0,0-.072-.21.851.851,0,0,0-.174.052A1.159,1.159,0,0,0,3150.122,2794.892Zm85.977,1.863s-.036.006-.036.017a.537.537,0,0,0,.007.186c.022.063.065.093.152.035s.232.053.254-.088c0,0,0-.052-.014-.058Zm-45.16,1.286c-.449-.029-.449-.029-.652.1C3190.541,2798.1,3190.743,2798.07,3190.939,2798.041Zm-.246-1.583c-.044.117-.073.192-.094.268l.043.075a.176.176,0,0,0,.094.006c.073-.058.16-.122.152-.163C3190.888,2796.644,3190.787,2796.545,3190.693,2796.458Zm10.706-.233c-.043-.14-.145-.163-.275-.14a.315.315,0,0,0-.109.059c.007.163.167.116.261.134A.367.367,0,0,0,3201.4,2796.225Zm33.91.553a.357.357,0,0,0-.007.052c.1.035.2.081.3.111h.1a.241.241,0,0,0,.058-.065.184.184,0,0,0-.123-.093A3.093,3.093,0,0,0,3235.309,2796.778Zm-94.03-1.45a.65.65,0,0,0,.493.1l.072-.063a.248.248,0,0,0-.051-.064C3141.626,2795.3,3141.489,2795.317,3141.279,2795.328Zm44.745,1.968a1.263,1.263,0,0,1,0-.285c.051-.134-.021-.128-.137-.1a.624.624,0,0,0-.108.047A1.2,1.2,0,0,0,3186.024,2797.3Zm3.219-.641a.778.778,0,0,0,.188.117l.131-.087a1.716,1.716,0,0,0-.167-.169C3189.352,2796.556,3189.308,2796.6,3189.243,2796.655Zm36.772-.384a.212.212,0,0,0,.261-.174s-.029-.07-.058-.082c-.072-.029-.225.088-.246.187Zm9.706,2.6c.145.006.29.011.435.006.022,0,.051-.047.051-.047a.083.083,0,0,0-.007-.082C3236.019,2798.751,3235.808,2798.681,3235.721,2798.874Zm-51.407-1.153-.363-.158c.022.123.029.2.043.314C3184.118,2797.82,3184.212,2797.773,3184.314,2797.721Zm46.971-2.271v.076c.174-.053.362.035.616-.117Zm-27.4,3.173a.79.79,0,0,0,.253.017s.116-.076.123-.117-.043-.1-.08-.14c0,0-.08.03-.123.041C3204.212,2798.6,3203.958,2798.548,3203.885,2798.623Zm37.787-1.9-.087.035c.08.122.167.244.261.39C3241.985,2796.923,3241.8,2796.835,3241.673,2796.72Zm-15.454,1.1a1.9,1.9,0,0,0,.095-.209.4.4,0,0,0-.029-.1.992.992,0,0,0-.2.029.691.691,0,0,0,.051.058A2.267,2.267,0,0,1,3226.218,2797.82Zm-38.439-.291a1.616,1.616,0,0,1-.167.116c-.174.064-.022.128-.007.187.007.029.08.064.08.064.174-.023.123-.1.116-.164S3187.786,2797.627,3187.779,2797.529Zm20.274.274a1.572,1.572,0,0,0,.181-.187l-.08-.063c-.08.034-.152.081-.232.122Zm-25.393,1.036c0,.035-.007.063-.007.092l.543-.017v-.035C3183.024,2798.855,3182.842,2798.85,3182.661,2798.839Zm5.538-1.013a.185.185,0,0,0,.044-.3c0-.006-.036-.006-.036-.006-.029.088-.051.169-.073.251A.842.842,0,0,1,3188.2,2797.825Zm-15.795.012v.052a2.6,2.6,0,0,0,.377-.012.422.422,0,0,0,.058-.1s-.072-.041-.094-.035C3172.629,2797.768,3172.52,2797.8,3172.4,2797.838Zm10.888-1.386.08-.012a.859.859,0,0,0,0-.192c-.007-.023-.065-.041-.065-.041a.215.215,0,0,0-.079.035A1,1,0,0,0,3183.292,2796.452Zm22.637,2.194.014-.058-.26-.1c-.007.081.014.128.058.14A.875.875,0,0,0,3205.929,2798.646Zm-34.844-.821-.123-.076a2.247,2.247,0,0,0-.167.181.742.742,0,0,0,.08.058A2.434,2.434,0,0,0,3171.085,2797.825Zm3.6-.057a.486.486,0,0,1-.138-.059.355.355,0,0,0-.152.059.129.129,0,0,0,.022.109A.445.445,0,0,0,3174.688,2797.768Zm10.872.063a1.077,1.077,0,0,0,.153-.163l-.1-.087a1.454,1.454,0,0,0-.159.14S3185.51,2797.778,3185.56,2797.832Zm9.018-1.909c.08-.058.145-.082.174-.128,0,0-.051-.064-.079-.093a.6.6,0,0,0-.152.093Zm4.574,2.59c-.08-.052-.131-.087-.181-.116l-.073.1a.269.269,0,0,0,.123.1S3199.094,2798.554,3199.152,2798.512Zm-16.585-1.269a.6.6,0,0,0-.225-.076c-.043.006-.079.07-.116.11.043.024.087.07.123.064A1.039,1.039,0,0,0,3182.567,2797.243Zm.8.448a.8.8,0,0,1-.181-.076c-.1.023-.131.087-.175.128a.375.375,0,0,1,.109.058C3183.219,2797.8,3183.263,2797.75,3183.364,2797.692Zm26.313-.844a1.049,1.049,0,0,0,.044-.228s-.066-.052-.095-.081a.6.6,0,0,0-.08.169S3209.6,2796.766,3209.677,2796.848Zm-10.242-.163c.225,0,.225,0,.312-.175C3199.63,2796.574,3199.536,2796.626,3199.435,2796.685Zm-17.194.908c-.08.1-.109.186.014.245l.116-.024c-.029-.064-.051-.128-.08-.191Zm55.728,2.09s.022.047.036.07c.109-.041.218-.081.333-.116l-.036-.065C3238.193,2799.613,3238.077,2799.647,3237.969,2799.682Zm-8.2-2.107a.74.74,0,0,1-.015.082c.138,0,.276,0,.515.005Zm-1.2.256c.058.076.08.111.08.111l.116-.059c0-.029-.043-.076-.087-.087Zm-41.346.657a.17.17,0,0,0-.022.035,1.2,1.2,0,0,0,.276.111l.065-.023a.271.271,0,0,0-.014-.07A2.272,2.272,0,0,0,3187.221,2798.489Zm12.924-1.35c.065-.023.116-.047.159-.064-.044-.035-.072-.094-.131-.1-.029-.012-.087.052-.138.087C3200.036,2797.057,3200.108,2797.11,3200.145,2797.139Zm12.982-.384a.2.2,0,0,0-.037-.065,2.358,2.358,0,0,0-.268.053l-.029.047.087.052C3212.968,2796.819,3213.048,2796.783,3213.127,2796.755Zm-5.48-.611.014.052a.837.837,0,0,0,.2.024.4.4,0,0,0,.13-.047.552.552,0,0,1-.1-.064A.809.809,0,0,0,3207.647,2796.144Zm-80.25-1.234c.109.046.211.052.276-.053.007-.017-.014-.058-.029-.087-.079.035-.159.069-.232.1Zm-1.457,3.458a.456.456,0,0,1,.094.076.5.5,0,0,0,.145-.076l-.072-.064A.715.715,0,0,0,3125.94,2798.367Zm51.922-.46a.931.931,0,0,0,.174-.134c.015-.023-.043-.07-.065-.1a.567.567,0,0,0-.145.094C3177.812,2797.785,3177.841,2797.832,3177.863,2797.907Zm31.858-1.718a.231.231,0,0,1-.015.047c.124,0,.247,0,.37-.006v-.046C3209.959,2796.184,3209.836,2796.189,3209.721,2796.189Zm3.6,1.462a.126.126,0,0,0,.007-.041,1.912,1.912,0,0,0-.356-.035.181.181,0,0,0-.007.064C3213.084,2797.645,3213.207,2797.645,3213.323,2797.651Zm-1.037-.926a.227.227,0,0,1-.014.046.962.962,0,0,0,.174.058c.036.005.073-.018.109-.024-.029-.029-.051-.07-.087-.081Zm-19.506.943c.051-.064.094-.111.094-.111a1.747,1.747,0,0,0-.174-.134.35.35,0,0,1-.058.058A1.022,1.022,0,0,0,3192.78,2797.668Zm2.066.908a.656.656,0,0,0,.1-.053l-.108-.121-.124.092C3194.759,2798.519,3194.8,2798.548,3194.846,2798.577Zm-14.309-2.061.029-.1a.316.316,0,0,0-.029-.081.116.116,0,0,0-.094-.035.632.632,0,0,0-.007.163C3180.443,2796.475,3180.494,2796.492,3180.537,2796.516Zm6.836,1.17a.719.719,0,0,1-.1-.076.381.381,0,0,0-.108.047l.007.093C3187.228,2797.738,3187.278,2797.715,3187.373,2797.686Zm26.11-1.5a.672.672,0,0,0,.167-.087l-.036-.082a1.1,1.1,0,0,0-.1.064S3213.5,2796.131,3213.483,2796.189Zm13.729.1a.707.707,0,0,0,.087-.042.115.115,0,0,0-.094-.075c-.029-.006-.065.023-.1.041A1.141,1.141,0,0,1,3227.211,2796.289Zm4.762,1.577c-.073-.006-.138-.018-.2-.018a.5.5,0,0,0-.029.053c.058.017.123.029.181.041C3231.93,2797.942,3231.952,2797.907,3231.974,2797.866Zm-41.955-.437c.051-.053.1-.082.1-.093l-.087-.1s-.079.041-.072.064C3189.961,2797.3,3189.99,2797.372,3190.019,2797.43Zm-18.622-1.409c.043-.047.079-.093.123-.14,0,0-.072-.029-.079-.023-.043.035-.08.081-.116.116A.59.59,0,0,1,3171.4,2796.021Zm17.578.344c.044-.088.08-.128.073-.158s-.065-.058-.094-.093a.585.585,0,0,1-.073.07C3188.88,2796.254,3188.924,2796.289,3188.975,2796.365Zm4.6,1.129.037.059a.575.575,0,0,1,.1.034c.065,0,.087-.047.109-.076a.634.634,0,0,0-.137-.047A.254.254,0,0,0,3193.577,2797.493Zm40.469.431a.354.354,0,0,1-.08-.047.216.216,0,0,0-.109.065.336.336,0,0,0,.109.058Zm-7.423-1.624a.813.813,0,0,1,.16-.122c0-.064-.08-.122-.08-.122a.26.26,0,0,0-.152.1C3226.537,2796.184,3226.588,2796.236,3226.624,2796.3Zm-3.581-.081c.043-.024.073-.035.109-.053-.022-.023-.058-.07-.058-.07a.628.628,0,0,0-.131.063A.675.675,0,0,1,3223.043,2796.219Zm-36.106,1.519c-.094-.029-.123-.041-.123-.041a1.28,1.28,0,0,0-.232.018l-.007.058c.065,0,.123-.011.188-.017C3186.764,2797.756,3186.844,2797.75,3186.938,2797.738Zm25.893-1.135a.665.665,0,0,1,.1-.029l-.08-.088c-.029-.006-.065.023-.1.035A.829.829,0,0,0,3212.83,2796.6Zm-63.666-1.828a.557.557,0,0,1,.1.058l.13-.086-.087-.053S3149.23,2794.741,3149.165,2794.775Zm31.735,2.456s.044.065.058.065.109-.006.167-.012c0,0-.036-.064-.058-.07C3181.067,2797.215,3180.965,2797.226,3180.9,2797.231Zm19.144-.477a1.026,1.026,0,0,0,.014-.123.549.549,0,0,1-.058-.023c-.014.041-.029.081-.044.116C3199.956,2796.726,3200,2796.743,3200.044,2796.755Zm-11.192,1.327a.452.452,0,0,0,.116.076.392.392,0,0,0,.116-.03l-.051-.069A.945.945,0,0,0,3188.851,2798.082Zm15.049-.32a.584.584,0,0,1,.058-.088.109.109,0,0,0-.065-.058.125.125,0,0,0-.065.041C3203.827,2797.7,3203.863,2797.727,3203.9,2797.762Zm23.986-.18a.053.053,0,0,1-.007-.024.786.786,0,0,0-.2,0l.015.018S3227.821,2797.582,3227.885,2797.582Zm-54.612.156a.427.427,0,0,0-.115-.052l-.065.035.058.07Zm14.44.472.079-.082-.094-.051c-.036.012-.058.051-.087.082C3187.641,2798.174,3187.67,2798.187,3187.714,2798.209Zm-5.85-.96c.029.017.065.035.109.058l.036-.058a.357.357,0,0,0-.079-.047C3181.878,2797.191,3181.871,2797.208,3181.864,2797.25Zm-15.534-1.729a.808.808,0,0,1-.116-.052.373.373,0,0,0-.079.076l.065.076A.921.921,0,0,0,3166.33,2795.52Zm65.1,2.445a.662.662,0,0,0,.109-.1l-.073-.058a.131.131,0,0,0-.08.064C3231.38,2797.884,3231.408,2797.913,3231.43,2797.965Zm.094-.314v.017h.269v-.017Zm-44.326.558.088-.029a.214.214,0,0,0-.029-.087c-.021.006-.065.012-.065.012Zm21.877-1.973c-.058-.029-.087-.047-.087-.047l-.1.024a.217.217,0,0,1,.036.064A1.052,1.052,0,0,0,3209.075,2796.236Zm-76.328,2.6a.388.388,0,0,0-.1-.053s-.051.018-.072.023l.058.07S3132.689,2798.855,3132.747,2798.839Zm50.712-1.508c-.066-.041-.094-.065-.124-.065l-.108.035s.029.064.05.064A1.565,1.565,0,0,0,3183.459,2797.331Zm18.788-1.007a.365.365,0,0,1,.073-.088s-.058-.082-.094-.093l-.08.063A.5.5,0,0,0,3202.247,2796.324Zm-19.419,1.362a.754.754,0,0,1-.1-.041l-.058.1c0,.018.051.034.051.034C3182.77,2797.768,3182.784,2797.744,3182.828,2797.686Zm-.58.931a.249.249,0,0,1,.043-.029.222.222,0,0,0-.058-.041l-.087.029C3182.183,2798.588,3182.219,2798.605,3182.248,2798.617Zm6.074-.512a.14.14,0,0,1-.036-.029c-.036.006-.065.017-.073.035l.043.041A.417.417,0,0,0,3188.322,2798.1Zm8.1-.228c.036-.029.08-.052.108-.081,0,0-.029-.041-.051-.064-.036.03-.073.053-.109.082A.394.394,0,0,0,3196.427,2797.877Zm-25.958.076c.029-.041.051-.064.051-.093l-.058-.029a.77.77,0,0,0-.08.052Zm11.257-.146a.52.52,0,0,1,.087-.017l-.036-.082-.058.018C3181.711,2797.75,3181.726,2797.778,3181.726,2797.808Zm9.4-1.012.072.035a.414.414,0,0,0,.08-.076l-.072-.024Zm-51.56.931s.029-.03.043-.041l-.058-.035c-.014,0-.029.023-.043.041A.62.62,0,0,1,3139.568,2797.727Zm84.469.39-.116-.018-.007.041c.044,0,.08-.006.124-.006Zm-29.6-.623a.313.313,0,0,0-.109-.035l-.036.052a.092.092,0,0,0,.036.041A.154.154,0,0,0,3194.44,2797.493Zm13.026-1.764a.322.322,0,0,0,.036-.047.085.085,0,0,0-.036-.052.692.692,0,0,0-.073.082C3207.416,2795.719,3207.437,2795.724,3207.466,2795.73Zm-.58.472a.705.705,0,0,0,.087-.041l-.044-.046-.087.011S3206.872,2796.178,3206.886,2796.2Zm-26.661,1.21a.22.22,0,0,1,.043-.035l-.036-.064-.044.047A.111.111,0,0,0,3180.226,2797.412Zm15.178,1.146s.037-.029.037-.046-.03-.024-.03-.024l-.05.035Zm-14.417.1c-.051-.006-.087-.006-.124-.012v.047a.127.127,0,0,0,.051.011C3180.95,2798.7,3180.965,2798.675,3180.987,2798.658Zm20.006-.221s-.022-.047-.036-.047-.043.006-.043.006-.007.053.015.058Zm-9.314-.361a.237.237,0,0,1-.022-.047.648.648,0,0,0-.109.018l.036.064A.419.419,0,0,0,3191.679,2798.076Zm3.849-1.863a.315.315,0,0,1,.08.052.1.1,0,0,0,.08-.011c.008-.029-.007-.07-.029-.076S3195.593,2796.2,3195.528,2796.213Zm4.045,2.375a.4.4,0,0,0-.008-.1l-.058-.04a.406.406,0,0,1-.022.07A.3.3,0,0,0,3199.572,2798.588Zm24.558-1.38.036.012.007-.029-.058-.012Zm-48.131-.8a.215.215,0,0,1,.021.052l.087-.018-.043-.07Zm23.355.646-.058-.005v.005Zm29.32.518-.073-.017a.4.4,0,0,0-.043.029.217.217,0,0,1,.043.017A.091.091,0,0,0,3228.676,2797.569Zm-55.662-1.042c.029-.018.051-.029.051-.029a.209.209,0,0,0-.021-.053l-.094.012Zm61.549,2.323a.41.41,0,0,1,.058.03.362.362,0,0,0,.043-.059c-.022-.006-.051-.024-.065-.017S3234.576,2798.833,3234.562,2798.85Zm-85.723.32.073-.04a.327.327,0,0,0-.1-.03s-.043.018-.065.03C3148.781,2799.141,3148.81,2799.159,3148.839,2799.17Zm52.495-2.62.022.024.043-.035a.081.081,0,0,0-.014-.018A.244.244,0,0,0,3201.334,2796.55Zm-54.662,2.684.022-.047-.065-.029s-.029.041-.022.052S3146.65,2799.229,3146.671,2799.235Zm89.847-.407-.043.034.021.023.065-.023Zm-92.942-4a.342.342,0,0,1,.043.029.344.344,0,0,0,.065-.029.053.053,0,0,1-.021-.017Zm40.853,2.438.087-.029a.273.273,0,0,0-.036-.076c-.022.006-.065.012-.065.012Zm48.066-.942.036.006a.446.446,0,0,1,.015-.052l-.066.017A.041.041,0,0,0,3232.5,2796.324Zm-31.742,2.293.014-.094h-.058a.208.208,0,0,0-.022.059A.715.715,0,0,1,3200.754,2798.617Zm37.555.262a.156.156,0,0,0,.043-.006c-.007,0-.022-.012-.022-.012a.459.459,0,0,1-.051.006C3238.288,2798.874,3238.3,2798.874,3238.309,2798.88Zm-33.982-1.614c.015.018.015.047.029.053s.05-.006.08-.006a.233.233,0,0,1-.022-.047Zm-77.5,1.136a.269.269,0,0,1-.029-.019.294.294,0,0,0-.014.03l.022.017Zm31.583.786a.269.269,0,0,0-.036-.023l-.044.017a.04.04,0,0,0,.015.029A.256.256,0,0,0,3158.407,2799.188Zm26.711-.466s.036-.029.036-.047l-.022-.052a.569.569,0,0,1-.051.035C3185.068,2798.688,3185.1,2798.7,3185.118,2798.722Zm-2.725.146-.029-.035-.036.047a.519.519,0,0,1,.036.04A.2.2,0,0,0,3182.393,2798.868Zm15.679-.955a.362.362,0,0,0-.1-.04l-.036.046a.2.2,0,0,0,.058.041A.182.182,0,0,0,3198.072,2797.913Zm26.871-.052a.354.354,0,0,0,.036-.022l-.029-.035a.065.065,0,0,0-.029.029Zm-55.692-1.973-.037-.052c-.014-.006-.051.011-.051.011l.029.076C3169.215,2795.91,3169.229,2795.9,3169.251,2795.887Zm62.216.39a.272.272,0,0,1-.03.029l.022.035a.109.109,0,0,0,.036-.017Zm-30.662-.157a.414.414,0,0,1-.094-.029l-.014.047.065.029Zm-17.034.937a.11.11,0,0,0,.021.024h.044l-.007-.053A.387.387,0,0,0,3183.771,2797.057Zm17.969-.5.05.018.015-.018Zm-16.361-.3a.2.2,0,0,1-.058-.023c-.037.011-.037.041-.051.064a.53.53,0,0,1,.051.018S3185.365,2796.277,3185.379,2796.259Zm14.845.565a.157.157,0,0,1,.015-.035l-.029-.006S3200.218,2796.8,3200.225,2796.825Zm4.182-1.013-.021-.023a.124.124,0,0,0-.036.005.114.114,0,0,0,.029.035C3204.385,2795.823,3204.4,2795.817,3204.407,2795.812Zm-77.039-.669c.014-.006.029-.006.043-.011l-.058-.018Zm76.93.9-.044.046.015.029a.315.315,0,0,0,.036-.011S3204.313,2796.062,3204.3,2796.044Zm-.051.541h.036v-.029l-.029-.017Zm-15.679-.279h.065v-.023h-.043Zm10.583.513.051.022.022-.017a.137.137,0,0,0-.029-.035A.123.123,0,0,0,3199.152,2796.819Zm-22.3,1.944a.111.111,0,0,0,.036-.006.373.373,0,0,0-.014-.052l-.036.006Zm47.7-1.054-.065-.017-.015.024.065.017Zm-48.806-1.583.008.024.036-.012-.022-.035A.143.143,0,0,0,3175.746,2796.125Zm15.621.012-.058-.041c-.007,0-.021.011-.021.011a.176.176,0,0,0,.021.035Zm-16.491,1.74a.217.217,0,0,0,.036-.017v-.047l-.029.006A.356.356,0,0,0,3174.876,2797.877Zm-.478-1.4a.112.112,0,0,1-.014-.052.091.091,0,0,0-.065.006l.014.063Zm53.589.53-.043-.006v.035l.036-.006Zm-42.434-.693a.1.1,0,0,0,.036-.006v-.023h-.029Zm24.349.344a.378.378,0,0,1,.029.047.045.045,0,0,1,.022-.017s-.022-.041-.029-.053Zm27.654-.861.043-.005-.022-.047-.029.023A.216.216,0,0,1,3237.556,2795.794Zm-29.14,2.6a.085.085,0,0,1,.022-.011.519.519,0,0,0-.036-.052l-.029.023Zm-11.989-.285a.176.176,0,0,1,.021-.035l-.021-.035a.209.209,0,0,0-.044.029A.354.354,0,0,1,3196.427,2798.1Zm41.673.069a.281.281,0,0,0,.043.006v-.029h-.029Zm-31.228-.908.051.024.022-.024s-.029-.029-.043-.046A.267.267,0,0,1,3206.872,2797.266Zm4.487-.058.014.018a.315.315,0,0,0,.051-.006l.007-.029Zm-27.125.3-.029-.041c0,.006-.014.017-.014.017Zm7.632-.809-.014.029.029.006a.093.093,0,0,0,.014-.017Zm-7-.384.007-.035-.022.006A.1.1,0,0,0,3184.865,2796.318Zm-.935,2.62.015.017h.036l-.022-.035Zm-.935-1.636.029-.011a.2.2,0,0,0-.029-.006Zm-55.018-2.469a.1.1,0,0,1,.022.012v-.012Zm37.549.088.036.011-.022-.029Zm-.7.087a.131.131,0,0,1,.029.011.051.051,0,0,0-.007-.023Zm-3.363.011.036-.011-.036-.011Zm72.074,2.387.036.005a.054.054,0,0,0,.007-.017.079.079,0,0,1-.021-.006Zm-77.895-2.329c.014,0,.029-.006.043-.006s-.036-.011-.051-.017Zm50.7,2.154a.205.205,0,0,0-.036-.005l-.007.017.029.006Zm-3.211-1.4.007.023.029-.012a.053.053,0,0,1-.007-.017A.2.2,0,0,1,3203.124,2795.829Zm-.21.932h-.022l-.015.035.044-.006Zm-.964,1.676.008-.018-.022,0Zm-.355-2.264c0,.006-.007.012-.007.012a.111.111,0,0,0,.036-.006A.191.191,0,0,0,3201.595,2796.172Zm-3.472,2.4.029-.006a.02.02,0,0,0-.007-.017h-.029A.1.1,0,0,1,3198.123,2798.577Zm-.638-.71v-.012h-.029A.107.107,0,0,1,3197.485,2797.866Zm-25.472.006a.114.114,0,0,0,.029-.012l.007-.029-.051.011A.067.067,0,0,1,3172.013,2797.872Zm68.515.681a.03.03,0,0,1-.015,0c0,.006.008.012.015.018Zm-50.552-.961s.014-.011.014-.018l-.022-.006A.037.037,0,0,1,3189.975,2797.593Zm5.661-2.922c.072.006.145.011.218.023a.1.1,0,0,1-.015.029c-.1.11-.167,0-.246-.023a.125.125,0,0,0-.022-.012c-.065.047-.225.059-.1.175.065.052.094.145.167.192a.269.269,0,0,1,.145.326.192.192,0,0,0,.138.262l-.008.005.022-.14.1.035a.972.972,0,0,1,.131.064.2.2,0,0,0,.123-.134s-.021-.07-.051-.081c-.145-.07-.124-.135-.058-.256.051-.087.211-.3-.123-.32l-.022-.157a.824.824,0,0,1,.174.018c.275.081.218.285.246.465a.58.58,0,0,0,.036.151c.073-.035.145-.063.218-.093l-.021-.012.007.018c.087-.024.232-.018.145-.152l.022-.1a2.146,2.146,0,0,1,.218-.064,1.045,1.045,0,0,1-.159-.14s-.007-.064-.007-.111a2.239,2.239,0,0,0,.326.093.392.392,0,0,0,.145-.035.271.271,0,0,0-.007-.168,4.851,4.851,0,0,0-.631-.03c-.051,0-.1.076-.16.111s-.072.029-.094-.029-.029-.058-.109-.058a10.529,10.529,0,0,1-1.543-.041,3.059,3.059,0,0,0-1.08.023c-.138.018-.421-.058-.2.2.014.017-.044.075-.044.075a3.183,3.183,0,0,0-.008.385c.189-.175.3-.286.464-.431a1.209,1.209,0,0,0,.232.739c.05-.262.21-.448.1-.658-.044-.093.029-.168.152-.168.362-.006.725,0,1.087,0l.007.035Zm24.029,3.918a1.591,1.591,0,0,0,.116-.216,2.554,2.554,0,0,0,.043-.4c.007-.256-.073-.3-.587-.3.189.07.3.11.42.164-.377.069-.377.069-.326.343-.138-.093-.239-.181-.363-.25-.108-.07-.2-.064-.253.063-.044.1-.116.187-.145.28s-.007.175-.036.262a.338.338,0,0,1-.051-.4,2.423,2.423,0,0,0,.21-.53.152.152,0,0,1,.109-.075c.05-.012.108.018.167.024.341.017.363,0,.486-.245a1.827,1.827,0,0,1,.123-.186,1.96,1.96,0,0,1,.4.151l-.029.082c-.087.012-.174.006-.254.023l-.065.07c-.007.012.029.047.029.047.131.029.3-.029.319.134l.058-.041c.073-.169.218-.064.319-.047.152.023.08.128.058.2a.939.939,0,0,1-.181.414c-.174.162.051.221.1.215.145-.024.188.012.232.122.036.07.138.128.225.2a1.127,1.127,0,0,1-.283.087c-.094.012-.159-.029-.145-.122a.3.3,0,0,0-.022-.11c-.036.017-.087.035-.087.035-.051.128-.1.146-.225.093s-.246-.064-.37-.1Zm.391-.116v-.029l-.065.006v.029C3220.014,2798.478,3220.035,2798.472,3220.057,2798.472Zm-.986-.815a.168.168,0,0,1-.022.011s.014.012.022.012Zm-44.833-2.247a.811.811,0,0,1,.094-.1.116.116,0,0,1,.094-.012c.16.151.152.151.312.035a1.271,1.271,0,0,1,.29-.192c.254-.082.413-.18.326-.425,0,0,.087-.128-.043-.146-.109-.018-.261-.059-.283.081-.036.2-.225.181-.384.2-.123.006-.253-.024-.377-.024a3.9,3.9,0,0,1-.979.006.689.689,0,0,0-.355.111c-.13.07-.036.169-.022.256.007.058.007.123.022.233.174-.123.384-.111.428-.315.022-.1.428-.127.5-.023.123.187.166-.041.261-.018.014.105.029.216.044.326Zm2.87-.2c-.044-.157-.094-.192-.218-.1-.094.058-.123.134-.159-.024-.014-.058-.348-.081-.464-.035s-.058.1-.043.174c.036.135-.065.227-.232.2a2.748,2.748,0,0,0-.616-.082c-.043.006-.109-.063-.13-.11a.693.693,0,0,1,.08-.1,1.673,1.673,0,0,1,.71-.338.408.408,0,0,1,.232.024.639.639,0,0,0,.486.006l.145-.053c.21.169.276-.035.384-.1v-.012c-.014.111-.036.216.175.209.123-.011.246,0,.376-.005.088-.006.189-.03.189.075,0,.128-.116.1-.218.093a2.263,2.263,0,0,0-.34.006.421.421,0,0,0-.124.064s.094.035.138.052l.145.046a.177.177,0,0,0-.051.064c-.174-.017-.326-.035-.471-.052Zm-1.37-.152a.249.249,0,0,1,.065.047l.087-.03c0-.023-.022-.046-.036-.07C3175.818,2795.014,3175.79,2795.032,3175.739,2795.055Zm8.336.087c-.007.082.138.134.275.1a3.916,3.916,0,0,1,.457-.076.272.272,0,0,0,.225-.128.343.343,0,0,1,.558.029c.058.088.2.076.2.053-.022-.2.268-.2.341-.338.043-.075.058-.139-.073-.139-.2,0-.406.012-.609.024-.109,0-.225.011-.334.017l-1.319.071a.481.481,0,0,0-.123.047C3183.843,2794.9,3184.089,2794.915,3184.075,2795.142Zm3.421-.035.029.011-.015-.017c-.072-.006-.137-.006-.2-.006l.05.093a1.283,1.283,0,0,0,.74,0c.08-.011.159-.128.21-.209,0,0-.08-.082-.123-.123l-.007.023v-.017a.243.243,0,0,1,.058-.052c.109-.14.146-.233-.087-.216l-.08-.006c-.406-.134-.645-.082-.855.181a.256.256,0,0,0-.058.192c.021.058.1.093.159.14C3187.373,2795.1,3187.438,2795.107,3187.5,2795.107Zm-4.6-.2c-.145.046-.289.093-.471.145.2.1.406.029.66.064a.723.723,0,0,1-.181.07,3.336,3.336,0,0,1-1.1.035.9.9,0,0,0-.21.012c-.115.012-.137-.023-.1-.123.051-.151.029-.163-.174-.127-.073.017-.16.1-.2-.018-.029-.093.014-.151.145-.169a.86.86,0,0,1,.167-.047c.4-.005.8-.005,1.2-.005.138,0,.247.046.275.168Zm-.71.07c-.043.023-.087.041-.087.041a.549.549,0,0,0,.043.07.134.134,0,0,0,.087.012A.659.659,0,0,0,3182.183,2794.979Zm35.083,3.632c.007.134.152.134.254.14.276.006.558,0,.892-.006-.065-.1-.095-.163-.138-.215-.116-.169-.094-.163-.058-.413a1.688,1.688,0,0,0-.022-.506.126.126,0,0,0-.087-.094,2.1,2.1,0,0,0-.421-.052l-.13.1c.174.14-.022.256-.037.379,0,0,.022.075.051.087s.094-.006.094-.006c.072-.122.116-.227.174-.326.014-.029.058-.046.087-.07l.065.111c-.218.133-.123.314-.138.477l-.065.122-.015-.005v.151l.007-.005a.97.97,0,0,1-.167.075c-.116.024-.232.041-.355.059Zm-14.157-3.8c.152-.012.2-.059.145-.186-.051-.111-.109-.058-.21-.041a.689.689,0,0,1-.406-.017c-.174-.082-.268-.012-.42.04-.13.041-.3,0-.413.123-.051.064-.153.117-.058.21.08.07,0,.093-.073.116s-.138.058-.218.087c0,0,.058.058.073.075.094.071.181.21.276-.017.007-.035.174-.047.2-.168.021-.1.138-.046.2-.006s.072.14.188.082.283-.111.326-.2c.1-.2.218-.175.384-.093Zm-82.744,3.254c.043-.07-.188-.187.043-.232.138-.029.116-.134.051-.2a.782.782,0,0,0-.559-.25c-.217-.017-.275.123-.333.256l-.08.11C3119.815,2798.029,3119.815,2798.029,3120.366,2798.064Zm88.506-3.114c-.015.1.094.134.16.087a.967.967,0,0,1,.479-.134c.021-.175.218-.175.355-.238.029-.012.022-.076.029-.117-.131.047-.174-.146-.333-.07a.521.521,0,0,1-.312.012c-.16-.059-.254.029-.348.076,0,0-.007.122-.007.181,0,.035.014.07.014.093Zm-29.045-.164.682-.017c.159-.012.174.1.231.169a.467.467,0,0,1-.05.076.155.155,0,0,0-.2.093c-.065.14-.2.134-.355.14-.1,0-.225.081-.3.058s-.123-.146-.188-.221a.28.28,0,0,1-.021-.029l-.131-.227c.109-.023.218-.041.326-.064Zm.261.321.044.005c.072.018.167.076.188-.035.007-.023-.109-.07-.174-.081a1.456,1.456,0,0,0-.21.005.316.316,0,0,0-.08.041.141.141,0,0,0,.043.082A.484.484,0,0,0,3180.088,2795.107Zm26.2-.361c-.022-.059-.036-.164-.065-.164a8.368,8.368,0,0,0-.928-.035c-.159.006-.166.076-.05.193a1.2,1.2,0,0,0,.05.127c.044.1.138.1.239.059l.131-.088c.153-.081.2-.064.246.093a.746.746,0,0,1,.022.192C3206.111,2794.962,3206.067,2794.775,3206.285,2794.747Zm15.44,3.073a.771.771,0,0,0,0-.181.443.443,0,0,0-.072-.093.338.338,0,0,0-.181.093c-.022.012.029.064.029.064a.9.9,0,0,1-.051.135.218.218,0,0,1-.2.017s-.058-.1-.044-.146.058-.1.073-.156l-.065-.071s-.087.012-.1.035c-.2.315-.051.513.37.524a.405.405,0,0,0,.087,0,1.445,1.445,0,0,0,.326-.041c.051-.022.044-.128.08-.192a.269.269,0,0,1,.124-.116c.065-.035.137-.069.051-.122a.23.23,0,0,0-.2.012.913.913,0,0,0-.138.238Zm-7.9-3.132a.316.316,0,0,0-.094.245c.007.111.145.123.261.129s.21-.035.246-.146c.065-.157.138-.3.413-.221.051.012.138-.053.261-.1A1.174,1.174,0,0,0,3213.823,2794.688Zm-.152.67c-.065.1-.174.227-.065.3a.579.579,0,0,0,.4.012.373.373,0,0,0,.2-.233c.014-.07-.015-.122.108-.134a.712.712,0,0,0,.174-.064c-.065-.012-.131-.018-.2-.029l-.333-.053C3213.772,2795.142,3213.737,2795.252,3213.671,2795.357Zm-5.784,3.137a1.348,1.348,0,0,1,.058-.163c.043-.116-.007-.174-.152-.186a1.883,1.883,0,0,0-.254-.035c-.13.006-.174.1-.1.221.014.029.051.082.036.093-.109.111-.225.209-.348.326a2.512,2.512,0,0,0,.3.07c.058,0,.167-.07.159-.093-.058-.216.188-.174.312-.239Zm15.961-2.706c.276-.041.3-.047.319-.268,0-.093.015-.174.123-.192a1.859,1.859,0,0,1,.507.006c.051.006.065.14.116.244.138-.1.239-.186.428-.337-.406-.018-.7-.035-.986-.041a.676.676,0,0,0-.333.023c-.058.034-.029.157-.051.244-.029.111-.08.221-.116.332Zm-6.588,2.829c-.007-.063-.014-.134-.022-.2l.008,0a.349.349,0,0,1-.094.07c-.239.11-.341.065-.37-.146a.619.619,0,0,0-.05-.232c-.021-.035-.116-.053-.182-.047-.029,0-.094.082-.094.082.159.116.014.209-.029.308s-.036.239.116.251c.247.023.515.1.725-.093Zm-18.658-3.876c-.152-.035-.246-.262-.471-.094-.007-.011-.029-.035-.022-.046.094-.181-.051-.129-.16-.111-.232.041-.232.18-.224.32.007.18.036.216.231.157a6.433,6.433,0,0,0,.653-.233Zm21.239-.25c-.275-.239-.261-.227-.536.017-.08.076-.159.134-.152.227a.213.213,0,0,0,.1.158.519.519,0,0,0,.21-.018c.044-.227.312-.2.457-.314A.9.9,0,0,0,3219.84,2794.49Zm-15.548.384.1.006c.065-.215.276-.11.421-.151a.139.139,0,0,0,.065-.035.292.292,0,0,0-.029-.111c-.268-.017-.507-.017-.739-.029-.1-.006-.21-.14-.29-.023-.036.058.036.163.065.25,0,0,.021.087.036.14C3204.081,2794.886,3204.146,2794.606,3204.291,2794.874Zm-12.54-.239a1.424,1.424,0,0,0,.159-.035s.087-.035.13-.059c-.036-.023-.072-.07-.116-.07a4.1,4.1,0,0,0-.464.024c-.036,0-.109.075-.109.075.109.14-.007.233-.073.35-.087.174.036.267.275.221.072-.011.145-.03.2-.035.1-.2-.356.017-.189-.215.065-.087-.044-.245.189-.262Zm29.77,3.918-.029-.024c.036-.023.073-.052.073-.052-.363-.128-.45-.063-.443.314a.937.937,0,0,1,.3-.035c.29.053.29.058.377-.151.08-.18.058-.2-.218-.157Zm-12.076-.3c-.145-.18-.341-.023-.536-.082.08.222.138.4.21.565.015.036.087.064.13.094a.434.434,0,0,1,.065-.094c-.008-.227-.008-.233.217-.191a1.505,1.505,0,0,0,.167.022.3.3,0,0,0-.21-.1c-.2-.041-.2-.041-.036-.216Zm1.058-3.51-.022.005c.232.128.3.111.515-.146a6.312,6.312,0,0,0-.667-.075.273.273,0,0,0-.174.151c0,.1.087.139.21.081a.158.158,0,0,1,.087-.005Zm5.306.232-.094-.052c-.218-.1-.312-.18-.066-.286,0,0-.014-.093-.036-.1a.881.881,0,0,0-.21-.023c-.261,0-.363.088-.341.3l.109.07c.123-.151.2-.075.261.035.094.146.232.1.37.058Zm-.275,3.324c-.08.046-.189.076-.24.14a.222.222,0,0,0-.058.215c.008.035.138.058.211.064a.183.183,0,0,0,.2-.134,1.437,1.437,0,0,0,.087-.535c-.1.128-.159.192-.21.255Zm2.008.594a1.214,1.214,0,0,0-.254.005.543.543,0,0,0-.124.076.174.174,0,0,0,.131.146,4.348,4.348,0,0,0,.544.052.218.218,0,0,0,.159-.116c.007-.041-.065-.116-.123-.134a2.072,2.072,0,0,0-.334-.023Zm4.066-1.525c.08-.018.218-.041.218-.041a.5.5,0,0,0-.1-.32c-.065-.064-.167.017-.225.093-.021.035-.094.041-.138.07-.065.034-.123.07-.123.07.014.07.087.1.16.123l.094.006A.715.715,0,0,0,3221.608,2797.372Zm3.682,1.792c-.34-.035-.674-.069-1.015-.094,0,0-.087.041-.131.064a.451.451,0,0,1,.087.087c.384.018.718.023,1.051.035Zm-7.357-2.154a.869.869,0,0,1-.616-.123l-.08.029c-.007.053-.029.14-.029.14a1.725,1.725,0,0,0,.5.209s.145-.168.217-.261Zm-29.023-1.944c.022.035.109.046.167.07.029-.046.086-.1.072-.14-.022-.1-.167-.192-.036-.32l-.087-.082a2.472,2.472,0,0,0-.3.046A3.934,3.934,0,0,0,3188.91,2795.067Zm-10.5.093c.109-.07.2-.18.37-.134.08.017.145.041.145-.053a.252.252,0,0,0-.037-.093c-.225-.047-.42-.07-.616-.094a.317.317,0,0,0,.145.385A.02.02,0,0,1,3178.406,2795.159Zm40.288.5a.3.3,0,0,0,.188.006,2.249,2.249,0,0,0,.268-.134s.043-.041.043-.053-.051-.07-.073-.07c-.217.006-.442.023-.717.041A2.5,2.5,0,0,0,3218.694,2795.66Zm-20.086-.926v.7c.094-.1.2-.181.217-.262a1.014,1.014,0,0,0-.014-.361.437.437,0,0,0-.015-.1.283.283,0,0,0-.2.024Zm44.8,2.632a2.167,2.167,0,0,0,1.138.023A2.142,2.142,0,0,0,3243.412,2797.366Zm-23.834-1.456a.307.307,0,0,0-.087.064.157.157,0,0,0,.109.117c.116.029.239.047.391.082.015-.123.029-.233.051-.384C3219.847,2795.84,3219.709,2795.864,3219.579,2795.91Zm-19.513-1.141a.134.134,0,0,0,.21.11.989.989,0,0,0,.232-.151c.065-.058-.007-.168-.109-.163a.357.357,0,0,0-.123.046C3200.014,2794.5,3200.051,2794.636,3200.065,2794.77Zm-22.624,1.117a.88.88,0,0,0,.109-.111c.065-.07.1-.163-.007-.2-.087-.029-.225-.052-.29.065l-.014.023c.014.134-.3.139-.181.268.044.041.261-.035.391-.052Zm38.853.938c-.014-.012-.043,0-.065.006a1.29,1.29,0,0,0-.268.075c-.043.011-.087.082-.073.105l.138.087c.145-.012.3-.052.485-.087C3216.418,2796.929,3216.36,2796.876,3216.295,2796.825Zm.508-2.271c0-.018-.087-.041-.131-.041,0,0-.065.064-.058.081.065.093.109.227.21.273a.237.237,0,0,0,.283-.157c.015-.035.022-.064.043-.134C3217.005,2794.583,3216.853,2794.845,3216.8,2794.554Zm-1,.419a.635.635,0,0,1,.246-.122c.181-.018.21-.152.29-.233.021-.023-.014-.111-.058-.14a.232.232,0,0,0-.174.022,1.5,1.5,0,0,0-.29.28c-.036.052-.007.134-.007.2Zm29.4,2.474c.1.21.327.251.558.262l.13-.058a.187.187,0,0,0-.022-.088.6.6,0,0,0-.131-.082c-.217-.017-.376-.017-.543-.029Zm-72.856-2.427c.014-.052-.029-.116-.051-.168-.073.017-.181.017-.21.058-.109.139-.116.273.087.379A1.871,1.871,0,0,0,3172.346,2795.02Zm35.257-.273c.087-.006.181.005.174-.1,0-.058,0-.134-.043-.157-.131-.082-.1.064-.167.081a.111.111,0,0,1-.058.006c-.065.041-.13.088-.13.117s.079.064.108.087A.7.7,0,0,1,3207.6,2794.747Zm1.928.861c-.036-.122-.058-.245-.1-.367-.014-.035-.065-.064-.1-.094l-.13.123-.007-.006c.014.059.065.152.043.168-.138.082-.116.111.036.123a.319.319,0,0,1,.1.053h-.007s.116-.006.174-.006Zm-31.655.407c.153.012.109-.116.138-.18a.306.306,0,0,0-.029-.192l-.065-.1a.475.475,0,0,1-.095.063.574.574,0,0,0-.015.21C3177.833,2795.9,3177.681,2796.009,3177.877,2796.015Zm1.2.187c-.044.122.094.122.167.151a.341.341,0,0,0,.138-.018c.08-.052.08-.111.015-.175s-.145-.151-.239-.244C3179.124,2796.027,3179.1,2796.114,3179.073,2796.2Zm29.959,1.647c0,.047.137.146.188.135a.88.88,0,0,0,.254-.152l-.1-.07C3209.184,2797.75,3209.039,2797.709,3209.032,2797.849Zm22.051,1.52c.058-.023.116-.053.174-.075a1.463,1.463,0,0,0-.16-.134.092.092,0,0,0-.08-.018c-.094.035-.188.076-.283.117.08.047.152.1.174.11C3231.024,2799.374,3231.06,2799.38,3231.083,2799.368Zm-41.564-4.652.015-.081a.432.432,0,0,0-.116-.018l-.13.076c-.008.127-.1.262.022.431C3189.439,2794.967,3189.308,2794.792,3189.519,2794.717Zm-6.626.193a2.535,2.535,0,0,0,.4.058c.043,0,.109-.087.13-.146l-.145-.087c-.188-.035-.282.087-.384.181Zm55.562-1.229c-.007-.116-.159-.041-.247-.041-.108-.006-.247-.064-.268.076,0,0,.152.041.239.07C3238.3,2793.775,3238.461,2793.82,3238.454,2793.68Zm-20.122,2.387c.043.006.108-.041.159-.063-.029-.053-.051-.135-.1-.146a.351.351,0,0,0-.391.087A2.442,2.442,0,0,0,3218.332,2796.067Zm3.254-.6a2.6,2.6,0,0,0,.3-.134c.021-.011-.007-.1-.007-.1-.124,0-.24.012-.363.018.029.07.051.146.08.215Zm-101.5,3.132a1.161,1.161,0,0,0-.268-.158l-.2.07.116.128a1.928,1.928,0,0,0,.319.018Zm95.218-3.144c-.007-.029-.1-.07-.1-.07-.188.029,0,.232-.232.221,0,0-.029.041-.022.052a.622.622,0,0,0,.073.059C3215.222,2795.689,3215.345,2795.573,3215.309,2795.451Zm-28.973-.6c.058.093.167.1.29.034-.058-.087-.109-.174-.159-.268C3186.307,2794.677,3186.286,2794.77,3186.336,2794.851Zm13.352,1.024c-.124-.07-.145.023-.167.076,0,0,.022.111.065.122a.3.3,0,0,0,.348-.088A2.147,2.147,0,0,1,3199.688,2795.875Zm7.546-1.438a2.62,2.62,0,0,0,.073-.326c.007-.035-.029-.081-.065-.1l-.116.012a.853.853,0,0,0-.079.076,2.4,2.4,0,0,0,.13.349C3207.2,2794.443,3207.213,2794.438,3207.234,2794.438Zm13.084.047c-.123-.012-.145.093-.138.168a.328.328,0,0,0,.073.1,1.034,1.034,0,0,0,.275-.081C3220.441,2794.583,3220.391,2794.49,3220.318,2794.484Zm-27.2.5a.368.368,0,0,0-.007-.2,1.26,1.26,0,0,0-.094-.192c-.2.041-.022.128-.051.192a.387.387,0,0,0-.05.158c0,.041.058.07.094.111C3193.056,2795.026,3193.114,2795.008,3193.114,2794.985Zm-4.85.616s.109.041.16.058a.5.5,0,0,1,.066-.087.343.343,0,0,0-.109-.176.31.31,0,0,0-.116-.011l-.057.076C3188.228,2795.514,3188.228,2795.573,3188.264,2795.6Zm17.027,3.44c-.166-.047-.333-.093-.5-.127-.029-.012-.073.017-.109.029.014.029.029.081.044.081.188.023.37.041.558.058ZM3233,2798.5c-.029.035-.094.082-.08.1a.631.631,0,0,0,.159.175s.08-.041.159-.087Zm-3.581.18a.932.932,0,0,0-.188-.134.217.217,0,0,0-.174,0,.144.144,0,0,0-.051.151.449.449,0,0,0,.174.058,1.206,1.206,0,0,0,.232-.082Zm-35.714-4.482c.008-.006-.094-.07-.094-.07a.824.824,0,0,0-.239.093c.051.059.1.116.174.209A1.166,1.166,0,0,0,3193.708,2794.2Zm-2.682.908a.286.286,0,0,0-.073,0c-.036.087-.065.169-.094.256l.073.023c.051-.07.094-.134.145-.2l.007-.029Zm11.569.442c.021-.064.043-.134.065-.2l.014-.029a.852.852,0,0,0-.08-.129c-.058.035-.116.064-.21.116C3202.465,2795.4,3202.53,2795.474,3202.6,2795.549Zm39.7.268a2.178,2.178,0,0,0-.094-.285.338.338,0,0,0-.109-.041l-.051.07c.044.093.1.187.152.279C3242.194,2795.84,3242.26,2795.829,3242.3,2795.817Zm-122.031-.681c.014-.018-.073-.1-.073-.1a.426.426,0,0,0-.188.1s.051.087.1.169A.673.673,0,0,0,3120.265,2795.136Zm90.985.594c.065-.163.109-.285.189-.489C3211.149,2795.393,3211.069,2795.514,3211.25,2795.73Zm3.907,1.286a.623.623,0,0,0,.087-.128.731.731,0,0,1-.174,0c-.087.058-.08.134-.1.273A1.416,1.416,0,0,0,3215.157,2797.016Zm-6.451-2.427a.714.714,0,0,0-.188-.041c-.036,0-.109.053-.1.07a.664.664,0,0,0,.116.152Zm-18.962.855a.492.492,0,0,0,.2-.4l.008.006c-.21-.006-.319.053-.247.238a1.11,1.11,0,0,1,.043.158Zm27.269,1.956c-.014.041,0,.14.036.146.115.041.058-.059.087-.094a.938.938,0,0,1,.2-.157C3217.187,2797.284,3217.063,2797.278,3217.012,2797.4Zm-17.875-1.851a1.25,1.25,0,0,0,.087-.209s-.044-.076-.065-.11c-.036.029-.087.059-.094.094a1.127,1.127,0,0,0,.022.22Zm-28.792-.53a1.322,1.322,0,0,0-.232-.11s-.087.063-.131.1c.065.047.131.094.21.157C3170.266,2795.1,3170.31,2795.061,3170.346,2795.02Zm40.274.454a.806.806,0,0,0-.21-.087s-.116.064-.123.1c0,0,.073.076.13.128C3210.5,2795.561,3210.562,2795.52,3210.619,2795.474Zm6.437,2.876c.087-.046.167-.1.261-.14s.1-.082.022-.122a.287.287,0,0,0-.124-.024,2.369,2.369,0,0,0-.2.262A.154.154,0,0,1,3217.056,2798.349Zm-10.909.8c.087-.052.188-.117.051-.181a.946.946,0,0,0-.268-.035c-.116.152.058.129.124.164,0,0,.073.04.1.058Zm11.1-3.644c-.058-.03-.123-.053-.189-.082,0,.07-.007.146-.014.216l.13-.029a.243.243,0,0,0,.058-.076Zm-7.075,3.463a1.766,1.766,0,0,0-.3-.041c-.036,0-.08.047-.116.076a2.1,2.1,0,0,0,.211.082.28.28,0,0,0,.123,0l.116-.035A.444.444,0,0,1,3210.17,2798.966Zm25.7-5.029-.087-.041a1.5,1.5,0,0,0-.138.146c.036.018.065.035.131.063A.979.979,0,0,0,3235.866,2793.937Zm-17.034,1.24-.08.058c0,.111.1.122.21.111a1.6,1.6,0,0,0,.2-.094A2.2,2.2,0,0,0,3218.832,2795.177Zm19.731-.949c.014-.18-.036-.273-.326-.2Zm-21.891,1.735c-.014-.052-.08-.1-.116-.151-.058.035-.152.064-.152.1s.064.1.123.18C3216.592,2796.033,3216.679,2795.986,3216.672,2795.963Zm-44.9-.937c-.008-.053-.08-.1-.116-.146-.051.035-.124.07-.131.105,0,.052.051.1.095.2C3171.7,2795.107,3171.781,2795.061,3171.774,2795.026Zm44.419,2.7c-.217.11-.159.25-.123.378C3216.143,2797.988,3216.266,2797.89,3216.193,2797.721Zm-29.69-2.277-.065.018c.015.07.044.146.065.215a.535.535,0,0,0,.08.046C3186.641,2795.59,3186.648,2795.5,3186.5,2795.444Zm28.589,2.369v.082l-.007-.006c.152.006.3.023.457.023a.485.485,0,0,0,.058-.075s-.029-.03-.043-.042c-.145.14-.32-.047-.472.023Zm-94.8.49a.981.981,0,0,0-.182-.087.471.471,0,0,0-.145.029c.029.029.051.082.087.087a1.19,1.19,0,0,0,.247.023Zm-.457.494a.546.546,0,0,0-.167.058,1.091,1.091,0,0,1,.1.082.755.755,0,0,0,.3-.047A.852.852,0,0,0,3119.837,2798.8Zm67.232-4.011a.641.641,0,0,0-.175-.151l-.087.046c.029.081.065.157.123.285C3187,2794.874,3187.083,2794.81,3187.069,2794.786Zm30.248,2.963c-.065.019-.13.047-.2.07l.116.082a1.316,1.316,0,0,0,.247-.1C3217.389,2797.773,3217.346,2797.744,3217.317,2797.75Zm-.8-2.526a.68.68,0,0,0,.174.058,1.444,1.444,0,0,0,.167-.07c-.044-.03-.088-.059-.152-.1C3216.636,2795.153,3216.578,2795.188,3216.52,2795.224Zm.269,1.781-.095.07a.22.22,0,0,0,.073.128s.095-.029.152-.052C3216.846,2797.069,3216.817,2797.034,3216.788,2797Zm-36.795-1.368c.007-.1-.073-.146-.188-.14a.346.346,0,0,0-.087.052,1.765,1.765,0,0,0,.159.221C3179.936,2795.707,3179.994,2795.672,3179.994,2795.637Zm40.788,2.235a1.248,1.248,0,0,1-.138-.1c-.022.04-.08.1-.058.116a.194.194,0,0,0,.094.064.674.674,0,0,0,.261,0A1.088,1.088,0,0,1,3220.782,2797.872Zm-82.011-3.341.108-.088a.657.657,0,0,0-.174-.076c-.029,0-.073.047-.152.1A.852.852,0,0,0,3138.771,2794.531Zm81.287,2.439a.634.634,0,0,0-.123.029l-.051.076a1,1,0,0,0,.181.006.532.532,0,0,0,.167-.059A1.132,1.132,0,0,0,3220.057,2796.97Zm25.138.483c-.08-.064-.166-.134-.282-.052-.022.012-.015.07-.015.07.138.1.218.023.3-.024Zm-22.986,1.344c.051-.022.073-.075.1-.116,0,0-.1-.064-.123-.058a.994.994,0,0,0-.167.145C3222.116,2798.786,3222.181,2798.815,3222.21,2798.8Zm-33.133-3.382.007-.035c-.109-.006-.225-.018-.341-.023l-.021.023C3188.975,2795.479,3189.025,2795.486,3189.076,2795.416Zm23.471-.855c-.051.011-.123.075-.123.11.007.1.094.046.152.023a2.382,2.382,0,0,0,.254-.1A.968.968,0,0,0,3212.547,2794.56Zm-21.927.232c.094-.046.181-.093.276-.139l-.007.006a.643.643,0,0,1-.058-.116.426.426,0,0,0-.247.07c-.029.047.029.122.044.187Zm21.174-.081a1.336,1.336,0,0,0,.145.017c.008-.046.029-.093.008-.127,0,0-.087-.059-.131-.053s-.094.041-.167.076A1.294,1.294,0,0,0,3211.794,2794.711Zm-18.252.686a.633.633,0,0,0,.073-.115s-.051-.035-.065-.03a.418.418,0,0,0-.123.082c-.022.035-.008.087-.008.152A.949.949,0,0,0,3193.541,2795.4Zm-65.9,3.809c-.124-.006-.247-.006-.37-.012v.029a1.974,1.974,0,0,0,.37.064Zm54.213-4.693s-.072.018-.109.023a.259.259,0,0,0,.08.088l.131-.047A.385.385,0,0,0,3181.849,2794.513Zm34.931,3.37a.33.33,0,0,0,.131-.07l-.036-.064c-.058.012-.116.035-.2.059C3216.73,2797.849,3216.766,2797.89,3216.78,2797.884Zm27.117-1.956.088-.076a.163.163,0,0,0-.109-.082c-.036-.006-.073.041-.146.076C3243.811,2795.887,3243.854,2795.928,3243.9,2795.928Zm-44.63-1.241-.051-.075c-.051.029-.1.053-.1.053-.058.052-.022.093,0,.156A.882.882,0,0,0,3199.268,2794.688Zm-9.017.053a.879.879,0,0,0,.007.1l.087.029a.585.585,0,0,0,.015-.158s-.051-.052-.094-.093A1.036,1.036,0,0,0,3190.25,2794.741Zm15.9.727-.109-.035a.546.546,0,0,0-.138.106s.036.034.065.069C3206.038,2795.549,3206.089,2795.508,3206.147,2795.468Zm-84.9-1.141a.2.2,0,0,0-.072.053.105.105,0,0,0,.072.1.783.783,0,0,0,.188-.041C3121.308,2794.362,3121.265,2794.321,3121.25,2794.327Zm125.12,3.411-.1-.093a.38.38,0,0,1-.094.058c.015.059.065.082.116.129C3246.326,2797.785,3246.377,2797.756,3246.37,2797.738Zm-62.752-2.13c-.087-.164-.2-.164-.334-.076C3183.379,2795.555,3183.473,2795.573,3183.618,2795.608Zm34.939,1.461c-.065-.029-.124-.064-.189-.093l-.08.046c.058.042.116.082.189.135C3218.513,2797.115,3218.535,2797.092,3218.557,2797.069Zm-85.179-2.7a.294.294,0,0,0-.065-.029s-.065.023-.1.041c0,0,.058.035.108.058C3133.341,2794.415,3133.363,2794.4,3133.378,2794.374Zm36.772.187c.014-.059.029-.123.043-.187l-.021-.012a.567.567,0,0,0-.094.134l.029.087Zm5.777-.285-.109.035a.34.34,0,0,1,.065.076,1.025,1.025,0,0,0,.312-.041A1.812,1.812,0,0,0,3175.927,2794.275Zm32.358.733s-.065-.041-.109-.064c-.029.035-.073.07-.073.1s.043.07.094.128A.5.5,0,0,0,3208.285,2795.008Zm3.03-.3c.036.006.087-.041.131-.064a1.081,1.081,0,0,0-.145-.1,1.059,1.059,0,0,0-.1.07Zm-4.2.122.08-.087a.455.455,0,0,0-.116-.111l-.1.076C3207.024,2794.752,3207.067,2794.786,3207.111,2794.828Zm-8.945.414s-.043-.094-.073-.14l-.073.023c.029.047.058.1.087.146l.043.035C3198.166,2795.258,3198.173,2795.247,3198.166,2795.241Zm19.927,1.99c-.014-.005-.043.024-.043.024a.106.106,0,0,0,.073.087c.022.012.065-.017.138-.035A.951.951,0,0,0,3218.093,2797.231Zm-38.324-2.636-.1.052c.029.018.058.041.058.041a.351.351,0,0,0,.159-.029A.629.629,0,0,0,3179.769,2794.595Zm52.35-.733a1.559,1.559,0,0,0-.1.123s.014.035.022.058l.123-.1C3232.14,2793.9,3232.126,2793.879,3232.119,2793.861Zm-11.1,1.473-.036-.087c-.036.023-.08.046-.094.076s.029.052.029.052C3220.978,2795.381,3221.021,2795.357,3221.021,2795.334Zm-8.111,3.685s-.065-.07-.1-.075c0,0-.087.041-.13.058.029.035.058.064.094.111C3212.83,2799.071,3212.874,2799.048,3212.91,2799.019Zm6.038-4.069a.416.416,0,0,0-.131-.064l-.065.07a1.093,1.093,0,0,0,.131.087C3218.919,2795,3218.956,2794.956,3218.948,2794.95Zm-41.179,1.415s.051-.035.08-.053a.892.892,0,0,0-.109-.11,1.215,1.215,0,0,0-.123.052A1.241,1.241,0,0,0,3177.769,2796.365Zm19.4-.914a.142.142,0,0,1,.036-.041l-.087-.1s-.029.041-.051.076Zm6.1-.151c.007-.006-.036-.064-.036-.064a.19.19,0,0,0-.116.047s0,.052.007.115A.908.908,0,0,0,3203.269,2795.3Zm14.026-.117-.08.047a.489.489,0,0,0,.131.047l.123-.076A.762.762,0,0,0,3217.3,2795.183Zm-17.491-.344.043-.034c-.021-.035-.051-.058-.072-.088l-.029.035A.171.171,0,0,0,3199.8,2794.839Zm-29.814.966a.239.239,0,0,0,.08-.041l-.058-.1c-.036,0-.072.047-.131.087C3169.933,2795.782,3169.969,2795.812,3169.99,2795.805Zm-3.117-1.065a1.117,1.117,0,0,1,.087-.082.235.235,0,0,0-.094-.047s-.051.035-.087.065C3166.816,2794.7,3166.844,2794.723,3166.874,2794.741Zm53.72,2.468a.535.535,0,0,1-.087-.047.166.166,0,0,0-.123.041.641.641,0,0,0,.108.117C3220.542,2797.266,3220.565,2797.237,3220.593,2797.208Zm-39.759-1.63c.051,0,.1,0,.159-.005a.414.414,0,0,1,.015-.047.9.9,0,0,0-.153-.006l-.051.041Zm25.095-1.211-.087-.035a.471.471,0,0,0-.08.1l.108.064A.435.435,0,0,0,3205.929,2794.368Zm11.554.344a.193.193,0,0,0-.029-.059l-.065.006c.015.029.037.058.058.093Zm-11.873,1.018a.31.31,0,0,0-.123-.052l-.08.064.094.047C3205.545,2795.765,3205.582,2795.748,3205.61,2795.73Zm12.113.279c.007-.017-.022-.058-.029-.052l-.1.035c-.007.017.022.052.044.1A.625.625,0,0,0,3217.723,2796.009Zm-45.957-.751a.252.252,0,0,0-.109-.023l-.08.064c-.007.024.029.058.051.11C3171.708,2795.323,3171.738,2795.288,3171.766,2795.258Zm25.233-1.344-.058-.024-.058.047.065.029C3196.963,2793.949,3196.985,2793.931,3197,2793.914Zm25.987,5.245a.243.243,0,0,1-.043-.018c-.065.006-.1.018-.138.023l.094.029A.615.615,0,0,0,3222.986,2799.159Zm-34.286-3.266a1.158,1.158,0,0,0,.21-.024c.029-.005.036-.052.036-.052s-.072-.059-.087-.047a1.43,1.43,0,0,0-.152.128Zm34.438-.6-.058-.071a.111.111,0,0,0-.087.041l.058.094C3223.087,2795.323,3223.13,2795.3,3223.138,2795.288Zm-44.239-1.06a.342.342,0,0,1-.065.012l.029.035.087-.006C3178.935,2794.257,3178.921,2794.234,3178.9,2794.228Zm43.442.978a.086.086,0,0,0-.044.017c0,.029.022.047.051.058a.52.52,0,0,0,.043-.041Zm-43.906,1.077.029-.064-.123-.064a.162.162,0,0,0-.022.035A.189.189,0,0,0,3178.435,2796.283Zm34.424-.419a.446.446,0,0,0-.095.1c-.007.006.066.058.08.052a.765.765,0,0,0,.13-.087Zm.072-1.275c0,.023.073.041.073.041a.137.137,0,0,0,.094-.1s-.022-.059-.051-.14C3212.968,2794.513,3212.931,2794.554,3212.931,2794.589Zm15.831.693c-.021.041-.05.075-.065.111l.043.035a.615.615,0,0,0,.051-.07Zm4.857-1.542a.236.236,0,0,0-.044-.087l-.065.011c.014.041.029.076.051.128C3233.591,2793.762,3233.627,2793.75,3233.62,2793.74Zm-80.026.826c.014-.035.043-.065.036-.1l-.072-.064c-.022.035-.058.07-.051.1a.983.983,0,0,0,.094.059Zm-.638.029-.109.029.094.082s.058-.029.109-.059C3153.007,2794.624,3152.985,2794.595,3152.956,2794.595Zm37.186-.373-.058-.076a.542.542,0,0,1-.087.053.333.333,0,0,0,.058.134C3190.091,2794.286,3190.135,2794.257,3190.142,2794.222Zm49.82,4.855-.05-.041-.1.035c.029.024.051.047.087.082A.259.259,0,0,0,3239.962,2799.077Zm-49.066-4.424a.153.153,0,0,1-.022.07l.109.094s.043-.075.029-.088a.569.569,0,0,0-.123-.07Zm-71.523,2.416s-.043-.035-.058-.035l-.073.052c-.007.024.022.053.051.111A.575.575,0,0,0,3119.373,2797.069Zm63.491-1.508c-.007-.029-.065-.058-.094-.087-.029.035-.066.07-.066.07-.007.07.036.1.08.169C3182.828,2795.637,3182.864,2795.6,3182.864,2795.561Zm33.583,1.752s-.007-.058-.007-.087a.393.393,0,0,1-.073.017v.1C3216.4,2797.331,3216.447,2797.325,3216.447,2797.313Zm-9.119-3.487a.052.052,0,0,0-.007-.041.7.7,0,0,0-.094.006s.022.035.036.053Zm-62.774.419a.307.307,0,0,1-.029.036.254.254,0,0,0,.065.04.316.316,0,0,1,.014-.029Zm13.048.071-.109.035c.014.023.036.052.051.075l.094-.046C3157.624,2794.351,3157.61,2794.316,3157.6,2794.316Zm24.073,1.775a.149.149,0,0,0,.015.059h.065a.5.5,0,0,0-.007-.088C3181.711,2796.073,3181.668,2796.085,3181.675,2796.091Zm31.757-1.525c-.007-.024-.044-.047-.044-.047-.043,0-.087.017-.094.041a.781.781,0,0,0,.065.087Zm.007.366a.069.069,0,0,0-.051.012c0,.029.022.047.044.064l.051-.046C3213.468,2794.956,3213.454,2794.932,3213.439,2794.932Zm5.719.821.08-.012.087-.082-.022-.023a.456.456,0,0,0-.123.063l-.007.058Zm-.1,2.812a.27.27,0,0,1,.044.081.156.156,0,0,0,.123.023s.014-.064-.014-.075c0,0-.109-.018-.16-.024Zm-9.518-2.963.014.093a.385.385,0,0,0,.138.047l.036-.053a.286.286,0,0,0-.044-.058.177.177,0,0,0-.109-.018Zm4.784,3.434a.544.544,0,0,0-.087-.082s-.043.012-.073.023c0,0,.051.064.073.093Zm-37.831-3.2-.094.082.007-.012.087.075.029-.087a.084.084,0,0,0-.021-.041Zm13.453-.792c.043-.082.145-.157.008-.314v.32Zm.022-.507a.224.224,0,0,1-.065.035c-.029.029.008.076.008.076a.4.4,0,0,0,.108-.047C3190,2794.577,3189.982,2794.56,3189.968,2794.542Zm25.073,4.436-.058.035c0,.023.022.047.036.07,0,0,.058-.023.167-.058A.669.669,0,0,0,3215.041,2798.978Zm-22.043.146-.029-.047-.036.006a.142.142,0,0,1,.021.035Zm-57.373-.047a.4.4,0,0,0-.08.064.119.119,0,0,1,.043.029.283.283,0,0,0,.079-.04Zm83.164-4.459a.172.172,0,0,1-.008-.047.453.453,0,0,0-.087,0l.029.059A.358.358,0,0,1,3218.789,2794.618Zm2.805.838c.007.035.007.064.014.1,0,0,.015.041.022.058l.051-.046c.036-.07,0-.1-.094-.1Zm-3.219-.274-.065.018.036.041a.056.056,0,0,0,.043-.012Zm-93.754-.762a.492.492,0,0,0,.007-.059.329.329,0,0,1-.058-.006.044.044,0,0,0-.022.047A.22.22,0,0,0,3124.621,2794.42Zm118.321,1.915-.065.012c.014.023.029.047.044.075a.344.344,0,0,0,.036-.023Zm-14.4,2.91.065-.023a.3.3,0,0,1-.05-.075l-.058.047C3228.516,2799.211,3228.524,2799.24,3228.545,2799.246Zm-53.408-4.925c.015-.011.051-.035.051-.035a.416.416,0,0,0-.073-.081.231.231,0,0,0-.087.017C3175.072,2794.257,3175.1,2794.286,3175.137,2794.321Zm5.132,1.45v-.029l-.015.023a.194.194,0,0,0,0,.064A.2.2,0,0,0,3180.269,2795.771Zm-7.473-.058a.36.36,0,0,0-.022-.088l-.065.018a.19.19,0,0,0,0,.07C3172.752,2795.73,3172.8,2795.724,3172.8,2795.713Zm44.978,2.776v-.1l.015-.047c-.058.029-.116.053-.174.082a1.293,1.293,0,0,1,.167.059Zm-35.3-4.272c-.015-.023-.029-.052-.029-.052-.029-.029-.087,0-.087,0l.044.086S3182.451,2794.228,3182.473,2794.216Zm23.094,1.013-.014.047.043.006a.345.345,0,0,0,.051-.041A.483.483,0,0,0,3205.567,2795.229Zm-27.487,1.082.015.029a.108.108,0,0,0,.043-.011l-.007-.052A.337.337,0,0,0,3178.08,2796.312Zm-.645-.291.152-.087-.145-.046.007-.006a.967.967,0,0,1-.007.146Zm14.033-.652a.381.381,0,0,0-.036-.012l-.036.029s.029.029.044.041A.521.521,0,0,0,3191.468,2795.369Zm-18.984-.757-.029.012v.029a.192.192,0,0,0,.043-.006Zm37.7,2.946a.38.38,0,0,0-.015-.052.533.533,0,0,1-.058.029l.015.058Zm1.95-2.928s.008.023.015.041a.081.081,0,0,0,.021-.012v-.035Zm2.334-.239a.47.47,0,0,1,.044-.023.087.087,0,0,0-.029-.006s-.036.012-.051.018Zm.276.466-.014-.046-.029.011a.028.028,0,0,0,.007.03Zm-6.053-1.024.058.023a.133.133,0,0,0,.043-.041c0-.035-.022-.04-.022-.04Zm7.1,2.834s-.044-.017-.066-.029c-.014.017-.036.041-.036.041a.106.106,0,0,0,.044.035Zm-7.626-1.985-.072.023a.351.351,0,0,0,.036.046.212.212,0,0,0,.072-.017C3208.2,2794.711,3208.184,2794.682,3208.169,2794.682Zm8.6.728-.021-.023a.306.306,0,0,1-.043.017.068.068,0,0,0,.014.041S3216.766,2795.427,3216.773,2795.41Zm-43.76-1.048a.492.492,0,0,0-.051-.029l-.022.018.051.029Zm-19.093.262s.051-.006.08-.006l-.007-.023h-.051Zm.094.11s-.021.035-.029.052l.058.018c.022-.006.022-.035.022-.035Zm80.787-1.129-.015-.024-.051.035.022.023Zm-12.613,1.816-.029.011a.284.284,0,0,0,.036.041l.029-.017A.414.414,0,0,0,3222.188,2795.421Zm-1.334,3.662-.022-.012-.043.035a.266.266,0,0,1,.029.018A.349.349,0,0,0,3220.854,2799.083Zm-40.222-4.5-.036-.029-.029.023.021.053Zm-33.8-.3-.022.035.029,0,.014-.023Zm21.507.11a.479.479,0,0,1,.073-.093.724.724,0,0,0-.109-.023l.044.122Zm51.676,4.669-.029.017a.128.128,0,0,0,.036.023l.036-.011A.175.175,0,0,0,3220.014,2799.06Zm-.689-3.778s.029-.006.036-.006a.053.053,0,0,0-.007-.024.047.047,0,0,0-.029,0Zm-16.23-1.066v-.087l-.094.006c.037.029.072.052.1.075Zm-62.875,4.919a.167.167,0,0,0-.051.035l.036.047a.309.309,0,0,0,.087-.047C3140.256,2799.153,3140.235,2799.13,3140.22,2799.135Zm-1.385-5-.029-.018-.043.041.058.023A.148.148,0,0,0,3138.835,2794.135Zm-19.02,2.45a.154.154,0,0,1-.029-.035.087.087,0,0,0-.051.018l.007.029C3119.765,2796.591,3119.793,2796.591,3119.815,2796.585Zm75.7-1.327.051-.041a.3.3,0,0,0-.036-.04.6.6,0,0,1-.051.035C3195.477,2795.247,3195.5,2795.264,3195.513,2795.258Zm48.363,2.381a.886.886,0,0,0-.109-.058.217.217,0,0,0-.051-.006l.044.047c.036.005.08.005.123.011C3243.876,2797.633,3243.876,2797.633,3243.876,2797.639Zm-46.145-2.363a.278.278,0,0,0-.058.029s.022.047.036.07a.238.238,0,0,0,.029-.029Zm7.531.18-.014-.064-.022.017a.121.121,0,0,0,.007.041Zm-77.909,3.528s-.043.029-.065.046a.141.141,0,0,1,.043.024.562.562,0,0,0,.065-.035Zm90.3-4.646-.08-.012a.259.259,0,0,0-.029.018c.022.011.044.017.065.029Zm-32.6-.088.051-.011-.029-.024a.09.09,0,0,0-.022.006Zm-2.088,1.776a.291.291,0,0,1,.022-.041.213.213,0,0,0-.044-.1h-.036a.282.282,0,0,0,.022.082l.043.052Zm57,3.214a.381.381,0,0,1-.043-.03.129.129,0,0,0-.073.011.162.162,0,0,0,.043.047C3239.911,2799.258,3239.933,2799.252,3239.962,2799.24Zm-72.53-4.844.036.006a.317.317,0,0,1,.036-.041l-.029-.011C3167.46,2794.368,3167.446,2794.38,3167.432,2794.4Zm62.237-.837c-.007.011-.022.029-.022.029l.029.018.022-.03Zm-27.893,5.454-.022-.053a.2.2,0,0,1-.058.018.257.257,0,0,0,.007.064Zm-78.917-4.424s-.036.023-.051.035a.083.083,0,0,1,.014.017.309.309,0,0,0,.058-.029C3122.874,2794.606,3122.867,2794.589,3122.859,2794.589Zm37.556,0,.029.012.029-.03-.036-.011Zm46.312.25v-.029l-.029.029c0,.006.007.012.007.012S3206.727,2794.845,3206.727,2794.839Zm26.581,4.145.029.017.043-.011a.069.069,0,0,0-.029-.053S3233.322,2798.966,3233.308,2798.984Zm-45.406-4.9c.014,0,.043-.023.043-.023a.415.415,0,0,0-.043-.053.137.137,0,0,0-.037.029Zm18.593,4.581c.065.012.137.024.2.041a.259.259,0,0,0,.007-.041c-.073,0-.145,0-.217.006Zm10.322-2.613c.036-.023.08-.047.116-.07l-.029-.017a.653.653,0,0,1-.051.058C3216.824,2796.056,3216.817,2796.056,3216.817,2796.056Zm9.22-.768a.238.238,0,0,0-.029-.03.111.111,0,0,0-.058-.006l.014.047A.513.513,0,0,1,3226.037,2795.288Zm-8.785.209c.036.017.08.042.116.058a.085.085,0,0,1,.014-.023s-.094-.024-.137-.029Zm.405-.943a.106.106,0,0,1,.022-.023l-.022-.024-.014.024Zm-12.532-.64-.015.029.043.017Zm-10.975,0,.007-.012h-.029C3194.136,2793.908,3194.143,2793.908,3194.151,2793.914Zm24.152-.169.007.024.029-.018Zm-23.986.472-.014-.029-.051.023a.271.271,0,0,1,.029.018Zm24.247,2.311h-.1a.006.006,0,0,0,.007-.006,1.045,1.045,0,0,1-.094.082l.007-.006c.116.07.152.006.174-.076Zm-60.324-1.961.022.035.029-.018-.015-.023Zm45.732.739.007.029.029-.011Zm-46.211-.792a.442.442,0,0,0-.072.041.218.218,0,0,1-.015.029c.015-.006.036-.012.036-.012l.058-.064Zm40.129-.571.029-.006s-.007-.023-.014-.023l-.029.006Zm5.7.774.007-.052h-.029a.094.094,0,0,0-.008.035Zm29.792-.727a.2.2,0,0,0-.051-.03l-.029.018a.348.348,0,0,1,.05.029Zm-13.7,2.94s.029-.053.044-.082a.386.386,0,0,1-.036.047Zm-34.706-1.432a.254.254,0,0,0-.051-.023l-.014.012.029.023Zm35.467,1.362.014-.029-.029-.006-.014.023A.112.112,0,0,0,3220.448,2796.859Zm-.007-1.647s-.014.029-.021.04.021.006.029,0l.022-.023Zm.885,3.865a.05.05,0,0,1-.007.023c0,.012.014.006.014.006Zm-42.913-3.906c-.036.006-.079.017-.115.023l.036.047c.021-.029.043-.053.043-.053C3178.406,2795.166,3178.413,2795.166,3178.413,2795.171Zm-58.33,1.146s0-.018.007-.023a.346.346,0,0,0-.044-.005v.029C3120.062,2796.318,3120.076,2796.324,3120.083,2796.318Zm66.862-.874-.022-.017s-.036.023-.051.035a.264.264,0,0,1,.036.023Zm-12.5,3.767a.059.059,0,0,1,.008-.029l-.022.006A.069.069,0,0,0,3174.448,2799.211Zm70.03-1.484-.094-.053-.029.012.088.023Zm-94.3-3.354h-.036l.014.012S3150.18,2794.38,3150.18,2794.374Zm77.083,1.351a.081.081,0,0,0,.015-.018l-.029-.024-.022.024C3227.24,2795.713,3227.248,2795.719,3227.262,2795.724Zm-44.347-1.6-.036.012a.045.045,0,0,0-.007.023l.044-.006Zm1.558.273a.206.206,0,0,1,.029-.006l-.021-.035a.271.271,0,0,0-.029.018Zm-42.238-.11-.007.018a.118.118,0,0,0,.044.017.1.1,0,0,0,.036-.023A.3.3,0,0,0,3142.235,2794.286Zm48.392.512s-.036.034-.051.053l-.022.029.044-.023a.085.085,0,0,0,.014-.04Zm21.354,4.22h.036l-.014-.012Zm-21.558-3.528-.015.023a.338.338,0,0,1,.029.018l.015-.024Zm23.123,3.516h.036l-.014-.035-.029.012Zm-72.117-4.476-.036-.024v.024Zm68.638.757-.007.023a.139.139,0,0,1,.029.017A.221.221,0,0,0,3210.068,2795.288Zm-10.67-.449-.029-.011a.082.082,0,0,1-.014.024.046.046,0,0,0,.021.005S3199.4,2794.845,3199.4,2794.839Zm9.169.39.029.023c.014-.017.029-.029.043-.046a.141.141,0,0,0-.029-.018C3208.6,2795.2,3208.582,2795.217,3208.568,2795.229Zm-.123-.239h.029v-.052h-.036Zm-70.487-.542a.174.174,0,0,1-.036-.006l.007.018A.1.1,0,0,0,3137.958,2794.449Zm77.641.745-.007.029c0,.006.022.006.022.006Zm22.354-1.1.044-.024v-.035a.268.268,0,0,0-.044.018Zm-44.55,1.688c.014.006.044-.012.044-.012l-.007-.064-.073.023Zm-32.351-1.066a.018.018,0,0,1,.007.012.111.111,0,0,0,.029-.012Zm41.1,4.3-.036-.035-.036.012.036.04Zm-12.4-3.562-.022.029a.019.019,0,0,0,.007.012l.008-.047Zm-18.9-.64h.1l-.014.006-.036-.07-.043.07Zm-1.877-.18-.007.029.044-.012-.008-.023Zm-7.524-.291-.014.017h.029A.094.094,0,0,0,3161.444,2794.339Zm60.179,4.744.008.017a.087.087,0,0,1,.014-.017Zm-1.965-.506.008.035v-.023Zm-.42-.128.029-.012-.022-.012Zm-.181.116a.274.274,0,0,1-.014-.064c0,.023.007.047.007.069Zm-.347-1.956h.08a.179.179,0,0,0-.044-.006Zm-41.6-1.4h-.051v.035l.044-.041Zm41.339,2.689h-.036l.014.029Zm-.522-.891.007.006Zm-41.129-1.066a.12.12,0,0,0-.029.018.246.246,0,0,0,.029.052.067.067,0,0,0,.014-.017A.392.392,0,0,0,3176.8,2795.939Zm-.609-1.35s-.021.012-.021.023l.014.018Zm-22.587-.029v.034l.021.017c-.007-.011-.021-.029-.021-.029Zm59.091.919h.022c0-.006-.008-.012-.008-.012S3212.692,2795.474,3212.692,2795.479Zm-2.254,3-.029-.012v.023Zm-61.165.925a.055.055,0,0,1-.007-.017l-.03,0,.007.018A.062.062,0,0,0,3149.274,2799.4Zm26.022-3.795.029.005a.274.274,0,0,1,.015-.029l-.029-.006Zm34.069,1.95c-.014-.017-.029-.029-.043-.046l-.015.023a.258.258,0,0,0,.065.018Zm-1.8-2.328a.069.069,0,0,0,.015.023.079.079,0,0,0,.014-.017Zm-.464,2.6-.007-.029v.035Zm-32.952,1.368a.271.271,0,0,0-.043.017.15.15,0,0,0,.036.03l.029-.024Zm32.279-.681c.021.052.043.1.065.163l.007-.006c-.022-.058-.044-.111-.044-.111Zm-1.232-2.672a.174.174,0,0,0-.022-.035s.008.023.015.041Zm-.29-.966.014-.023h-.029Zm-59.628-.3-.007-.023-.051.006Zm57.642,3.993v0Zm-30.169-3.632-.007-.029-.044.023.022.024Zm25.733,3.679a.057.057,0,0,1-.014.017.081.081,0,0,0,.022.006C3198.485,2798.635,3198.478,2798.629,3198.478,2798.617Zm4.618-4.4.022-.006h-.015Zm-22.239.635h.022a.027.027,0,0,0-.007-.018C3180.871,2794.839,3180.863,2794.845,3180.856,2794.851Zm25.291,4.3.007.006Zm1.225-3.912-.007-.006Zm.515,3.259.014.006-.007-.012Zm-28.719-2.922.007-.006Zm.007-.006v-.012l-.007.018Zm30.017-.3-.015.018.022-.012Zm.174.344c-.029.017-.065.035-.1.052v.006a1.072,1.072,0,0,0,.109-.058Zm.08,2.648.007-.006Zm.442-.769-.007-.006Zm-18.136-2.852.021.011-.014-.017Zm19.781,1.979c0-.006-.007-.006-.007-.006S3211.533,2796.609,3211.533,2796.615Zm-34.25-1.968v0Zm38.933.786h0Zm-.007,0,.007.006v-.006Zm1.138,2.923c-.036.017-.073.041-.109.059l.008,0c.036-.017.072-.04.108-.058Zm0,0,.007.006Zm1.558-1.281.007-.006Zm-87.963-2.649.007.006Zm87.963,2.649.007-.006Zm-88.123,1.735c-.029.023-.058.046-.094.07l.007.005a.9.9,0,0,0,.094-.07Zm-.087.075-.007-.005Zm88.985-1.961v0Zm1.812-2.515h0Zm-47.6-.087.014.006-.007-.011Zm.007,0-.014-.006.007.011Zm-.616,1.751-.008.006Zm50.566-.279-.014.017.022-.006Zm.348,2.66.007-.012-.014.006Zm1.037-.291Zm2.45,1.135-.021.006h.014Zm0,0-.007-.017v.023Zm.863-3.5-.015.006Zm-60.208-1.4-.007.024a.019.019,0,0,1,.007-.012Zm32.365.442-.022.006h.015A.006.006,0,0,0,3200.7,2794.833Zm0,0v-.017s0,.017-.007.023A.006.006,0,0,0,3200.7,2794.833Zm43.18,2.8h0Zm.594.094.007-.006Zm-35.214-2.061.007.017-.007-.023Zm-51.495-1.159v-.011l-.007.017Zm45.333.309v.017l.007-.023Zm.007,3.848-.007.005Zm30.974-3.074-.015.023.022.012.021-.023Zm-34.214,2.328c-.015.03.029.076.029.076.057.012.137-.006.145-.035.057-.145.094-.3.152-.482C3199.877,2797.563,3199.935,2797.768,3199.87,2797.918Zm-.312-.285c.1-.023.2-.052.159-.157-.007-.024-.057-.035-.087-.047a1.463,1.463,0,0,0-.066.181.062.062,0,0,0,.008.029Zm3.219.18a.294.294,0,0,0,.16.209c.051.03.159-.023.239-.04a.741.741,0,0,0-.058-.21,1.827,1.827,0,0,0-.181-.2C3202.863,2797.68,3202.769,2797.756,3202.776,2797.814Zm.515-.122a.135.135,0,0,0,.021.024h-.007a.219.219,0,0,1-.007-.029Zm-.544-.134-.022.029.029-.005C3202.754,2797.575,3202.747,2797.563,3202.747,2797.558Zm.551.128-.014-.012.007.017Zm11.033.245c-.043-.041-.073-.1-.13-.128,0,0-.131-.047-.2-.065a.88.88,0,0,1,.015.158.771.771,0,0,0,.319.029Zm-34.069-.338-.065.082c0,.023.029.053.029.053l.051.011v-.081l-.022-.059Zm54.88.239-.043-.047c-.015,0-.036.018-.058.023l.044.041A.528.528,0,0,0,3235.142,2797.832Zm-43.289-.414-.014.006h.021Zm-3.074.059a.456.456,0,0,0-.1.1.357.357,0,0,0,.029.07l.051-.029a.489.489,0,0,0,.014-.139Z" transform="translate(-3119.241 -2793.559)" fill="#1c575a"/>
</svg>
