<svg xmlns="http://www.w3.org/2000/svg" width="107.318" height="195.213" viewBox="0 0 107.318 195.213">
  <g id="Group_1206" data-name="Group 1206" transform="translate(376.032 227.718) rotate(-38)">
    <circle id="Ellipse_27" data-name="Ellipse 27" cx="3.444" cy="3.444" r="3.444" transform="matrix(0.653, -0.757, 0.757, 0.653, -160.21, -403.905)" fill="#a0e1e5" class="fill-secondary"/>
    <circle id="Ellipse_28" data-name="Ellipse 28" cx="3.444" cy="3.444" r="3.444" transform="matrix(0.55, -0.835, 0.835, 0.55, -134.449, -383.312)" fill="#a0e1e5" class="fill-secondary"/>
    <circle id="Ellipse_29" data-name="Ellipse 29" cx="3.444" cy="3.444" r="3.444" transform="translate(-108.374 -362.172) rotate(-71.219)" fill="#a0e1e5" class="fill-secondary"/>
    <circle id="Ellipse_30" data-name="Ellipse 30" cx="3.444" cy="3.444" r="3.444" transform="translate(-82.442 -341.741) rotate(-77.423)" fill="#a0e1e5" class="fill-secondary"/>
    <circle id="Ellipse_31" data-name="Ellipse 31" cx="3.444" cy="3.444" r="3.444" transform="translate(-176.512 -383.248) rotate(-45.886)" fill="#a0e1e5" class="fill-secondary"/>
    <circle id="Ellipse_32" data-name="Ellipse 32" cx="3.444" cy="3.444" r="3.444" transform="translate(-150.665 -362.064) rotate(-60.347)" fill="#a0e1e5" class="fill-secondary"/>
    <path id="Path_885" data-name="Path 885" d="M296.265-199.355a3.444,3.444,0,0,1-4.833.6,3.444,3.444,0,0,1-.6-4.833,3.444,3.444,0,0,1,4.833-.6A3.444,3.444,0,0,1,296.265-199.355Z" transform="translate(-413.841 -141.912)" fill="#a0e1e5" class="fill-secondary"/>
    <circle id="Ellipse_33" data-name="Ellipse 33" cx="3.444" cy="3.444" r="3.444" transform="translate(-98.544 -320.525) rotate(-81.346)" fill="#a0e1e5" class="fill-secondary"/>
    <path id="Path_886" data-name="Path 886" d="M74.547-261.636a3.444,3.444,0,0,1-4.833.6,3.444,3.444,0,0,1-.6-4.833,3.444,3.444,0,0,1,4.833-.6A3.444,3.444,0,0,1,74.547-261.636Z" transform="translate(-259.761 -98.631)" fill="#a0e1e5" class="fill-secondary"/>
    <circle id="Ellipse_34" data-name="Ellipse 34" cx="3.444" cy="3.444" r="3.444" transform="matrix(0.567, -0.824, 0.824, 0.567, -167.048, -341.528)" fill="#a0e1e5" class="fill-secondary"/>
    <path id="Path_887" data-name="Path 887" d="M242.866-130.707a3.444,3.444,0,0,1-4.833.6,3.444,3.444,0,0,1-.6-4.833,3.444,3.444,0,0,1,4.833-.6A3.444,3.444,0,0,1,242.866-130.707Z" transform="translate(-376.732 -189.618)" fill="#a0e1e5" class="fill-secondary"/>
    <path id="Path_888" data-name="Path 888" d="M327.026-65.243a3.444,3.444,0,0,1-4.833.6,3.444,3.444,0,0,1-.6-4.833,3.444,3.444,0,0,1,4.833-.6A3.444,3.444,0,0,1,327.026-65.243Z" transform="translate(-435.218 -235.112)" fill="#a0e1e5" class="fill-secondary"/>
    <path id="Path_889" data-name="Path 889" d="M21.149-192.989a3.444,3.444,0,0,1-4.833.6,3.444,3.444,0,0,1-.6-4.833,3.444,3.444,0,0,1,4.833-.6A3.444,3.444,0,0,1,21.149-192.989Z" transform="translate(-222.652 -146.337)" fill="#a0e1e5" class="fill-secondary"/>
    <circle id="Ellipse_35" data-name="Ellipse 35" cx="3.444" cy="3.444" r="3.444" transform="matrix(0.504, -0.864, 0.864, 0.504, -183.259, -320.232)" fill="#a0e1e5" class="fill-secondary"/>
    <circle id="Ellipse_36" data-name="Ellipse 36" cx="3.444" cy="3.444" r="3.444" transform="translate(-157.745 -301.498) rotate(-45)" fill="#a0e1e5" class="fill-secondary"/>
    <path id="Path_890" data-name="Path 890" d="M273.627,3.4a3.444,3.444,0,1,1-.6-4.833A3.444,3.444,0,0,1,273.627,3.4Z" transform="translate(-398.109 -282.818)" fill="#a0e1e5" class="fill-secondary"/>
    <circle id="Ellipse_37" data-name="Ellipse 37" cx="3.444" cy="3.444" r="3.444" transform="translate(-224.396 -317.559) rotate(-82.115)" fill="#a0e1e5" class="fill-secondary"/>
    <circle id="Ellipse_38" data-name="Ellipse 38" cx="3.444" cy="3.444" r="3.444" transform="translate(-199.397 -302.241) rotate(-24.398)" fill="#a0e1e5" class="fill-secondary"/>
    <circle id="Ellipse_39" data-name="Ellipse 39" cx="3.444" cy="3.444" r="3.444" transform="translate(-173.972 -279.775) rotate(-54.232)" fill="#a0e1e5" class="fill-secondary"/>
    <circle id="Ellipse_40" data-name="Ellipse 40" cx="3.444" cy="3.444" r="3.444" transform="translate(-148.167 -259.223) rotate(-61.243)" fill="#a0e1e5" class="fill-secondary"/>
    <circle id="Ellipse_41" data-name="Ellipse 41" cx="3.444" cy="3.444" r="3.444" transform="translate(-241.338 -301.331) rotate(-23.627)" fill="#a0e1e5" class="fill-secondary"/>
    <circle id="Ellipse_42" data-name="Ellipse 42" cx="3.444" cy="3.444" r="3.444" transform="translate(-214.642 -276.213) rotate(-88.825)" fill="#a0e1e5" class="fill-secondary"/>
    <circle id="Ellipse_43" data-name="Ellipse 43" cx="3.444" cy="3.444" r="3.444" transform="translate(-190.244 -258.729) rotate(-55.47)" fill="#a0e1e5" class="fill-secondary"/>
    <circle id="Ellipse_44" data-name="Ellipse 44" cx="3.444" cy="3.444" r="3.444" transform="translate(-164.539 -238.604) rotate(-57.325)" fill="#a0e1e5" class="fill-secondary"/>
    <circle id="Ellipse_45" data-name="Ellipse 45" cx="3.444" cy="3.444" r="3.444" transform="translate(-257.718 -280.138) rotate(-26.769)" fill="#a0e1e5" class="fill-secondary"/>
    <path id="Path_891" data-name="Path 891" d="M-54.888,78.419a3.444,3.444,0,0,1-4.833.6,3.444,3.444,0,0,1-.6-4.833,3.444,3.444,0,0,1,4.833-.6A3.444,3.444,0,0,1-54.888,78.419Z" transform="translate(-169.811 -334.948)" fill="#a0e1e5" class="fill-secondary"/>
    <path id="Path_892" data-name="Path 892" d="M29.272,143.884a3.444,3.444,0,1,1-.6-4.833A3.444,3.444,0,0,1,29.272,143.884Z" transform="translate(-228.297 -380.442)" fill="#a0e1e5" class="fill-secondary"/>
    <circle id="Ellipse_46" data-name="Ellipse 46" cx="3.444" cy="3.444" r="3.444" transform="matrix(0.904, -0.427, 0.427, 0.904, -180.655, -220.346)" fill="#a0e1e5" class="fill-secondary"/>
    <circle id="Ellipse_47" data-name="Ellipse 47" cx="3.444" cy="3.444" r="3.444" transform="translate(-273.918 -259.448) rotate(-23.627)" fill="#a0e1e5" class="fill-secondary"/>
    <circle id="Ellipse_48" data-name="Ellipse 48" cx="3.444" cy="3.444" r="3.444" transform="translate(-248.127 -239.75) rotate(-20.128)" fill="#a0e1e5" class="fill-secondary"/>
    <path id="Path_893" data-name="Path 893" d="M-24.127,212.532a3.444,3.444,0,0,1-4.833.6,3.444,3.444,0,0,1-.6-4.833,3.444,3.444,0,0,1,4.833-.6A3.444,3.444,0,0,1-24.127,212.532Z" transform="translate(-191.188 -428.148)" fill="#a0e1e5" class="fill-secondary"/>
    <circle id="Ellipse_49" data-name="Ellipse 49" cx="3.444" cy="3.444" r="3.444" transform="translate(-196.948 -199.394) rotate(-25.398)" fill="#a0e1e5" class="fill-secondary"/>
  </g>
</svg>
