<svg xmlns="http://www.w3.org/2000/svg" width="257.249" height="257.395" viewBox="0 0 257.249 257.395">
  <g id="Group_3723" data-name="Group 3723" transform="translate(-90.047 -1631.906)">
    <path id="Path_8622" data-name="Path 8622" d="M494.591,280.473q1.9,1.08,3.761,2.226L375.48,508.437q-1.983-.915-3.937-1.9Zm-3.847-2.062L367.7,504.475q-1.9-1.083-3.758-2.226L486.806,276.511q1.987.915,3.937,1.9Zm11.3,6.636q1.811,1.244,3.581,2.55L383.479,512.008q-2.047-.8-4.059-1.673Zm-19.173-10.437L360.245,499.9q-1.808-1.251-3.574-2.562l122.141-224.4q2.044.8,4.059,1.673Zm26.335,15.539q1.763,1.337,3.481,2.737L391.775,515.029q-2.088-.717-4.149-1.509Zm-34.546-18.723L353.088,494.785q-1.763-1.341-3.479-2.739L470.515,269.917q2.087.721,4.148,1.512Zm-8.439-2.759L346.245,489.095q-1.711-1.442-3.372-2.941L461.857,267.561q2.192.515,4.365,1.108Zm49.828,27.172q1.707,1.45,3.365,2.954l-118.981,218.6q-2.2-.519-4.368-1.11Zm-58.561-29.39-117.843,216.5q-1.6-1.654-3.138-3.367L452.938,265.678q2.283.347,4.552.772ZM522.642,302q1.6,1.647,3.146,3.351L409.341,519.282q-2.279-.351-4.542-.785Zm6.286,6.719q1.505,1.83,2.946,3.715L418.545,520.637q-2.308-.3-4.6-.67ZM448.339,265,333.367,476.225q-1.509-1.83-2.948-3.718L443.74,264.314q2.308.3,4.6.685Zm86.435,51.238q1.469,1.9,2.864,3.867L428.228,521.115q-2.425-.068-4.846-.232ZM438.9,264.069,327.52,468.7q-1.476-1.9-2.874-3.855L434.06,263.835q2.424.072,4.844.232Zm-9.785-.291L322.011,460.556q-1.364-2.111-2.642-4.278L424,264.047q2.554-.183,5.117-.266Zm111.161,60.6q1.36,2.122,2.635,4.293L438.283,520.9q-2.555.186-5.117.269ZM418.886,264.316,316.9,451.683q-1.222-2.391-2.341-4.832l98.956-181.8q2.675-.423,5.369-.733Zm126.5,68.951q1.221,2.395,2.341,4.834L448.77,519.9q-2.679.423-5.369.733Zm4.627,9.765q1.064,2.7,2.007,5.444l-92.23,169.449q-2.787.635-5.6,1.146ZM408.093,265.88,312.275,441.919q-1.062-2.7-2-5.456l92.218-169.422q2.787-.643,5.6-1.161Zm145.926,88.054q.886,3.067,1.619,6.171L471.5,514.69q-2.941.945-5.922,1.748Zm-157.3-85.412L308.275,431q-.885-3.059-1.616-6.161l84.135-154.572q2.94-.945,5.922-1.748Zm160.506,97.793q.662,3.515,1.126,7.062L484.129,509.732q-3.175,1.424-6.427,2.675ZM384.585,272.544,305.068,418.635q-.661-3.515-1.126-7.062L378.16,275.219q3.176-1.424,6.425-2.675ZM559.331,380.705q.355,4.153.438,8.327L498.122,502.288q-3.553,2.2-7.239,4.167ZM371.4,278.5l-68.448,125.75q-.352-4.153-.436-8.327l61.647-113.256q3.549-2.2,7.237-4.167Zm-14.92,9.147-53.83,98.9q.247-5.461.954-10.885l44.354-81.49q4.124-3.441,8.522-6.522ZM559.635,398.413q-.243,5.454-.949,10.87L514.3,490.826q-4.113,3.41-8.494,6.469ZM337.628,304.019l-31.355,57.605a125.352,125.352,0,0,1,31.355-57.605ZM556.029,423.3a125.537,125.537,0,0,1-31.377,57.643Zm0,0" transform="translate(-212.473 1368.128)" fill="#fff"/>
  </g>
</svg>
