<svg xmlns="http://www.w3.org/2000/svg" width="107.644" height="248.414" viewBox="0 0 107.644 248.414">
  <g id="Dk_Teal_Dots_Primary" data-name="Dk Teal Dots" transform="translate(376.032 227.718) rotate(-38)" class="fill-secondary">
    <circle id="Ellipse_27" data-name="Ellipse 27" cx="3.444" cy="3.444" r="3.444" transform="matrix(0.653, -0.757, 0.757, 0.653, -160.21, -403.905)"/>
    <circle id="Ellipse_28" data-name="Ellipse 28" cx="3.444" cy="3.444" r="3.444" transform="matrix(0.55, -0.835, 0.835, 0.55, -134.449, -383.312)"/>
    <circle id="Ellipse_29" data-name="Ellipse 29" cx="3.444" cy="3.444" r="3.444" transform="translate(-108.374 -362.172) rotate(-71.219)"/>
    <circle id="Ellipse_30" data-name="Ellipse 30" cx="3.444" cy="3.444" r="3.444" transform="translate(-82.442 -341.741) rotate(-77.423)"/>
    <circle id="Ellipse_31" data-name="Ellipse 31" cx="3.444" cy="3.444" r="3.444" transform="translate(-176.512 -383.248) rotate(-45.886)"/>
    <circle id="Ellipse_32" data-name="Ellipse 32" cx="3.444" cy="3.444" r="3.444" transform="translate(-150.665 -362.064) rotate(-60.347)"/>
    <path id="Path_885" data-name="Path 885" d="M296.265-199.355a3.444,3.444,0,0,1-4.833.6,3.444,3.444,0,0,1-.6-4.833,3.444,3.444,0,0,1,4.833-.6A3.444,3.444,0,0,1,296.265-199.355Z" transform="translate(-413.841 -141.912)"/>
    <circle id="Ellipse_33" data-name="Ellipse 33" cx="3.444" cy="3.444" r="3.444" transform="translate(-98.544 -320.525) rotate(-81.346)"/>
    <path id="Path_886" data-name="Path 886" d="M74.547-261.636a3.444,3.444,0,0,1-4.833.6,3.444,3.444,0,0,1-.6-4.833,3.444,3.444,0,0,1,4.833-.6A3.444,3.444,0,0,1,74.547-261.636Z" transform="translate(-259.761 -98.631)"/>
    <circle id="Ellipse_34" data-name="Ellipse 34" cx="3.444" cy="3.444" r="3.444" transform="matrix(0.567, -0.824, 0.824, 0.567, -167.048, -341.528)"/>
    <path id="Path_887" data-name="Path 887" d="M242.866-130.707a3.444,3.444,0,0,1-4.833.6,3.444,3.444,0,0,1-.6-4.833,3.444,3.444,0,0,1,4.833-.6A3.444,3.444,0,0,1,242.866-130.707Z" transform="translate(-376.732 -189.618)"/>
    <path id="Path_888" data-name="Path 888" d="M327.026-65.243a3.444,3.444,0,0,1-4.833.6,3.444,3.444,0,0,1-.6-4.833,3.444,3.444,0,0,1,4.833-.6A3.444,3.444,0,0,1,327.026-65.243Z" transform="translate(-435.218 -235.112)"/>
    <path id="Path_889" data-name="Path 889" d="M21.149-192.989a3.444,3.444,0,0,1-4.833.6,3.444,3.444,0,0,1-.6-4.833,3.444,3.444,0,0,1,4.833-.6A3.444,3.444,0,0,1,21.149-192.989Z" transform="translate(-222.652 -146.337)"/>
    <circle id="Ellipse_35" data-name="Ellipse 35" cx="3.444" cy="3.444" r="3.444" transform="matrix(0.504, -0.864, 0.864, 0.504, -183.259, -320.232)"/>
    <circle id="Ellipse_36" data-name="Ellipse 36" cx="3.444" cy="3.444" r="3.444" transform="translate(-157.745 -301.498) rotate(-45)"/>
    <path id="Path_890" data-name="Path 890" d="M273.627,3.4a3.444,3.444,0,1,1-.6-4.833A3.444,3.444,0,0,1,273.627,3.4Z" transform="translate(-398.109 -282.818)"/>
    <circle id="Ellipse_37" data-name="Ellipse 37" cx="3.444" cy="3.444" r="3.444" transform="translate(-224.396 -317.559) rotate(-82.115)"/>
    <circle id="Ellipse_38" data-name="Ellipse 38" cx="3.444" cy="3.444" r="3.444" transform="translate(-199.397 -302.241) rotate(-24.398)"/>
    <circle id="Ellipse_39" data-name="Ellipse 39" cx="3.444" cy="3.444" r="3.444" transform="translate(-173.972 -279.775) rotate(-54.232)"/>
    <circle id="Ellipse_40" data-name="Ellipse 40" cx="3.444" cy="3.444" r="3.444" transform="translate(-148.167 -259.223) rotate(-61.243)"/>
    <circle id="Ellipse_41" data-name="Ellipse 41" cx="3.444" cy="3.444" r="3.444" transform="translate(-241.338 -301.331) rotate(-23.627)"/>
    <circle id="Ellipse_42" data-name="Ellipse 42" cx="3.444" cy="3.444" r="3.444" transform="translate(-214.642 -276.213) rotate(-88.825)"/>
    <circle id="Ellipse_43" data-name="Ellipse 43" cx="3.444" cy="3.444" r="3.444" transform="translate(-190.244 -258.729) rotate(-55.47)"/>
    <circle id="Ellipse_44" data-name="Ellipse 44" cx="3.444" cy="3.444" r="3.444" transform="translate(-164.539 -238.604) rotate(-57.325)"/>
    <circle id="Ellipse_45" data-name="Ellipse 45" cx="3.444" cy="3.444" r="3.444" transform="translate(-257.718 -280.138) rotate(-26.769)"/>
    <path id="Path_891" data-name="Path 891" d="M-54.888,78.419a3.444,3.444,0,0,1-4.833.6,3.444,3.444,0,0,1-.6-4.833,3.444,3.444,0,0,1,4.833-.6A3.444,3.444,0,0,1-54.888,78.419Z" transform="translate(-169.811 -334.948)"/>
    <path id="Path_892" data-name="Path 892" d="M29.272,143.884a3.444,3.444,0,1,1-.6-4.833A3.444,3.444,0,0,1,29.272,143.884Z" transform="translate(-228.297 -380.442)"/>
    <circle id="Ellipse_46" data-name="Ellipse 46" cx="3.444" cy="3.444" r="3.444" transform="matrix(0.904, -0.427, 0.427, 0.904, -180.655, -220.346)"/>
    <circle id="Ellipse_47" data-name="Ellipse 47" cx="3.444" cy="3.444" r="3.444" transform="translate(-273.918 -259.448) rotate(-23.627)"/>
    <circle id="Ellipse_48" data-name="Ellipse 48" cx="3.444" cy="3.444" r="3.444" transform="translate(-248.127 -239.75) rotate(-20.128)"/>
    <path id="Path_893" data-name="Path 893" d="M-24.127,212.532a3.444,3.444,0,0,1-4.833.6,3.444,3.444,0,0,1-.6-4.833,3.444,3.444,0,0,1,4.833-.6A3.444,3.444,0,0,1-24.127,212.532Z" transform="translate(-191.188 -428.148)"/>
    <circle id="Ellipse_49" data-name="Ellipse 49" cx="3.444" cy="3.444" r="3.444" transform="translate(-196.948 -199.394) rotate(-25.398)"/>
    <circle id="Ellipse_50" data-name="Ellipse 50" cx="3.444" cy="3.444" r="3.444" transform="matrix(0.664, -0.748, 0.748, 0.664, -290.534, -236.442)"/>
    <circle id="Ellipse_51" data-name="Ellipse 51" cx="3.444" cy="3.444" r="3.444" transform="translate(-264.417 -218.808) rotate(-20.128)"/>
    <circle id="Ellipse_52" data-name="Ellipse 52" cx="3.444" cy="3.444" r="3.444" transform="translate(-238.86 -198.564) rotate(-23.627)"/>
    <circle id="Ellipse_53" data-name="Ellipse 53" cx="3.444" cy="3.444" r="3.444" transform="translate(-212.522 -179.773) rotate(-7.652)"/>
    <path id="Path_894" data-name="Path 894" d="M-299.243,218.9a3.444,3.444,0,0,1-4.833.6,3.444,3.444,0,0,1-.6-4.833,3.444,3.444,0,0,1,4.833-.6A3.444,3.444,0,0,1-299.243,218.9Z" transform="translate(0 -432.572)"/>
    <circle id="Ellipse_54" data-name="Ellipse 54" cx="3.444" cy="3.444" r="3.444" transform="translate(-280.707 -197.866) rotate(-20.128)"/>
    <circle id="Ellipse_55" data-name="Ellipse 55" cx="3.444" cy="3.444" r="3.444" transform="translate(-255.15 -177.622) rotate(-23.627)"/>
    <path id="Path_895" data-name="Path 895" d="M-46.765,415.291a3.444,3.444,0,0,1-4.833.6,3.444,3.444,0,0,1-.6-4.833,3.444,3.444,0,0,1,4.833-.6A3.444,3.444,0,0,1-46.765,415.291Z" transform="translate(-175.457 -569.053)"/>
  </g>
</svg>
