<!-- Generated by IcoMoon.io -->
<svg version="1.1" xmlns="http://www.w3.org/2000/svg" width="948" height="1024" viewBox="0 0 948 1024">
<title></title>
<g id="icomoon-ignore">
</g>
<path fill="#32abb2" d="M495.891 297.442c-13.784-0.693-26.666-3.789-38.49-8.876l0.723 0.277c-31.137-15.354-54.93-41.638-66.683-73.726l-0.295-0.921c-4.33-10.376-6.845-22.431-6.845-35.073 0-16.706 4.391-32.386 12.083-45.949l-0.241 0.463c4.34-5.83 6.948-13.173 6.948-21.125 0-2.873-0.341-5.667-0.984-8.344l0.049 0.243c-3.717-7.353-9.851-13.030-17.338-16.072l-0.224-0.080 11.955-33.961c17.871 6.692 31.895 20.13 39.209 37.134l0.17 0.444c2.087 6.29 3.291 13.531 3.291 21.054 0 14.417-4.423 27.801-11.986 38.87l0.153-0.237c-4.437 7.977-7.048 17.497-7.048 27.627 0 8.199 1.711 15.999 4.796 23.062l-0.145-0.371c8.338 23.050 24.424 41.602 45.046 52.909l0.507 0.254c13.814 5.069 26.814 9.18 33.975 3.936 5.549-4.038 18.157-20.772 15.397-88.606 0.004-0.382 0.006-0.833 0.006-1.284 0-54.496-32.794-101.332-79.724-121.851l-0.856-0.333c-140.289-45.596-180.888 65.932-182.544 70.696l-34.005-11.838c0.523-1.453 54.224-149.44 227.907-92.964 4.358 1.453 100.227 35.486 105.18 156.136 2.615 64.349-6.972 102.202-30.155 119.11-8.013 5.878-18.070 9.406-28.951 9.406-0.311 0-0.622-0.003-0.931-0.009l0.047 0.001z"></path>
<path fill="#32abb2" d="M296.57 569.086c-1.897-11.527-2.981-24.811-2.981-38.349 0-30.678 5.567-60.057 15.746-87.179l-0.563 1.711c13.89-39.891 28.285-73.077 44.75-105.022l-2.117 4.519c0.857-1.627 2.905-5.418-2.034-13.581-13.741-22.936-58.945-44.637-83.973-44.739-12.962 0.313-25.358 1.359-37.528 3.102l1.679-0.197c-9.631 1.791-20.711 2.815-32.031 2.815-9.983 0-19.779-0.797-29.329-2.33l1.050 0.139c-38.435-8.236-60.034-46.569-57.783-102.537 0.554-12.202 8.089-22.516 18.682-27.086l0.201-0.077 75.315-31.753c8.019-5.013 14.003-12.642 16.805-21.671l0.074-0.277c2.317-7.452 9.151-12.769 17.227-12.769 9.944 0 18.006 8.061 18.006 18.006 0 1.868-0.284 3.67-0.813 5.364l0.034-0.128c-5.715 18.492-17.856 33.562-33.756 42.936l-0.35 0.191c-0.568 0.339-1.245 0.685-1.946 0.987l-0.117 0.045-73.471 30.983c-0.363 19.174 2.44 56.81 29.443 62.591 6.169 0.863 13.295 1.355 20.537 1.355 9.875 0 19.536-0.916 28.903-2.668l-0.968 0.15c11.758-1.647 25.693-2.771 39.822-3.114l0.457-0.009c35.893 0.131 93.821 27.352 114.753 62.242 5.133 7.569 8.196 16.905 8.196 26.956 0 8.033-1.956 15.61-5.418 22.279l0.127-0.269c-13.64 26.14-27.339 57.798-38.902 90.465l-1.668 5.404c-8.258 21.791-13.039 46.986-13.039 73.297 0 11.557 0.922 22.899 2.698 33.956l-0.161-1.216z"></path>
<path fill="#32abb2" d="M801.525 864.174c-6.416-103.283-30.059-199.398-68.103-287.86l2.142 5.597c-53.456-122.616-127.161-226.93-217.941-313.496l-0.38-0.36 23.401-27.366c5.491 4.692 135.423 117.309 227.864 326.682 37.914 86.402 62.666 186.684 68.828 291.959l0.111 2.374z"></path>
<path fill="#32abb2" d="M691.29 1023.913h-120.156v-36.009h120.156c97.482 0 166.202-28.020 198.696-81.039 33.598-54.791 27.976-137.994-15.063-222.533-54.224-106.531-47.252-253.85-40.89-317.763-70.958 35.472-76.768 88.185-76.986 90.669l-35.893-2.905c0.276-3.704 8.149-91.119 128.567-133.404 1.774-0.642 3.822-1.013 5.957-1.013 9.948 0 18.012 8.064 18.012 18.012 0 0.989-0.080 1.958-0.233 2.904l0.014-0.104c-0.32 1.99-30.664 201.035 33.554 327.234 49.489 97.22 54.471 191.143 13.669 257.685-27.483 44.841-89.58 98.266-229.404 98.266z"></path>
<path fill="#32abb2" d="M454.551 938.531l-35.646-5.069c33.917-238.366-116.655-281.449-163.617-288.973-13.942-2.209-24.899-12.784-27.65-26.338l-0.036-0.215c-5.404-26.233-26.146-107.112-80.951-139.098l-5.331 41.747-35.719-4.547 8.367-65.569c1.168-8.921 8.722-15.738 17.868-15.738 1.918 0 3.767 0.3 5.501 0.855l-0.128-0.035c85.483 26.48 116.031 129.089 125.4 173.669 42.575 7.205 230.972 55.038 191.942 329.311z"></path>
<path fill="#32abb2" d="M156.833 1024.015h-58.451c-0.004 0-0.009 0-0.015 0-9.94 0-17.997-8.058-17.997-17.997 0 0 0 0 0 0v0c-0.050-1.035-0.078-2.247-0.078-3.467 0-34.989 23.254-64.547 55.149-74.062l0.547-0.14c5.466-1.811 9.355-6.839 9.442-12.787v-0.010c0.392-21.788-0.479-40.991-1.278-53.411-0.678-8.636-4.781-16.2-10.936-21.417l-0.045-0.037c-58.204-50.753-51.217-119.11-47.935-151.924 0.596-5.81 1.104-10.793 1.104-13.901 0.035-0.827 0.055-1.798 0.055-2.774 0-3.289-0.226-6.525-0.663-9.693l0.041 0.367c-9.288-5.005-20.323-9.843-31.76-13.823l-1.649-0.499-6.362-2.484c-19.327-6.231-34.619-20.208-42.474-38.18l-0.173-0.444c-2.156-5.933-3.402-12.782-3.402-19.922 0-9.543 2.226-18.565 6.188-26.576l-0.157 0.351c2.038-3.86 5.321-6.833 9.306-8.426l0.122-0.043 23.517-9.18c9.682-38.746 43.278-67.33 83.863-69.323l0.211-0.008h0.479l-0.16 17.997v18.026c-4.183 0-41.209 1.917-51.682 50.52-1.316 5.977-5.464 10.762-10.933 12.943l-0.121 0.043-24.301 9.5c-0.289 1.321-0.455 2.838-0.455 4.393 0 2.635 0.476 5.16 1.346 7.491l-0.048-0.148c4.818 8.361 12.516 14.604 21.71 17.433l0.268 0.071 6.333 2.469c45.887 17.954 56.795 22.21 56.795 59.947 0 4.953-0.596 10.793-1.293 17.562-3.152 30.896-8.439 82.622 35.719 121.129 13.232 11.378 21.937 27.7 23.229 46.067l0.012 0.212c0.842 13.073 1.758 33.409 1.336 56.040-0.225 21.534-14.153 39.756-33.467 46.378l-0.349 0.104c-13.119 3.605-23.492 13.051-28.299 25.294l-0.099 0.286h37.621z"></path>
<path fill="#32abb2" d="M288.697 1024.015h-75.533c-9.94 0-17.997-8.058-17.997-17.997v0c-0.006-0.323-0.009-0.704-0.009-1.086 0-34.274 25.501-62.592 58.564-67.016l0.346-0.038c-3.681-9.97-5.811-21.485-5.811-33.498 0-5.352 0.423-10.606 1.237-15.729l-0.074 0.566c4.504-31.941 28.3-57.261 59.052-63.98l0.503-0.092 6.638 35.399c-16.148 3.795-28.346 17.075-30.483 33.514l-0.021 0.2c-0.714 3.346-1.123 7.19-1.123 11.129 0 13.894 5.088 26.599 13.502 36.355l-0.061-0.072c3.434 3.313 5.566 7.955 5.566 13.094 0 2.414-0.47 4.718-1.324 6.826l0.044-0.122c-2.683 6.674-9.081 11.309-16.568 11.359h-20.734c-11.709 0.481-21.966 6.302-28.457 15.078l-0.071 0.101 164.735-0.102c0.032 0 0.069 0 0.106 0 20.208 0 39.308-4.747 56.245-13.186l-0.733 0.33c24.271-10.715 43.707-28.685 55.982-51.132l0.305-0.609c21.411-43.257 4.488-99.326-21.788-173.814-5.33-12.263-8.431-26.547-8.431-41.556 0-15.55 3.328-30.322 9.311-43.643l-0.271 0.674c14.265-25.164 36.757-44.262 63.752-53.851l0.829-0.257c4.418-1.363 7.572-5.41 7.572-10.194 0-1.116-0.172-2.191-0.49-3.202l0.020 0.075c-1.377-4.341-5.371-7.432-10.086-7.432-1.134 0-2.226 0.179-3.25 0.51l0.075-0.021c-33.118 11.872-59.92 34.568-76.748 63.742l-0.369 0.693c-6.787 13.315-10.962 28.972-11.443 45.555l-0.004 0.158-35.995-1.162c0.655-22.224 6.211-43.005 15.618-61.498l-0.38 0.824c21.391-38.723 55.834-68.025 97.275-82.295l1.238-0.371c4.207-1.381 9.048-2.177 14.075-2.177 25.731 0 46.589 20.859 46.589 46.589 0 20.703-13.504 38.252-32.184 44.32l-0.33 0.093c-18.451 6.858-33.459 19.392-43.264 35.449l-0.211 0.372c-3.317 8.014-5.243 17.32-5.243 27.076 0 10.71 2.322 20.879 6.489 30.029l-0.185-0.454c29.182 82.869 47.702 145.852 20.060 201.747-16.059 30.236-41.168 53.864-71.677 67.653l-0.951 0.385c-20.878 10.463-45.49 16.588-71.533 16.588-0.007 0-0.015 0-0.022 0h0.001z"></path>
</svg>
