<svg xmlns="http://www.w3.org/2000/svg" width="202.371" height="218.583" viewBox="0 0 202.371 218.583">
  <g id="Group_1597" data-name="Group 1597" transform="translate(-158.502 -4175.622)">
    <g id="Group_1494" data-name="Group 1494" transform="translate(158.502 4175.622)">
      <g id="Group_1491" data-name="Group 1491" transform="translate(83.633)">
        <g id="Group_1489" data-name="Group 1489" transform="translate(0)">
          <path id="Path_5126" data-name="Path 5126" d="M422.43,310.581a23.779,23.779,0,0,0,8.069-1.834c5.591-2.052,11.74-8.9,14.3-15.937,2.235-6.139,1.866-12.086-1.067-17.2-1.44-2.508-1.877-4.594-1.3-6.2a6.942,6.942,0,0,1,3.8-3.5l-2.583-7.239c-.639.224-6.3,2.358-8.4,8.021-1.432,3.853-.818,8.139,1.824,12.74,1.795,3.127,1.966,6.741.51,10.74-2.132,5.861-7.017,10.357-9.724,11.35-2.946,1.081-5.72,1.96-7.252.84-1.184-.863-3.875-4.433-3.287-18.9.827-20.356,16.548-26.118,17.217-26.354,29.931-9.724,38.591,14.08,38.947,15.1l7.258-2.526c-.111-.321-11.573-31.9-48.649-19.858-.921.313-21.406,7.577-22.453,33.329-.557,13.737,1.488,21.814,6.439,25.424A10.513,10.513,0,0,0,422.43,310.581Z" transform="translate(-409.543 -247.092)" fill="#32abb2"/>
        </g>
        <g id="Group_1490" data-name="Group 1490" transform="translate(35.805 20.013)">
          <path id="Path_5127" data-name="Path 5127" d="M379.651,390.218a52.987,52.987,0,0,0-2.6-26.43,172.3,172.3,0,0,0-9.1-21.453c-.183-.345-.613-1.154.432-2.9,2.932-4.9,12.583-9.53,17.925-9.549a59.6,59.6,0,0,1,7.651.61c4.249.512,8.642,1.04,12.874.132,8.2-1.758,12.815-9.939,12.334-21.886a6.619,6.619,0,0,0-4.028-5.8l-16.077-6.778a8.34,8.34,0,0,1-3.6-4.683,3.843,3.843,0,1,0-7.353,2.233,16,16,0,0,0,7.278,9.206,3.831,3.831,0,0,0,.442.22l15.682,6.612c.078,4.092-.523,12.126-6.285,13.361-2.974.639-6.558.207-10.348-.248a62.973,62.973,0,0,0-8.6-.665c-7.661.028-20.029,5.839-24.489,13.286-2.111,3.525-2.335,7.236-.628,10.451a164.983,164.983,0,0,1,8.659,20.46,45.371,45.371,0,0,1,2.24,22.638Z" transform="translate(-360.023 -288.753)" fill="#32abb2"/>
        </g>
      </g>
      <g id="Group_1492" data-name="Group 1492" transform="translate(23.612 51.377)">
        <path id="Path_5128" data-name="Path 5128" d="M548.07,487.132c1.514-21.983,6.382-42.816,14.079-60.25,18.985-43,46.333-66.76,46.606-67l-5-5.84c-1.171,1-28.908,25.04-48.641,69.732C546.95,442.278,542,463.416,540.4,486.6Z" transform="translate(-540.403 -354.046)" fill="#32abb2"/>
      </g>
      <g id="Group_1493" data-name="Group 1493" transform="translate(0 68.297)">
        <path id="Path_5129" data-name="Path 5129" d="M619.162,539.531h25.649v-7.686H619.162c-20.809,0-35.475-5.982-42.414-17.3-7.171-11.7-5.969-29.453,3.216-47.5,11.575-22.739,10.088-54.186,8.73-67.83,15.147,7.573,16.386,18.824,16.435,19.352l7.662-.607c-.059-.79-1.74-19.452-27.443-28.476a3.844,3.844,0,0,0-5.069,4.225c.067.426,6.547,42.912-7.164,69.849-10.563,20.753-11.627,40.8-2.919,55C576.06,528.128,589.317,539.531,619.162,539.531Z" transform="translate(-564.352 -389.269)" fill="#32abb2"/>
      </g>
    </g>
    <g id="Group_1500" data-name="Group 1500" transform="translate(232.91 4268.418)">
      <g id="Group_1497" data-name="Group 1497" transform="translate(29.807 0)">
        <g id="Group_1495" data-name="Group 1495" transform="translate(0)">
          <path id="Path_5130" data-name="Path 5130" d="M358.622,547.808l7.609-1.083c-7.241-50.88,24.9-60.076,34.924-61.684a7.145,7.145,0,0,0,5.91-5.668c1.152-5.6,5.581-22.864,17.28-29.692l1.137,8.913,7.624-.972-1.785-14a3.844,3.844,0,0,0-4.949-3.185c-18.247,5.654-24.768,27.555-26.769,37.069C390.506,479.052,350.291,489.261,358.622,547.808Z" transform="translate(-357.493 -440.269)" fill="#a0e1e5"/>
        </g>
        <g id="Group_1496" data-name="Group 1496" transform="translate(59.406 8.425)">
          <path id="Path_5131" data-name="Path 5131" d="M315.837,575.17h12.477a3.843,3.843,0,0,0,3.843-3.843c0-8.08-4.216-13.968-11.873-16.578a2.918,2.918,0,0,1-2.015-2.731c-.084-4.636.1-8.751.272-11.4a6.651,6.651,0,0,1,2.345-4.579c12.423-10.834,10.934-25.42,10.219-32.429-.127-1.236-.235-2.3-.235-2.968a15.012,15.012,0,0,1,.12-2.582c.473-.459,3.552-1.663,7.116-3.058l1.356-.531c4.675-1.832,7.738-4.607,9.1-8.244a12.81,12.81,0,0,0-.56-9.851,3.841,3.841,0,0,0-2.013-1.808l-5.019-1.961c-3.447-11.659-13.03-14.8-17.948-14.8h-.1l.035,3.843,0,3.843c.893.011,8.8.409,11.031,10.785a3.841,3.841,0,0,0,2.359,2.771l5.188,2.027a4.574,4.574,0,0,1-.179,2.506c-.729,1.852-2.953,3.054-4.692,3.736l-1.351.528c-9.8,3.831-12.122,4.742-12.122,12.8,0,1.056.127,2.3.275,3.748.673,6.6,1.8,17.637-7.624,25.856a14.28,14.28,0,0,0-4.965,9.877c-.179,2.794-.374,7.135-.286,11.962a10.579,10.579,0,0,0,7.217,9.935c3.126,1.067,5.134,2.867,6.064,5.462h-8.029Z" transform="translate(-310.563 -457.808)" fill="#a0e1e5"/>
        </g>
      </g>
      <g id="Group_1499" data-name="Group 1499" transform="translate(0 25.483)">
        <g id="Group_1498" data-name="Group 1498">
          <path id="Path_5132" data-name="Path 5132" d="M479.746,593.623a3.843,3.843,0,0,0,3.843-3.843c0-9.266-6.908-13.549-12.572-14.546a21.219,21.219,0,0,0,.991-10.386c-1.619-11.471-12.248-13.593-12.7-13.677l-1.417,7.555a8.471,8.471,0,0,1,6.506,7.2c.942,6.67-2.551,10.049-2.587,10.081a3.844,3.844,0,0,0,2.582,6.69h4.424c.773.045,4.33.416,6.091,3.242l-35.164-.022a26.944,26.944,0,0,1-11.871-2.742c-5.837-2.889-9.768-6.5-12.015-11.043-4.567-9.235-.957-21.2,4.642-37.1,2.423-6.885,2.38-12.955-.128-18.043-4.065-8.247-13.4-11.422-13.795-11.554a2.275,2.275,0,0,1-1.507-2.842,2.258,2.258,0,0,1,2.831-1.477c.119.037,11.416,3.669,16.462,13.752a23.33,23.33,0,0,1,2.444,9.761l7.682-.25a30.976,30.976,0,0,0-3.253-12.95c-6.493-12.975-20.445-17.463-21.037-17.647a9.944,9.944,0,0,0-6,18.96c.015.007,6.656,2.322,9.281,7.645,1.56,3.165,1.484,7.232-.227,12.091-6.229,17.688-10.183,31.13-4.281,43.061,3.022,6.11,8.09,10.86,15.493,14.523a34.672,34.672,0,0,0,15.273,3.54Z" transform="translate(-397.282 -493.319)" fill="#a0e1e5"/>
        </g>
      </g>
    </g>
  </g>
</svg>
