<!-- Generated by IcoMoon.io -->
<svg version="1.1" xmlns="http://www.w3.org/2000/svg" width="1024" height="1024" viewBox="0 0 1024 1024">
<title></title>
<g id="icomoon-ignore">
</g>
<path fill="#fff" stroke="#a0e1e5" stroke-linejoin="round" stroke-linecap="round" stroke-miterlimit="4" stroke-width="15.5396" d="M969.611 470.561c0 252.732-204.88 457.611-457.611 457.611s-457.611-204.88-457.611-457.611c0-252.732 204.88-457.611 457.611-457.611s457.611 204.88 457.611 457.611z"></path>
<path fill="#32abb2" d="M763.82 529.653l-99.314-57.341 99.314-57.341c1.949-1.166 3.415-2.968 4.125-5.114l0.019-0.066c0.154-0.611 0.242-1.312 0.242-2.034 0-1.675-0.476-3.24-1.3-4.565l0.021 0.037-65.784-114.17c-1.094-1.969-2.932-3.412-5.124-3.961l-0.056-0.012c-0.963-0.45-2.092-0.712-3.281-0.712s-2.318 0.262-3.33 0.733l0.049-0.020-99.335 57.341v-113.823c-0.003-4.768-3.867-8.632-8.635-8.635h-131.963c-4.768 0.003-8.632 3.867-8.635 8.635v0 114.698l-99.314-57.352c-0.963-0.45-2.092-0.712-3.281-0.712s-2.318 0.262-3.33 0.733l0.049-0.020c-2.248 0.561-4.086 2.004-5.159 3.932l-0.021 0.041-65.784 113.305c-0.802 1.289-1.278 2.854-1.278 4.529 0 0.722 0.088 1.423 0.254 2.093l-0.013-0.060c0.729 2.212 2.195 4.014 4.101 5.156l0.043 0.024 99.485 57.341-99.335 57.341c-2.597 1.475-4.321 4.222-4.321 7.372 0 1.525 0.404 2.955 1.111 4.19l-0.022-0.041 0.119 0.223 65.784 114.17c1.475 2.597 4.222 4.321 7.372 4.321 1.525 0 2.955-0.404 4.19-1.111l-0.041 0.022 0.223-0.119 99.314-57.341v114.688c0.003 4.768 3.867 8.632 8.635 8.635h131.818c4.768-0.003 8.632-3.867 8.635-8.635v0-114.693l99.314 57.346c1.247 0.764 2.756 1.216 4.371 1.216 3.063 0 5.746-1.627 7.232-4.064l0.021-0.037 0.119-0.223 65.784-114.17c0.764-1.247 1.216-2.756 1.216-4.371 0-3.063-1.627-5.746-4.064-7.232l-0.037-0.021zM690.587 639.332l-104.841-60.449c-1.238-0.726-2.727-1.155-4.315-1.155-3.179 0-5.957 1.717-7.457 4.274l-0.022 0.041c-0.713 1.226-1.14 2.696-1.155 4.264v120.909h-114.688v-120.909c-0.032-4.747-3.888-8.583-8.64-8.583-0.016 0-0.033 0-0.049 0h0.003c-1.572 0.016-3.042 0.442-4.31 1.178l0.042-0.023-104.841 60.454-57.17-99.143 104.841-60.449c2.588-1.51 4.304-4.267 4.32-7.426v-0.002c0-0.012 0-0.027 0-0.042 0-3.154-1.723-5.905-4.279-7.364l-0.042-0.022-104.841-60.605 57.17-99.143 104.841 60.605c1.238 0.727 2.727 1.156 4.316 1.156 4.769 0 8.635-3.866 8.635-8.635 0-0.042 0-0.084-0.001-0.126v0.006-120.904h114.522v120.904c-0.001 0.036-0.001 0.078-0.001 0.12 0 4.769 3.866 8.635 8.635 8.635 1.589 0 3.078-0.429 4.356-1.178l-0.041 0.022 104.841-60.605 57.17 99.143-104.841 60.605c-2.597 1.481-4.32 4.233-4.32 7.386 0 0.015 0 0.029 0 0.044v-0.002c0.016 3.161 1.732 5.918 4.279 7.406l0.041 0.022 104.841 60.454z"></path>
</svg>
