<svg xmlns="http://www.w3.org/2000/svg" xmlns:xlink="http://www.w3.org/1999/xlink" width="141" height="141" viewBox="0 0 141 141">
  <defs>
    <filter id="Ellipse_4" x="0" y="0" width="141" height="141" filterUnits="userSpaceOnUse">
      <feOffset dy="8" input="SourceAlpha"/>
      <feGaussianBlur stdDeviation="3" result="blur"/>
      <feFlood flood-opacity="0.161"/>
      <feComposite operator="in" in2="blur"/>
      <feComposite in="SourceGraphic"/>
    </filter>
  </defs>
  <g id="icon" transform="translate(10.5 2.5)">
    <g transform="matrix(1, 0, 0, 1, -10.5, -2.5)" filter="url(#Ellipse_4)">
      <circle id="Ellipse_4-2" data-name="Ellipse 4" cx="60" cy="60" r="60" transform="translate(10.5 2.5)" fill="#fff" stroke="#a0e1e5" stroke-linecap="round" stroke-linejoin="round" stroke-width="3"/>
    </g>
    <g id="Group_28" data-name="Group 28" transform="translate(21.785 20.437)">
      <g id="Group_27" data-name="Group 27">
        <path id="Path_55" data-name="Path 55" d="M1260.74,388.037c2.6-11.5,10.361-16.81,17.823-16.81,9.139,0,10.586,5.157,10.586,5.157,3.993,2.876,5.042,5.875,5.042,8.233a8.339,8.339,0,0,1-1.287,4.435l-10.812-7.035a8.077,8.077,0,0,1,7.057-5.633" transform="translate(-1221.866 -371.227)" fill="none" stroke="#a0e1e5" stroke-linecap="round" stroke-linejoin="round" stroke-width="3"/>
        <path id="Path_56" data-name="Path 56" d="M1258.125,449.979a6.889,6.889,0,0,1-3.25.722c-.334,0-.414-.015-.644-.015a4.823,4.823,0,0,0-4.423,2.821h0q.3,3.178.291,6.037c0,30.791-24.382,34.883-29.409,34.883l2.737,6.315" transform="translate(-1191.929 -430.096)" fill="none" stroke="#a0e1e5" stroke-linecap="round" stroke-linejoin="round" stroke-width="3"/>
        <path id="Path_57" data-name="Path 57" d="M1195.321,455.338s-.1-.006-.293-.006a19.809,19.809,0,0,0-14.084,6.452c-6.453,6.991-12.563,21.013-15.352,28.049" transform="translate(-1150.741 -434.097)" fill="none" stroke="#a0e1e5" stroke-linecap="round" stroke-linejoin="round" stroke-width="3"/>
        <line id="Line_3" data-name="Line 3" x2="33.056" transform="translate(16.027 70.647)" fill="none" stroke="#32abb2" stroke-linecap="round" stroke-linejoin="round" stroke-width="3"/>
        <line id="Line_4" data-name="Line 4" x2="7.397" transform="translate(0 70.647)" fill="none" stroke="#32abb2" stroke-linecap="round" stroke-linejoin="round" stroke-width="3"/>
        <line id="Line_5" data-name="Line 5" x1="7.435" y2="14.233" transform="translate(5.245 61.346)" fill="none" stroke="#a0e1e5" stroke-linecap="round" stroke-linejoin="round" stroke-width="3"/>
        <line id="Line_6" data-name="Line 6" x1="10.194" y2="19.3" transform="translate(13.343 56.279)" fill="none" stroke="#a0e1e5" stroke-linecap="round" stroke-linejoin="round" stroke-width="3"/>
        <path id="Path_58" data-name="Path 58" d="M1241.806,487.967c0,22.821-16.426,26.639-21.218,26.639" transform="translate(-1191.852 -458.493)" fill="none" stroke="#a0e1e5" stroke-linecap="round" stroke-linejoin="round" stroke-width="3"/>
      </g>
      <line id="Line_7" data-name="Line 7" x1="13.704" transform="translate(15.032 56.114)" fill="none" stroke="#a0e1e5" stroke-linecap="round" stroke-linejoin="round" stroke-width="3"/>
    </g>
  </g>
</svg>
