<svg xmlns="http://www.w3.org/2000/svg" xmlns:xlink="http://www.w3.org/1999/xlink" width="141" height="141" viewBox="0 0 141 141">
  <defs>
    <filter id="Ellipse_4" x="0" y="0" width="141" height="141" filterUnits="userSpaceOnUse">
      <feOffset dy="8" input="SourceAlpha"/>
      <feGaussianBlur stdDeviation="3" result="blur"/>
      <feFlood flood-opacity="0.161"/>
      <feComposite operator="in" in2="blur"/>
      <feComposite in="SourceGraphic"/>
    </filter>
  </defs>
  <g id="icon" transform="translate(-176 -3087)">
    <g transform="matrix(1, 0, 0, 1, 176, 3087)" filter="url(#Ellipse_4)">
      <circle id="Ellipse_4-2" data-name="Ellipse 4" cx="60" cy="60" r="60" transform="translate(10.5 2.5)" fill="#fff" stroke="#a0e1e5" stroke-linecap="round" stroke-linejoin="round" stroke-width="3"/>
    </g>
    <g id="Group_37" data-name="Group 37" transform="translate(21.432 1805.799)">
      <g id="Group_36" data-name="Group 36" transform="translate(190.568 1307.535)">
        <g id="Group_35" data-name="Group 35" transform="translate(7.302)">
          <path id="Path_77" data-name="Path 77" d="M237.354,1308.594c-4.851,9.162-8.343,22.026-8.343,32.794,0,8.877,2.373,20.607,8.314,26.547" transform="translate(-229.011 -1308.594)" fill="none" stroke="#a0e1e5" stroke-linecap="round" stroke-linejoin="round" stroke-width="3"/>
          <path id="Path_78" data-name="Path 78" d="M263.7,1308.594c4.847,9.155,8.365,21.978,8.365,32.734,0,8.865-2.39,20.6-8.394,26.607" transform="translate(-255.358 -1308.594)" fill="none" stroke="#a0e1e5" stroke-linecap="round" stroke-linejoin="round" stroke-width="3"/>
          <line id="Line_12" data-name="Line 12" x1="0.029" y2="64.026" transform="translate(8.314)" fill="none" stroke="#a0e1e5" stroke-linecap="round" stroke-linejoin="round" stroke-width="3"/>
        </g>
        <path id="Path_79" data-name="Path 79" d="M214.184,1550.777a7.808,7.808,0,1,1-7.808-7.808" transform="translate(-198.568 -1486.751)" fill="none" stroke="#a0e1e5" stroke-linecap="round" stroke-linejoin="round" stroke-width="3"/>
        <path id="Path_80" data-name="Path 80" d="M263.672,1550.777a7.807,7.807,0,1,1,3.123,6.247" transform="translate(-248.056 -1486.751)" fill="none" stroke="#a0e1e5" stroke-linecap="round" stroke-linejoin="round" stroke-width="3"/>
      </g>
      <g id="Group_930" data-name="Group 930" transform="translate(137.973 762.04)">
        <path id="Path_641" data-name="Path 641" d="M96.662,561.14a.831.831,0,0,0-.585.24.835.835,0,0,0,0,1.171.823.823,0,0,0,.589.243.81.81,0,0,0,.582-.243.828.828,0,0,0,.243-.583A.854.854,0,0,0,96.662,561.14Z" transform="translate(-8.639 -9.168)" fill="#32abb2"/>
        <path id="Path_642" data-name="Path 642" d="M106.473,562.285a.982.982,0,0,0,.05-.155,1.04,1.04,0,0,0,.015-.161.851.851,0,0,0-.065-.316.983.983,0,0,0-.076-.147.849.849,0,0,0-.228-.229,1.191,1.191,0,0,0-.144-.073,1.026,1.026,0,0,0-.155-.05.759.759,0,0,0-.161-.014.825.825,0,0,0-.829.828.9.9,0,0,0,.065.316.817.817,0,0,0,.178.267.837.837,0,0,0,.586.246,1.01,1.01,0,0,0,.164-.017.959.959,0,0,0,.152-.047,1.141,1.141,0,0,0,.144-.073,1.125,1.125,0,0,0,.126-.108,1.1,1.1,0,0,0,.105-.122A.981.981,0,0,0,106.473,562.285Z" transform="translate(-13.938 -9.168)" fill="#32abb2"/>
        <path id="Path_643" data-name="Path 643" d="M115.524,562.285a.94.94,0,0,0,.05-.155,1.41,1.41,0,0,0,.014-.161.836.836,0,0,0-.368-.691.986.986,0,0,0-.3-.123.728.728,0,0,0-.161-.015.986.986,0,0,0-.161.014.966.966,0,0,0-.155.05,1.161,1.161,0,0,0-.144.073,1.122,1.122,0,0,0-.126.1.828.828,0,0,0,0,1.171.82.82,0,0,0,1.171,0,.7.7,0,0,0,.1-.126A.722.722,0,0,0,115.524,562.285Z" transform="translate(-19.243 -9.168)" fill="#32abb2"/>
        <path id="Path_644" data-name="Path 644" d="M124.575,562.285a.713.713,0,0,0,.047-.158.7.7,0,0,0,.014-.161.852.852,0,0,0-.825-.826.821.821,0,0,0-.586.24.718.718,0,0,0-.105.129.7.7,0,0,0-.076.14.576.576,0,0,0-.044.155.724.724,0,0,0-.018.164.828.828,0,0,0,1.414.583.707.707,0,0,0,.1-.126A.725.725,0,0,0,124.575,562.285Z" transform="translate(-24.547 -9.168)" fill="#32abb2"/>
        <path id="Path_645" data-name="Path 645" d="M133.621,562.28a.788.788,0,0,0,.044-.155.814.814,0,0,0,.018-.164.863.863,0,0,0-.829-.829.77.77,0,0,0-.161.021.559.559,0,0,0-.155.044.663.663,0,0,0-.144.079.818.818,0,0,0-.229.229.65.65,0,0,0-.076.141.951.951,0,0,0-.05.155,1.52,1.52,0,0,0-.014.161.832.832,0,0,0,.243.588.819.819,0,0,0,.585.24.828.828,0,0,0,.319-.061.658.658,0,0,0,.14-.076.791.791,0,0,0,.229-.229A.692.692,0,0,0,133.621,562.28Z" transform="translate(-29.847 -9.164)" fill="#32abb2"/>
        <path id="Path_646" data-name="Path 646" d="M142.719,561.8a.98.98,0,0,0-.05-.155.659.659,0,0,0-.076-.14.834.834,0,0,0-.688-.372.765.765,0,0,0-.161.02.6.6,0,0,0-.155.044.686.686,0,0,0-.144.079.7.7,0,0,0-.126.1.827.827,0,0,0,0,1.171.834.834,0,0,0,1.171,0,.83.83,0,0,0,.243-.588A1.045,1.045,0,0,0,142.719,561.8Z" transform="translate(-35.151 -9.164)" fill="#32abb2"/>
        <path id="Path_647" data-name="Path 647" d="M151.721,562.278a.928.928,0,0,0,.047-.152,1.057,1.057,0,0,0,.018-.164,1.1,1.1,0,0,0-.015-.161,1.011,1.011,0,0,0-.05-.155.659.659,0,0,0-.076-.14.717.717,0,0,0-.229-.229.689.689,0,0,0-.143-.079.924.924,0,0,0-.152-.047,1.091,1.091,0,0,0-.164-.017,1.48,1.48,0,0,0-.164.018.858.858,0,0,0-.152.047.689.689,0,0,0-.143.079.723.723,0,0,0-.126.1.819.819,0,0,0-.179.267.783.783,0,0,0-.064.316.846.846,0,0,0,.061.319.834.834,0,0,0,.182.269.821.821,0,0,0,.585.24.8.8,0,0,0,.319-.061.828.828,0,0,0,.267-.179,1.125,1.125,0,0,0,.1-.126A1.006,1.006,0,0,0,151.721,562.278Z" transform="translate(-40.455 -9.164)" fill="#32abb2"/>
        <path id="Path_648" data-name="Path 648" d="M160.818,561.807a.734.734,0,0,0-.047-.158.723.723,0,0,0-.076-.14.826.826,0,0,0-1.273-.126,1.028,1.028,0,0,0-.105.123.961.961,0,0,0-.076.146,1.128,1.128,0,0,0-.047.152.731.731,0,0,0-.015.161.747.747,0,0,0,.017.164.692.692,0,0,0,.044.155.721.721,0,0,0,.076.14.736.736,0,0,0,.106.129.722.722,0,0,0,.126.1.67.67,0,0,0,.141.076.725.725,0,0,0,.158.047.75.75,0,0,0,.161.015.779.779,0,0,0,.161-.015.755.755,0,0,0,.152-.047,1,1,0,0,0,.146-.076,1.086,1.086,0,0,0,.126-.1.83.83,0,0,0,.24-.585A.581.581,0,0,0,160.818,561.807Z" transform="translate(-45.759 -9.168)" fill="#32abb2"/>
        <path id="Path_649" data-name="Path 649" d="M169.869,561.807a1.032,1.032,0,0,0-.047-.158.714.714,0,0,0-.076-.141.832.832,0,0,0-1.276-.129.814.814,0,0,0-.24.585.825.825,0,0,0,.828.828.814.814,0,0,0,.585-.24.831.831,0,0,0,.24-.585A.6.6,0,0,0,169.869,561.807Z" transform="translate(-51.063 -9.168)" fill="#32abb2"/>
        <path id="Path_650" data-name="Path 650" d="M97.121,570.327a1.008,1.008,0,0,0-.141-.076,1.042,1.042,0,0,0-.158-.047.6.6,0,0,0-.161-.015.832.832,0,0,0-.586.24.841.841,0,0,0-.181.269.778.778,0,0,0-.059.316.825.825,0,0,0,.829.828.884.884,0,0,0,.313-.061.84.84,0,0,0,.27-.182.826.826,0,0,0-.126-1.273Z" transform="translate(-8.638 -14.471)" fill="#32abb2"/>
        <path id="Path_651" data-name="Path 651" d="M105.713,570.191a.831.831,0,0,0-.585.24.835.835,0,0,0,0,1.171.828.828,0,0,0,1.414-.582A.853.853,0,0,0,105.713,570.191Z" transform="translate(-13.943 -14.472)" fill="#32abb2"/>
        <path id="Path_652" data-name="Path 652" d="M115.22,570.328a.979.979,0,0,0-.144-.073.8.8,0,0,0-.155-.05.9.9,0,0,0-.322,0,.936.936,0,0,0-.158.047.922.922,0,0,0-.141.076.719.719,0,0,0-.126.1.82.82,0,0,0-.243.588,1.039,1.039,0,0,0,.014.161.922.922,0,0,0,.05.155.616.616,0,0,0,.076.141.7.7,0,0,0,.1.126.816.816,0,0,0,.27.181.884.884,0,0,0,.316.065.829.829,0,0,0,.46-1.519Z" transform="translate(-19.243 -14.472)" fill="#32abb2"/>
        <path id="Path_653" data-name="Path 653" d="M124.574,571.334a.948.948,0,0,0,.047-.158.7.7,0,0,0,.014-.161.848.848,0,0,0-.825-.826.726.726,0,0,0-.161.015.825.825,0,0,0-.424.226.821.821,0,0,0-.182.269.838.838,0,0,0-.062.319.768.768,0,0,0,.062.313.842.842,0,0,0,.182.269.809.809,0,0,0,.582.243.815.815,0,0,0,.589-.243.866.866,0,0,0,.178-.267Z" transform="translate(-24.546 -14.472)" fill="#32abb2"/>
        <path id="Path_654" data-name="Path 654" d="M133.621,571.332a.992.992,0,0,0,.047-.158.936.936,0,0,0,.014-.161.857.857,0,0,0-.828-.828.834.834,0,0,0-.582.243.7.7,0,0,0-.105.129.724.724,0,0,0-.076.14.738.738,0,0,0-.047.152,1.469,1.469,0,0,0-.018.164.826.826,0,0,0,.246.585.827.827,0,0,0,1.171,0,1.014,1.014,0,0,0,.1-.126C133.571,571.428,133.6,571.378,133.621,571.332Z" transform="translate(-29.847 -14.468)" fill="#32abb2"/>
        <path id="Path_655" data-name="Path 655" d="M142.67,571.329a.774.774,0,0,0,.047-.152.818.818,0,0,0,.018-.164.862.862,0,0,0-.828-.828,1.1,1.1,0,0,0-.164.017.774.774,0,0,0-.152.047.715.715,0,0,0-.143.079.79.79,0,0,0-.229.229.677.677,0,0,0-.076.14.965.965,0,0,0-.049.155,1.411,1.411,0,0,0-.015.161.825.825,0,0,0,.829.828.976.976,0,0,0,.161-.014,1.04,1.04,0,0,0,.158-.047.952.952,0,0,0,.14-.076.741.741,0,0,0,.126-.1.721.721,0,0,0,.1-.126A1,1,0,0,0,142.67,571.329Z" transform="translate(-35.151 -14.468)" fill="#32abb2"/>
        <path id="Path_656" data-name="Path 656" d="M151.721,571.328a.84.84,0,0,0,.064-.316.861.861,0,0,0-.828-.828,1.091,1.091,0,0,0-.164.017.782.782,0,0,0-.152.047.68.68,0,0,0-.144.08.7.7,0,0,0-.126.1.825.825,0,0,0,.585,1.411.764.764,0,0,0,.164-.018.566.566,0,0,0,.152-.047.94.94,0,0,0,.143-.073,1.086,1.086,0,0,0,.126-.1,1.045,1.045,0,0,0,.1-.126A.917.917,0,0,0,151.721,571.328Z" transform="translate(-40.455 -14.468)" fill="#32abb2"/>
        <path id="Path_657" data-name="Path 657" d="M160.772,571.329a.937.937,0,0,0,.047-.152,1.013,1.013,0,0,0,.017-.164.861.861,0,0,0-.828-.828,1.584,1.584,0,0,0-.164.017.9.9,0,0,0-.152.047,1,1,0,0,0-.146.076,1.092,1.092,0,0,0-.126.1.831.831,0,0,0-.176.27.783.783,0,0,0-.064.316.83.83,0,0,0,1.414.588,1.09,1.09,0,0,0,.1-.126A1.044,1.044,0,0,0,160.772,571.329Z" transform="translate(-45.759 -14.468)" fill="#32abb2"/>
        <path id="Path_658" data-name="Path 658" d="M168.292,570.7a.764.764,0,0,0-.062.313.825.825,0,0,0,.828.828.809.809,0,0,0,.582-.243.827.827,0,0,0,.243-.582.586.586,0,0,0-.018-.164.561.561,0,0,0-.043-.155.7.7,0,0,0-.077-.14.832.832,0,0,0-1.276-.129,1.081,1.081,0,0,0-.1.126A1,1,0,0,0,168.292,570.7Z" transform="translate(-51.063 -14.472)" fill="#32abb2"/>
        <path id="Path_659" data-name="Path 659" d="M96.663,579.235a1.019,1.019,0,0,0-.164.017.917.917,0,0,0-.152.047.812.812,0,0,0-.272.179,1.076,1.076,0,0,0-.1.126,1.133,1.133,0,0,0-.079.143.782.782,0,0,0-.044.155.6.6,0,0,0-.015.161.828.828,0,0,0,.51.767.828.828,0,0,0,.319.062.953.953,0,0,0,.161-.015,1.039,1.039,0,0,0,.152-.047.736.736,0,0,0,.144-.079.683.683,0,0,0,.125-.1.842.842,0,0,0,.246-.585A.861.861,0,0,0,96.663,579.235Z" transform="translate(-8.638 -19.772)" fill="#32abb2"/>
        <path id="Path_660" data-name="Path 660" d="M105.713,579.242a.832.832,0,0,0-.586.24.844.844,0,0,0-.181.27.769.769,0,0,0-.058.316.819.819,0,0,0,.825.826.784.784,0,0,0,.316-.058.849.849,0,0,0,.27-.182.815.815,0,0,0,.24-.585A.848.848,0,0,0,105.713,579.242Z" transform="translate(-13.943 -19.776)" fill="#32abb2"/>
        <path id="Path_661" data-name="Path 661" d="M114.764,579.242a.819.819,0,0,0-.825.825.805.805,0,0,0,.24.586.825.825,0,0,0,1.411-.586A.848.848,0,0,0,114.764,579.242Z" transform="translate(-19.247 -19.776)" fill="#32abb2"/>
        <path id="Path_662" data-name="Path 662" d="M124.57,580.383a1,1,0,0,0,.047-.159.724.724,0,0,0,.014-.161.757.757,0,0,0-.014-.161,1.01,1.01,0,0,0-.05-.155.953.953,0,0,0-.073-.143.837.837,0,0,0-.691-.369.827.827,0,0,0-.583.243.837.837,0,0,0-.246.585.9.9,0,0,0,.065.316.835.835,0,0,0,.764.513.824.824,0,0,0,.589-.243.72.72,0,0,0,.1-.126A.981.981,0,0,0,124.57,580.383Z" transform="translate(-24.543 -19.772)" fill="#32abb2"/>
        <path id="Path_663" data-name="Path 663" d="M133.619,580.379a.925.925,0,0,0,.05-.155.982.982,0,0,0,.014-.161.7.7,0,0,0-.014-.161.992.992,0,0,0-.123-.3.849.849,0,0,0-.691-.369,1.52,1.52,0,0,0-.161.015.966.966,0,0,0-.155.05.681.681,0,0,0-.141.076.74.74,0,0,0-.126.1.834.834,0,0,0-.246.586.821.821,0,0,0,.246.585,1.078,1.078,0,0,0,.123.106,1.028,1.028,0,0,0,.3.123.789.789,0,0,0,.161.015.845.845,0,0,0,.319-.062.825.825,0,0,0,.27-.182,1.084,1.084,0,0,0,.1-.126A.9.9,0,0,0,133.619,580.379Z" transform="translate(-29.847 -19.772)" fill="#32abb2"/>
        <path id="Path_664" data-name="Path 664" d="M142.719,579.9a.935.935,0,0,0-.05-.155,1.088,1.088,0,0,0-.073-.144.849.849,0,0,0-.691-.369.834.834,0,0,0-.582.243.715.715,0,0,0-.105.129.7.7,0,0,0-.076.14.739.739,0,0,0-.047.152.969.969,0,0,0-.018.164.82.82,0,0,0,.246.585,1.078,1.078,0,0,0,.123.106.951.951,0,0,0,.144.073.921.921,0,0,0,.155.05.829.829,0,0,0,.325,0,.759.759,0,0,0,.155-.044,1.038,1.038,0,0,0,.141-.076,1.007,1.007,0,0,0,.128-.105.838.838,0,0,0,.24-.585A1.045,1.045,0,0,0,142.719,579.9Z" transform="translate(-35.151 -19.772)" fill="#32abb2"/>
        <path id="Path_665" data-name="Path 665" d="M151.721,580.379a.775.775,0,0,0,.047-.152,1.151,1.151,0,0,0,.018-.164.863.863,0,0,0-.829-.829.822.822,0,0,0-.164.018.736.736,0,0,0-.152.047.952.952,0,0,0-.147.076.792.792,0,0,0-.229.229.937.937,0,0,0-.073.144.954.954,0,0,0-.05.155.986.986,0,0,0-.014.161.825.825,0,0,0,.828.828.982.982,0,0,0,.161-.014,1.016,1.016,0,0,0,.155-.05,1,1,0,0,0,.143-.073.792.792,0,0,0,.229-.229A1,1,0,0,0,151.721,580.379Z" transform="translate(-40.455 -19.772)" fill="#32abb2"/>
        <path id="Path_666" data-name="Path 666" d="M160.772,580.379a.772.772,0,0,0,.047-.152.781.781,0,0,0,0-.328.775.775,0,0,0-.047-.152.849.849,0,0,0-.308-.372.71.71,0,0,0-.14-.076.985.985,0,0,0-.155-.05,1.042,1.042,0,0,0-.161-.015.839.839,0,0,0-.316.064.946.946,0,0,0-.147.077.993.993,0,0,0-.123.105.826.826,0,0,0,.585,1.411.761.761,0,0,0,.164-.018.718.718,0,0,0,.152-.047.973.973,0,0,0,.144-.073.818.818,0,0,0,.228-.228A1.013,1.013,0,0,0,160.772,580.379Z" transform="translate(-45.759 -19.772)" fill="#32abb2"/>
        <path id="Path_667" data-name="Path 667" d="M169.823,580.38a.886.886,0,0,0,.046-.152,1.464,1.464,0,0,0,.018-.164,1.087,1.087,0,0,0-.017-.164.793.793,0,0,0-.047-.152.713.713,0,0,0-.079-.143.834.834,0,0,0-.685-.369.972.972,0,0,0-.164.018.857.857,0,0,0-.152.047,1,1,0,0,0-.146.076,1.121,1.121,0,0,0-.126.1.835.835,0,0,0-.179.267.8.8,0,0,0-.061.319.825.825,0,0,0,.828.828.781.781,0,0,0,.316-.064.819.819,0,0,0,.267-.179.723.723,0,0,0,.1-.126A.712.712,0,0,0,169.823,580.38Z" transform="translate(-51.063 -19.772)" fill="#32abb2"/>
        <path id="Path_668" data-name="Path 668" d="M97.429,589.43a.66.66,0,0,0,.044-.155.723.723,0,0,0,.018-.164.857.857,0,0,0-.825-.826,1.012,1.012,0,0,0-.164.017.941.941,0,0,0-.155.044,1.036,1.036,0,0,0-.144.079.717.717,0,0,0-.126.1.828.828,0,0,0,1.171,1.171.7.7,0,0,0,.1-.126A.667.667,0,0,0,97.429,589.43Z" transform="translate(-8.639 -25.076)" fill="#32abb2"/>
        <path id="Path_669" data-name="Path 669" d="M106.475,589.426a.908.908,0,0,0,.044-.155.725.725,0,0,0,.017-.164.861.861,0,0,0-.828-.828.971.971,0,0,0-.161.02.716.716,0,0,0-.3.123.722.722,0,0,0-.126.1.9.9,0,0,0-.181.269,1.122,1.122,0,0,0-.047.152,1,1,0,0,0-.015.161.823.823,0,0,0,.243.588.814.814,0,0,0,.585.24.585.585,0,0,0,.161-.015.774.774,0,0,0,.155-.044.749.749,0,0,0,.144-.079.8.8,0,0,0,.229-.229A.682.682,0,0,0,106.475,589.426Z" transform="translate(-13.938 -25.072)" fill="#32abb2"/>
        <path id="Path_670" data-name="Path 670" d="M115.571,588.953a.989.989,0,0,0-.047-.158.967.967,0,0,0-.076-.141.837.837,0,0,0-.691-.368.827.827,0,0,0-.583.243.84.84,0,0,0-.181.269.835.835,0,0,0,1.083,1.083.843.843,0,0,0,.27-.182.815.815,0,0,0,.24-.586A.6.6,0,0,0,115.571,588.953Z" transform="translate(-19.243 -25.076)" fill="#32abb2"/>
        <path id="Path_671" data-name="Path 671" d="M124.27,588.426a.967.967,0,0,0-.143-.079.9.9,0,0,0-.155-.044.966.966,0,0,0-.164-.017.827.827,0,1,0,0,1.654.813.813,0,0,0,.585-.24.831.831,0,0,0-.126-1.273Z" transform="translate(-24.547 -25.076)" fill="#32abb2"/>
        <path id="Path_672" data-name="Path 672" d="M133.317,588.426a1.041,1.041,0,0,0-.146-.076.844.844,0,0,0-.316-.064,1.029,1.029,0,0,0-.161.015,1.014,1.014,0,0,0-.156.05.991.991,0,0,0-.143.073,1.072,1.072,0,0,0-.123.106.819.819,0,0,0-.246.585c0,.056.009.109.018.164a.881.881,0,0,0,.047.152.676.676,0,0,0,.076.141.713.713,0,0,0,.105.129.81.81,0,0,0,.267.178.9.9,0,0,0,.316.065.822.822,0,0,0,.588-.243.831.831,0,0,0-.126-1.273Z" transform="translate(-29.847 -25.076)" fill="#32abb2"/>
        <path id="Path_673" data-name="Path 673" d="M142.67,589.431a.98.98,0,0,0,.05-.155.941.941,0,0,0,.014-.161.853.853,0,0,0-.828-.828,1.52,1.52,0,0,0-.161.015.966.966,0,0,0-.155.05,1.086,1.086,0,0,0-.144.073,1.121,1.121,0,0,0-.126.1.836.836,0,0,0-.178.272.818.818,0,0,0-.065.316.833.833,0,0,0,.828.828.824.824,0,0,0,.589-.243,1.076,1.076,0,0,0,.1-.126A1.109,1.109,0,0,0,142.67,589.431Z" transform="translate(-35.151 -25.076)" fill="#32abb2"/>
        <path id="Path_674" data-name="Path 674" d="M150.956,588.286a.733.733,0,0,0-.316.065.758.758,0,0,0-.269.176.827.827,0,0,0,0,1.171,1.077,1.077,0,0,0,.126.108,1.1,1.1,0,0,0,.144.073.843.843,0,0,0,.152.047.763.763,0,0,0,.328,0,.731.731,0,0,0,.152-.047,1.131,1.131,0,0,0,.144-.073,1.041,1.041,0,0,0,.125-.108.834.834,0,0,0,.243-.582A.857.857,0,0,0,150.956,588.286Z" transform="translate(-40.455 -25.076)" fill="#32abb2"/>
        <path id="Path_675" data-name="Path 675" d="M160.771,589.431a.774.774,0,0,0,.047-.152,1.081,1.081,0,0,0,.017-.164.861.861,0,0,0-.828-.828.792.792,0,0,0-.164.017.778.778,0,0,0-.152.047,1.042,1.042,0,0,0-.146.076,1.076,1.076,0,0,0-.126.1,1.115,1.115,0,0,0-.1.126.979.979,0,0,0-.076.14.989.989,0,0,0-.046.158.7.7,0,0,0-.015.161.825.825,0,0,0,.828.828,1.4,1.4,0,0,0,.161-.015.962.962,0,0,0,.155-.049.986.986,0,0,0,.143-.073,1.042,1.042,0,0,0,.229-.229A1.043,1.043,0,0,0,160.771,589.431Z" transform="translate(-45.758 -25.076)" fill="#32abb2"/>
        <path id="Path_676" data-name="Path 676" d="M169.823,589.43a.782.782,0,0,0,.047-.152,1.086,1.086,0,0,0,.017-.164.861.861,0,0,0-.828-.828.839.839,0,0,0-.316.064,1.029,1.029,0,0,0-.147.076.983.983,0,0,0-.125.1.828.828,0,0,0,.588,1.414.834.834,0,0,0,.582-.243.711.711,0,0,0,.1-.125A.68.68,0,0,0,169.823,589.43Z" transform="translate(-51.063 -25.076)" fill="#32abb2"/>
        <path id="Path_677" data-name="Path 677" d="M97.424,598.478a.942.942,0,0,0,.044-.156.741.741,0,0,0,.018-.164,1.04,1.04,0,0,0-.015-.161.8.8,0,0,0-.05-.155.625.625,0,0,0-.076-.14.712.712,0,0,0-.228-.229.726.726,0,0,0-.144-.079.879.879,0,0,0-.152-.047,1.561,1.561,0,0,0-.164-.017.97.97,0,0,0-.161.02.657.657,0,0,0-.155.044.676.676,0,0,0-.144.079.7.7,0,0,0-.126.1.736.736,0,0,0-.1.125.643.643,0,0,0-.076.141.969.969,0,0,0-.05.155c-.005.053-.014.108-.014.161a.831.831,0,0,0,.243.588.842.842,0,0,0,.585.24,1.016,1.016,0,0,0,.164-.012.953.953,0,0,0,.155-.05.628.628,0,0,0,.141-.076.787.787,0,0,0,.228-.228A.956.956,0,0,0,97.424,598.478Z" transform="translate(-8.634 -30.376)" fill="#32abb2"/>
        <path id="Path_678" data-name="Path 678" d="M106.476,598.478a.919.919,0,0,0,.044-.155,1.018,1.018,0,0,0,.018-.164.862.862,0,0,0-.828-.828.98.98,0,0,0-.161.02.68.68,0,0,0-.155.044.9.9,0,0,0-.269.181.822.822,0,0,0-.179.267.84.84,0,0,0-.064.316.7.7,0,0,0,.017.164.66.66,0,0,0,.044.156.957.957,0,0,0,.079.143.7.7,0,0,0,.1.126.686.686,0,0,0,.125.1.873.873,0,0,0,.14.076.691.691,0,0,0,.159.047.575.575,0,0,0,.161.015.821.821,0,0,0,.585-.24.722.722,0,0,0,.1-.126A.993.993,0,0,0,106.476,598.478Z" transform="translate(-13.939 -30.376)" fill="#32abb2"/>
        <path id="Path_679" data-name="Path 679" d="M115.524,598.474a.883.883,0,0,0,.047-.152,1.013,1.013,0,0,0,.018-.164.765.765,0,0,0-.018-.158.719.719,0,0,0-.047-.158.642.642,0,0,0-.076-.14.846.846,0,0,0-.688-.372,1.471,1.471,0,0,0-.164.017.916.916,0,0,0-.152.047.691.691,0,0,0-.143.079.71.71,0,0,0-.126.1.687.687,0,0,0-.1.126.759.759,0,0,0-.079.143,1.109,1.109,0,0,0-.047.152,1.04,1.04,0,0,0-.015.161.824.824,0,0,0,.243.588.811.811,0,0,0,.267.178.827.827,0,0,0,.319.062.736.736,0,0,0,.161-.015,1.158,1.158,0,0,0,.155-.044c.05-.026.1-.05.144-.079a1.01,1.01,0,0,0,.125-.1,1.09,1.09,0,0,0,.1-.126A.949.949,0,0,0,115.524,598.474Z" transform="translate(-19.243 -30.376)" fill="#32abb2"/>
        <path id="Path_680" data-name="Path 680" d="M124.621,598a1.035,1.035,0,0,0-.047-.158,1.08,1.08,0,0,0-.076-.14.843.843,0,0,0-.228-.229,1.015,1.015,0,0,0-.144-.079.814.814,0,0,0-.155-.044.64.64,0,0,0-.164-.018.828.828,0,0,0-.583.243.856.856,0,0,0-.182.27.815.815,0,0,0-.061.313.831.831,0,0,0,.509.767.847.847,0,0,0,.32.061.826.826,0,0,0,.316-.058.848.848,0,0,0,.27-.182.832.832,0,0,0,.24-.585A.58.58,0,0,0,124.621,598Z" transform="translate(-24.547 -30.379)" fill="#32abb2"/>
        <path id="Path_681" data-name="Path 681" d="M133.673,598a.94.94,0,0,0-.047-.158,1.083,1.083,0,0,0-.076-.14.827.827,0,0,0-.229-.228.957.957,0,0,0-.143-.079.768.768,0,0,0-.155-.044.788.788,0,0,0-.164-.017.827.827,0,0,0-.582.243.807.807,0,0,0-.243.582.83.83,0,0,0,1.413.589.831.831,0,0,0,.24-.585A.731.731,0,0,0,133.673,598Z" transform="translate(-29.851 -30.38)" fill="#32abb2"/>
        <path id="Path_682" data-name="Path 682" d="M142.365,597.474a1.106,1.106,0,0,0-.143-.073.966.966,0,0,0-.155-.05.875.875,0,0,0-.322,0,1.021,1.021,0,0,0-.3.123,1.079,1.079,0,0,0-.126.1.822.822,0,0,0-.243.588.834.834,0,0,0,.243.582.816.816,0,0,0,.27.181.886.886,0,0,0,.316.065.835.835,0,0,0,.828-.828A.837.837,0,0,0,142.365,597.474Z" transform="translate(-35.151 -30.38)" fill="#32abb2"/>
        <path id="Path_683" data-name="Path 683" d="M151.721,598.481a.926.926,0,0,0,.05-.155,1.418,1.418,0,0,0,.014-.161.965.965,0,0,0-.017-.164.926.926,0,0,0-.047-.152,1.027,1.027,0,0,0-.076-.147.837.837,0,0,0-.688-.366.986.986,0,0,0-.161.014.925.925,0,0,0-.155.05,1.121,1.121,0,0,0-.144.073,1.077,1.077,0,0,0-.126.1.811.811,0,0,0-.243.589.818.818,0,0,0,.243.582,1.09,1.09,0,0,0,.126.109,1.105,1.105,0,0,0,.143.073.923.923,0,0,0,.152.047,1.01,1.01,0,0,0,.164.017.817.817,0,0,0,.316-.065.826.826,0,0,0,.27-.181.737.737,0,0,0,.1-.126A.65.65,0,0,0,151.721,598.481Z" transform="translate(-40.455 -30.38)" fill="#32abb2"/>
        <path id="Path_684" data-name="Path 684" d="M160.007,597.337a.838.838,0,0,0-.585.24.823.823,0,0,0-.243.588.776.776,0,0,0,.065.316.817.817,0,0,0,.178.267.679.679,0,0,0,.269.181.924.924,0,0,0,.152.047,1.015,1.015,0,0,0,.164.017.835.835,0,0,0,.828-.828A.857.857,0,0,0,160.007,597.337Z" transform="translate(-45.759 -30.38)" fill="#32abb2"/>
        <path id="Path_685" data-name="Path 685" d="M169.822,598.48a.573.573,0,0,0,.043-.155.6.6,0,0,0,.018-.164.836.836,0,0,0-.366-.688.986.986,0,0,0-.143-.073.958.958,0,0,0-.155-.05,1.091,1.091,0,0,0-.161-.015.636.636,0,0,0-.164.018.792.792,0,0,0-.155.044.989.989,0,0,0-.143.079.788.788,0,0,0-.229.229.675.675,0,0,0-.076.14.734.734,0,0,0-.047.158.721.721,0,0,0-.014.161.82.82,0,0,0,.825.825,1.015,1.015,0,0,0,.164-.012.954.954,0,0,0,.155-.05.648.648,0,0,0,.141-.076.738.738,0,0,0,.126-.1.72.72,0,0,0,.1-.126A.685.685,0,0,0,169.822,598.48Z" transform="translate(-51.062 -30.379)" fill="#32abb2"/>
        <path id="Path_686" data-name="Path 686" d="M97.472,607.048a.929.929,0,0,0-.05-.155.977.977,0,0,0-.073-.144.848.848,0,0,0-.228-.228,1,1,0,0,0-.147-.076.878.878,0,0,0-.152-.047,1.374,1.374,0,0,0-.164-.017.83.83,0,0,0-.585,1.417.828.828,0,0,0,1.414-.588A.942.942,0,0,0,97.472,607.048Z" transform="translate(-8.635 -35.68)" fill="#32abb2"/>
        <path id="Path_687" data-name="Path 687" d="M106.473,607.526a.98.98,0,0,0,.047-.152,1.062,1.062,0,0,0,.017-.164,1.04,1.04,0,0,0-.015-.161.956.956,0,0,0-.05-.155.631.631,0,0,0-.076-.14.72.72,0,0,0-.228-.229.665.665,0,0,0-.144-.079.762.762,0,0,0-.152-.047,1.1,1.1,0,0,0-.164-.017,1.469,1.469,0,0,0-.164.017.927.927,0,0,0-.153.047.835.835,0,0,0-.371.307.672.672,0,0,0-.076.141.956.956,0,0,0-.05.155,1.512,1.512,0,0,0-.015.161,1.02,1.02,0,0,0,.018.164.642.642,0,0,0,.047.152,1.113,1.113,0,0,0,.073.144,1.082,1.082,0,0,0,.105.129.746.746,0,0,0,.269.176.824.824,0,0,0,.316.065.719.719,0,0,0,.161-.014.707.707,0,0,0,.158-.047.877.877,0,0,0,.141-.076.718.718,0,0,0,.126-.1.692.692,0,0,0,.1-.126A.982.982,0,0,0,106.473,607.526Z" transform="translate(-13.938 -35.68)" fill="#32abb2"/>
        <path id="Path_688" data-name="Path 688" d="M115.524,607.525a.884.884,0,0,0,.047-.152,1.068,1.068,0,0,0,.018-.164,1,1,0,0,0-.015-.161.977.977,0,0,0-.05-.155.738.738,0,0,0-.076-.141.847.847,0,0,0-.688-.372c-.056,0-.108.009-.164.018a.936.936,0,0,0-.152.047.983.983,0,0,0-.147.076,1.069,1.069,0,0,0-.123.105.817.817,0,0,0-.243.583.7.7,0,0,0,.017.164.668.668,0,0,0,.044.155,1.036,1.036,0,0,0,.076.14.712.712,0,0,0,.105.129.821.821,0,0,0,.586.24.777.777,0,0,0,.316-.065.83.83,0,0,0,.27-.176,1.076,1.076,0,0,0,.1-.126A.984.984,0,0,0,115.524,607.525Z" transform="translate(-19.243 -35.68)" fill="#32abb2"/>
        <path id="Path_689" data-name="Path 689" d="M124.575,607.525a.921.921,0,0,0,.047-.152,1.014,1.014,0,0,0,.017-.164.861.861,0,0,0-.828-.828.848.848,0,0,0-.588.243.812.812,0,0,0-.178.272,1.121,1.121,0,0,0-.047.152.764.764,0,0,0-.015.161.825.825,0,0,0,.828.828.736.736,0,0,0,.161-.015.9.9,0,0,0,.3-.123,1,1,0,0,0,.125-.1,1.045,1.045,0,0,0,.1-.126A.946.946,0,0,0,124.575,607.525Z" transform="translate(-24.547 -35.68)" fill="#32abb2"/>
        <path id="Path_690" data-name="Path 690" d="M133.318,606.524a1.135,1.135,0,0,0-.14-.076,1.05,1.05,0,0,0-.158-.047.615.615,0,0,0-.161-.015.833.833,0,0,0-.585.24.772.772,0,0,0-.178.272.807.807,0,0,0-.062.313.825.825,0,0,0,.828.828.814.814,0,0,0,.313-.061.849.849,0,0,0,.27-.182.828.828,0,0,0,.243-.583A.837.837,0,0,0,133.318,606.524Z" transform="translate(-29.851 -35.683)" fill="#32abb2"/>
        <path id="Path_691" data-name="Path 691" d="M142.721,607.052a.752.752,0,0,0-.044-.155.972.972,0,0,0-.079-.143.835.835,0,0,0-.229-.229.776.776,0,0,0-.3-.123.761.761,0,0,0-.161-.014.831.831,0,0,0-.585.24.835.835,0,0,0,0,1.171.811.811,0,0,0,.589.243.809.809,0,0,0,.582-.243.827.827,0,0,0,.243-.583A.76.76,0,0,0,142.721,607.052Z" transform="translate(-35.155 -35.685)" fill="#32abb2"/>
        <path id="Path_692" data-name="Path 692" d="M151.721,607.533a.716.716,0,0,0,.047-.159.728.728,0,0,0,.018-.158.853.853,0,0,0-.829-.828.824.824,0,0,0-.828.828.855.855,0,0,0,.065.316.818.818,0,0,0,.178.267.759.759,0,0,0,.129.106.715.715,0,0,0,.141.076.879.879,0,0,0,.152.047,1.491,1.491,0,0,0,.164.018.837.837,0,0,0,.585-.246.722.722,0,0,0,.1-.126A.659.659,0,0,0,151.721,607.533Z" transform="translate(-40.455 -35.684)" fill="#32abb2"/>
        <path id="Path_693" data-name="Path 693" d="M160.772,607.531a.709.709,0,0,0,.047-.158.948.948,0,0,0,.017-.158.853.853,0,0,0-.828-.828.7.7,0,0,0-.161.014.947.947,0,0,0-.158.047,1.013,1.013,0,0,0-.141.076.74.74,0,0,0-.126.1.815.815,0,0,0-.243.589.793.793,0,0,0,.064.316.828.828,0,0,0,.179.266.848.848,0,0,0,.269.182.818.818,0,0,0,.9-.182.867.867,0,0,0,.178-.267Z" transform="translate(-45.759 -35.684)" fill="#32abb2"/>
        <path id="Path_694" data-name="Path 694" d="M169.058,606.388a.825.825,0,0,0-.828.828.759.759,0,0,0,.062.313.832.832,0,0,0,.181.27,1.039,1.039,0,0,0,.123.106.968.968,0,0,0,.143.073.9.9,0,0,0,.155.05.734.734,0,0,0,.161.015.825.825,0,0,0,.828-.828A.852.852,0,0,0,169.058,606.388Z" transform="translate(-51.062 -35.684)" fill="#32abb2"/>
        <path id="Path_695" data-name="Path 695" d="M126.168,577.66V556.367a2.6,2.6,0,0,0-2.6-2.6H90.932a2.6,2.6,0,0,0-2.6,2.6V577.66a2.6,2.6,0,0,0,2.6,2.6h32.639A2.6,2.6,0,0,0,126.168,577.66Zm-2.6.942H90.932a.964.964,0,0,1-.942-.942V556.367a.942.942,0,0,1,.942-.941h32.639a.943.943,0,0,1,.942.942V577.66A.944.944,0,0,1,123.571,578.6Z" transform="translate(-4.242 -4.849)" fill="#32abb2"/>
        <path id="Path_696" data-name="Path 696" d="M110.741,613.06V591.225a2.784,2.784,0,0,0-2.781-2.781,1.153,1.153,0,0,1-1.126-1.126v-5.981a2.507,2.507,0,0,1,2.5-2.5h12.068a3.516,3.516,0,0,0,3.517-3.517v-26.3a3.521,3.521,0,0,0-3.517-3.517H84.612a3.522,3.522,0,0,0-3.517,3.518v26.3a3.517,3.517,0,0,0,3.517,3.517H96.681a2.508,2.508,0,0,1,2.5,2.5v5.981a1.128,1.128,0,0,1-1.126,1.126,2.781,2.781,0,0,0-2.781,2.781V613.06a6.7,6.7,0,0,0,6.688,6.688h2.087a6.687,6.687,0,0,0,6.688-6.688Zm-6.688,5.032h-2.087a5.038,5.038,0,0,1-5.032-5.032V591.225a1.126,1.126,0,0,1,1.126-1.126,2.784,2.784,0,0,0,2.781-2.781v-5.981a4.163,4.163,0,0,0-4.159-4.159H84.612a1.861,1.861,0,0,1-1.861-1.861v-26.3a1.864,1.864,0,0,1,1.861-1.862h36.794a1.864,1.864,0,0,1,1.861,1.861v26.3a1.861,1.861,0,0,1-1.861,1.861H109.338a4.163,4.163,0,0,0-4.159,4.159v5.981a2.784,2.784,0,0,0,2.781,2.781,1.127,1.127,0,0,1,1.126,1.126V613.06A5.039,5.039,0,0,1,104.052,618.093Z" fill="#32abb2"/>
        <path id="Path_697" data-name="Path 697" d="M132.618,702.636a3.4,3.4,0,1,0-.995,2.4,3.375,3.375,0,0,0,.995-2.4Zm-3.4,1.741a1.741,1.741,0,1,1,1.741-1.741h0a1.741,1.741,0,0,1-1.741,1.741Z" transform="translate(-26.213 -90.097)" fill="#32abb2"/>
      </g>
    </g>
  </g>
</svg>
