<!-- Generated by IcoMoon.io -->
<svg version="1.1" xmlns="http://www.w3.org/2000/svg" width="1409" height="1024" viewBox="0 0 1409 1024">
<title></title>
<g id="icomoon-ignore">
</g>
<path fill="#a0e1e5" d="M1375.801 334.379h-201.415c-12.098-33.642-43.73-57.266-80.88-57.266-13.081 0-25.479 2.929-36.571 8.168l0.522-0.222-276.447-276.447c-5.313-5.174-12.578-8.364-20.589-8.364-16.305 0-29.523 13.218-29.523 29.523 0 8.011 3.191 15.277 8.371 20.596l276.441 276.441c-1.138 2.475-2.178 4.949-3.044 7.548h-616.197c-0.866-2.475-1.906-5.073-3.044-7.548l276.422-276.447c5.003-5.278 8.079-12.426 8.079-20.292 0-16.305-13.218-29.523-29.523-29.523-7.86 0-15.002 3.071-20.293 8.080l0.014-0.013-276.472 276.472c-10.571-5.017-22.968-7.946-36.049-7.946-37.149 0-68.781 23.624-80.691 56.669l-0.188 0.598h-201.439c-18.627 1.142-33.303 16.526-33.309 35.338v0.001c0 0.038 0 0.083 0 0.128 0 3.266 0.452 6.426 1.296 9.421l-0.059-0.244 1.138 3.465 205.721 621.567c3.693 11.65 14.41 19.946 27.065 19.946 0.003 0 0.006 0 0.009 0h938.796c0.004 0 0.010 0 0.015 0 12.659 0 23.381-8.294 27.028-19.745l0.055-0.201 206.834-625.031c0.801-2.737 1.263-5.88 1.263-9.132 0-0.061 0-0.122 0-0.182v0.009c0-0.003 0-0.008 0-0.012 0-18.827-14.691-34.222-33.235-35.347l-0.099-0.005zM1074.632 343.957c4.833-4.839 11.513-7.832 18.893-7.832 14.747 0 26.702 11.955 26.702 26.702s-11.955 26.702-26.702 26.702c-7.379 0-14.059-2.993-18.892-7.832v0c-4.8-4.838-7.766-11.501-7.766-18.857s2.966-14.019 7.768-18.859l-0.002 0.002zM296.74 343.957c4.831-4.824 11.501-7.808 18.868-7.808 14.747 0 26.702 11.955 26.702 26.702s-11.955 26.702-26.702 26.702c-7.367 0-14.037-2.983-18.868-7.808v0c-4.828-4.839-7.813-11.518-7.813-18.894s2.985-14.055 7.814-18.895v0zM1151.817 964.979h-894.549l-50.385-152.317h995.318zM1221.752 753.616h-1034.418l-50.855-153.703h1136.078zM1292.132 540.793h-1175.154l-48.801-147.417h167.363c0.693 1.831 1.46 3.687 2.301 5.469 13.939 29.591 43.515 49.706 77.79 49.706 36.362 0 67.436-22.639 79.895-54.591l0.2-0.584h617.681c4.518 11.741 11.127 21.761 19.45 30.066l0.002 0.002c15.518 15.519 36.956 25.117 60.635 25.117 34.273 0 63.85-20.107 77.577-49.169l0.222-0.522c0.817-1.807 1.609-3.638 2.301-5.469h167.313z"></path>
</svg>
