<svg xmlns="http://www.w3.org/2000/svg" xmlns:xlink="http://www.w3.org/1999/xlink" width="141" height="141" viewBox="0 0 141 141">
  <defs>
    <filter id="Ellipse_4" x="0" y="0" width="141" height="141" filterUnits="userSpaceOnUse">
      <feOffset dy="8" input="SourceAlpha"/>
      <feGaussianBlur stdDeviation="3" result="blur"/>
      <feFlood flood-opacity="0.161"/>
      <feComposite operator="in" in2="blur"/>
      <feComposite in="SourceGraphic"/>
    </filter>
  </defs>
  <g id="Group_2355" data-name="Group 2355" transform="translate(-231.5 -3087)">
    <g id="icon" transform="translate(55.5)">
      <g transform="matrix(1, 0, 0, 1, 176, 3087)" filter="url(#Ellipse_4)">
        <circle id="Ellipse_4-2" data-name="Ellipse 4" cx="60" cy="60" r="60" transform="translate(10.5 2.5)" fill="#fff" stroke="#a0e1e5" stroke-linecap="round" stroke-linejoin="round" stroke-width="3"/>
      </g>
    </g>
    <g id="Element" transform="translate(-140.988 2797.988)">
      <path id="Path_961" data-name="Path 961" d="M606.547,567.541h2.4a1.4,1.4,0,1,0,0-2.8H600.4a1.4,1.4,0,0,0-1.361,1.072l-.079.327c-.36,1.5-.786,3.255-1.211,4.992-.117-1.561-.241-3.259-.366-4.992,0-.032,0-.063-.007-.095-.106-1.466-.211-2.951-.315-4.412-.064-.906-.126-1.8-.187-2.668-.085-1.226-.166-2.407-.24-3.5a1.379,1.379,0,0,0-.626-1.048l-.032-.023a1.369,1.369,0,0,0-.605-.225,1.3,1.3,0,0,0-.775.166,1.4,1.4,0,0,0-.693.833c0,.013-.013.023-.017.037l-.769,2.914-.06.23-.162.614-.369,1.4-.026.1-1.427,5.407-.962-4.48a1.4,1.4,0,0,0-.742-.954,1.411,1.411,0,0,0-.21-.072,1.389,1.389,0,0,0-.164-.056,1.351,1.351,0,0,0-.681.056,1.376,1.376,0,0,0-.379.191,1.407,1.407,0,0,0-.368.371l-1.305,2.026-1.041,1.616-.112.174H579.4a1.794,1.794,0,0,0-.716.225,1.364,1.364,0,0,0,.347,2.5,1.351,1.351,0,0,0,.369.074h6.472a1.372,1.372,0,0,0,.187-.024,1.392,1.392,0,0,0,.989-.618l.171-.265.233-.361.085-.132.549-.853.183.853.281,1.309.975,4.54.04.187a1.4,1.4,0,0,0,2.72.063l.066-.25,1.544-5.849.528-2c.049.7.094,1.36.139,2,.161,2.3.3,4.231.423,5.849.038.493.074.962.109,1.4.04.5.079.965.116,1.4.086,1,.166,1.826.241,2.506.062.555.122,1.018.18,1.4a6.425,6.425,0,0,0,.33,1.4.886.886,0,0,0,.657.6,1.407,1.407,0,0,0,1.506-.4.958.958,0,0,0,.139-.2,8.03,8.03,0,0,0,.467-1.4c.1-.364.225-.825.374-1.4.172-.666.378-1.48.633-2.506q.16-.645.345-1.4c.107-.434.222-.907.342-1.4.311-1.276.664-2.734,1.078-4.451h5.044Z" transform="translate(-153.791 -214.989)" fill="#32abb2"/>
      <path id="Path_962" data-name="Path 962" d="M961.905,847.574h2.631v2.631a1.4,1.4,0,1,0,2.8,0v-2.631h2.632a1.4,1.4,0,0,0,0-2.8h-2.632v-2.633a1.409,1.409,0,0,0-1.18-1.355,1.337,1.337,0,0,0-.219-.044,1.467,1.467,0,0,0-1.4,1.4v2.633h-2.631a1.4,1.4,0,0,0-1.4,1.4,1.365,1.365,0,0,0,.17.634A1.386,1.386,0,0,0,961.905,847.574Z" transform="translate(-503.941 -477.327)" fill="#32abb2"/>
      <path id="Path_963" data-name="Path 963" d="M471.97,377.728a1.385,1.385,0,0,0-.081-1.856s-.009,0-.013-.008a12.1,12.1,0,0,0-1.474-15.843V326.013a1.4,1.4,0,0,0-1.4-1.4H456.561v-3.9a1.4,1.4,0,0,0-1.4-1.4H411.4a1.4,1.4,0,0,0-1.4,1.4V358.4a1.4,1.4,0,0,0,1.4,1.4h5.652v11.08a1.4,1.4,0,0,0,1.4,1.4h31.892a12.14,12.14,0,0,0,17.629,7.1,1.334,1.334,0,0,0,.164.247,1.355,1.355,0,0,0,1.856.081l3.6,3.6a1.4,1.4,0,1,0,1.978-1.978Zm-19.1-6.847a9.291,9.291,0,0,1-.208-1.4c-.017-.228-.035-.456-.035-.689a9.25,9.25,0,0,1,1.513-5.088,9.478,9.478,0,0,1,7.855-4.28c.074,0,.145.009.219.011a9.364,9.364,0,1,1-8.907,12.844A9.259,9.259,0,0,1,452.869,370.881Zm-33.019-1.4V334.589h40.964v9.387h0v12.71a12.055,12.055,0,0,0-4.253,1.237,12.2,12.2,0,0,0-5.6,5.782,11.81,11.81,0,0,0-1.13,5.088c0,.232.022.459.035.689ZM412.8,322.11h40.965v9.681H437.78l-1.04-3.939a1.379,1.379,0,0,0-2.478-.44,1.37,1.37,0,0,0-.271.7c-.078,1.143-.163,2.384-.253,3.678H427.5l-.865-3.276-.175-.663a1.38,1.38,0,0,0-1.225-1.016,1.289,1.289,0,0,0-.261-.019,1.4,1.4,0,0,0-1.264,1.3c-.078,1.14-.164,2.389-.253,3.678H418.45a1.4,1.4,0,0,0-1.4,1.4V357H412.8Zm54.806,35.9a12.063,12.063,0,0,0-3.992-1.261V333.19a1.4,1.4,0,0,0-1.4-1.4h-5.652v-4.379H467.6Z" fill="#a0e1e5"/>
    </g>
  </g>
</svg>
