<svg xmlns="http://www.w3.org/2000/svg" width="414.911" height="251.922" viewBox="0 0 414.911 251.922">
  <g id="Group_2355" data-name="Group 2355" transform="translate(-813.763 -1247.195)">
    <g id="Group_1468" data-name="Group 1468" transform="translate(1102.715 1248.195)">
      <path id="Path_5110" data-name="Path 5110" d="M124.875,47.818h-8.331V26.992A2.028,2.028,0,0,0,116,25.6L95.177,2.687A2.089,2.089,0,0,0,93.636,2H26.992a2.083,2.083,0,0,0-2.083,2.083V22.826h-12.5A10.414,10.414,0,0,0,2,33.239v83.305a10.414,10.414,0,0,0,10.413,10.413H112.38a14.594,14.594,0,0,0,14.578-14.578V49.9A2.083,2.083,0,0,0,124.875,47.818ZM95.719,9.477l14.037,15.432H95.719ZM29.074,6.165H91.553V26.992a2.083,2.083,0,0,0,2.083,2.083H112.38V110.3H101.966V58.231A10.414,10.414,0,0,0,91.553,47.818H49.9a2.083,2.083,0,0,1-2.083-2.083v-12.5A10.414,10.414,0,0,0,37.4,22.826H29.074ZM12.413,122.793a6.266,6.266,0,0,1-6.248-6.248V33.239a6.266,6.266,0,0,1,6.248-6.248H37.4a6.266,6.266,0,0,1,6.248,6.248v12.5A6.266,6.266,0,0,0,49.9,51.983H91.553A6.266,6.266,0,0,1,97.8,58.231V112.38a14.516,14.516,0,0,0,4.394,10.413Zm110.38-10.413a10.413,10.413,0,0,1-20.618,2.083h12.288a2.083,2.083,0,0,0,2.083-2.083v-60.4h6.248Z" transform="translate(-2 -2)" fill="#a0e1e5" stroke="#a0e1e5" stroke-width="2"/>
      <path id="Path_5111" data-name="Path 5111" d="M21.083,12.165H66.9A2.083,2.083,0,1,0,66.9,8H21.083a2.083,2.083,0,0,0,0,4.165Z" transform="translate(16.405 4.496)" fill="#a0e1e5" stroke="#a0e1e5" stroke-width="2"/>
      <path id="Path_5112" data-name="Path 5112" d="M28.083,16.165h31.24a2.083,2.083,0,1,0,0-4.165H28.083a2.083,2.083,0,1,0,0,4.165Z" transform="translate(23.983 8.826)" fill="#a0e1e5" stroke="#a0e1e5" stroke-width="2"/>
      <path id="Path_5113" data-name="Path 5113" d="M28.083,20.165h31.24a2.083,2.083,0,1,0,0-4.165H28.083a2.083,2.083,0,1,0,0,4.165Z" transform="translate(23.983 13.157)" fill="#a0e1e5" stroke="#a0e1e5" stroke-width="2"/>
      <path id="Path_5114" data-name="Path 5114" d="M26,22.083a2.083,2.083,0,0,0,2.083,2.083h47.9a2.083,2.083,0,0,0,0-4.165h-47.9A2.083,2.083,0,0,0,26,22.083Z" transform="translate(23.983 17.487)" fill="#a0e1e5" stroke="#a0e1e5" stroke-width="2"/>
    </g>
    <g id="noun_Computer_4012802" transform="translate(813.763 1247.029)">
      <path id="Path_5134" data-name="Path 5134" d="M226.949,172.493H14.756a8.036,8.036,0,0,1-8.036-8.036V16.69a12.145,12.145,0,0,1,12.1-12.1H222.886a12.145,12.145,0,0,1,12.1,12.1V164.457a8.036,8.036,0,0,1-8.036,8.036ZM15.479,163.735H226.227V16.69a3.341,3.341,0,0,0-3.341-3.341H18.82a3.341,3.341,0,0,0-3.341,3.341Z" transform="translate(23.622 0)" fill="#32abb2"/>
      <path id="Path_5135" data-name="Path 5135" d="M190.082,129.641H16.265a4.515,4.515,0,0,1-4.515-4.515V14.425A4.515,4.515,0,0,1,16.265,9.91H190.082a4.515,4.515,0,0,1,4.515,4.515V125.262A4.515,4.515,0,0,1,190.082,129.641ZM20.644,120.882H185.7V18.8H20.644Z" transform="translate(41.302 18.698)" fill="#32abb2"/>
      <path id="Path_5136" data-name="Path 5136" d="M275.809,128.4H13.141a13.093,13.093,0,0,1-12.009-18.42L28.446,47.907a13.183,13.183,0,0,1,12.19-7.856,4.515,4.515,0,0,1,0,8.759,4.515,4.515,0,0,0-4.018,2.619L9.033,113.551a4.515,4.515,0,0,0,4.018,6.095H275.809a4.554,4.554,0,0,0,4.018-6.276L252.739,51.293a4.515,4.515,0,0,0-4.018-2.619,4.515,4.515,0,1,1,0-8.759,13.183,13.183,0,0,1,12.009,7.856l27.088,62.078a13.093,13.093,0,0,1-12.009,18.42Z" transform="translate(0 123.684)" fill="#32abb2"/>
      <path id="Path_5137" data-name="Path 5137" d="M139.606,57.524H21.59a4.515,4.515,0,0,1,0-8.759H139.606a4.515,4.515,0,1,1,0,8.759Z" transform="translate(63.877 154.789)" fill="#32abb2"/>
      <path id="Path_5138" data-name="Path 5138" d="M65.559,66.545a4.2,4.2,0,0,1-3.07-1.264l-8.217-8.217-3.3,4.966a4.515,4.515,0,0,1-7.9-1.4l-8.533-35.4a4.515,4.515,0,0,1,5.282-5.282l35.35,8.533a4.515,4.515,0,0,1,1.4,7.9l-4.921,3.3L79.871,47.9a4.515,4.515,0,0,1,0,6.185l-11.377,11.2A4.515,4.515,0,0,1,65.559,66.545ZM53.55,45.822a4.515,4.515,0,0,1,3.115,1.264l9.03,9.029L70.706,51.1l-9.029-9.029a4.244,4.244,0,0,1-1.264-3.522,4.515,4.515,0,0,1,1.941-3.205l1.038-.677L44.746,30.156,49.261,48.8l.722-1.038a4.515,4.515,0,0,1,3.205-1.941Z" transform="translate(121.129 53.713)" fill="#32abb2"/>
    </g>
  </g>
</svg>
