<svg xmlns="http://www.w3.org/2000/svg" xmlns:xlink="http://www.w3.org/1999/xlink" width="141" height="141" viewBox="0 0 141 141">
  <defs>
    <filter id="Ellipse_4" x="0" y="0" width="141" height="141" filterUnits="userSpaceOnUse">
      <feOffset dy="8" input="SourceAlpha"/>
      <feGaussianBlur stdDeviation="3" result="blur"/>
      <feFlood flood-opacity="0.161"/>
      <feComposite operator="in" in2="blur"/>
      <feComposite in="SourceGraphic"/>
    </filter>
  </defs>
  <g id="icon" transform="translate(-176 -3087)">
    <g transform="matrix(1, 0, 0, 1, 176, 3087)" filter="url(#Ellipse_4)">
      <circle id="Ellipse_4-2" data-name="Ellipse 4" cx="60" cy="60" r="60" transform="translate(10.5 2.5)" fill="#fff" stroke="#a0e1e5" stroke-linecap="round" stroke-linejoin="round" stroke-width="3"/>
    </g>
    <g id="Group_1128" data-name="Group 1128" transform="translate(105.851 2823.929)">
      <g id="Group_1105" data-name="Group 1105" transform="translate(118.321 351.69)">
        <path id="Path_942" data-name="Path 942" d="M126.412,390.007a1.662,1.662,0,0,1-.406-.051,1.609,1.609,0,0,1-1.151-1.961l2.427-9.319a1.608,1.608,0,0,1,3.112.81l-2.426,9.32A1.608,1.608,0,0,1,126.412,390.007Z" transform="translate(-124.803 -377.472)" fill="#32abb2"/>
      </g>
      <g id="Group_1106" data-name="Group 1106" transform="translate(133.482 348.176)">
        <path id="Path_943" data-name="Path 943" d="M154.471,382.548a1.6,1.6,0,0,1-1.129-.464l-6.866-6.772a1.608,1.608,0,1,1,2.258-2.289L155.6,379.8a1.608,1.608,0,0,1-1.129,2.752Z" transform="translate(-145.998 -372.56)" fill="#32abb2"/>
      </g>
      <g id="Group_1127" data-name="Group 1127" transform="translate(102.036 286.917)">
        <g id="Group_1108" data-name="Group 1108" transform="translate(9.303 39.205)">
          <g id="Group_1107" data-name="Group 1107">
            <path id="Path_944" data-name="Path 944" d="M126.059,370.51a1.607,1.607,0,0,1-1.55-1.18,11.631,11.631,0,0,0-8.263-8.142,1.608,1.608,0,0,1-.741-2.684,11.634,11.634,0,0,0,2.918-11.229,1.607,1.607,0,0,1,1.955-1.983,11.641,11.641,0,0,0,11.183-3.087,1.607,1.607,0,0,1,2.695.7,11.634,11.634,0,0,0,8.264,8.141,1.608,1.608,0,0,1,.741,2.685,11.633,11.633,0,0,0-2.918,11.229,1.607,1.607,0,0,1-1.955,1.983,11.615,11.615,0,0,0-11.183,3.086A1.614,1.614,0,0,1,126.059,370.51Zm-6.7-11.626a14.89,14.89,0,0,1,7.408,7.3,14.842,14.842,0,0,1,10.024-2.765,14.888,14.888,0,0,1,2.616-10.066,14.887,14.887,0,0,1-7.408-7.3,14.827,14.827,0,0,1-10.024,2.767A14.886,14.886,0,0,1,119.359,358.885Z" transform="translate(-115.042 -341.727)" fill="#32abb2"/>
          </g>
        </g>
        <g id="Group_1110" data-name="Group 1110" transform="translate(25.359 29.865)">
          <g id="Group_1109" data-name="Group 1109">
            <path id="Path_945" data-name="Path 945" d="M139.1,341.224a1.576,1.576,0,0,1-.4-.052,1.607,1.607,0,0,1-1.152-1.96l2.421-9.338a1.608,1.608,0,0,1,3.112.807l-2.421,9.339A1.607,1.607,0,0,1,139.1,341.224Z" transform="translate(-137.489 -328.668)" fill="#32abb2"/>
          </g>
        </g>
        <g id="Group_1112" data-name="Group 1112" transform="translate(5.772 35.959)">
          <g id="Group_1111" data-name="Group 1111">
            <path id="Path_946" data-name="Path 946" d="M118.567,347.163a1.6,1.6,0,0,1-1.129-.463l-6.855-6.759a1.607,1.607,0,1,1,2.257-2.289l6.855,6.759a1.607,1.607,0,0,1-1.129,2.752Z" transform="translate(-110.105 -337.189)" fill="#32abb2"/>
          </g>
        </g>
        <g id="Group_1114" data-name="Group 1114" transform="translate(34.768 45.909)">
          <g id="Group_1113" data-name="Group 1113">
            <path id="Path_947" data-name="Path 947" d="M152.25,356.881a1.608,1.608,0,0,1-.427-3.157l9.3-2.565a1.607,1.607,0,1,1,.856,3.1l-9.3,2.566A1.616,1.616,0,0,1,152.25,356.881Z" transform="translate(-150.643 -351.099)" fill="#32abb2"/>
          </g>
        </g>
        <g id="Group_1116" data-name="Group 1116" transform="translate(0 55.503)">
          <g id="Group_1115" data-name="Group 1115">
            <path id="Path_948" data-name="Path 948" d="M103.643,370.289a1.608,1.608,0,0,1-.426-3.157l9.3-2.562a1.607,1.607,0,0,1,.854,3.1l-9.3,2.562A1.613,1.613,0,0,1,103.643,370.289Z" transform="translate(-102.036 -364.511)" fill="#32abb2"/>
          </g>
        </g>
        <g id="Group_1118" data-name="Group 1118" transform="translate(39.364 4.824)">
          <g id="Group_1117" data-name="Group 1117">
            <path id="Path_949" data-name="Path 949" d="M181.392,326.57a1.607,1.607,0,0,1-.242-3.2,6.675,6.675,0,0,0,3.8-1.826c1.77-1.77,2.352-4.584,1.64-7.928a23.35,23.35,0,0,0-16.447-16.447c-3.343-.71-6.161-.13-7.93,1.64-2,2-2.474,5.353-1.31,9.205a1.608,1.608,0,0,1-3.079.93c-1.517-5.024-.746-9.548,2.115-12.408,2.566-2.565,6.427-3.456,10.872-2.512a26.537,26.537,0,0,1,18.922,18.924c.946,4.444.054,8.305-2.511,10.87a9.938,9.938,0,0,1-5.589,2.73A1.6,1.6,0,0,1,181.392,326.57Z" transform="translate(-157.068 -293.66)" fill="#a0e1e5"/>
          </g>
        </g>
        <g id="Group_1120" data-name="Group 1120" transform="translate(37.379 11.689)">
          <g id="Group_1119" data-name="Group 1119">
            <path id="Path_950" data-name="Path 950" d="M171.816,331.416a1.608,1.608,0,0,1-1.137-2.745l7.958-7.958c.639-.639.789-2.144.381-3.835a13.977,13.977,0,0,0-3.792-6.4c-3.956-3.955-8.857-4.784-10.232-3.41l-7.958,7.958a1.607,1.607,0,0,1-2.273-2.273l7.958-7.958c3.026-3.029,9.932-1.433,14.779,3.411a17.219,17.219,0,0,1,4.644,7.915c.695,2.883.245,5.384-1.234,6.862l-7.958,7.958A1.6,1.6,0,0,1,171.816,331.416Z" transform="translate(-154.294 -303.258)" fill="#a0e1e5"/>
          </g>
        </g>
        <g id="Group_1122" data-name="Group 1122" transform="translate(36.347 19.647)">
          <g id="Group_1121" data-name="Group 1121">
            <path id="Path_951" data-name="Path 951" d="M168.236,335.672c-3.157,0-7.036-1.666-10.18-4.684l-.024-.024a20.189,20.189,0,0,1-3.308-4.218c-2.357-4.445-2.5-8.692-.371-10.822,3.029-3.029,9.935-1.433,14.779,3.411a17.219,17.219,0,0,1,4.644,7.915c.7,2.883.245,5.384-1.234,6.862A5.932,5.932,0,0,1,168.236,335.672Zm-7.942-6.993c4.034,3.865,8.671,4.46,9.975,3.16.639-.639.789-2.144.381-3.835a13.981,13.981,0,0,0-3.791-6.4c-3.957-3.955-8.86-4.785-10.232-3.411-.886.886-.858,3.655.938,7.042A16.317,16.317,0,0,0,160.294,328.679Z" transform="translate(-152.851 -314.384)" fill="#a0e1e5"/>
          </g>
        </g>
        <g id="Group_1124" data-name="Group 1124" transform="translate(43.092)">
          <g id="Group_1123" data-name="Group 1123">
            <path id="Path_952" data-name="Path 952" d="M188.9,321.05a1.607,1.607,0,0,1-1.137-2.744l3.78-3.779c3.481-3.483,1.216-11.629-4.946-17.791s-14.307-8.426-17.79-4.945l-3.78,3.779a1.608,1.608,0,0,1-2.274-2.273l3.78-3.779c4.875-4.878,14.688-2.705,22.337,4.946s9.821,17.46,4.946,22.338l-3.78,3.779A1.6,1.6,0,0,1,188.9,321.05Z" transform="translate(-162.281 -286.917)" fill="#a0e1e5"/>
          </g>
        </g>
        <g id="Group_1126" data-name="Group 1126" transform="translate(34.516 28.673)">
          <g id="Group_1125" data-name="Group 1125">
            <path id="Path_953" data-name="Path 953" d="M151.9,340.965a1.608,1.608,0,0,1-1.137-2.745l10.746-10.746a1.607,1.607,0,0,1,2.273,2.273l-10.746,10.747A1.6,1.6,0,0,1,151.9,340.965Z" transform="translate(-150.291 -327.003)" fill="#32abb2"/>
          </g>
        </g>
      </g>
    </g>
  </g>
</svg>
