<svg xmlns="http://www.w3.org/2000/svg" width="359" height="49" viewBox="0 0 359 49">
  <g id="logo" transform="translate(-2463 282.917)">
    <g id="temp_abstract-667BN766BN7_temp" transform="translate(2462 -304.959)">
      <path id="Path_5029" data-name="Path 5029" d="M35.066,55.415a.765.765,0,0,1,.076.025,16,16,0,0,1,2.632,1.009c-.045-.108-.077-.171-.11-.232-.1-.209-.184-.385-.272-.562s-.177-.36-.272-.531-.155-.3-.221-.43c-.126-.241-.254-.478-.389-.711-.194-.348-.345-.616-.5-.877s-.313-.527-.469-.784c-.126-.212-.247-.412-.38-.613-.146-.231-.269-.439-.4-.636l-.731-1.1c-.168-.252-.333-.5-.5-.731-.216-.313-.423-.6-.636-.891-.7-.973-1.462-1.964-2.262-2.956l-.524-.643c-.339-.408-.683-.815-1.016-1.2l-.254-.292c-.175-.2-.347-.4-.518-.594-.418-.471-.819-.911-1.2-1.326l-1-1.068c-.363-.379-.7-.731-1.009-1.041l-.336-.336c-.468-.462-.848-.832-1.114-1.088l-.221-.212-.013-.012c-.044-.041-.076-.07-.1-.088-.351-.18-.7-.373-1.035-.573s-.657-.427-.974-.649a11.2,11.2,0,0,0-1.224-.781,12.606,12.606,0,0,0-2.455-.984A13.162,13.162,0,0,0,14.019,34a13.36,13.36,0,0,0-1.676.108A13.2,13.2,0,0,0,1.02,46.277c-.019.335-.025.671-.015,1a13.035,13.035,0,0,0,20,10.78l.676-.439a17.5,17.5,0,0,1,2.51-1.445,16.415,16.415,0,0,1,4.083-1.2,16.028,16.028,0,0,1,6.8.44Z" fill="#2b2b2b"/>
      <path id="Path_5030" data-name="Path 5030" d="M86.71,47.058a12.939,12.939,0,0,0-2.048-6.964c-.016-.022-.033-.042-.048-.067A13.432,13.432,0,0,0,82.908,37.9l-.012-.013a12.868,12.868,0,0,0-6.249-3.52,13.213,13.213,0,0,0-9.693,1.531l-.528.32c-.486.293-.964.585-1.445.86l-.2.108a.891.891,0,0,1-.146.081,15.5,15.5,0,0,1-3.071,1.35,15.728,15.728,0,0,1-3.448.651,14.575,14.575,0,0,1-1.967.023c-.221-.012-.449-.029-.671-.051a16.4,16.4,0,0,1-1.929-.307l.146.157.487.518a1.708,1.708,0,0,1,.117.127h0l.009.012.121.13.292.309c.379.414.784.861,1.205,1.335.177.2.355.405.538.616l.254.293c.344.4.693.813,1.047,1.242l.528.649c.822,1.024,1.6,2.033,2.315,3.021.218.293.439.6.651.914l.015.02c.2.284.364.515.518.752l.221.317c.18.266.348.529.518.8.137.209.278.428.412.651.13.194.266.418.4.649.158.26.322.531.481.8s.313.544.467.817c.137.241.235.424.333.605l.108.2.015.025c.075.146.154.292.225.439s.187.354.292.562c.092.183.189.379.282.585.037.076.088.177.132.293.13.263.269.575.4.886.032.07.076.168.113.26l.083.2c.075.175.146.348.222.525l.155.393A13.032,13.032,0,0,0,86.723,47.059Z" transform="translate(-26.273 -0.017)" fill="#2b2b2b"/>
    </g>
    <text id="ABC_Animal_Clinic" data-name="ABC Animal Clinic" transform="translate(2534 -282.917)" fill="#2b2b2b" font-size="34" font-family="Jost" font-weight="700" letter-spacing="-0.004em"><tspan x="0" y="36">ABC Animal Clinic</tspan></text>
  </g>
</svg>
