<svg xmlns="http://www.w3.org/2000/svg" width="221.977" height="252.72" viewBox="0 0 221.977 252.72">
  <g id="noun_form_122196" transform="translate(-13.5 -9.1)">
    <g id="Group_1472" data-name="Group 1472" transform="translate(13.5 36.945)">
      <path id="Path_5116" data-name="Path 5116" d="M179.865,241.875H29.009A15.646,15.646,0,0,1,13.5,226.366V32.509A15.646,15.646,0,0,1,29.009,17h14.8A5.421,5.421,0,0,1,49.1,22.287a5.421,5.421,0,0,1-5.287,5.287h-14.8a4.818,4.818,0,0,0-4.935,4.935V226.366a4.818,4.818,0,0,0,4.935,4.935H179.865a4.818,4.818,0,0,0,4.935-4.935V159.4a5.287,5.287,0,1,1,10.574,0v66.969A15.2,15.2,0,0,1,179.865,241.875Z" transform="translate(-13.5 -17)" fill="#32abb2"/>
    </g>
    <g id="Group_1473" data-name="Group 1473" transform="translate(159.774 36.945)">
      <path id="Path_5117" data-name="Path 5117" d="M85.312,51.894a5.421,5.421,0,0,1-5.287-5.287v-14.1a4.818,4.818,0,0,0-4.935-4.935h-14.8A5.421,5.421,0,0,1,55,22.287,5.421,5.421,0,0,1,60.287,17h14.8A15.646,15.646,0,0,1,90.6,32.509v14.1A5.191,5.191,0,0,1,85.312,51.894Z" transform="translate(-55 -17)" fill="#32abb2"/>
    </g>
    <g id="Group_1474" data-name="Group 1474" transform="translate(60.026 9.1)">
      <path id="Path_5118" data-name="Path 5118" d="M105.653,69.02H36.569A9.852,9.852,0,0,1,26.7,59.151V33.068A9.852,9.852,0,0,1,36.569,23.2H52.43A19.668,19.668,0,0,1,71.111,9.1,19.347,19.347,0,0,1,89.792,23.2H105.3a9.852,9.852,0,0,1,9.869,9.869V59.151C115.522,64.79,111.292,69.02,105.653,69.02ZM37.627,58.446h67.321V33.773H85.562a5.421,5.421,0,0,1-5.287-5.287,8.812,8.812,0,1,0-17.623,0,5.421,5.421,0,0,1-5.287,5.287H37.627V58.446Z" transform="translate(-26.7 -9.1)" fill="#32abb2"/>
    </g>
    <g id="Group_1475" data-name="Group 1475" transform="translate(47.337 140.923)">
      <path id="Path_5119" data-name="Path 5119" d="M58.7,82.1H23.1V46.5H58.7ZM33.674,71.525H48.125V57.074H33.674Z" transform="translate(-23.1 -46.5)" fill="#32abb2"/>
    </g>
    <g id="Group_1476" data-name="Group 1476" transform="translate(98.445 153.26)">
      <path id="Path_5120" data-name="Path 5120" d="M65.445,60.574H42.887a5.287,5.287,0,0,1,0-10.574H65.445a5.287,5.287,0,1,1,0,10.574Z" transform="translate(-37.6 -50)" fill="#32abb2"/>
    </g>
    <g id="Group_1477" data-name="Group 1477" transform="translate(47.337 193.441)">
      <path id="Path_5121" data-name="Path 5121" d="M58.7,97H23.1V61.4H58.7ZM33.674,86.425H48.125V71.974H33.674Z" transform="translate(-23.1 -61.4)" fill="#32abb2"/>
    </g>
    <g id="Group_1478" data-name="Group 1478" transform="translate(47.337 88.405)">
      <path id="Path_5122" data-name="Path 5122" d="M58.7,67.2H23.1V31.6H58.7ZM33.674,56.625H48.125V42.174H33.674Z" transform="translate(-23.1 -31.6)" fill="#32abb2"/>
    </g>
    <g id="Group_1479" data-name="Group 1479" transform="translate(98.092 90.52)">
      <path id="Path_5123" data-name="Path 5123" d="M95.657,42.774H42.787a5.287,5.287,0,1,1,0-10.574h52.87a5.421,5.421,0,0,1,5.287,5.287A5.191,5.191,0,0,1,95.657,42.774Z" transform="translate(-37.5 -32.2)" fill="#32abb2"/>
    </g>
    <g id="Group_1480" data-name="Group 1480" transform="translate(98.445 110.963)">
      <path id="Path_5124" data-name="Path 5124" d="M81.659,48.574H42.887a5.287,5.287,0,1,1,0-10.574H82.011A5.421,5.421,0,0,1,87.3,43.287,5.5,5.5,0,0,1,81.659,48.574Z" transform="translate(-37.6 -38)" fill="#32abb2"/>
    </g>
    <g id="Group_1481" data-name="Group 1481" transform="translate(121.839 65.221)">
      <path id="Path_5125" data-name="Path 5125" d="M49.393,180.735a4,4,0,0,1-2.82-1.057,5.011,5.011,0,0,1-2.115-5.639L50.8,147.25a2.692,2.692,0,0,1,.7-1.762l65.207-95.519a5.328,5.328,0,1,1,8.812,5.992L60.319,151.127,57.5,163.464l10.574-7.049L138.567,53.141l-11.984-8.107a4.674,4.674,0,0,1-2.115-3.525,4.894,4.894,0,0,1,.7-3.877l6.7-10.222a5.218,5.218,0,0,1,7.4-1.41L155.486,37.28a5.328,5.328,0,1,1-5.992,8.812L137.51,37.985l-.7,1.057,11.984,8.107a4.674,4.674,0,0,1,2.115,3.525,4.894,4.894,0,0,1-.7,3.877L76.18,162.759a2.752,2.752,0,0,1-1.41,1.41L52.212,180.03A6.64,6.64,0,0,1,49.393,180.735Z" transform="translate(-44.237 -25.022)" fill="#32abb2"/>
    </g>
  </g>
</svg>
