<svg id="Group_1449" data-name="Group 1449" xmlns="http://www.w3.org/2000/svg" width="259.49" height="294.486" viewBox="0 0 259.49 294.486">
  <g id="Group_1435" data-name="Group 1435" transform="translate(1.324 0)">
    <g id="Group_1423" data-name="Group 1423" transform="translate(18.99 154.015)">
      <path id="Path_5087" data-name="Path 5087" d="M320.515,521.952H263.874a3.56,3.56,0,1,1,0-7.12h56.641a3.56,3.56,0,1,1,0,7.12Z" transform="translate(-260.314 -514.832)" fill="#32abb2"/>
    </g>
    <g id="Group_1424" data-name="Group 1424" transform="translate(0 75.883)">
      <path id="Path_5088" data-name="Path 5088" d="M239.27,460.364h-9.981c-5.828,0-10.568-4.455-10.568-9.93V376.107c0-15.376,11.4-28.666,27.729-32.319a3.561,3.561,0,0,1,2.955.659,31.4,31.4,0,0,0,39.19,0,3.547,3.547,0,0,1,2.955-.659c16.959,3.8,25.765,13.943,27.708,31.937a3.586,3.586,0,0,1,.021.383v20.171a3.56,3.56,0,0,1-7.12,0V376.3c-1.6-14.439-7.621-21.847-20.6-25.191a38.413,38.413,0,0,1-45.1.012c-12.219,3.37-20.618,13.446-20.618,24.984v74.327c0,1.524,1.58,2.811,3.448,2.811h6.421V441.09a3.56,3.56,0,1,1,7.119,0V456.8A3.56,3.56,0,0,1,239.27,460.364Z" transform="translate(-218.721 -343.701)" fill="#a0e1e5"/>
    </g>
    <g id="Group_1425" data-name="Group 1425" transform="translate(21.237 40.258)">
      <path id="Path_5089" data-name="Path 5089" d="M294.279,303.285c-15.566,0-28.287-13.923-29-31.713-.043-.536-.047-1.034-.047-1.578v-.763a3.56,3.56,0,0,1,7.12,0v.763c0,.358,0,.685.028,1.041.005.061.009.124.012.184.525,13.989,10.139,24.946,21.884,24.946,9.434,0,20.244-10.281,20.672-25.035a3.559,3.559,0,1,1,7.116.2C321.565,288.655,308.839,303.285,294.279,303.285Z" transform="translate(-265.236 -265.671)" fill="#a0e1e5"/>
    </g>
    <g id="Group_1426" data-name="Group 1426" transform="translate(16.989 168.62)">
      <path id="Path_5090" data-name="Path 5090" d="M259.492,615.533a3.56,3.56,0,0,1-3.56-3.56v-61.59a3.56,3.56,0,1,1,7.119,0v61.59A3.56,3.56,0,0,1,259.492,615.533Z" transform="translate(-255.932 -546.823)" fill="#a0e1e5"/>
    </g>
    <g id="Group_1427" data-name="Group 1427" transform="translate(76.45 112.868)">
      <path id="Path_5091" data-name="Path 5091" d="M389.728,486.738a3.56,3.56,0,0,1-3.56-3.56v-54.91a3.56,3.56,0,1,1,7.12,0v54.91A3.56,3.56,0,0,1,389.728,486.738Z" transform="translate(-386.168 -424.708)" fill="#a0e1e5"/>
    </g>
    <g id="Group_1428" data-name="Group 1428" transform="translate(16.989 112.909)">
      <path id="Path_5092" data-name="Path 5092" d="M259.492,491.694a3.56,3.56,0,0,1-3.56-3.56V428.359a3.56,3.56,0,1,1,7.119,0v59.775A3.56,3.56,0,0,1,259.492,491.694Z" transform="translate(-255.932 -424.799)" fill="#a0e1e5"/>
    </g>
    <g id="Group_1429" data-name="Group 1429" transform="translate(46.72 186.36)">
      <path id="Path_5093" data-name="Path 5093" d="M324.612,620.926a3.56,3.56,0,0,1-3.56-3.56V589.238a3.56,3.56,0,1,1,7.119,0v28.129A3.56,3.56,0,0,1,324.612,620.926Z" transform="translate(-321.052 -585.678)" fill="#a0e1e5"/>
    </g>
    <g id="Group_1430" data-name="Group 1430" transform="translate(0 168.438)">
      <path id="Path_5094" data-name="Path 5094" d="M298.73,553.542h-76.45a3.56,3.56,0,0,1,0-7.12h76.45a3.56,3.56,0,1,1,0,7.12Z" transform="translate(-218.721 -546.423)" fill="#a0e1e5"/>
    </g>
    <g id="Group_1434" data-name="Group 1434" transform="translate(15.5)">
      <g id="Group_1431" data-name="Group 1431">
        <path id="Path_5095" data-name="Path 5095" d="M262.059,232.016a3.553,3.553,0,0,1-3.381-2.47l-5.289-16.54a3.3,3.3,0,0,1-.1-.367c-1.453-7.074-.348-13.606,3.115-18.391a17.665,17.665,0,0,1,11.142-6.984c2.557-2.835,9.94-9.769,20.973-9.769,7.309,0,17.68,3.833,24.372,12.395,4,5.121,8.112,13.871,4.973,26.479-.014.061-.031.122-.05.183l-1.952,6.372a3.549,3.549,0,1,1-6.786-2.079l1.923-6.28c1.934-7.857.69-14.688-3.7-20.3-5.192-6.641-13.373-9.668-18.779-9.668-9.96,0-16.231,8.039-16.292,8.119a3.579,3.579,0,0,1-2.419,1.38,10.66,10.66,0,0,0-7.651,4.316c-2.256,3.116-2.946,7.592-1.95,12.621l5.23,16.354a3.554,3.554,0,0,1-3.381,4.632Z" transform="translate(-252.67 -177.495)" fill="#a0e1e5"/>
      </g>
      <g id="Group_1432" data-name="Group 1432" transform="translate(5.677 26.666)">
        <path id="Path_5096" data-name="Path 5096" d="M268.653,260.946a3.551,3.551,0,0,1-3.273-4.918l7.5-17.945a3.55,3.55,0,0,1,5.58-1.331c.033.028,4.354,3.617,14.578,8.376a3.548,3.548,0,0,1-2.993,6.435,104.132,104.132,0,0,1-12.322-6.657l-5.79,13.858A3.55,3.55,0,0,1,268.653,260.946Z" transform="translate(-265.104 -235.902)" fill="#a0e1e5"/>
      </g>
      <g id="Group_1433" data-name="Group 1433" transform="translate(27.217 24.172)">
        <path id="Path_5097" data-name="Path 5097" d="M344.625,254.108a3.548,3.548,0,0,1-1.6-.384c-.068-.035-6.871-3.494-13.455-7.108-6.522-3.578-15.327-9.427-15.7-9.674a3.549,3.549,0,0,1,3.932-5.91c.089.059,8.927,5.929,15.181,9.362,6.483,3.557,13.189,6.967,13.257,7a3.55,3.55,0,0,1-1.611,6.715Z" transform="translate(-312.283 -230.438)" fill="#a0e1e5"/>
      </g>
    </g>
  </g>
  <g id="Group_1439" data-name="Group 1439" transform="translate(0 182.152)">
    <g id="Group_1436" data-name="Group 1436" transform="translate(67.905 32.593)">
      <path id="Path_5098" data-name="Path 5098" d="M385.457,661.054a3.59,3.59,0,0,1-1.178-.2l-17.343-6.082a3.56,3.56,0,1,1,2.357-6.72l17.343,6.082a3.561,3.561,0,0,1-1.178,6.921Z" transform="translate(-364.552 -647.85)" fill="#a0e1e5"/>
    </g>
    <g id="Group_1437" data-name="Group 1437">
      <path id="Path_5099" data-name="Path 5099" d="M310.733,688.258a3.559,3.559,0,0,1-3.52-3.064c-.151-1.073-2.638-2.728-4.675-3.435a3.577,3.577,0,0,1-2.4-3.2c-1.357-28.8-.49-30.315.084-31.316.289-.5.78-1.222,1.377-2.076,1.124-1.606,4.11-5.875,3.8-7.584-.142-.782-.468-1.879-.845-3.149-1.408-4.747-3.537-11.921-1.1-19.479a13.668,13.668,0,0,1,10.51-9.536,4.224,4.224,0,0,0,2.92-2.341l.469-1-12.188-7.719a3.566,3.566,0,0,1-1.222-1.305l-2.325-4.271a20.557,20.557,0,0,1-4.043,5.413c-4.136,3.88-4.66,7.277-5.268,11.211-.544,3.534-1.163,7.538-4.728,11.1-2.113,2.114-5.482,4.888-9.385,8.1-6.568,5.408-16.5,13.58-18.216,17.592-2.572,6-3.65,22.4-4.231,31.207-.33,5.016-.447,6.647-.716,7.582a9.574,9.574,0,0,1-9.906,7.137c-4.744-.219-8.729-3.273-9.476-7.262-.1-.56-.167-1.408-.311-3.443-2.779-39.4-11.182-45.135-15.921-45.155h-.035a3.56,3.56,0,0,1-.035-7.12h.149c17.292,0,21.374,29.53,22.944,51.773.082,1.165.167,2.369.212,2.666a3.294,3.294,0,0,0,2.8,1.43,2.526,2.526,0,0,0,2.733-1.985c.087-.493.274-3.339.455-6.09.65-9.881,1.739-26.42,4.793-33.545,2.228-5.2,9.791-11.687,20.234-20.284,3.6-2.965,7-5.767,8.875-7.636,1.919-1.919,2.256-4.114,2.725-7.154.671-4.349,1.505-9.76,7.434-15.32,3.7-3.469,4.67-9.437,4.679-9.5a3.56,3.56,0,0,1,6.648-1.182l5.724,10.514,14.056,8.9a3.561,3.561,0,0,1,1.319,4.517l-1.8,3.843a11.383,11.383,0,0,1-7.888,6.283,6.558,6.558,0,0,0-5.214,4.759c-1.761,5.46-.079,11.13,1.149,15.27a38.7,38.7,0,0,1,1.024,3.9c.845,4.631-2.655,9.632-4.97,12.941-.3.431-.573.813-.784,1.131-.29,2.733.007,14.514.5,25.626,2.617,1.312,6.52,3.949,7.118,8.2a3.559,3.559,0,0,1-3.03,4.02A3.413,3.413,0,0,1,310.733,688.258Z" transform="translate(-215.821 -576.461)" fill="#32abb2"/>
    </g>
    <g id="Group_1438" data-name="Group 1438" transform="translate(42.427 105.214)">
      <path id="Path_5100" data-name="Path 5100" d="M342.772,814.031H312.307a3.56,3.56,0,0,1,0-7.12h30.465a3.56,3.56,0,0,1,0,7.12Z" transform="translate(-308.747 -806.911)" fill="#32abb2"/>
    </g>
  </g>
  <g id="Group_1446" data-name="Group 1446" transform="translate(87.476 111.878)">
    <g id="Group_1440" data-name="Group 1440" transform="translate(41.481 42.095)">
      <path id="Path_5101" data-name="Path 5101" d="M501.831,535.327a3.56,3.56,0,0,1-.269-7.109c.148-.012,15.593-1.382,24.555-12.19a3.56,3.56,0,0,1,5.482,4.544c-10.923,13.172-28.737,14.687-29.492,14.745C502.015,535.323,501.923,535.327,501.831,535.327Z" transform="translate(-498.275 -514.74)" fill="#32abb2"/>
    </g>
    <g id="Group_1441" data-name="Group 1441" transform="translate(68.326 35.094)">
      <path id="Path_5102" data-name="Path 5102" d="M640.82,644.745a23.184,23.184,0,0,1-20.4-11.55c-2.49-4.282-4.172-13.232-6.3-24.563-2.126-11.3-4.537-24.11-7.97-32.12-4.842-11.293-32.583-46.4-41.921-57.813-3.139-3.835-4.038-6.375-5.668-10.988-.363-1.027-.772-2.185-1.262-3.516a3.559,3.559,0,1,1,6.681-2.457c.5,1.362.921,2.548,1.293,3.6,1.538,4.351,2.113,5.979,4.465,8.852.367.448,36.7,44.926,42.953,59.516,3.742,8.729,6.23,21.946,8.423,33.607,1.766,9.381,3.591,19.08,5.465,22.306a16.174,16.174,0,0,0,14.837,8c4.945-.155,9.556-2.31,10.964-5.125.144-.289,3.471-7.092-1.325-10.69a3.559,3.559,0,1,1,4.273-5.694c7.58,5.685,5.717,14.976,3.421,19.568-2.59,5.178-9.466,8.819-17.11,9.058C641.36,644.742,641.089,644.745,640.82,644.745Z" transform="translate(-557.072 -499.405)" fill="#a0e1e5"/>
    </g>
    <g id="Group_1442" data-name="Group 1442" transform="translate(0 0)">
      <path id="Path_5103" data-name="Path 5103" d="M462.1,604.176H442.641a3.56,3.56,0,0,1-3.56-3.56,17.566,17.566,0,0,1,13.1-16.982l1.224-.322c.462-15.767.52-32.587-.172-35.585-4.392-7.7-9.654-18.181-10.135-24.939-.271-3.775.737-8.637,1.9-14.267,1.978-9.558,4.441-21.452.315-29.189-2.235-4.193-10.673-6.923-22.568-7.306a12.475,12.475,0,0,1-10.374-6.083c-5.183-8.692-5.261-12.164-4.749-14.215.742-2.969,3.947-4.119,13.973-7.31,2.708-.862,5.5-1.752,7.12-2.414.527-.428,2.16-1.994,7.088-7.738a50.44,50.44,0,0,1,7.026-6.637c4.1-3.13,11.627-5.9,17.495-4.872a21.414,21.414,0,0,1,12.468,6.344c18.037,18.278,9.012,34.876,8.619,35.573a3.552,3.552,0,0,1-.819.985,18.08,18.08,0,0,1-22.439.115c-5.839-4.38-6.23-19.078-6.155-24.725l-3.868-8.142c-.037-.078-.071-.158-.1-.238-.305.2-.6.4-.876.615a43.212,43.212,0,0,0-5.934,5.6c-6.929,8.077-8.29,9.056-9.458,9.557-1.884.808-4.858,1.756-8,2.757-2.743.872-7,2.228-9.061,3.139a33.218,33.218,0,0,0,3.791,7.957,5.384,5.384,0,0,0,4.488,2.612c10.545.339,24.07,2.536,28.62,11.071,5.339,10.008,2.586,23.3.373,33.983-1.013,4.9-1.971,9.525-1.771,12.317.3,4.163,3.793,12.447,9.354,22.161.525.92,2.119,3.707.885,41.754a3.561,3.561,0,0,1-2.654,3.329l-3.8,1a10.444,10.444,0,0,0-7.161,6.536H462.1a3.56,3.56,0,0,1,0,7.12Zm-8.907-56.595Zm1.441-117.576,4.156,8.747a3.565,3.565,0,0,1,.342,1.614c-.191,8.011,1.114,18.079,3.294,19.714a10.834,10.834,0,0,0,13.065.506c1.156-2.669,4.787-13.761-7.767-26.484a14.27,14.27,0,0,0-8.627-4.333A12.263,12.263,0,0,0,454.634,430.005ZM413.7,454.867Z" transform="translate(-407.419 -422.54)" fill="#a0e1e5"/>
    </g>
    <g id="Group_1443" data-name="Group 1443" transform="translate(80.519 174.482)">
      <path id="Path_5104" data-name="Path 5104" d="M630,811.827h-42.66a3.56,3.56,0,0,1,0-7.12H630a3.56,3.56,0,0,1,0,7.12Z" transform="translate(-583.778 -804.707)" fill="#a0e1e5"/>
    </g>
    <g id="Group_1444" data-name="Group 1444" transform="translate(82.141 130.316)">
      <path id="Path_5105" data-name="Path 5105" d="M591.649,748.593a3.559,3.559,0,0,1-3.478-2.821c-3.989-18.793,6.873-34.667,19.521-37.7a3.559,3.559,0,0,1,1.662,6.921c-9.391,2.254-17.347,14.567-14.22,29.3a3.557,3.557,0,0,1-2.743,4.22A3.5,3.5,0,0,1,591.649,748.593Z" transform="translate(-587.333 -707.969)" fill="#a0e1e5"/>
    </g>
    <g id="Group_1445" data-name="Group 1445" transform="translate(63.7 159.92)">
      <path id="Path_5106" data-name="Path 5106" d="M569.96,794.468H550.5a3.56,3.56,0,0,1-3.56-3.56,17.567,17.567,0,0,1,13.1-16.982l3.794-1a3.56,3.56,0,0,1,1.811,6.887l-3.8,1a10.441,10.441,0,0,0-7.163,6.536H569.96a3.56,3.56,0,1,1,0,7.119Z" transform="translate(-546.941 -772.81)" fill="#a0e1e5"/>
    </g>
  </g>
  <g id="Group_1447" data-name="Group 1447" transform="translate(150.937 220.656)">
    <path id="Path_5107" data-name="Path 5107" d="M566.968,714.526a3.556,3.556,0,0,1-2.986-1.617c-5.256-8.066-5.347-15.221-5.427-21.532a39.151,39.151,0,0,0-1.012-10.2,28.214,28.214,0,0,0-9.633-13.925,3.559,3.559,0,0,1,4.13-5.8c.377.268,9.268,6.7,12.362,17.813a45.261,45.261,0,0,1,1.272,12.016c.073,5.863.144,11.4,4.272,17.736a3.56,3.56,0,0,1-2.979,5.5Z" transform="translate(-546.416 -660.796)" fill="#a0e1e5"/>
  </g>
  <g id="Group_1448" data-name="Group 1448" transform="translate(49.606 259.009)">
    <path id="Path_5108" data-name="Path 5108" d="M351.4,779.368a3.561,3.561,0,0,1-3.544-3.264c-.417-5-5.061-5.263-6.464-5.225a3.6,3.6,0,0,1-3.685-3.411c-.374-8.963-3.642-13.8-10.6-15.669a3.561,3.561,0,0,1,1.853-6.876c9.127,2.459,14.367,8.887,15.608,19.133,4.663.958,9.782,4.29,10.38,11.456a3.561,3.561,0,0,1-3.252,3.843C351.595,779.365,351.5,779.368,351.4,779.368Z" transform="translate(-324.471 -744.8)" fill="#32abb2"/>
  </g>
</svg>
