<svg xmlns="http://www.w3.org/2000/svg" xmlns:xlink="http://www.w3.org/1999/xlink" width="141" height="141" viewBox="0 0 141 141">
  <defs>
    <filter id="Ellipse_4" x="0" y="0" width="141" height="141" filterUnits="userSpaceOnUse">
      <feOffset dy="8" input="SourceAlpha"/>
      <feGaussianBlur stdDeviation="3" result="blur"/>
      <feFlood flood-opacity="0.161"/>
      <feComposite operator="in" in2="blur"/>
      <feComposite in="SourceGraphic"/>
    </filter>
  </defs>
  <g id="icon" transform="translate(-176 -3087)">
    <g transform="matrix(1, 0, 0, 1, 176, 3087)" filter="url(#Ellipse_4)">
      <circle id="Ellipse_4-2" data-name="Ellipse 4" cx="60" cy="60" r="60" transform="translate(10.5 2.5)" fill="#fff" stroke="#a0e1e5" stroke-linecap="round" stroke-linejoin="round" stroke-width="3"/>
    </g>
    <g id="Group_1136" data-name="Group 1136" transform="translate(56.069 2177.32)">
      <g id="Group_1129" data-name="Group 1129" transform="translate(199.164 945.169)">
        <path id="Path_954" data-name="Path 954" d="M339.894,957.27a1.556,1.556,0,0,1-1.271-.655,26.505,26.505,0,0,1-1.5-2.368,5.9,5.9,0,0,1,2.189-8.125,6,6,0,0,1,8.359,1.852,29.992,29.992,0,0,1,2.476,4.628,1.558,1.558,0,0,1-2.889,1.168,27.329,27.329,0,0,0-2.2-4.1,2.906,2.906,0,0,0-4.134-.887,2.775,2.775,0,0,0-1.086,3.935,23.292,23.292,0,0,0,1.327,2.087,1.558,1.558,0,0,1-1.269,2.461Z" transform="translate(-336.293 -945.169)" fill="#a0e1e5"/>
      </g>
      <g id="Group_1130" data-name="Group 1130" transform="translate(156.023 949.641)">
        <path id="Path_955" data-name="Path 955" d="M182.367,1007.4H167.615c-.037,0-.075,0-.112,0a11.157,11.157,0,0,1-5.917-2.694c-4.6-3.929-5.563-10.478-5.563-15.281,0-11.031,5.154-17.147,9.478-20.336a28.112,28.112,0,0,1,16.009-5.235,103.458,103.458,0,0,1,15.705,1.482,1.558,1.558,0,1,1-.51,3.074,100.331,100.331,0,0,0-15.2-1.44c-7.738,0-22.37,4.693-22.37,22.456,0,13.542,7.788,14.775,8.553,14.863h12.852c-.568-1.709-1.939-3.116-2.992-3.116h-2.689a1.558,1.558,0,1,1,0-3.116h2.689c3.53,0,6.373,4.262,6.373,7.79A1.558,1.558,0,0,1,182.367,1007.4Z" transform="translate(-156.023 -963.853)" fill="#a0e1e5"/>
      </g>
      <g id="Group_1131" data-name="Group 1131" transform="translate(180.423 985.333)">
        <path id="Path_956" data-name="Path 956" d="M263.927,1118.606a23.577,23.577,0,0,1-4.7-.465,1.558,1.558,0,1,1,.62-3.053,23.919,23.919,0,0,0,14.275-1.911,1.558,1.558,0,0,1,1.451,2.758A27.122,27.122,0,0,1,263.927,1118.606Z" transform="translate(-257.98 -1112.999)" fill="#a0e1e5"/>
      </g>
      <g id="Group_1132" data-name="Group 1132" transform="translate(196.846 969.802)">
        <path id="Path_957" data-name="Path 957" d="M335.026,1071.488h-6.862a1.558,1.558,0,0,1,0-3.116h4.546c-1.014-2.641-1.684-5.322-.458-7.911,1.331-2.812,4.646-4.929,10.431-6.665,3.1-.931,5.611-1.487,7.626-1.934,4.175-.926,5.53-1.293,6.249-2.857a1.558,1.558,0,1,1,2.831,1.3c-1.4,3.043-4.037,3.628-8.405,4.6-1.966.436-4.412.978-7.405,1.876-4.745,1.424-7.608,3.111-8.51,5.014-.928,1.96.1,4.424,1.288,7.278l.108.259a1.558,1.558,0,0,1-1.439,2.157Z" transform="translate(-326.606 -1048.098)" fill="#a0e1e5"/>
      </g>
      <g id="Group_1133" data-name="Group 1133" transform="translate(210.012 951.627)">
        <path id="Path_958" data-name="Path 958" d="M400.886,990.137a1.559,1.559,0,0,1-1.49-1.105c-1.358-4.465-9.354-9.568-17-13.97a1.558,1.558,0,0,1,1.555-2.7c9.918,5.713,16.847,10.58,18.423,15.764a1.559,1.559,0,0,1-1.491,2.012Z" transform="translate(-381.618 -972.154)" fill="#a0e1e5"/>
      </g>
      <g id="Group_1134" data-name="Group 1134" transform="translate(200.022 968.849)">
        <path id="Path_959" data-name="Path 959" d="M351.328,1053.848a11.819,11.819,0,0,1-11.336-7.58,1.558,1.558,0,1,1,2.884-1.181c1.915,4.676,6.486,6.65,11.929,5.151a1.558,1.558,0,0,1,.828,3A16.22,16.22,0,0,1,351.328,1053.848Z" transform="translate(-339.874 -1044.119)" fill="#a0e1e5"/>
      </g>
      <g id="Group_1135" data-name="Group 1135" transform="translate(213.725 962.03)">
        <path id="Path_960" data-name="Path 960" d="M397.135,1017.962a2.337,2.337,0,1,1,4.674,0Z" transform="translate(-397.135 -1015.625)" fill="#a0e1e5"/>
      </g>
    </g>
  </g>
</svg>
