<svg xmlns="http://www.w3.org/2000/svg" width="424.263" height="337.103" viewBox="0 0 424.263 337.103">
  <g id="Group_2356" data-name="Group 2356" transform="translate(-240.693 -3020.058)">
    <g id="Group_2355" data-name="Group 2355">
      <g id="Group_1226" data-name="Group 1226" transform="translate(316.076 2909.14)">
        <g id="Group_1219" data-name="Group 1219" transform="translate(283.287 330.266)">
          <path id="Path_4754" data-name="Path 4754" d="M221.567,314.13a3.057,3.057,0,0,1-3.012-2.551c-.057-.331-5.661-33.232-10.33-47.8l-.861-2.71c-4.645-14.657-10.42-32.9-25.616-37.607-5.1-1.575-14.322-4.286-20.493-6.065a3.061,3.061,0,1,1,1.7-5.882c6.2,1.784,15.477,4.51,20.608,6.1,18.253,5.653,24.836,26.432,29.64,41.611l.853,2.682c4.8,14.983,10.306,47.284,10.539,48.652a3.064,3.064,0,0,1-2.51,3.531A3.12,3.12,0,0,1,221.567,314.13Z" transform="translate(-159.042 -211.399)" fill="#a0e1e5"/>
        </g>
        <g id="Group_1220" data-name="Group 1220" transform="translate(118.722 326.675)">
          <path id="Path_4755" data-name="Path 4755" d="M121.786,316.841a3.156,3.156,0,0,1-.514-.041,3.061,3.061,0,0,1-2.506-3.531C119,311.9,124.5,279.6,129.3,264.618l.853-2.677c4.8-15.175,11.387-35.962,29.644-41.615,8.734-2.7,24.926-7.379,33.113-9.69a3.06,3.06,0,1,1,1.661,5.89c-8.159,2.306-24.281,6.963-32.966,9.649-15.2,4.706-20.975,22.955-25.616,37.615l-.857,2.7c-4.673,14.567-10.273,47.468-10.334,47.8A3.057,3.057,0,0,1,121.786,316.841Z" transform="translate(-118.722 -210.519)" fill="#a0e1e5"/>
        </g>
        <g id="Group_1209" data-name="Group 1209" transform="translate(280.693 328.638)">
          <path id="Path_4744" data-name="Path 4744" d="M171.078,257.1a3.062,3.062,0,0,1-3.061-3.061V240a35.1,35.1,0,0,0-8.861-23.938,3.06,3.06,0,0,1,4.624-4.008A41.507,41.507,0,0,1,174.14,240v14.032A3.062,3.062,0,0,1,171.078,257.1Z" transform="translate(-158.406 -211)" fill="#32abb2"/>
        </g>
        <g id="Group_1210" data-name="Group 1210" transform="translate(180.568 327.7)">
          <path id="Path_4745" data-name="Path 4745" d="M136.936,278.448a3.062,3.062,0,0,1-3.061-3.061V240.711a43.871,43.871,0,0,1,10.857-28.9,3.063,3.063,0,0,1,4.608,4.037A37.723,37.723,0,0,0,140,240.711v34.677A3.062,3.062,0,0,1,136.936,278.448Z" transform="translate(-133.875 -210.77)" fill="#32abb2"/>
        </g>
        <g id="Group_1211" data-name="Group 1211" transform="translate(166.54 389.443)">
          <path id="Path_4746" data-name="Path 4746" d="M147.527,260.081a17.091,17.091,0,1,1,17.093-17.089A17.107,17.107,0,0,1,147.527,260.081Zm0-28.06A10.969,10.969,0,1,0,158.5,242.991,10.981,10.981,0,0,0,147.527,232.02Z" transform="translate(-130.438 -225.898)" fill="#32abb2"/>
        </g>
        <g id="Group_1212" data-name="Group 1212" transform="translate(179.36 402.267)">
          <path id="Path_4747" data-name="Path 4747" d="M137.848,237.579a4.269,4.269,0,1,1,4.269-4.269A4.273,4.273,0,0,1,137.848,237.579Zm0-6.122a1.853,1.853,0,1,0,1.853,1.853A1.857,1.857,0,0,0,137.848,231.456Z" transform="translate(-133.579 -229.04)" fill="#32abb2"/>
        </g>
        <g id="Group_1213" data-name="Group 1213" transform="translate(290.145 368.77)">
          <path id="Path_4748" data-name="Path 4748" d="M178.068,300.084h-8.245a3.061,3.061,0,1,1,0-6.122h8.245c7.49,0,7.865-7.6,7.865-9.126,0-4.233,0-15.473-4.559-37.628-3.624-17.62-12.579-20.253-17.591-20.253a3.061,3.061,0,0,1,0-6.122c5.535,0,18.914,2.453,23.587,25.138,4.2,20.4,4.686,31.95,4.686,38.864C192.056,292.178,187.68,300.084,178.068,300.084Z" transform="translate(-160.722 -220.833)" fill="#32abb2"/>
        </g>
        <g id="Group_1214" data-name="Group 1214" transform="translate(264.925 368.77)">
          <path id="Path_4749" data-name="Path 4749" d="M176.775,300.084H168.53c-9.612,0-13.987-7.906-13.987-15.249,0-6.914.486-18.461,4.686-38.864,4.673-22.685,18.057-25.138,23.6-25.138a3.061,3.061,0,0,1,0,6.122c-5.016,0-13.971,2.633-17.6,20.253-4.559,22.154-4.559,33.395-4.559,37.628,0,1.522.38,9.126,7.865,9.126h8.245a3.061,3.061,0,0,1,0,6.122Z" transform="translate(-154.543 -220.833)" fill="#32abb2"/>
        </g>
        <g id="Group_1215" data-name="Group 1215" transform="translate(230.738 242.978)">
          <path id="Path_4750" data-name="Path 4750" d="M149.228,259.325a3.061,3.061,0,0,1,0-6.122c8.449,0,15-5.6,20.771-10.542a46.474,46.474,0,0,0,14.926-25.371c3.163-15.322,3.633-21.75,3.633-24.216a3.061,3.061,0,1,1,6.122,0c0,4.73-1.3,13.53-3.759,25.452a52.69,52.69,0,0,1-16.947,28.787C167.726,252.664,159.942,259.325,149.228,259.325Z" transform="translate(-146.167 -190.013)" fill="#a0e1e5"/>
        </g>
        <g id="Group_1216" data-name="Group 1216" transform="translate(188.347 240.741)">
          <path id="Path_4751" data-name="Path 4751" d="M181.233,261.014c-10.714,0-18.828-6.943-24.75-12.016a52.692,52.692,0,0,1-16.938-28.783c-2.584-12.522-3.763-23.134-3.763-27.689a3.061,3.061,0,1,1,6.122,0c0,3.551.971,13.526,3.637,26.452a46.377,46.377,0,0,0,14.926,25.367c5.771,4.947,12.318,10.547,20.767,10.547a3.061,3.061,0,1,1,0,6.122Z" transform="translate(-135.781 -189.465)" fill="#a0e1e5"/>
        </g>
        <g id="Group_1217" data-name="Group 1217" transform="translate(251.419 297.222)">
          <path id="Path_4752" data-name="Path 4752" d="M156.454,228.677a3.053,3.053,0,0,1-2.882-2.037,23.241,23.241,0,0,1-1.3-6.126l-1.033-13.93a3.061,3.061,0,0,1,6.106-.453l1.033,13.93a17.416,17.416,0,0,0,.955,4.526,3.063,3.063,0,0,1-1.853,3.91A3.018,3.018,0,0,1,156.454,228.677Z" transform="translate(-151.234 -203.303)" fill="#a0e1e5"/>
        </g>
        <g id="Group_1218" data-name="Group 1218" transform="translate(206.015 297.218)">
          <path id="Path_4753" data-name="Path 4753" d="M143.168,232.574a3.062,3.062,0,0,1-2.592-4.682,17.248,17.248,0,0,0,2.551-7.824l1.033-13.934a3.061,3.061,0,0,1,6.106.453l-1.033,13.934a23.361,23.361,0,0,1-3.465,10.608A3.053,3.053,0,0,1,143.168,232.574Z" transform="translate(-140.11 -203.302)" fill="#a0e1e5"/>
        </g>
        <g id="Group_1221" data-name="Group 1221" transform="translate(207.958 329.549)">
          <path id="Path_4756" data-name="Path 4756" d="M166.46,221.5a67.523,67.523,0,0,1-23.893-4.347,3.063,3.063,0,0,1,2.163-5.73,61.882,61.882,0,0,0,38.893,1.522,3.062,3.062,0,1,1,1.706,5.881A67.776,67.776,0,0,1,166.46,221.5Z" transform="translate(-140.586 -211.223)" fill="#a0e1e5"/>
        </g>
        <g id="Group_1222" data-name="Group 1222" transform="translate(189.957 315.465)">
          <path id="Path_4757" data-name="Path 4757" d="M180.018,324.227a3.072,3.072,0,0,1-2.563-1.384l-38.146-58.292a3.066,3.066,0,0,1,.18-3.6l6.241-7.734-7.816-3.743a3.063,3.063,0,0,1-1.735-2.89l1.163-27.53a3.062,3.062,0,0,1,1.429-2.461l13.265-8.347a3.056,3.056,0,0,1,4.6,1.882l26.354,110.327a3.065,3.065,0,0,1-2.975,3.771Zm-34.366-61.17,27.31,41.729L151.68,215.7l-8.29,5.212-1.012,23.91,9.485,4.543a3.075,3.075,0,0,1,1.661,2.09,3.04,3.04,0,0,1-.6,2.592Z" transform="translate(-136.175 -207.773)" fill="#a0e1e5"/>
        </g>
        <g id="Group_1223" data-name="Group 1223" transform="translate(230.739 339.485)">
          <path id="Path_4758" data-name="Path 4758" d="M149.227,306.092a3.065,3.065,0,0,1-2.975-3.771l20.408-85.442a3.061,3.061,0,0,1,5.955,1.42l-16.33,68.353,27.309-41.729-7.269-9.008a3.062,3.062,0,0,1,1.057-4.681l9.485-4.543-.416-9.828a3.063,3.063,0,0,1,2.926-3.188,2.913,2.913,0,0,1,3.188,2.926l.5,11.845a3.058,3.058,0,0,1-1.735,2.894l-7.816,3.743,6.245,7.734a3.073,3.073,0,0,1,.18,3.6l-38.15,58.292A3.072,3.072,0,0,1,149.227,306.092Z" transform="translate(-146.167 -213.658)" fill="#a0e1e5"/>
        </g>
        <g id="Group_1224" data-name="Group 1224" transform="translate(165.588 172.825)">
          <path id="Path_4759" data-name="Path 4759" d="M235.762,356.028a21.243,21.243,0,0,1-20.648-15.587c-3.069-10.289,1-20.9,10.363-27.024,12.918-8.457,25.4-21.3,20.1-52.452a3.06,3.06,0,0,1,6.032-1.029c5.935,34.84-9.057,49.619-22.779,58.6-8.563,5.6-9.583,14.359-7.853,20.15a15.2,15.2,0,0,0,11.8,10.955c.547-7.155,3.677-10.49,8.828-15.971,2.559-2.726,5.747-6.114,9.62-10.992,11.469-14.428,17.787-43.138,4.559-72.08a3.1,3.1,0,0,1-.269-1.559c1.943-20.763-2.918-37.705-14.445-50.362-14.216-15.608-34.019-19.734-42.5-19.734a49.152,49.152,0,0,0-29.073,9.7,3.032,3.032,0,0,1-3.118.486c-.257-.1-7.13-2.571-13.379,5.988-8.755,11.983-13.914,42.946-15.612,53.121-3.751,22.5,3.326,43.75,7.877,54.419,3.6,8.424,5.722,20.665,6.873,29.452a3.063,3.063,0,0,1-6.073.8c-1.1-8.408-3.11-20.061-6.432-27.848-4.812-11.277-12.289-33.791-8.281-57.823,4.837-29.048,10.147-46.754,16.706-55.729,6.375-8.722,14.314-9.563,18.853-8.579a55.544,55.544,0,0,1,31.66-10.106c13.118,0,33.432,6.8,47.035,21.734,12.583,13.816,17.991,32.06,16.085,54.243,13.857,31.04,6.828,61.97-5.669,77.692-4.033,5.073-7.314,8.563-9.951,11.375-5.706,6.069-7.428,7.9-7.241,15.016a3.067,3.067,0,0,1-3.061,3.143Z" transform="translate(-130.205 -172.825)" fill="#a0e1e5"/>
        </g>
        <g id="Group_1225" data-name="Group 1225" transform="translate(178.8 200.007)">
          <path id="Path_4760" data-name="Path 4760" d="M228.615,252.981a11.347,11.347,0,0,1-1.788-.147,3.059,3.059,0,1,1,.967-6.041c4.22.62,6.816-4.89,7.62-6.979-3.6-12.62-13.42-21.305-28.452-25.15-13.645-3.49-32.5-9.763-45.64-24.628-4.31,24.469-12.583,34-12.963,34.436a66.276,66.276,0,0,1-8.669,8.028c.735,6.861,3.6,11.371,5.951,13.208a4.228,4.228,0,0,0,3.2,1.078,3.06,3.06,0,1,1,1.167,6.008,9.983,9.983,0,0,1-8.13-2.253c-4.751-3.71-7.984-11.114-8.432-19.33a3.068,3.068,0,0,1,1.331-2.694,57.9,57.9,0,0,0,9.024-8.13c.065-.078,9-10.628,12.522-38.227a3.062,3.062,0,0,1,5.567-1.339c11.84,17.367,32.256,24.248,46.586,27.909,17.42,4.457,29.175,15.269,33.105,30.428a3.057,3.057,0,0,1-.029,1.649C240.137,245.533,235.9,252.981,228.615,252.981Z" transform="translate(-133.442 -179.485)" fill="#a0e1e5"/>
        </g>
      </g>
      <g id="Group_1250" data-name="Group 1250" transform="translate(240.693 3020.058)">
        <g id="Group_1227" data-name="Group 1227" transform="translate(115.857 61.685)">
          <path id="Path_4761" data-name="Path 4761" d="M44.062,93.637c8.183,0,17.406-5.337,23.7-9.816,6.85-4.875,12.787-13.355,13.516-19.311.187-1.546.443-3.344.725-5.348,1.073-7.582,2.542-17.963,2.542-28.688a2.747,2.747,0,0,0-5.494,0c0,10.337-1.44,20.5-2.487,27.918-.289,2.04-.549,3.875-.74,5.447-.476,3.886-5.212,11.208-11.249,15.5-7.974,5.677-15.263,8.8-20.516,8.8a2.747,2.747,0,1,0,0,5.494Z" transform="translate(-41.315 -27.727)" fill="#a0e1e5"/>
        </g>
        <g id="Group_1228" data-name="Group 1228" transform="translate(158.178 135.39)">
          <path id="Path_4762" data-name="Path 4762" d="M96.267,143.442c.066,0,.136,0,.2-.007a2.751,2.751,0,0,0,2.542-2.941c-1.824-25.025-5.08-44.844-6.707-51.46-1.769-7.2-6.637-16.794-14.534-20.1C73.3,67.061,25.742,48.808,23.72,48.032a2.746,2.746,0,1,0-1.967,5.128c.494.19,49.5,19,53.9,20.842,4.795,2.007,9.45,8.729,11.318,16.344,1.582,6.439,4.765,25.86,6.564,50.548A2.746,2.746,0,0,0,96.267,143.442Z" transform="translate(-19.988 -47.849)" fill="#a0e1e5"/>
        </g>
        <g id="Group_1229" data-name="Group 1229" transform="translate(143.603 108.09)">
          <path id="Path_4763" data-name="Path 4763" d="M46.79,65.161a2.748,2.748,0,0,0,2.747-2.747V43.143a2.747,2.747,0,1,0-5.494,0v19.27A2.748,2.748,0,0,0,46.79,65.161Z" transform="translate(-44.043 -40.396)" fill="#a0e1e5"/>
        </g>
        <g id="Group_1231" data-name="Group 1231" transform="translate(151.666 61.275)">
          <path id="Path_4765" data-name="Path 4765" d="M41.432,59.57a2.656,2.656,0,0,0,.626-.073l2.839-.659c5.714-1.333,7.842-7.025,8.542-8.9,1.377-3.7,2.135-10.523,2.289-13.959A8.286,8.286,0,0,0,53.6,29.794a7.208,7.208,0,0,0-5.271-2.179H43.681a2.747,2.747,0,1,0,0,5.494h4.652a1.7,1.7,0,0,1,1.3.483,2.948,2.948,0,0,1,.6,2.146c-.15,3.359-.908,9.5-1.949,12.282-1.223,3.275-2.7,5.011-4.641,5.465l-2.839.659a2.748,2.748,0,0,0,.623,5.425Z" transform="translate(-38.686 -27.615)" fill="#a0e1e5"/>
        </g>
        <g id="Group_1232" data-name="Group 1232" transform="translate(78.118 61.685)">
          <path id="Path_4766" data-name="Path 4766" d="M92.1,93.637a2.747,2.747,0,0,0,0-5.494c-5.256,0-12.542-3.124-20.519-8.8-6.033-4.289-10.769-11.615-11.245-15.5-.194-1.571-.454-3.406-.744-5.447-1.048-7.421-2.483-17.582-2.483-27.918a2.747,2.747,0,0,0-5.494,0c0,10.725,1.465,21.105,2.538,28.688.286,2,.538,3.8.729,5.348.729,5.959,6.666,14.439,13.516,19.311C74.694,88.3,83.917,93.637,92.1,93.637Z" transform="translate(-51.618 -27.727)" fill="#a0e1e5"/>
        </g>
        <g id="Group_1233" data-name="Group 1233" transform="translate(0 134.766)">
          <path id="Path_4767" data-name="Path 4767" d="M65.723,143.9a2.744,2.744,0,0,0,2.736-2.549c1.8-24.684,4.978-44.1,6.564-50.544,1.868-7.619,6.527-14.34,11.318-16.347,4.406-1.842,54.145-21.278,54.646-21.475a2.747,2.747,0,1,0-2-5.117c-2.051.8-50.3,19.655-54.767,21.523-7.893,3.308-12.765,12.893-14.538,20.1-1.623,6.619-4.883,26.439-6.7,51.463a2.747,2.747,0,0,0,2.542,2.938C65.587,143.892,65.657,143.9,65.723,143.9Z" transform="translate(-62.972 -47.679)" fill="#a0e1e5"/>
        </g>
        <g id="Group_1234" data-name="Group 1234" transform="translate(88.11 108.09)">
          <path id="Path_4768" data-name="Path 4768" d="M61.94,65.161a2.748,2.748,0,0,0,2.747-2.747V43.143a2.747,2.747,0,1,0-5.494,0v19.27A2.748,2.748,0,0,0,61.94,65.161Z" transform="translate(-59.193 -40.396)" fill="#a0e1e5"/>
        </g>
        <g id="Group_1236" data-name="Group 1236" transform="translate(68.489 61.275)">
          <path id="Path_4770" data-name="Path 4770" d="M75.7,59.57a2.748,2.748,0,0,0,.623-5.425l-2.835-.659c-1.945-.454-3.421-2.19-4.641-5.465-1.04-2.784-1.8-8.923-1.952-12.282a2.932,2.932,0,0,1,.608-2.146,1.686,1.686,0,0,1,1.3-.483h4.648a2.747,2.747,0,1,0,0-5.494H68.8a7.2,7.2,0,0,0-5.271,2.179,8.272,8.272,0,0,0-2.124,6.187c.154,3.436.912,10.263,2.293,13.959.7,1.872,2.82,7.56,8.538,8.9l2.839.659A2.6,2.6,0,0,0,75.7,59.57Z" transform="translate(-61.395 -27.615)" fill="#a0e1e5"/>
        </g>
        <g id="Group_1237" data-name="Group 1237" transform="translate(78.116 26.631)">
          <path id="Path_4771" data-name="Path 4771" d="M119.545,58.705a2.745,2.745,0,0,0,2.286-4.264c-4.557-6.879-4.238-17.736-4.234-17.845a2.755,2.755,0,0,0-.809-2.044,2.721,2.721,0,0,0-2.044-.8c-.143.007-14.227.524-25.724-2.216-11.589-2.758-32.559-13-32.768-13.1a2.749,2.749,0,0,0-3.938,2.154c-.8,6.97-4.216,26.585-10.318,33.559a2.748,2.748,0,1,0,4.135,3.619C52.767,50.182,56.071,32.747,57.25,25c6.582,3.091,21.113,9.644,30.493,11.879a107.7,107.7,0,0,0,24.4,2.414c.2,4.22,1.132,12.183,5.106,18.182A2.749,2.749,0,0,0,119.545,58.705Z" transform="translate(-41.315 -18.157)" fill="#a0e1e5"/>
        </g>
        <g id="Group_1238" data-name="Group 1238" transform="translate(71.87 0)">
          <path id="Path_4772" data-name="Path 4772" d="M127.6,77.494a2.741,2.741,0,0,0,2.612-1.912c.139-.436,3.417-10.857,3.85-26.658.447-16.223-7.161-26.395-24.669-32.98-22.289-8.381-40.8-4.6-48.225-1.051C54.256,18.2,52.41,25.218,51.916,28.785c-2.817.9-7.67,3.135-10.084,8.315-3.341,7.187-3.465,20.318-.355,37.98a2.747,2.747,0,1,0,5.41-.952c-2.828-16.073-2.853-28.724-.07-34.709,2.183-4.692,8.033-5.732,8.091-5.743a2.74,2.74,0,0,0,2.322-2.7c0-.07.161-8.183,6.307-11.124,6.183-2.96,23.325-6.509,43.921,1.238,15.175,5.707,21.49,13.988,21.113,27.688a101.266,101.266,0,0,1-3.593,25.138,2.756,2.756,0,0,0,2.623,3.582Z" transform="translate(-39.232 -10.886)" fill="#a0e1e5"/>
        </g>
        <g id="Group_1239" data-name="Group 1239" transform="translate(84.14 58.713)">
          <path id="Path_4773" data-name="Path 4773" d="M67.254,52.2c9.095,0,12.578-1.773,15.531-7.9a23.628,23.628,0,0,0,2.63-9.531,2.717,2.717,0,0,0-.022-.344c-.062-.494-.813-4.908-7.989-6.34a53.844,53.844,0,0,0-22.351.011A2.748,2.748,0,0,0,53.3,32.206a10.041,10.041,0,0,1,1.418,4.754c-.143,2.4.527,7.926,4.088,11.7A11.3,11.3,0,0,0,67.254,52.2ZM79.891,35.177a20.936,20.936,0,0,1-2.055,6.74c-1.641,3.406-2.626,4.791-10.582,4.791a5.784,5.784,0,0,1-4.447-1.813c-2.172-2.3-2.692-6.121-2.6-7.608a12.35,12.35,0,0,0-.641-4.432,49.66,49.66,0,0,1,16.761.615C78.8,33.961,79.635,34.814,79.891,35.177Z" transform="translate(-52.9 -26.916)" fill="#32abb2"/>
        </g>
        <g id="Group_1240" data-name="Group 1240" transform="translate(120.552 58.715)">
          <path id="Path_4774" data-name="Path 4774" d="M61.12,52.2a11.294,11.294,0,0,0,8.443-3.538c3.56-3.773,4.234-9.3,4.091-11.7A10.016,10.016,0,0,1,75.076,32.2a2.755,2.755,0,0,0-1.751-4.106,53.924,53.924,0,0,0-22.354-.011c-7.176,1.432-7.926,5.846-7.992,6.34-.011.117-.018.227-.018.344A23.651,23.651,0,0,0,45.59,44.3C48.542,50.428,52.025,52.2,61.12,52.2Zm7.692-19.347a12.35,12.35,0,0,0-.641,4.432c.088,1.487-.432,5.307-2.6,7.608a5.784,5.784,0,0,1-4.447,1.813c-7.956,0-8.937-1.385-10.582-4.791a20.739,20.739,0,0,1-2.055-6.74c.253-.363,1.1-1.216,3.564-1.707A49.7,49.7,0,0,1,68.812,32.854Z" transform="translate(-42.96 -26.916)" fill="#32abb2"/>
        </g>
        <g id="Group_1241" data-name="Group 1241" transform="translate(105.358 59.824)">
          <path id="Path_4775" data-name="Path 4775" d="M62,34.01a55.777,55.777,0,0,0,11.128-1.37,2.747,2.747,0,1,0-1.26-5.348A50.674,50.674,0,0,1,62,28.516a50.784,50.784,0,0,1-9.871-1.223,2.747,2.747,0,0,0-1.26,5.348A55.881,55.881,0,0,0,62,34.01Z" transform="translate(-48.752 -27.219)" fill="#32abb2"/>
        </g>
        <g id="Group_1242" data-name="Group 1242" transform="translate(115.856 144.145)">
          <path id="Path_4776" data-name="Path 4776" d="M47.949,76.7a2.729,2.729,0,0,0,1.828-.7l23.5-20.955a2.746,2.746,0,0,0-3.656-4.1L46.121,71.9a2.747,2.747,0,0,0,1.828,4.8Z" transform="translate(-45.201 -50.239)" fill="#a0e1e5"/>
        </g>
        <g id="Group_1243" data-name="Group 1243" transform="translate(92.353 144.145)">
          <path id="Path_4777" data-name="Path 4777" d="M77.865,76.7A2.749,2.749,0,0,0,79.7,71.9l-23.5-20.955a2.746,2.746,0,0,0-3.656,4.1L76.041,76A2.727,2.727,0,0,0,77.865,76.7Z" transform="translate(-51.618 -50.239)" fill="#a0e1e5"/>
        </g>
        <g id="Group_1230" data-name="Group 1230" transform="translate(115.855 121.782)">
          <path id="Path_4764" data-name="Path 4764" d="M42.676,166.221a2.745,2.745,0,0,0,2.308-1.249l40.046-61.606a2.747,2.747,0,0,0-.161-3.216l-6.941-8.659,8.758-4.223a2.741,2.741,0,0,0,1.549-2.6l-1.223-26.5a2.723,2.723,0,0,0-.883-1.894L73.722,44.859A2.745,2.745,0,0,0,69.2,46.215L40.013,162.807a2.747,2.747,0,0,0,2.663,3.414Zm36.665-64.184L49.335,148.192,73.407,52.035l8.168,7.52,1.088,23.552-10.23,4.938a2.745,2.745,0,0,0-.949,4.194Z" transform="translate(-39.93 -44.134)" fill="#a0e1e5"/>
        </g>
        <g id="Group_1235" data-name="Group 1235" transform="translate(73.046 121.782)">
          <path id="Path_4769" data-name="Path 4769" d="M97.177,166.221a2.744,2.744,0,0,0,2.663-3.414L70.657,46.215a2.748,2.748,0,0,0-4.527-1.355l-12.4,11.417a2.754,2.754,0,0,0-.883,1.894l-1.223,26.5a2.741,2.741,0,0,0,1.549,2.6l8.758,4.223-6.941,8.659a2.753,2.753,0,0,0-.161,3.216l40.046,61.606A2.743,2.743,0,0,0,97.177,166.221ZM66.449,52.035l24.069,96.158-30-46.156,7.857-9.8a2.749,2.749,0,0,0-.952-4.194l-10.23-4.938L58.28,59.555Z" transform="translate(-51.618 -44.134)" fill="#a0e1e5"/>
        </g>
      </g>
    </g>
    <g id="Group_1251" data-name="Group 1251" transform="translate(39.1 309.171)">
      <path id="Path_4778" data-name="Path 4778" d="M2000.619,13872.438h37.528v44.926h-37.528Zm31.528,6h-25.528v32.926h25.528Z" transform="translate(-1619 -10993)" fill="#a0e1e5"/>
      <path id="Line_41" data-name="Line 41" d="M32,3H0V-3H32Z" transform="translate(384.5 2894.5)" fill="#a0e1e5"/>
    </g>
  </g>
</svg>
