<svg xmlns="http://www.w3.org/2000/svg" width="26.833" height="25.75" viewBox="0 0 26.833 25.75">
  <g id="Icon_feather-shopping-cart" data-name="Icon feather-shopping-cart" transform="translate(1.5 1.5)">
    <path id="Path_1737" data-name="Path 1737" d="M14.167,31.083A1.083,1.083,0,1,1,13.083,30,1.083,1.083,0,0,1,14.167,31.083Z" transform="translate(-4.417 -9.417)" fill="none" stroke="#209198" stroke-linecap="round" stroke-linejoin="round" stroke-width="3"/>
    <path id="Path_1738" data-name="Path 1738" d="M30.667,31.083A1.083,1.083,0,1,1,29.583,30,1.083,1.083,0,0,1,30.667,31.083Z" transform="translate(-9 -9.417)" fill="none" stroke="#209198" stroke-linecap="round" stroke-linejoin="round" stroke-width="3"/>
    <path id="Path_1739" data-name="Path 1739" d="M1.5,1.5H5.833l2.9,14.506A2.167,2.167,0,0,0,10.9,17.75h10.53A2.167,2.167,0,0,0,23.6,16.006l1.733-9.089H6.917" transform="translate(-1.5 -1.5)" fill="none" stroke="#209198" stroke-linecap="round" stroke-linejoin="round" stroke-width="3"/>
  </g>
</svg>
