<svg xmlns="http://www.w3.org/2000/svg" width="542.292" height="529.259" viewBox="0 0 542.292 529.259">
  <g id="Group_1526" data-name="Group 1526" transform="translate(-125.552 -270.862)">
    <g id="Group_1509" data-name="Group 1509" transform="translate(125.552 288.83)">
      <path id="Path_1586" data-name="Path 1586" d="M588.941,454.31c71.234,99.652,50.476,193.012-32.4,247.622-44.986,29.644-111.1,12.747-161.691,51.732s-150.618,61.075-221.23,7.055c-87.026-66.577-3.438-145.663-11.167-212.572s-73.68-184.893-8.179-248.9c62.832-61.4,143.835,56.189,232.255,69.337S540.66,386.77,588.941,454.31Z" transform="translate(-125.552 -281.607)" fill="#a0e1e5" fill-rule="evenodd"/>
    </g>
    <g id="Group_1510" data-name="Group 1510" transform="translate(157.54 270.862)">
      <path id="Path_1587" data-name="Path 1587" d="M294.378,785.9c-29.9,0-67.289-6.759-101.026-32.572-58.162-44.493-41.6-94.22-25.585-142.309,8.383-25.17,16.3-48.946,13.691-71.545-2.087-18.067-8.543-40.19-15.38-63.613C147.939,413.712,125.365,336.368,173.833,289c39.1-38.209,85.21-8.891,134.026,22.15,32.115,20.423,65.324,41.542,99.822,46.672q9.151,1.362,17.98,2.629c78.372,11.361,140.275,20.336,185.69,83.867C646.859,494,661.116,544.537,652.575,590.479c-7.662,41.222-33.292,77.232-74.122,104.135-21.068,13.883-46.19,17.65-72.787,21.64-30.428,4.564-61.891,9.283-88.79,30.012-27.027,20.828-65.938,35.328-104.086,38.789C307.087,785.571,300.909,785.9,294.378,785.9ZM216.055,274.5c-13.893,0-27.072,4.967-39.588,17.2-46.851,45.784-25.558,118.737-6.772,183.1,6.883,23.58,13.383,45.853,15.507,64.237,2.706,23.428-5.341,47.588-13.859,73.167-15.6,46.834-31.727,95.264,24.3,138.126,40.145,30.711,85.677,33.8,116.807,30.968,37.466-3.4,75.645-17.612,102.128-38.02,27.674-21.326,59.627-26.119,90.53-30.754,26.175-3.925,50.9-7.634,71.274-21.058C616.332,665.14,641.4,629.98,648.871,589.79c8.348-44.909-5.687-94.454-40.587-143.277-44.48-62.224-102.652-70.657-183.163-82.327q-8.837-1.282-17.995-2.632c-35.289-5.247-68.841-26.585-101.289-47.219C273.042,293.479,243.2,274.5,216.055,274.5Z" transform="translate(-144.681 -270.862)" fill="#1c575a"/>
    </g>
    <g id="Group_1525" data-name="Group 1525" transform="translate(389.081 659.04)">
      <path id="Path_1599" data-name="Path 1599" d="M283.339,541.731a68.047,68.047,0,0,1,8.63-38.737l2.445,1.542a66.378,66.378,0,0,0-8.2,36.973Z" transform="translate(-283.143 -502.994)" fill="#a0e1e5"/>
    </g>
    <g id="Group_1521" data-name="Group 1521" transform="translate(325.319 624.107)">
      <path id="Path_1595" data-name="Path 1595" d="M297.8,498.037H252.978a7.967,7.967,0,0,1,0-15.933H297.8a7.967,7.967,0,0,1,0,15.933ZM252.978,485a5.075,5.075,0,1,0,0,10.15H297.8a5.075,5.075,0,1,0,0-10.15Z" transform="translate(-245.013 -482.104)" fill="#a0e1e5"/>
    </g>
    <g id="Group_1523" data-name="Group 1523" transform="translate(440.422 411.149)">
      <path id="Path_1597" data-name="Path 1597" d="M323.462,490.706l-2.891-.059a191.141,191.141,0,0,1,5.043-38.379,46.511,46.511,0,0,0,1.132-6.033c-.567-1.124-1.234-2.293-1.936-3.525-4.366-7.659-10.965-19.234-10.965-51.008,0-13.314,3.41-23.314,10.132-29.726a26.162,26.162,0,0,1,18-7.212l-.134,2.886a23.689,23.689,0,0,0-15.911,6.451c-6.105,5.848-9.2,15.134-9.2,27.6,0,31.008,6.117,41.741,10.585,49.577.761,1.334,1.48,2.594,2.1,3.846l.07.164c.363,1.032.037,2.649-1.055,7.6A185.926,185.926,0,0,0,323.462,490.706Z" transform="translate(-313.845 -354.754)" fill="#a0e1e5"/>
    </g>
    <g id="Group_1524" data-name="Group 1524" transform="translate(453.447 501.287)">
      <path id="Path_1598" data-name="Path 1598" d="M332.565,424.759a67.546,67.546,0,0,1-10.931-14.679l2.515-1.423a66.035,66.035,0,0,0,10.406,14.007Z" transform="translate(-321.634 -408.657)" fill="#a0e1e5"/>
    </g>
  </g>
</svg>
