<?xml version="1.0" encoding="utf-8"?>
<!-- Generator: Adobe Illustrator 26.0.1, SVG Export Plug-In . SVG Version: 6.00 Build 0)  -->
<svg version="1.1" id="Layer_1" xmlns="http://www.w3.org/2000/svg" xmlns:xlink="http://www.w3.org/1999/xlink" x="0px" y="0px"
	 viewBox="0 0 1440 345" width="1440" height="345" style="enable-background:new 0 0 1440 345;" xml:space="preserve">
<style type="text/css">
	.st0{opacity:0.29;}
	.st1{fill:#fff;}
</style>
<g class="st0">
	<path id="Path_6721_00000087384444333005699030000001601084908698238909_" class="st1" d="M413.8,330.3c0,0,0.1,0,0.1,0
		c-0.2,0.4-0.4,0.7-0.5,1.2C413.2,331,413.2,330.5,413.8,330.3z"/>
	<path id="Path_6738_00000075133317626039839410000008671977239200808364_" class="st1" d="M31.8,270.2c-2.8-0.5-7-1-9.5-2.5
		c0.6,0.4-5.7-2.4-2.3-2.7c11.3-0.5,22.5-0.9,33.7-2.5c2.9-0.4,28.8-5,28.5-3.7c-0.6,2.7-8.7,6-10.9,7c-6.2,2.7-12.7,4.5-19.4,5.2
		C45.2,271.5,38.4,271.3,31.8,270.2z"/>
	<path id="Path_6739_00000113340913255414262920000006189351848753695652_" class="st1" d="M48.4,217.6c-5,0.3-10.1,0.1-15-0.7
		c-0.4-0.1-12.6-3.8-9.7-4.4c5.3-1,51.3-6.6,51.3-3.3C74.9,214.5,51.8,217.4,48.4,217.6z"/>
	<path id="Path_6742_00000007395992022349523110000007353226016505639860_" class="st1" d="M28.9,114.7c5.7-1.5,55.6-7.9,55-4.9
		c-1.1,5.6-24.5,8.2-28.3,8.5c-5.6,0.5-11.3,0.5-16.9-0.1C37.1,118,26.4,115.4,28.9,114.7z"/>
	<path id="Path_6744_00000059997665406291269480000005708711200749023164_" class="st1" d="M93.5,46.3c-6.7,0.5-13.4,0.1-20-1.1
		c-1.3-0.2-12.4-4.2-9.9-4.5c11.7-1,23.4-1.5,35.1-3.1c7-0.9,13.9-2.1,20.9-3.2c2.6-0.4,9.2-2.9,8.3,0.7c-0.7,2.8-11.4,6.1-13.6,6.9
		C107.6,44.4,100.6,45.9,93.5,46.3z"/>
	<path id="Path_6745_00000168839118558403961420000008553191970905628838_" class="st1" d="M112.3,83.9c-5.7,1.4-11.7,1.8-17.5,1.2
		c-1.8-0.2-12.9-3.7-10.5-4.2c9.6-1.5,19.1-2.9,28.5-5.5c2.7-0.7,23.8-8.2,24.1-6.2C137.7,75.7,116.1,83,112.3,83.9z"/>
	<path id="Path_6745_00000132790388137460895550000003500487393828957064_" class="st1" d="M30.6,70.7C24.7,70,19,68.4,13.6,65.9
		c-1.6-0.8-11-7.8-8.5-7.4c9.5,1.8,19,3.6,28.7,4.3C36.6,63,58.9,63,58.5,65C57.3,71.4,34.4,71.1,30.6,70.7z"/>
	<path id="Path_6745_00000110443643938117256160000007211190917339532160_" class="st1" d="M37.1,22.5c-5.9-0.6-11.6-2.2-16.9-4.7
		c-1.6-0.8-11-7.8-8.5-7.4c9.5,1.8,19,3.6,28.7,4.3c2.8,0.2,25.1,0.2,24.7,2.2C63.8,23.3,40.9,22.9,37.1,22.5z"/>
	<path id="Path_6747_00000146495998037048343510000013725769097788256649_" class="st1" d="M82.3,302.1c0.7,0.2-6.2-0.8-3-2
		c10.9-3.6,21.8-6.9,32.5-11.1c3.1-1.2,26.6-12.5,27.4-9.6c0.4,1.8-7.8,7.6-9.3,8.7c-6.3,4.6-13.4,8.1-20.9,10.4
		c-6.2,2-12.7,3.2-19.2,3.6C87.5,302.3,84.5,302.8,82.3,302.1z"/>
	<path id="Path_6747_00000049916780964285348760000010557383758384367009_" class="st1" d="M11.6,311.8c0.5,0.5-5.2-3.5-1.8-3.1
		c11.4,1.6,22.6,3.7,34.1,4.7c3.4,0.3,29.4,0.8,28.8,3.8c-0.4,1.8-10.4,3.3-12.2,3.6c-7.7,1.2-15.6,1.2-23.3,0
		c-6.5-1-12.8-2.8-18.8-5.4C16.2,314.3,13.2,313.4,11.6,311.8z"/>
	<path id="Path_6748_00000052808772347711892490000000137027058470896305_" class="st1" d="M130,220c3-1,25.7-10.1,26.3-6.9
		c0.3,1.8-8.8,7.1-10.4,8.1c-6.9,4.2-14.5,7.3-22.3,9.2c-6.6,1.7-13.3,2.6-20.1,2.7c-1.4,0-13.1-1.7-10.7-2.4
		C105.1,226.9,117.6,224,130,220z"/>
	<path id="Path_6749_00000132799673381740783900000015202720680266334089_" class="st1" d="M133.1,160.7c-6,3.6-12.4,6.4-19.1,8.4
		c-6.3,2-12.7,3.3-19.3,3.9c-1.3,0.1-13-0.5-10.7-1.5c12.6-5.1,25.7-9.2,38.4-14c5.4-2,10.7-4.1,16.2-5.9c2.6-0.9,7.1-3.5,6.1,0.2
		C144,154.7,135.4,159.3,133.1,160.7z"/>
	<path id="Path_6749_00000078740582135730149370000008121802118896397697_" class="st1" d="M54.3,161.2c-6.9,0.8-13.9,0.8-20.9,0
		c-6.5-0.7-13-2.2-19.2-4.3c-1.2-0.4-11.6-5.8-9.1-5.7c13.6,0.5,27.2,2,40.8,2.8c5.7,0.3,11.5,0.6,17.2,1.2c2.8,0.3,8-0.3,5.5,2.7
		C66.6,160.2,56.9,160.9,54.3,161.2z"/>
	<path id="Path_6750_00000020398740882050037880000015511273754928341416_" class="st1" d="M179,97.8c-0.5,4-24.8,11.3-27.9,12.4
		c-5.5,2-11,3.8-16.6,5.5c-1.5,0.4-12.6,2.6-10.7,1c8.2-6.9,18.4-11.8,28.4-15.5C154.9,100.3,179.6,93.1,179,97.8z"/>
	<path id="Path_6753_00000045607539450310442550000012093263469581723313_" class="st1" d="M179.6,323.7c6.8-5.1,15.6-7.9,24-9.1
		c3.1-0.5,22.9-1.9,21.4,2.9c-1.1,3.5-21.6,5.3-25.2,5.8c-4.1,0.6-8.2,1.2-12.3,1.5C186.7,324.9,177.3,325.4,179.6,323.7z"/>
	<path id="Path_6754_00000119804229843924297200000012244011954757580470_" class="st1" d="M174.5,280.1c9.8-8.2,22.3-13,34.7-15.1
		c2.6-0.4,34.2-0.3,31.3,3.8c-1.1,1.6-10.8,1.4-13,1.7c-7.7,1-15.4,2-23,3.5c-6.4,1.3-12.8,2.9-19.1,4.6
		C184.3,279.1,172.7,281.7,174.5,280.1z"/>
	<path id="Path_6755_00000003815827667492141190000012252236525798922683_" class="st1" d="M170.1,233.7c2.6-0.7,31.9-6.4,30.7-2.5
		c-0.6,1.9-9.9,4.3-12,5.1c-7.4,2.7-14.9,4.9-22.5,6.9c-6.4,1.7-12.8,3.3-19.2,4.6c-1.2,0.2-13.1,1.5-11,0.1
		C146.5,241.3,158.4,237,170.1,233.7z"/>
	<path id="Path_6756_00000034074284240330200440000014064015513504114590_" class="st1" d="M184.8,185.4c-5.5,1.5-11,3.2-16.5,4.9
		c-0.9,0.3-12.5,3.4-10.6,1.6c7.8-7.7,18.4-12.7,29-15.4c2.1-0.5,28.8-4.2,27.6,1C213.6,180.5,187.8,184.6,184.8,185.4z"/>
	<path id="Path_6757_00000037666178958487803070000001725328599992054422_" class="st1" d="M235.7,140.3c-3.2,3.9-21.3,3.9-26.2,4.6
		c-4.7,0.6-9.5,1.3-14.2,1.8c-1.3,0.1-10.4,0.6-8.3-0.9c8-5.9,18.5-8.8,28.4-9.6C217.6,135.9,238.7,136.7,235.7,140.3z"/>
	<path id="Path_6758_00000064342403413993167600000002983551029307803061_" class="st1" d="M262.7,235.3c-5.6,0.1-11.1,0-16.7,0
		c-5.4-0.1-10.8-0.1-16.3-0.2c-1.3,0-12.2-0.9-10-2.1c9.2-4.5,20-6,30.1-5.8c2.1,0,28,4.2,24.6,7.3
		C272.8,236.1,265.1,235.2,262.7,235.3z"/>
	<path id="Path_6759_00000082362268598774068560000006912820165669079435_" class="st1" d="M263.7,189.8c2.4,0.1,23.4,3.1,20.5,6.3
		c-3.7,4-22.6,1.8-27.8,1.6c-5-0.2-10-0.4-15-0.9c-1.4-0.1-10.6-1.8-8.2-2.8C242.7,190.2,253.6,189.3,263.7,189.8z"/>
	<path id="Path_6760_00000018932079589291082020000009831263816404871859_" class="st1" d="M208.8,106.9c9.9-5.6,21.7-8.1,32.9-8.8
		c3.2-0.2,30.4,1,27.9,5.7c-1.6,3-26.9,2.3-30.2,2.5c-6.9,0.4-13.7,1.1-20.6,1.6C217.3,108.1,206.8,108.1,208.8,106.9z"/>
	<path id="Path_6761_00000055701763831048826490000006140302190239746470_" class="st1" d="M194.2,63c-5.7,0.9-11.4,1.8-17.2,2.4
		c-1.5,0.2-12.7,0.5-10.7-0.8c9.2-5.5,20-8.5,30.5-10.2c2.8-0.4,28.3-2.7,26.8,1.9C222.4,60.1,197.4,62.5,194.2,63z"/>
	<path id="Path_6762_00000083780896015789442540000007081795849657859746_" class="st1" d="M171.7,17.3c-3.8,0.8-7.7,1.4-11.6,1.8
		c-0.2,0-11.8,0.2-9.4-1.5c4.2-2.6,44.8-17,44.1-9.3C194.4,12.6,175.4,16.6,171.7,17.3z"/>
	<path id="Path_6763_00000124146412941552078040000004506852594589761676_" class="st1" d="M255.8,17.2c3.1,0.4,25.4,6.4,22.2,10.1
		c-0.9,1-10.6-0.9-11.9-1c-6.3-0.7-12.7-1.4-19-1.8c-5.6-0.4-11.1-0.5-16.7-0.6c-0.9,0-11.8-0.6-9.4-1.8
		C231.5,16.8,244.3,15.6,255.8,17.2z"/>
	<path id="Path_6764_00000049180423227570028970000000611504106279438731_" class="st1" d="M317.8,83.8c1.8,1.1,16.4,10.3,15.2,13.4
		c-0.3,0.7-32.1-12.6-35.3-13.6c-8.1-2.5-16.5-4.4-24.9-5.6c-3.3-0.5-6.6-0.8-9.9-1.2c0,0-8.4-1.3-5.4-2.1
		c13.3-3.6,27.5-3.1,40.8,0.6C305.1,77.2,311.7,80.1,317.8,83.8z"/>
	<path id="Path_6765_00000070089559329252198050000016810002791383217028_" class="st1" d="M342,57.7c-4.6,3-22.6-4.1-27.5-5.6
		c-4.8-1.5-9.7-3-14.4-4.9c-1.3-0.5-9.8-4.6-7.2-4.9c10.2-1,21,1,30.7,4.1C325.9,47.1,345.6,55.4,342,57.7z"/>
	<path id="Path_6765_00000159470482550192956490000007717262742406325404_" class="st1" d="M373.2,29.2c-4.6,3-22.6-4.1-27.5-5.6
		c-4.8-1.5-9.7-3-14.4-4.9c-1.3-0.5-9.8-4.6-7.2-4.9c10.2-1,21,1,30.7,4.1C357.1,18.6,376.8,26.9,373.2,29.2z"/>
	<path id="Path_6767_00000105425851867601229590000004592706489617747091_" class="st1" d="M328.8,177.6c-1.3,0.9-13.4-5.3-15.5-6
		c-5.9-2.1-11.9-3.9-18-5.4c-6.2-1.4-12.5-2.5-18.8-3.1c-1.2-0.1-12.8-1.7-10.5-2.5c12.7-4.9,27.7-4,40.4,0.4
		C309.2,161.8,333.6,174.3,328.8,177.6z"/>
	<path id="Path_6768_00000119086254874798800630000012534785859909257856_" class="st1" d="M350.7,136.7c-2.6,2.9-25.6-4.4-28.7-5.2
		c-5.4-1.3-10.8-2.7-16.2-4.3c-1.4-0.4-11.7-4.3-9.2-4.7c10.2-1.6,21.1-0.3,31.1,2.1C330.2,125.2,354,133.1,350.7,136.7z"/>
	<path id="Path_6769_00000035501949314023835320000014366722016001532593_" class="st1" d="M256.1,307.6c-3.2-0.1-6.9,0.4-10-0.2
		c0.9,0.2-6.5-0.4-3.2-1.8c11.6-4.8,24.8-6,37.2-5c2.9,0.2,32.6,6.1,29.5,10.5c-0.6,0.9-9.1-0.6-10.6-0.7c-7.5-0.6-15-1.4-22.6-1.9
		C269.6,308,262.9,307.8,256.1,307.6z"/>
	<path id="Path_6770_00000127014837899383581820000013105734950558733742_" class="st1" d="M287.9,269.6c10.7-3.4,23-2.6,33.6,0.6
		c2.8,0.8,23.3,10,19.5,12.9c-1.2,0.9-9.1-2-10.5-2.4c-5.3-1.3-10.6-2.7-16-4s-10.7-2.3-16.1-3.4
		C297.5,273.1,285.5,270.4,287.9,269.6z"/>
	<path id="Path_6771_00000037670621335546567410000012342271159833157798_" class="st1" d="M328.9,231.4c-4-0.9-8.1-1.9-12-3
		c-0.2-0.1-8.6-2.7-5.8-3.6c7.8-2.3,16.5-1.9,24.4-0.2c3.5,0.8,20.8,6.1,17.8,10.2C351.1,237.6,332.6,232.2,328.9,231.4z"/>
	<path id="Path_6777_00000129206979281420863420000009602642682297397935_" class="st1" d="M414,330.3c0,0-0.1,0-0.1,0
		c0.1,0,0.1,0,0.2-0.1C414,330.3,414,330.3,414,330.3z"/>
	<path id="Path_6778_00000040559408391043773040000008997599386848886669_" class="st1" d="M407.1,327.9c2.2,0.6,4.5,1.8,6.7,2.4
		c-0.6,0.2-0.6,0.7-0.3,1.2c0.1-0.4,0.3-0.8,0.5-1.2c0.3,0.1,0.6,0.2,0.9,0.2c0.6,0.2-0.5,1.2-1,1.3c0,0,0.1,0.1,0.1,0.1
		c-0.1,0-0.1,0-0.2-0.1c0,0-0.1,0-0.1,0c-3.1-1.1-11.7,0.9-15,0.8c-7.8-0.3-15.5-1.3-23.1-3c-6.8-1.5-15.6-3.4-21.1-8.1
		c-1.2-1-4.5-3.6-3.4-5.7c0.3-0.5,2.2-2.5,2-0.4c2,5.1,17,5.4,21.6,6.2C385.5,323.3,396.4,324.9,407.1,327.9z"/>
	<path id="Path_6779_00000114056073910126110810000010978095639322800797_" class="st1" d="M389.2,277.5c-5.3-1.5-10.3-3.5-15.2-6
		c-1.2-0.6-10.2-6.5-7.6-6.4c10.3,0.5,20.5,3.9,30.5,6c4.7,1,9.3,1.9,14.1,2.5c2.3,0.3,7.8-0.5,6.5,2.5
		C414.5,282.8,393.5,278.7,389.2,277.5z"/>
	<path id="Path_6780_00000137816630948336379050000012944184520353572512_" class="st1" d="M414.5,204c-1.4,4.3-22.1,0.3-25.3-0.4
		c-5-1.1-9.8-2.7-14.4-4.8c-1.2-0.5-10.6-6.3-7.9-6.3C372,192.5,416.2,198.9,414.5,204z"/>
	<path id="Path_6781_00000152982989869133151810000013263004968156878512_" class="st1" d="M376.8,119.9c-0.3-0.1-11.6-6.3-8.8-6.4
		c9.6,0.1,19.3,2.1,28.5,4.4c3,0.8,24.6,7,22.4,9.9c-3.3,4.4-24.4-2-29.2-3.4C385.4,123.2,381.1,121.7,376.8,119.9z"/>
	<path id="Path_6782_00000028323819690370624290000007541723259339082425_" class="st1" d="M430.7,166.9c-3.4,5-21.4,1.6-25.8,0.5
		c-5.3-1.2-10.3-3.2-15.1-5.8c-1.3-0.7-10.1-7.8-7.5-7.4c9.7,1.7,19.2,4.3,28.8,6.2C414.6,161.2,432.8,163.8,430.7,166.9z"/>
	<path id="Path_6783_00000106146010934217325830000011316122753865411260_" class="st1" d="M358.8,69.6c11.6,5,22.9,9.8,35.3,12.7
		c2.9,0.7,30.8,3.6,31.2,5.4c1.4,6.5-33.2,2.5-36.4,1.6c-8.1-2.2-15.8-5.9-22.7-10.8c-2-1.5-4.9-3.2-6.3-5.3
		C360.5,74,355.4,68.2,358.8,69.6z"/>
	<path id="Path_6784_00000150810360465436682790000013883205575907705731_" class="st1" d="M404.7,38c10.6,0.5,21.2,2.2,31.7,3.4
		c2.3,0.3,27.6,2.9,26.5,5.4c-2.4,5.7-27.6,2.7-31.6,2.1c-6-0.9-11.9-2.5-17.6-4.6C412.2,43.6,402.3,38,404.7,38z"/>
	<path id="Path_6786_00000155846004780916577890000006853422626464332209_" class="st1" d="M424.5,250.6c-6.4-1-12.7-2.8-18.8-5.2
		c-2.1-0.8-5-1.7-6.7-3.2c0.6,0.5-5.3-3.3-1.9-3c12.4,1.2,24.8,3.3,37.2,4.5c5.9,0.6,11.9,1.1,17.8,1.8c2.6,0.3,9.5-0.2,7.7,2.9
		c-1.4,2.4-12.3,2.8-14.6,3.1C438.3,252.1,431.3,251.8,424.5,250.6z"/>
	<path id="Path_6787_00000158009605149507086820000015186879091470454455_" class="st1" d="M455.5,299.8c2.9-0.4,26.2-4.9,26.2-2.9
		c0,2.3-8.4,5.8-10,6.6c-5.7,2.5-11.7,4.1-17.9,4.6c-6.2,0.6-12.4,0.2-18.5-1.1c-1.9-0.4-12.9-5.3-10.6-5.5
		C435,301.3,445.3,301.2,455.5,299.8z"/>
	<path id="Path_6790_00000084529803950598163930000008112174740307568822_" class="st1" d="M440.9,190.2c10.5,0.4,21,1.3,31.6,1.1
		c3.7-0.1,27.4-2,26.7,1c-0.5,1.9-9.5,4.4-10.8,4.7c-6,1.7-12.3,2.5-18.6,2.4c-6.3-0.1-12.5-1.1-18.5-2.9
		C449.4,195.9,438.7,190.1,440.9,190.2z"/>
	<path id="Path_6791_00000140015661120751883030000002681345672414691478_" class="st1" d="M476.6,132.1c-6.2,0.2-12.4-0.4-18.5-1.7
		c-1.8-0.4-13.1-5.1-10.8-5.3c11.4-0.8,22.9-0.7,34.3-1.4c3.4-0.2,24.9-2.4,24.1,0.7c-0.5,1.8-9.4,4.3-10.7,4.7
		C489,131,482.8,132,476.6,132.1z"/>
	<path id="Path_6792_00000024693879347022995760000008627201406737845919_" class="st1" d="M478.8,73.8c-5.3,0.3-10.6,0-15.8-0.8
		c-1.4-0.2-12.1-3.5-9.6-4.1c5.1-1.2,50.7-6.8,50.7-2C504.1,71.5,482.1,73.6,478.8,73.8z"/>
	<path id="Path_6792_00000145764567111282900530000013778765832922579080_" class="st1" d="M459.4,20.9c-5.3,0.3-10.6,0-15.8-0.8
		c-1.4-0.2-12.1-3.5-9.6-4.1c5.1-1.2,50.7-6.8,50.7-2C484.7,18.7,462.7,20.7,459.4,20.9z"/>
	<path id="Path_6794_00000127724471802108396170000000637358521326742194_" class="st1" d="M535.9,94.3c-6.9,3.9-14.4,6.4-22.3,7.4
		c-6.5,0.9-13.2,0.9-19.7-0.2c-2.2-0.4-5.3-0.6-7.3-1.8c0.6,0.3-5.8-2.2-2.4-2.6c11.3-0.9,22.6-1.9,33.7-4.4
		c3.3-0.8,27.6-8.9,28.1-6.2C546.4,88.4,537.5,93.4,535.9,94.3z"/>
	<path id="Path_6795_00000093142611056095661660000006152324074788589245_" class="st1" d="M554.4,23.7c-6.5,4.3-13.7,7.4-21.3,9.1
		c-6.3,1.5-12.8,2.1-19.3,1.8c-2.2-0.1-5.3,0-7.4-0.9c0.6,0.3-6-1.5-2.7-2.3c11.1-2.3,22-4.4,32.8-7.9c3.2-1,26.7-10.9,27.3-8.2
		C564.2,17.1,555.9,22.6,554.4,23.7z"/>
	<path id="Path_6796_00000087390838335660763310000016589088651248083104_" class="st1" d="M542.7,226.7c-5.4,5-11.7,8.9-18.6,11.6
		c-7.7,3.1-15.8,4.5-24.1,4.4c-1.6,0-13.2-2.7-10.9-3.1c12-2.4,23.5-4.9,34.7-9.9c2.5-1.1,26.7-15.5,27.4-14.5
		C552.8,217.1,543.9,225.6,542.7,226.7z"/>
	<path id="Path_6797_00000176749952807197960310000015299646444500692870_" class="st1" d="M531.3,160.8c-7.1,2-14.4,3-21.8,3
		c-1.4,0-13.1-1.9-10.7-2.6c11.6-3.1,23.2-5.7,34.6-9.4c2.9-0.9,28.6-11,29.2-8.6c0.5,2-9.1,7.8-10.5,8.7
		C545.7,155.8,538.7,158.8,531.3,160.8z"/>
	<path id="Path_6798_00000122701025868777273600000002570671330642581909_" class="st1" d="M532.5,312.2c-6.1,4.9-13,8.7-20.3,11.2
		c-6.2,2.2-12.6,3.5-19.1,3.8c-2.2,0.1-5.3,0.5-7.4-0.1c0.7,0.2-6.1-0.9-2.9-2c10.8-3.5,21.6-6.8,32-11.4
		c3.1-1.4,25.7-13.5,26.6-10.7C541.8,304.8,533.9,311.1,532.5,312.2z"/>
	<path id="Path_6803_00000178925369150384204820000011092377125318620835_" class="st1" d="M522,273c1.1,0.3-6.8-1-3.3-2
		c12.4-3.7,24.7-6.9,36.7-11.9c3-1.2,29.4-14.6,30.2-12.5c0.8,2-9,9.4-10.3,10.4c-6.6,4.9-13.9,8.8-21.6,11.5
		c-7.5,2.7-15.3,4.2-23.3,4.7C527.9,273.2,524.5,273.7,522,273z"/>
	<path id="Path_6804_00000041252989584134207350000007640355770092644999_" class="st1" d="M590.6,308c-2.6,1.6-5.9,4.5-8.8,5.5
		c0.7-0.3-5.5,3-3.6,0.2c6.6-10,16.5-18.1,26.7-24c3-1.7,26.8-14,29.2-8.9c0.9,1.8-22.4,14.3-25.1,15.9
		C602.8,300.4,596.7,304.2,590.6,308z"/>
	<path id="Path_6805_00000124146496141810747380000017665850361467975327_" class="st1" d="M650.3,233.4c-5.4,0-10.8-0.1-16.3,0.2
		c-5.2,0.3-10.3,0.8-15.4,1.4c-0.8,0.1-11.2,1.1-9-0.6c8.9-6.6,20.8-9.4,31.7-9c2.2,0.1,25.1,4.4,21.4,8
		C661.5,234.8,652.5,233.4,650.3,233.4z"/>
	<path id="Path_6806_00000088831534125618819810000009113209669650880660_" class="st1" d="M583.9,212.6c-0.8,0.3-10.9,4-9.2,1.9
		c7.3-8.9,18.5-14.8,29.5-17.5c2.6-0.6,25.7-3.2,23.7,1.8c-1.2,2.9-25.5,7.1-28.9,8.2C594,208.7,589,210.6,583.9,212.6z"/>
	<path id="Path_6807_00000173144043782973135680000004837527872920368015_" class="st1" d="M559.7,180.2c-4.8,2.3-9.6,4.7-14.4,7.1
		c-0.8,0.4-10.5,4.7-8.9,2.5c6.5-9.1,16.6-15.9,26.9-20c2.5-1,24.1-7.2,23.2-2.2C585.9,170.9,563,178.7,559.7,180.2z"/>
	<path id="Path_6808_00000123415662660009927850000018405166498311233681_" class="st1" d="M677.3,188.5c-1.6,0.9-9.5-2.5-11.5-3.1
		c-5-1.3-9.9-2.4-15-3.2c-4.8-0.7-9.7-1.1-14.6-1.3c-0.8,0-10.8-0.4-8.5-1.8c9.3-5.5,21.3-6.1,31.6-3.4
		C661.4,176.2,682.1,185.9,677.3,188.5z"/>
	<path id="Path_6809_00000118355815329990719450000001060112738223205306_" class="st1" d="M688.6,152.5c-1.1,1-11.5-2.4-13.3-2.8
		c-5.8-1.2-11.6-2.3-17.5-3.1c-5.6-0.7-11.2-1.1-16.9-1.3c-0.9,0-11.9-0.7-9.6-1.9c10.8-5.4,24.1-6.1,35.8-3.5
		C669.7,140.5,692.7,148.9,688.6,152.5z"/>
	<path id="Path_6810_00000175280463064672137880000018324945319707811987_" class="st1" d="M572.2,122.6c-0.9,0.2-11.5,2.8-9.6,1
		c8.6-8.1,20.6-12.9,32.1-14.7c3.1-0.5,26.3-1.2,24.3,3.3c-0.6,1.2-10.5,2.2-11.7,2.4c-6.3,1.2-12.6,2.4-18.8,3.8
		C583,119.6,577.6,121.1,572.2,122.6z"/>
	<path id="Path_6811_00000038411571586279271800000001291883060569226371_" class="st1" d="M697.9,110.1c-1.8,2-18.9-2.9-21-3.1
		c-5.1-0.6-10.2-0.8-15.3-0.8c-0.8,0-8,0-5.8-1.6c7.3-5.4,17.5-6.7,26.2-4.9C683.4,99.9,701.1,106.4,697.9,110.1z"/>
	<path id="Path_6811_00000117671988079367920590000013825613468753780392_" class="st1" d="M687.2,34.6c-1.8,2-18.9-2.9-21-3.1
		c-5.1-0.6-10.2-0.8-15.3-0.8c-0.8,0-8,0-5.8-1.6c7.3-5.4,17.5-6.7,26.2-4.9C672.7,24.5,690.5,31,687.2,34.6z"/>
	<path id="Path_6814_00000101090484433558701340000001968797326054525865_" class="st1" d="M645.8,330.8c-1.1,1.3-9.8,1.3-11.6,1.5
		c-5,0.6-10,1.2-15,2.1c-4.7,0.8-9.4,1.9-14.1,3.1c-0.7,0.2-10.4,2.5-8.5,0.5c7.8-8.1,19.8-12.3,30.8-12.7
		C629.9,325.2,648.7,327.3,645.8,330.8z"/>
	<path id="Path_6816_00000167371521955056749940000012075752653897160079_" class="st1" d="M580.1,76.9c-0.3,0-12.3-0.5-9.6-1.9
		c8-4,16.6-7.1,24.8-10.6c3.1-1.3,18.3-9,18.3-4.9c0.1,6.2-16.7,13.2-21.3,14.8C588.5,75.6,584.3,76.5,580.1,76.9z"/>
	<path id="Path_6817_00000101083384440258427720000012068940573240557214_" class="st1" d="M577.4,40.5c-1.4,0.5-12.3,3.3-10.6,1.6
		c7.8-7.3,17.5-12.8,27.2-17c3-1.3,25.9-10.1,26.3-5.2c0.3,3.5-24.3,13.1-26.8,14.2C588.3,36.4,582.9,38.6,577.4,40.5z"/>
	<path id="Path_6820_00000145060757127694796610000014062149689916015022_" class="st1" d="M979.7,310.5c-4.6,1.1-9.3,1.7-14,1.7
		c-0.6,0-9-1.4-6.2-2.1c16.3-4,30.5-10.1,44.2-20.1c7.2-5.3,14-11.1,20.9-16.9c1.5-1.3,12.5-12,12.2-7.7
		c-0.5,5.9-10.8,15.1-14.7,19.2c-5.9,6.2-12.5,11.6-19.7,16.1C995.3,305.3,987.7,308.5,979.7,310.5z"/>
	<path id="Path_6821_00000181789273226211309240000016391652434398151069_" class="st1" d="M1032.5,213.3
		c-7.5,4.7-14.7,9.9-21.4,15.7c-8.3,7-15.9,14.7-23.5,22.4c-3.7,3.8-7.5,7.6-11.3,11.3c-0.4,0.4-7.7,6.1-6.3,3.7
		c9.5-15.9,21.4-31.1,35.6-43.2c7.4-6.6,15.8-11.9,24.9-15.9c2.6-1.1,21.4-6.6,20.7-4.1C1050.3,206.3,1035.6,211.5,1032.5,213.3z"/>
	<path id="Path_6822_00000079466523366081831220000016396126679150584246_" class="st1" d="M1140,242.2c1.1,4.4-9.4,15.5-12.3,18.8
		c-6.4,7.5-13.9,14-22.2,19.3c-7.1,4.6-14.6,8.4-22.6,11.3c-4.5,1.6-9.1,2.9-13.9,3.8c-0.6,0.1-9.3,0.5-6.8-0.7
		c15.7-7.3,30.7-14.8,44.6-25.3c6.9-5.2,13.5-10.9,19.8-16.8C1128.6,251.1,1139.2,238.7,1140,242.2z"/>
	<path id="Path_6823_00000099635330395933861500000010846950326606770617_" class="st1" d="M1099.4,236.6c-7,4-14.5,7.2-22.3,9.5
		c-2.5,0.7-5.7,2-8.4,1.9c1.2,0-7,0.8-3.8-1.1c11.5-6.8,23.4-12.8,34.7-19.9c2.8-1.7,28-19.3,29.2-17c1,1.9-8.2,10.5-9.4,11.7
		C1113.4,227.5,1106.7,232.5,1099.4,236.6z"/>
	<path id="Path_6824_00000148644337856208649020000006610638523476200855_" class="st1" d="M1110.4,180.1c-4,2.1-7.8,4.3-11.7,6.5
		c-0.4,0.2-9,4.4-7.2,2.3c10.6-12.1,24.5-21.2,39.5-27.1c7.3-2.9,14.8-4.9,22.6-6c2.2-0.3,21.2-2,19.4,1.2
		c-1.4,2.7-18.4,5.2-21.4,6.1c-6.8,2.1-13.6,4.5-20.2,7.1C1124.3,173.2,1117.3,176.5,1110.4,180.1z"/>
	<path id="Path_6825_00000011739905742618994560000006209967273901827755_" class="st1" d="M1004.1,192.9c-3.9,3.1-7.7,6.4-11.3,9.9
		c-0.6,0.6-7.6,6-6.3,3.8c9.6-16.5,24.1-29.7,41-38.4c8.8-4.6,18.2-7.8,28-9.6c2.9-0.5,22.5-2.6,20.7,0.6c-0.6,1.1-8,2.1-9.3,2.5
		c-4.3,1.2-8.5,2.5-12.7,3.9c-8.9,3.1-17.5,6.8-25.8,11.2C1019.8,181.4,1011.7,186.8,1004.1,192.9z"/>
	<path id="Path_6826_00000060738937504269837460000011198858528953381784_" class="st1" d="M919,301.5c-6.7,1-13.6,0.8-20.2-0.8
		c-2.2-0.5-5.4-1.1-7.3-2.4c0.6,0.4-5.6-2.9-2.2-2.9c11.4,0.5,22.7-0.1,33.8-3c3.9-1,26.9-10.8,27.5-8.9c0.8,2.5-10,9.7-11.5,10.7
		C933.1,298,926.2,300.5,919,301.5z"/>
	<path id="Path_6827_00000077315467737117128970000011852944852727281081_" class="st1" d="M922.5,252.9c-6.9,1.4-14,1.7-21,0.8
		c-3.4-0.4-6.8-1.2-10-2.2c-0.1,0-7.4-3.6-4.5-3.5c15,0.4,29.3-0.7,43.7-5.7c7-2.5,13.8-5.5,20.2-9.2c3.1-1.7,9.6-7.4,7.1-1.2
		C953.3,243.4,933.6,250.7,922.5,252.9z"/>
	<path id="Path_6828_00000118397410304981704820000001283025060112033931_" class="st1" d="M946.6,196.6c5.8-4.5,11.2-9.5,16.9-14.2
		c1.8-1.5,9-9.3,10.3-6c0.9,2.3-7,11.4-8.3,13c-4.6,5.8-10,10.8-16.1,14.9c-5.1,3.5-10.7,6-16.7,7.4c-2.7,0.7-5.4,1.1-8.2,1
		c0,0-6.6-0.8-3.8-1.9C930,207.6,938.7,202.7,946.6,196.6z"/>
	<path id="Path_6829_00000122705410959415849190000006493270585963311266_" class="st1" d="M1080.4,113.3c-8.2,1.5-16.2,3.7-24,6.5
		c-8.5,3.1-16.7,7-24.5,11.6c-4.3,2.5-8.4,5.2-12.4,8.1c-0.3,0.2-8.1,5-6.3,2.6c10.1-13.3,23.7-23.6,39.4-29.4
		c9-3.5,18.5-5.5,28.1-5.9c2.5-0.1,22.7,1.3,21.2,3.4C1099.9,112.7,1083.5,112.7,1080.4,113.3z"/>
	<path id="Path_6830_00000078028226478900304810000012614116397708981132_" class="st1" d="M1143.9,121.5c8.3-0.8,16.6-0.5,24.8,0.8
		c2.6,0.4,9.8,0.5,7.6,3.5c-1.5,2.1-13.7,2-16.1,2.2c-7.9,0.8-15.8,1.4-23.6,2.3c-7.1,0.7-14,2-20.9,3.8c-0.6,0.2-10.8,3.3-9,1.5
		C1115.7,125.8,1131,122.7,1143.9,121.5z"/>
	<path id="Path_6831_00000119813044371954306470000012715664728247934878_" class="st1" d="M1169.8,81.9c8.2-0.6,16.3-1,24.5-0.9
		c2.2,0,19.5,0.1,17.6,2.7c-2.4,3.2-17.4,3.7-21.2,4.2c-8.1,1.1-16.2,1.8-24.3,2.3c-7.4,0.4-14.8,0.7-22.2,0.6
		c-4.2,0-8.5-0.1-12.7-0.4c-0.8,0-8.5-1.5-5.8-2.1C1140,84.6,1155.1,83,1169.8,81.9z"/>
	<path id="Path_6832_00000101813945693130766880000003792307120737265060_" class="st1" d="M1070.6,74c-8.6,1.5-17.1,3.7-25.5,6.4
		c-3.5,1.1-7,2.5-10.6,3.6c0,0-7.4,2-5.1,0.1c10.8-9,24-14.8,37.7-17.6c4.5-0.9,42.9-3.9,42.1,3.1
		C1109.2,70.8,1073.7,73.5,1070.6,74z"/>
	<path id="Path_6833_00000083088697268669386670000003609105075577711021_" class="st1" d="M953.9,146.4c-2.4,1.9-5.5,5.2-8.3,6.5
		c0.7-0.3-5.2,3.6-3.6,0.5c5.8-10.6,14.7-19.7,24.2-26.9c2.8-2.1,24.9-17.3,27.9-12.7c1.2,1.8-20.6,17.3-23.1,19.2
		C965.3,137.4,959.6,141.9,953.9,146.4z"/>
	<path id="Path_6834_00000147206630357834718300000001583467080242188967_" class="st1" d="M862.6,190.1c0,0-6.4-3.3-3.4-3.3
		c13.2,0.5,25.9,0.4,38.9-2.5c3.3-0.7,31.7-10,31.8-9.4c0.6,2.9-10.8,9.4-12.8,10.5c-7,3.9-14.7,6.6-22.6,7.7
		c-7.7,1.2-15.5,1-23.1-0.5C868.4,192.1,865.4,191.2,862.6,190.1z"/>
	<path id="Path_6835_00000088849115089546850840000005875945809266722440_" class="st1" d="M873.4,143.7c-0.1,0-6.7-3-3.7-3.1
		c13.6-0.1,27.1-2.9,39.7-8.2c8.1-3.4,15.9-7.4,23.9-11c2.5-1.1,9.3-5.6,8.1-1.2c-1.3,4.5-12.6,10.6-16.2,12.9
		c-6.2,3.9-12.8,7.1-19.8,9.3c-6.7,2.2-13.8,3.3-20.9,3.1C880.7,145.5,877,144.8,873.4,143.7z"/>
	<path id="Path_6836_00000009569375141577133620000000253266618690681254_" class="st1" d="M989.4,77.7c-4.8,3.5-9.8,7-14.8,10.2
		c-1.3,0.9-11.5,6.2-10.2,4.2c6.2-9.1,14.7-16.9,23.6-23.3c2.3-1.7,24.5-15.9,25.3-11.2C1014,61.5,992,75.8,989.4,77.7z"/>
	<path id="Path_6838_00000168834693377450116700000018015256097172720311_" class="st1" d="M1177.9,264.9
		c-3.9,6.4-8.5,12.2-13.9,17.4c-5.3,5.1-11.2,9.6-17.6,13.2c-3.2,1.9-6.5,3.5-10,4.7c0,0-7.2,1.8-4.9-0.1
		c11.2-9.2,22.3-18.2,32-29.1c5.2-5.8,10.1-11.8,14.8-17.9c1.4-1.8,5.9-10.1,7.2-6.4C1187,250.7,1179.7,261.9,1177.9,264.9z"/>
	<path id="Path_6839_00000006704152916632532120000004098467691118000775_" class="st1" d="M1191.5,207.3
		c-6.2,3.2-12.2,6.7-18.1,10.4c-1.2,0.7-12,6.6-10.7,4.7c7.8-11,19-19.5,31.1-25.3c2.5-1.2,34.3-10.7,32.8-6
		c-0.6,1.8-10.6,4.7-12.7,5.6C1206.3,200.1,1198.8,203.5,1191.5,207.3z"/>
	<path id="Path_6840_00000117666451228708237200000004987931245791493550_" class="st1" d="M1211.1,159.9c0.8,0.1-6.3,0.7-3.4-1.2
		c10.2-6.7,22.7-10.2,34.7-11.3c3.5-0.3,30.7-1.2,30.6,4.6c0,2-29.2,3.4-32.8,3.8c-6.5,0.7-13,1.6-19.5,2.6
		C1217.9,158.8,1214,160.2,1211.1,159.9z"/>
	<path id="Path_6841_00000173879643550659277020000017434125193569348794_" class="st1" d="M1222.4,121.5c-1.6,0.1-13-0.5-10.9-1.6
		c9.9-4.8,21.4-7,32.4-7.6c2.8-0.1,29.4,0.5,27.3,5c-1.6,3.4-27.7,3.1-30.9,3.2C1234.3,121,1228.4,121.3,1222.4,121.5z"/>
	<path id="Path_6842_00000153672946965429725670000005762883295802768826_" class="st1" d="M1220.1,241.7c-0.9,0.4-8.6,6-8.1,4
		c3.1-13.4,25.5-16.7,36.4-17.9c7.4-0.9,14.8-0.9,22.2-0.2c2.1,0.2,14.1,0.8,11.1,3.8c-2.9,2.8-15.4,2.4-19.4,2.9
		c-7.6,0.9-15.3,1.7-22.9,2.8C1233,238,1226.1,239,1220.1,241.7z"/>
	<path id="Path_6843_00000160190330179196170370000006568457738854936239_" class="st1" d="M1292.5,184.4c3.3,0.1,32.8,4.4,29.5,9.1
		c-0.8,1.1-11.4-0.4-12.8-0.5c-7.1-0.3-14.2-0.6-21.3-0.6c-6.9,0.1-13.8,0.5-20.7,1c-1.2,0.1-13,0.4-10.8-0.8
		C1267.1,186.6,1280.2,184.2,1292.5,184.4z"/>
	<path id="Path_6844_00000168815032951932664290000001442050528473713038_" class="st1" d="M1176.4,309.1
		c-6.8,4.8-13.3,10-19.5,15.5c-2.3,2.1-4.5,4.3-6.9,6.3c0,0-5.9,4.7-4.5,1.9c6.2-12.5,16-23,27.3-31c3.5-2.5,35-19.7,37.1-13.4
		C1210.4,289.9,1178.9,307.4,1176.4,309.1z"/>
	<path id="Path_6848_00000059301242296354276580000010792338477321256098_" class="st1" d="M893.1,108.2c-1.5,0.1-13.4-1.1-11.1-1.9
		c11.6-3.8,22.9-7.4,33.9-13c2.4-1.2,26.2-16.4,27.2-15c1.4,1.9-7.3,10.4-8.5,11.5c-5.3,5-11.4,9.1-18,12.2
		C909.2,105.4,901.2,107.6,893.1,108.2z"/>
	<path id="Path_6849_00000152238149895810049870000016908662976242351551_" class="st1" d="M1009.1,28.2c-5.5,2.9-10.9,5.9-16.3,9
		c-4.7,2.8-9.2,5.7-13.7,8.7c-0.7,0.5-9.9,6.1-8.6,3.7c5.4-10.1,15.1-18.2,25.2-23.3c2.8-1.4,24.2-8.8,23.5-3.8
		C1019.1,23.8,1010.2,27.6,1009.1,28.2z"/>
	<path id="Path_6850_00000105423218193316488220000007304618691597976741_" class="st1" d="M1078.5,42c-7.3,2.1-14.4,4.5-21.5,7.2
		c-1.3,0.5-13.2,4.1-11.5,2.5c9.9-9.2,22.7-15.4,35.8-18.8c8-2.1,16.2-3,24.5-2.6c1.8,0.1,11,0.2,9.1,3c-1.2,1.8-11.5,2.6-13.6,3.1
		C1093.6,38.1,1086,39.9,1078.5,42z"/>
	<path id="Path_6851_00000072277056766119595930000004806316057585387662_" class="st1" d="M1171.7,55.3c-6.1,0.2-12.2,0.3-18.3,0.2
		c-1.6,0-13.1-1.4-10.9-2.3c10.4-4.1,22-5.6,33.1-6.1c2.5-0.1,30.1,1.1,27.7,4.7c-1.2,1.9-10.8,2-12.9,2.2
		C1184.2,54.8,1178,55.1,1171.7,55.3z"/>
	<path id="Path_6853_00000122684284824539810450000009823583882561001656_" class="st1" d="M1210.8,14.4c1.7,0.3,10.3,0.9,8.3,3.5
		c-1.3,1.8-11,1.9-13.1,2.1c-7.4,0.9-14.8,1.3-22.3,1.7c-7.2,0.4-14.5,0.7-21.7,0.7c-1.3,0-13.3-1-11-1.9c11.7-4.5,24.5-6.4,37-7.1
		C1195.6,12.9,1203.2,13.3,1210.8,14.4z"/>
	<path id="Path_6854_00000080924664688348174140000015544402626682845837_" class="st1" d="M1298.8,72.3c-1.9,1.3-12.4-2.3-14.6-2.7
		c-8.1-1.7-16.3-3.4-24.5-4.9c-7.9-1.5-15.9-2.7-23.9-3.8c-2.8-0.4-5.9-0.5-8.6-1.2c1.2,0.3-7.1-1.4-3.3-2.2
		c13.9-3,28.7-2.4,42.6,0.3c8.5,1.6,16.8,4.4,24.6,8.1C1292.8,66.7,1301.6,70.4,1298.8,72.3z"/>
	<path id="Path_6855_00000061466068951779741900000010366198022693935266_" class="st1" d="M1326.9,109.5c-1.8,1.2-11-1.9-13-2.3
		c-7.2-1.6-14.4-3.5-21.6-5.5c-6.9-1.9-13.9-3.8-20.8-6c-1.2-0.4-12.4-4.9-9.9-5.1c12.5-0.9,25.4,1.2,37.4,4.5
		c7.4,2,14.5,4.8,21.2,8.3C1321.7,104.3,1329.6,107.8,1326.9,109.5z"/>
	<path id="Path_6856_00000097468372021636878770000018021978095125442439_" class="st1" d="M1332.7,143c2.7,0.9,28.9,14.2,24.3,17.6
		c-1.1,0.8-9.7-3.6-11.7-4.3c-6.9-2.6-13.8-5.2-20.8-7.5c-5.9-1.9-11.9-3.5-18-5c-1.1-0.3-12.2-3.6-9.7-4.1
		C1308.6,137.3,1321.4,139.1,1332.7,143z"/>
	<path id="Path_6857_00000147903863410847935370000001870813932668420532_" class="st1" d="M1360.9,235.4
		c-2.5,2.3-25.4-6.7-28.6-7.6c-6.5-1.8-13-3.5-19.4-5.3c-1.5-0.4-11.2-3.9-8.9-4.3c10.9-2,22.6-0.5,33.2,2.6
		C1340.3,221.8,1364.9,231.8,1360.9,235.4z"/>
	<path id="Path_6858_00000017476860081592227320000011897212738121695917_" class="st1" d="M1302.2,269.7
		c-7.6-0.7-15.2-1.2-22.9-1.2c-7.4,0-14.9,0.4-22.2,1.2c-1.4,0.1-13.6,0.8-11.6-0.3c11.7-6.7,25.6-9.3,39-8.9
		c8.2,0.2,16.3,1.9,23.9,4.9c1.7,0.7,10.3,3.7,7.6,5.7C1314.2,272.4,1304.3,269.9,1302.2,269.7z"/>
	<path id="Path_6858_00000018206337084298028750000013953054639903452043_" class="st1" d="M1290.5,341.9
		c-7.6-0.7-15.2-1.2-22.9-1.2c-7.4,0-14.9,0.4-22.2,1.2c-1.4,0.1-13.6,0.8-11.6-0.3c11.7-6.7,25.6-9.3,39-8.9
		c8.2,0.2,16.3,1.9,23.9,4.9c1.7,0.7,10.3,3.7,7.6,5.7C1302.5,344.5,1292.6,342.1,1290.5,341.9z"/>
	<path id="Path_6859_00000157305706791536049300000009493806163327242116_" class="st1" d="M1250.2,305.4c1.9,0.3,13.7,2.1,11.3,4.7
		c-1.6,1.7-12.9,1.1-15.3,1.4c-7.2,0.9-14.4,2.4-21.3,4.5c-6.8,2.1-13.4,4.8-19.7,8c-2.6,1.3-5,2.9-7.6,4.2c0.1,0-6.4,3.3-4.6,0.8
		c8.5-11.2,21-18.8,34.6-22.2C1234.9,304.9,1242.6,304.4,1250.2,305.4z"/>
	<path id="Path_6862_00000005986457715958372250000000446261110133053360_" class="st1" d="M1289.4,307.3
		c12.1-3.4,25.7-2.7,37.7,0.5c3.3,0.9,26.1,9.5,22.7,12.9c-0.9,1-10.6-2-11.9-2.3c-6.1-1.3-12.1-2.7-18.2-4
		c-6.1-1.3-12.3-2.3-18.4-3.4C1300.1,310.8,1287.2,307.9,1289.4,307.3z"/>
	<path id="Path_6863_00000152943700695039479610000010546994968246020774_" class="st1" d="M1397.6,284.3
		c-1.9,1.7-12.2-1.4-14.3-1.8c-6.3-1.3-12.4-3-18.5-5.2c-5.7-1.9-11.4-4.2-16.9-6.7c-1.6-0.8-10.4-6.2-8.1-6.1
		c11.1,0.7,22.2,3.6,32.8,6.9C1375.4,272.3,1400.6,281.7,1397.6,284.3z"/>
	<path id="Path_6864_00000104685497057075693960000010418909648394860725_" class="st1" d="M1405.7,253.5c3.3,0.5,27.3,1.4,27.3,4.1
		c0,2.6-10.1,3.9-11.3,4.1c-6.7,0.7-13.5,0.5-20.1-0.6c-6.6-1.1-13.1-3.1-19.2-5.8c-2.6-1.2-6.6-2.7-8.6-4.7c0.5,0.5-5-3.7-1.6-3.2
		C1383.3,249.5,1394.4,252,1405.7,253.5z"/>
	<path id="Path_6865_00000051353456245923223800000010100086986120864152_" class="st1" d="M1422.9,211c-1.9,2-12.9,0.1-15.2-0.2
		c-7-0.9-13.9-2.6-20.5-5.1c-6.2-2.3-12.2-5.2-17.8-8.8c-1.1-0.7-10-8.4-7.6-7.8c12.3,3.5,24.4,7.9,36.6,11.7
		c5.8,1.8,11.7,3.6,17.5,5.6C1418.4,207.3,1425.4,208.3,1422.9,211z"/>
	<path id="Path_6866_00000046334761132527692950000000315094713532663997_" class="st1" d="M1405.9,143c17.5,4.2,25.5,2.1,25.5,4.8
		c0,4.9-7.3,4.8-8.1,4.9c-8.1,0.2-16.3-0.8-24.1-3.1c-7.6-2.1-14.9-5.2-21.6-9.4c-2.1-1.3-5.2-2.8-6.8-4.8c0.7,0.8-5-4.6-1.6-3.5
		C1381.5,135.8,1393.4,140.1,1405.9,143z"/>
	<path id="Path_6867_00000163047153626726116160000014483755940497030821_" class="st1" d="M1394.3,101.1c-8-0.4-15.9-1.8-23.5-4.4
		c-7.4-2.4-14.4-5.7-20.9-9.9c-1.3-0.8-10.4-9-8.1-8.3c12.1,3.9,23.8,8.5,36.1,11.9c3.1,0.9,31.6,7.1,30.8,9.4
		C1407.9,101.9,1395.9,101.2,1394.3,101.1z"/>
	<path id="Path_6868_00000085947373978897837660000012373377018851032710_" class="st1" d="M1319.6,44.1c-1.9,1.2-12.3-2.9-14.5-3.5
		c-8.1-2-16.2-3.9-24.4-5.6c-8-1.6-16-2.8-24-3.8c-2.8-0.4-5.9-0.4-8.7-1.1c1.3,0.3-7.1-1.3-3.4-2.1c14-3.4,29-2.8,43,0.2
		c8.6,1.8,16.8,4.8,24.5,9C1313.7,38.2,1322.5,42.3,1319.6,44.1z"/>
	<path id="Path_6870_00000009557338663490241280000014592783943376473778_" class="st1" d="M1412.9,67c-1.4,1.5-11.2-1.5-12.9-1.9
		c-5.6-1.3-11.1-3.1-16.4-5.2c-5.1-1.9-10.1-4.2-14.9-6.7c-1.4-0.7-9.4-6.2-6.9-6.1c10,0.7,20,3.6,29.3,7
		C1393.9,55.1,1416,63.8,1412.9,67z"/>
	<path id="Path_6871_00000048488150594992046420000007782287253521409976_" class="st1" d="M940.9,53c-5.1,4-11,7-17.2,8.7
		c-7,2-14.3,2.6-21.5,1.6c-1.2-0.2-11.8-3.8-9.2-4.1c10.5-1,20.8-2.6,30.9-6c2.5-0.8,25-10.6,25.3-9.9C950,45.8,942.4,51.7,940.9,53
		z"/>
	<path id="Path_6876_00000062184615688377039330000014995307880524748170_" class="st1" d="M1423.7,342.7
		c-2.7,2.8-21.8-5.2-25.3-6.4c-3.9-1.4-7.8-2.9-11.6-4.6c-0.6-0.3-9.1-4.5-6.3-4.9c8.5-1,17.5,0.8,25.4,3.5
		C1408.9,331.4,1427.1,339.2,1423.7,342.7z"/>
	<path id="Path_6876_00000153702422587417087780000005358471191301994369_" class="st1" d="M1425.1,312.8
		c-2.7,2.8-21.8-5.2-25.3-6.4c-3.9-1.4-7.8-2.9-11.6-4.6c-0.6-0.3-9.1-4.5-6.3-4.9c8.5-1,17.5,0.8,25.4,3.5
		C1410.3,301.5,1428.5,309.2,1425.1,312.8z"/>
	<path id="Path_6882_00000038376305984823216980000012129012360679157694_" class="st1" d="M889.1,321.9c2.9,0.6,21.9,2.2,22.1,5.2
		c0.3,4.6-21.2,3.2-23.7,2.7c-5.4-1-10.6-3-15.3-5.8c-1.7-1-10.7-9.5-8.4-9C872.2,317.4,880.5,320.1,889.1,321.9z"/>
	<path id="Path_6885_00000081649210652532758060000016513942216331333504_" class="st1" d="M862.9,273.7c-5-1.4-9.9-3.5-14.3-6.3
		c-1.1-0.7-9.3-8.1-6.8-7.6c8.5,2,16.8,4.6,25.2,6.6c2.9,0.7,23,4.5,21,7.2C884.6,278.5,867,274.8,862.9,273.7z"/>
	<path id="Path_6886_00000010282540121923904660000010980857439350062780_" class="st1" d="M842.9,218.2c-0.2-0.1-9.7-6.5-6.7-6.5
		c5,0.3,44.2,7.3,42.5,10.7c-2.4,4.7-19.7,1.3-23.8,0.3C850.6,221.7,846.6,220.2,842.9,218.2z"/>
	<path id="Path_6887_00000171682401779530493300000004943785025859770029_" class="st1" d="M884.7,79c-3.4,4.9-17,3.7-21.8,2.9
		c-4.2-0.7-8.2-2.1-12-4c-0.2-0.1-9.4-6.7-6.4-6.5c7.5,0.8,14.9,2.1,22.4,3c4.6,0.5,12.6-0.1,16.8,2C885.9,77.6,886.4,76.6,884.7,79
		z"/>
	<path id="Path_6888_00000043422215134974646170000000957172388133375139_" class="st1" d="M876.6,20.7c5.7,0.9,11.3,1.6,17,2.6
		c2.4,0.4,8.4,0.1,6.7,3.1c-1.2,2-9.8,2.4-11.7,2.6c-6,0.5-12.1,0.1-18-1.2c-5.7-1.2-11.3-3.1-16.5-5.8c-1.4-0.7-10.3-7.3-7.8-7
		C856.4,16.8,866.4,19.2,876.6,20.7z"/>
	<path id="Path_6889_00000031888444409097559380000010008903273484582020_" class="st1" d="M1420.5,33.7c-2.1,0.8-8.8-2.8-11-3.6
		c-5.1-2-10.2-4.2-15.2-6.4c-4.9-2.2-9.8-4.4-14.6-6.7c-1.2-0.6-10.6-5.9-8.1-6c10-0.2,20.3,2.7,29.4,6.8
		C1402.9,18.6,1424.7,32,1420.5,33.7z"/>
	<path id="Path_6895_00000064342126152879003820000010707941567481167515_" class="st1" d="M868.2,157c3.8,0.5,28.4,2,27.2,4.8
		c-0.7,1.8-10.4,2.9-11.8,3.1c-6.4,0.8-12.9,0.7-19.3-0.3c-6.4-1-12.6-2.9-18.5-5.5c-2.5-1.1-6.3-2.6-8.3-4.6
		c0.4,0.4-4.8-3.6-1.5-3.1C846.7,153.3,857.4,155.7,868.2,157z"/>
	<path class="st1" d="M699.5,256.7L699.5,256.7c-0.2-0.1-0.4-0.1-0.6-0.2c-0.1,0-0.2-0.1-0.4-0.1l0,0c-5.5-1.9-11.1-3.4-16.8-4.6
		c-11.3-1.6-23.5-1.3-34.3,2.4c-2.1,0.7,9.6,2.8,11.3,3c6.9,0.7,13.7,1.5,20.5,2.4c1.6,0.2,11.6,2.3,19.5,3.4l0,0c0.1,0,0.1,0,0.2,0
		c0.2,0,0.4,0,0.5,0.1v0c4.4,0.5,8.5,0.7,9-0.1C709.6,261.1,704.8,258.7,699.5,256.7z"/>
	<path class="st1" d="M719,311.1c-5.7-3.9-12-6.8-18.7-8.8c-0.1,0-0.1,0-0.2-0.1v0c0,0-0.1,0-0.1,0c-0.2,0-0.3-0.1-0.5-0.1v0
		c-13.4-3.8-28.5-4.3-41.8,0.1c-2.9,1,4.5,1.9,4.4,1.9c3.4,0.4,6.9,0.4,10.4,0.8c7.5,0.8,15,2.2,22.3,4.2c1.5,0.4,3.5,1,5,1.5
		c6,1.9,11.8,4.1,17.5,6.6c1.7,0.7,10.9,6.4,12.5,5.4C732.4,321.1,720.5,312.1,719,311.1z"/>
	<path id="Path_6898_00000156567691242783776130000018252039865136396162_" class="st1" d="M726.6,288.9c7,1.5,68.7,19,67.5,21.5
		c-0.8,1.8-12.7,0.3-14.3,0.1c-7.9-0.8-15.7-2.5-23.2-5c-7.3-2.3-14.4-5.3-21.2-9C734.2,295.7,724.3,288.4,726.6,288.9z"/>
	<path id="Path_6900_00000113316617876422336000000000627587501960212134_" class="st1" d="M733.2,245.4
		c12.3,2.8,24.4,7.5,36.1,12.2c7.4,2.9,14.6,6.2,21.6,9.9c1.6,0.9,9,3.7,6.3,5.6c-1.9,1.4-11.1-1.7-13.5-2.3
		c-8-2.1-15.9-4.8-23.4-8.2c-6.4-2.8-12.6-5.9-18.6-9.5C740.4,252.4,730.8,244.9,733.2,245.4z"/>
	<path id="Path_6901_00000020356515534796705940000012260026846644785047_" class="st1" d="M759.3,215.8
		c11.8,3.9,23.2,8.9,34.8,13.3c3.2,1.2,25.4,8.4,23.4,11.4c-1.2,1.8-13.4-0.7-15.1-1c-6.7-1.3-13.2-3.4-19.5-6.2
		c-5.9-2.6-11.5-5.8-16.7-9.5C764.6,222.7,757.1,215.1,759.3,215.8z"/>
	<path id="Path_6906_00000123417373995156775360000012931735501853672347_" class="st1" d="M842.4,301.7c-4.2,4.4-18.2,0.8-23.1-0.8
		c-3.7-1.2-7.3-3-10.5-5.2c0.2,0.1-7.7-6.3-4.3-5.9c7.8,1.1,15.6,3.2,23.3,5.1c2.3,0.6,13.9,2.1,15.3,4.6
		C844,301.1,843.6,300.4,842.4,301.7z"/>
	<path id="Path_6906_00000156565197714076672790000007766696009847382670_" class="st1" d="M830.7,337.1c-4.2,4.4-18.2,0.8-23.1-0.8
		c-3.7-1.2-7.3-3-10.5-5.2c0.2,0.1-7.7-6.3-4.3-5.9c7.8,1.1,15.6,3.2,23.3,5.1c2.3,0.6,13.9,2.1,15.3,4.6
		C832.4,336.5,832,335.7,830.7,337.1z"/>
	<path id="Path_6907_00000181072363011792550160000009395396522732593566_" class="st1" d="M808.6,182.7c-5.8-2.6-11.3-5.9-16.2-9.9
		c-1.5-1.3-9.3-10.7-7.2-9.9c9.7,4.5,19.1,9.4,29.1,13.4c3.5,1.4,26.4,8.9,24.6,11.3c-1.1,1.5-10.6,0.3-12,0.1
		C820.6,187,814.5,185.3,808.6,182.7z"/>
	<path id="Path_6908_00000127041314464897689500000006230461978247190719_" class="st1" d="M771.7,107.6c12.3,3,24.4,7.5,36.3,11.6
		c5.7,2,11.5,4,17.1,6.4c2.4,1,9.3,2.4,6.6,5c-2,1.9-12.7-0.7-14.9-1.1c-6.8-1.2-13.5-3.1-19.9-5.7c-6.1-2.4-11.9-5.3-17.5-8.7
		C778.3,114.5,769.2,107.1,771.7,107.6z"/>
	<path id="Path_6909_00000179637914597198988170000012736935239345737612_" class="st1" d="M788.7,79.8c0.6,0.9-4.5-5.2-1.1-3.7
		c11.7,5.3,23.1,10.9,35.4,14.9c3.1,1,31.7,8,31,10.1s-12.9,1.3-14.6,1.2c-8.2-0.5-16.2-2.3-23.8-5.4c-7.4-2.9-14.3-6.8-20.6-11.6
		C792.9,83.8,790.1,81.9,788.7,79.8z"/>
	<path id="Path_6910_00000116206358841970666730000002619709502196302734_" class="st1" d="M804.2,37.7c-4-2.5-11-6.6-13.2-11.2
		c-2.6-5.5,1.6-4.5,1.3-4c2.2,5.3,16.4,9.3,21.4,11.3c3.8,1.6,31.3,9.8,30.1,12.1c-1.2,2.5-14.8,0.6-17,0.3
		C818.8,44.9,811.1,42,804.2,37.7z"/>
	<path id="Path_6913_00000072263998304459400520000007947366435513796003_" class="st1" d="M719.8,32.6c12-1.9,24.9,1.2,35.6,6.7
		c2.5,1.3,22.7,14.9,18,17.5c-1.4,0.7-10.7-5.1-12.4-6c-5.4-2.6-10.8-5.2-16.4-7.6c-5.3-2.2-10.6-4.1-16.1-6
		C727.5,37,717.2,33.1,719.8,32.6z"/>
	<path class="st1" d="M724.8,187.7c-7.9-3.2-16.4-4.9-24.9-5.1l0,0c0,0-0.1,0-0.2,0c-0.1,0-0.2,0-0.3,0v0c-2.9,0-6.2,0.2-9.1,0.7
		c-2.7,0.5,7.6,4.2,8.4,4.5c0.2,0.1,1.1,0.3,1.3,0.4l0,0c5.7,1.8,11.4,3.5,17,5.4c3.8,1.3,24,10.9,26.9,8.6
		C747.9,199.2,727.8,188.8,724.8,187.7z"/>
	<path class="st1" d="M706.7,216.3c-2.1-0.8-4.3-1.4-6.6-2l0,0c-0.1,0-0.3-0.1-0.4-0.1c-0.1,0-0.2,0-0.2-0.1v0
		c-7.2-1.8-15.2-2.4-22.5-1.4c-2.6,0.5,5.8,4.1,7,4.6c4.5,1.7,9.1,3.1,13.7,4.6c0.5,0.1,1.5,0.5,2.2,0.8c6.4,2.3,19.9,7.8,23.9,5.6
		C727.7,226.1,708.9,217,706.7,216.3z"/>
	<path id="Path_6916_00000051371244509643070200000009212973517276889526_" class="st1" d="M709,156.7c12.1-12,51.6,19.5,49.2,21.8
		c-2.6,2.5-24.4-10.6-27.3-12.1c-4.1-2.1-8.1-4.3-12.3-6.2C717.6,159.8,708.4,157.4,709,156.7z"/>
	<path id="Path_6917_00000153668411517586281860000014343412665792896427_" class="st1" d="M767.6,142.7c-2.1,0.9-9-2.5-11.2-3.3
		c-5.2-1.8-10.4-3.8-15.5-5.8c-5-2-10-3.9-15-6c-1.2-0.5-10.9-5.3-8.4-5.6c10-0.7,20.5,1.7,29.8,5.4
		C749.3,128.3,771.8,141,767.6,142.7z"/>
	<path class="st1" d="M699.5,74.4L699.5,74.4c-0.2-0.1-0.4-0.2-0.5-0.3c-0.1,0-0.2-0.1-0.2-0.1l0,0c-5.5-2.9-11.1-5.5-16.9-7.6
		c-9.7-2.5-20.3-3.7-30.2-1.7c-2.5,0.5,7.8,4.1,9,4.5c5.2,1.5,10.4,2.8,15.6,4.1c5.3,1.4,10.7,2.8,16.1,3.9c1.3,0.3,4.1,1.2,6.6,1.7
		l0,0c0,0,0.1,0,0.1,0c0.2,0,0.3,0.1,0.5,0.1v0c1.7,0.3,3.6,0.5,4.3,0.1C705.1,78.2,702.6,76.3,699.5,74.4z"/>
	<path id="Path_6919_00000049937317651298483410000017388310885711855764_" class="st1" d="M723.5,70.7c10.2,0.6,20.4,3.8,29.8,7.7
		c2.9,1.2,24.7,11.6,21.2,14.7s-25.2-7.5-29-9.2c-5-2.2-10-4.5-14.9-7.1C729.3,76.1,721,70.6,723.5,70.7z"/>
	<path class="st1" d="M765.6,2.4c4.2,2.6,16.3,8.8,21.3,5.6c2.5-1.6,1.7-0.9,0-2.9c-1.7-2-4.9-3.7-8.1-5.1h-16.6
		C763.3,0.9,764.4,1.7,765.6,2.4z"/>
	<path class="st1" d="M752.6,330.7c-2.7-1.3,3.3,8.3,3.5,8.5c1.8,2.2,3.9,4.1,6.1,5.9h16.6c-2.5-1.1-4.9-2.1-6.7-3.1
		C765.6,338.3,759.2,334.3,752.6,330.7z"/>
	<path class="st1" d="M1083.8,335.2c3-2.5,14.8-11.3,14.6-15.8c-0.2-3.4-10.4,4.8-12.1,5.9c-6.7,4.4-13.6,8.6-20.6,12.6
		c-4.7,2.6-9.4,5-14.2,7.2h17.9C1074.5,342.2,1079.3,338.9,1083.8,335.2z"/>
	<path class="st1" d="M1030.9,12.6c4.2-0.4,8.3-1.1,12.3-2.2c7.5-1.9,14.8-4.6,21.7-8c1.5-0.8,3-1.5,4.5-2.4h-17.9
		c-8.7,4-17.6,7.6-26.5,11.3C1022.5,12.3,1030.1,12.7,1030.9,12.6z"/>
	<path class="st1" d="M1024.9,310.4c-0.7-0.8-17.9,13.8-20.6,15.6c-9.9,6.8-20.7,12.4-32,16.6c-2.3,0.9-4.7,1.6-7,2.4h21.9
		c7-3.5,13.6-7.9,19.6-12.9C1008.9,330.4,1027.5,313.4,1024.9,310.4z"/>
	<path class="st1" d="M906.3,5c-3.3-0.3,2.9,2.8,2.7,2.7c2,1.1,4.7,1.4,6.9,1.9c5,1.1,10.1,1.8,15.2,2.1c13.3,0.8,26.7-0.9,39.4-5
		c5.7-1.8,11.3-4,16.6-6.7h-21.9C946.2,5.8,926.2,7.2,906.3,5z"/>
	<path class="st1" d="M708.1,340.8c-2.1-0.8-4.3-1.4-6.6-2l0,0c-0.1,0-0.3-0.1-0.4-0.1c-0.1,0-0.2,0-0.2-0.1v0
		c-7.2-1.8-15.2-2.4-22.5-1.4c-2.6,0.5,5.8,4.1,7,4.6c3.1,1.1,6.2,2.2,9.3,3.2h22C712.9,342.9,709,341.1,708.1,340.8z"/>
	<path class="st1" d="M701.3,2.2c6.4,2.3,19.9,7.8,23.9,5.6c2.3-1.3-3.1-4.8-8.5-7.7h-22c1.5,0.5,3,1,4.4,1.4
		C699.6,1.6,700.6,1.9,701.3,2.2z"/>
	<path class="st1" d="M293.6,337.9c-8.3-1.5-17.5-1.7-25.5,0.9c-2.7,0.9,6.3,3.5,7,3.6c4,1,8,1.8,12,2.5c0.1,0,0.3,0.1,0.5,0.1h24.4
		C308.2,341.6,296,338.3,293.6,337.9z"/>
	<path class="st1" d="M312.6,2.7c0.7-0.9,0.3-1.8-0.7-2.7h-24.4C292.2,1,310.5,5.5,312.6,2.7z"/>
	<path class="st1" d="M132.4,330.9c-6.4,2.6-12.7,5.4-19.1,7.9c-5.8,2.3-11.7,4.3-17.7,6.2h23.6c3.5-1.6,6.8-3.4,10-5.5
		c1.9-1.3,11.3-7,11.3-9.8C140.5,326,134.8,329.9,132.4,330.9z"/>
	<path class="st1" d="M80.8,4.9c-3.2,1.2,3.7,2.2,3,2C85.9,7.4,89,7,91.2,6.9c6.5-0.4,13-1.6,19.2-3.6c3-0.9,5.9-2,8.8-3.3H95.6
		C90.7,1.6,85.7,3.2,80.8,4.9z"/>
</g>
</svg>
