<?xml version="1.0" standalone="no"?>
<!DOCTYPE svg PUBLIC "-//W3C//DTD SVG 1.1//EN" "http://www.w3.org/Graphics/SVG/1.1/DTD/svg11.dtd" >
<svg xmlns="http://www.w3.org/2000/svg">
<metadata>Generated by IcoMoon</metadata>
<defs>
<font id="icomoon" horiz-adv-x="1024">
<font-face units-per-em="1024" ascent="960" descent="-64" />
<missing-glyph horiz-adv-x="1024" />
<glyph unicode="&#x20;" horiz-adv-x="512" d="" />
<glyph unicode="&#xe900;" glyph-name="icon-check" horiz-adv-x="1359" d="M1157.856 926.536l-696.052-696.052-254.327 254.327c-46.85 46.85-120.471 46.85-167.32 0s-46.85-120.471 0-167.32l341.333-341.333c26.771-20.078 53.542-33.464 87.007-33.464s60.235 13.386 87.007 33.464l769.673 776.366c46.85 46.85 46.85 120.471 0 167.32-46.85 53.542-120.471 53.542-167.32 6.693z" />
<glyph unicode="&#xe901;" glyph-name="mail-envelope-closed" d="M170.080 663.235l247.52-215.235-247.581-215.287c-6.206 5.878-10.019 14.235-10.019 23.507v383.562c0 9.253 3.874 17.582 10.080 23.454zM885.981 663.287c6.206-5.878 10.019-14.235 10.019-23.507v-383.562c0-9.252-3.874-17.582-10.080-23.454l-247.52 215.235 247.581 215.287zM614.459 427.181l233.541-203.181h-640l233.541 203.181 86.459-75.181 86.459 75.181zM192.115 704c-35.41 0-64.115-28.624-64.115-63.81v-384.38c0-35.241 28.472-63.81 64.115-63.81h671.77c35.41 0 64.115 28.624 64.115 63.81v384.38c0 35.241-28.472 63.81-64.115 63.81h-671.77zM528 393.6l-320 278.4h640l-320-278.4z" />
<glyph unicode="&#xe902;" glyph-name="mail-envelope-closed2" d="M829.538 285.538l-25.846-25.846-191.692 164.308-84-72-84 72-191.692-164.308-25.846 25.846 189.538 162.462-189.538 162.462 25.846 25.846 275.692-236.308 275.692 236.308 25.846-25.846-189.538-162.462 189.538-162.462zM192.115 704c-35.41 0-64.115-28.624-64.115-63.81v-384.38c0-35.241 28.472-63.81 64.115-63.81h671.77c35.41 0 64.115 28.624 64.115 63.81v384.38c0 35.241-28.472 63.81-64.115 63.81h-671.77z" />
<glyph unicode="&#xe903;" glyph-name="icon-phone" horiz-adv-x="653" d="M18.985 751.166c-2.373-11.866-7.119-24.918-9.492-37.97-13.052-59.328-11.866-119.842-3.56-180.357 14.239-98.484 45.089-192.222 85.432-283.587 26.104-58.141 55.768-112.723 94.925-162.559 43.903-56.955 97.298-103.231 164.932-130.521 48.649-18.985 98.484-24.918 149.506-16.612 40.343 5.933 78.313 23.731 116.283 39.156 27.291 11.866 39.156 35.597 34.41 66.447-2.373 11.866-4.746 22.545-9.492 33.224-14.239 30.851-28.477 60.514-45.089 90.178-9.492 16.612-20.171 32.037-33.224 47.462-28.477 33.224-62.888 42.716-104.417 28.477-22.545-8.306-45.089-17.798-67.634-27.291-23.731-10.679-47.462-9.492-68.82 5.933-24.918 16.612-41.53 40.343-55.768 66.447-30.851 55.768-53.395 116.283-68.82 179.17-8.306 33.224-14.239 66.447-8.306 100.857 4.746 32.037 21.358 52.209 53.395 61.701 21.358 7.119 42.716 14.239 64.074 21.358 30.851 9.492 53.395 29.664 60.514 61.701 3.56 16.612 5.933 34.41 3.56 51.022-4.746 35.597-11.866 71.194-18.985 106.79-3.56 17.798-10.679 34.41-17.798 49.835-15.425 33.224-43.903 45.089-79.499 34.41-15.425-4.746-30.851-11.866-47.462-16.612-60.514-20.171-110.35-55.768-145.947-107.977-11.866-16.612-20.171-35.597-30.851-53.395-3.56-8.306-7.119-16.612-11.866-27.291z" />
<glyph unicode="&#xe904;" glyph-name="icon-map" horiz-adv-x="802" d="M756.4 738.799c-99.271 197.463-339.895 277.311-537.357 178.040s-274.074-348.527-178.040-537.357c45.319-89.56 234.15-322.63 317.235-425.138 20.502-25.897 59.347-25.897 80.927 0 83.085 102.508 269.758 335.579 318.314 425.138 60.426 110.061 58.268 241.703-1.079 359.317zM399.241 349.269c-115.456 0-208.253 93.876-208.253 208.253 0 115.456 92.797 208.253 208.253 208.253s208.253-93.876 208.253-208.253c1.079-114.377-92.797-208.253-208.253-208.253z" />
<glyph unicode="&#xe905;" glyph-name="icon-search" horiz-adv-x="1026" d="M766.831 265.644c59.616 74.813 92.347 169.498 92.347 265.352 0 236.128-192.877 429.005-430.174 429.005s-429.005-192.877-429.005-429.005 192.877-429.005 429.005-429.005c94.685 0 189.37 32.731 265.352 92.347l258.338-258.338 73.644 73.644-259.507 256zM429.005 203.689c-178.849 0-324.968 146.119-324.968 324.968s146.119 324.968 324.968 324.968 324.968-146.119 324.968-324.968-146.119-324.968-324.968-324.968z" />
<glyph unicode="&#xe906;" glyph-name="keyboard_arrow_down" d="M316 604.667l196-196 196 196 60-60-256-256-256 256z" />
<glyph unicode="&#xe907;" glyph-name="arrow_drop_down" d="M298 512.667h428l-214-214z" />
<glyph unicode="&#xe908;" glyph-name="cancel" d="M626.784 447.968l195.072-195.072c12.672-12.672 12.672-33.248 0-45.92l-68.832-68.832c-12.672-12.672-33.216-12.672-45.92 0l-195.104 195.072-195.104-195.072c-12.672-12.672-33.216-12.672-45.888 0l-68.864 68.832c-12.672 12.672-12.672 33.216 0 45.92l195.104 195.072-195.104 195.104c-12.672 12.672-12.672 33.248 0 45.92l68.896 68.832c12.672 12.672 33.216 12.672 45.888 0l195.072-195.104 195.104 195.104c12.672 12.672 33.216 12.672 45.92 0l68.832-68.864c12.672-12.672 12.672-33.216 0-45.92l-195.072-195.072z" />
<glyph unicode="&#xe909;" glyph-name="tag" d="M0 455.764v408.236c0 53.020 42.98 96 96 96h408.236c26.51 0 50.509-10.745 67.882-28.118l423.764-423.764c37.49-37.49 37.49-98.274 0-135.764l-408.236-408.236c-37.49-37.49-98.274-37.49-135.764 0l-423.764 423.764c-17.373 17.373-28.118 41.372-28.118 67.882v0zM224 832c-53.020 0-96-42.98-96-96s42.98-96 96-96 96 42.98 96 96-42.98 96-96 96z" />
<glyph unicode="&#xe90a;" glyph-name="chevron-right" d="M669.867 456.534l-256 256c-17.067 17.067-42.667 17.067-59.733 0s-17.067-42.667 0-59.733l226.133-226.133-226.133-226.133c-17.067-17.067-17.067-42.667 0-59.733 8.533-8.533 17.067-12.8 29.867-12.8s21.333 4.267 29.867 12.8l256 256c17.067 17.067 17.067 42.667 0 59.733z" />
<glyph unicode="&#xe90b;" glyph-name="chevron-left" d="M443.733 426.667l226.133 226.133c17.067 17.067 17.067 42.667 0 59.733s-42.667 17.067-59.733 0l-256-256c-17.067-17.067-17.067-42.667 0-59.733l256-256c8.533-8.533 21.333-12.8 29.867-12.8s21.333 4.267 29.867 12.8c17.067 17.067 17.067 42.667 0 59.733l-226.133 226.133z" />
<glyph unicode="&#xe90c;" glyph-name="chevron-down" d="M797.867 584.534c-17.067 17.067-42.667 17.067-59.733 0l-226.133-226.133-226.133 226.133c-17.067 17.067-42.667 17.067-59.733 0s-17.067-42.667 0-59.733l256-256c8.533-8.533 21.333-12.8 29.867-12.8s21.333 4.267 29.867 12.8l256 256c17.067 17.067 17.067 42.667 0 59.733z" />
<glyph unicode="&#xe90d;" glyph-name="chevron-up" d="M797.867 328.534l-256 256c-17.067 17.067-42.667 17.067-59.733 0l-256-256c-17.067-17.067-17.067-42.667 0-59.733s42.667-17.067 59.733 0l226.133 226.133 226.133-226.133c8.533-8.533 21.333-12.8 29.867-12.8s21.333 4.267 29.867 12.8c17.067 17.067 17.067 42.667 0 59.733z" />
<glyph unicode="&#xe90e;" glyph-name="tag2" horiz-adv-x="1280" d="M995.882 508.118l-423.764 423.764c-17.373 17.373-41.372 28.118-67.882 28.118h-408.236c-53.020 0-96-42.98-96-96v-408.236c0-26.51 10.745-50.509 28.118-67.882l423.764-423.764c37.488-37.49 98.272-37.492 135.764 0l408.236 408.236c37.49 37.49 37.49 98.274 0 135.764zM224 640c-53.020 0-96 42.98-96 96s42.98 96 96 96 96-42.98 96-96-42.98-96-96-96zM1251.882 372.354l-408.236-408.236c-37.49-37.49-98.274-37.49-135.764 0l-0.72 0.72 348.118 348.118c33.998 33.998 52.72 79.2 52.72 127.28s-18.724 93.282-52.72 127.28l-392.486 392.484h97.442c26.51 0 50.509-10.745 67.882-28.118l423.764-423.764c37.49-37.49 37.49-98.274 0-135.764z" />
<glyph unicode="&#xe90f;" glyph-name="chevron-with-circle-up" d="M530.381 574.208c-10.189 10.035-26.624 10.035-36.71 0l-146.637-143.718c-10.189-9.984-10.138-26.317 0-36.352 10.086-10.035 26.522-10.035 36.71 0l128.256 117.862 128.307-117.862c10.138-10.035 26.522-10.035 36.762 0 10.086 10.035 10.086 26.368 0 36.352l-146.688 143.718zM512 952.32c-271.462 0-491.52-220.058-491.52-491.52 0-271.514 220.058-491.52 491.52-491.52s491.52 220.006 491.52 491.52c0 271.462-220.058 491.52-491.52 491.52zM512 33.075c-236.288 0-427.725 191.488-427.725 427.725s191.437 427.725 427.725 427.725c236.186 0 427.725-191.488 427.725-427.725s-191.539-427.725-427.725-427.725z" />
<glyph unicode="&#xe910;" glyph-name="chevron-with-circle-right" d="M563.2 460.8l-117.862 128.307c-10.035 10.138-10.035 26.573 0 36.762 10.035 10.086 26.368 10.086 36.352 0l143.718-146.637c10.035-10.189 10.035-26.624 0-36.71l-143.718-146.637c-9.984-10.189-26.317-10.138-36.352 0-10.035 10.086-10.035 26.522 0 36.71l117.862 128.205zM512 952.32c271.462 0 491.52-220.058 491.52-491.52 0-271.514-220.058-491.52-491.52-491.52s-491.52 220.006-491.52 491.52c0 271.462 220.058 491.52 491.52 491.52zM512 33.075c236.186 0 427.725 191.488 427.725 427.725s-191.539 427.725-427.725 427.725c-236.288 0-427.725-191.488-427.725-427.725-0.051-236.237 191.437-427.725 427.725-427.725z" />
<glyph unicode="&#xe911;" glyph-name="chevron-with-circle-left" d="M578.662 625.869c-10.035 10.086-26.368 10.086-36.352 0l-143.718-146.688c-10.035-10.189-10.035-26.624 0-36.71l143.718-146.637c9.984-10.189 26.317-10.138 36.352 0 10.035 10.086 10.035 26.522 0 36.71l-117.862 128.256 117.862 128.307c10.035 10.138 10.035 26.522 0 36.762zM512 952.32c-271.462 0-491.52-220.058-491.52-491.52 0-271.514 220.058-491.52 491.52-491.52s491.52 220.006 491.52 491.52c0 271.462-220.058 491.52-491.52 491.52zM512 33.075c-236.288 0-427.725 191.488-427.725 427.725s191.437 427.725 427.725 427.725c236.186 0 427.725-191.488 427.725-427.725s-191.539-427.725-427.725-427.725z" />
<glyph unicode="&#xe912;" glyph-name="chevron-with-circle-down" d="M640.256 527.462l-128.256-117.862-128.307 117.862c-10.138 10.035-26.522 10.035-36.762 0-10.086-10.035-10.086-26.368 0-36.352l146.637-143.718c10.189-10.035 26.624-10.035 36.71 0l146.637 143.718c10.189 9.984 10.138 26.317 0 36.352-10.086 10.035-26.47 10.035-36.659 0zM512 952.32c-271.462 0-491.52-220.058-491.52-491.52 0-271.514 220.058-491.52 491.52-491.52s491.52 220.006 491.52 491.52c0 271.462-220.058 491.52-491.52 491.52zM512 33.075c-236.288 0-427.725 191.488-427.725 427.725s191.437 427.725 427.725 427.725c236.186 0 427.725-191.488 427.725-427.725s-191.539-427.725-427.725-427.725z" />
<glyph unicode="&#xe913;" glyph-name="calendar-alt" horiz-adv-x="896" d="M872 640h-848c-13.2 0-24 10.8-24 24v72c0 53 43 96 96 96h96v104c0 13.2 10.8 24 24 24h80c13.2 0 24-10.8 24-24v-104h256v104c0 13.2 10.8 24 24 24h80c13.2 0 24-10.8 24-24v-104h96c53 0 96-43 96-96v-72c0-13.2-10.8-24-24-24zM24 576h848c13.2 0 24-10.8 24-24v-520c0-53-43-96-96-96h-704c-53 0-96 43-96 96v520c0 13.2 10.8 24 24 24zM256 168c0 13.2-10.8 24-24 24h-80c-13.2 0-24-10.8-24-24v-80c0-13.2 10.8-24 24-24h80c13.2 0 24 10.8 24 24v80zM256 424c0 13.2-10.8 24-24 24h-80c-13.2 0-24-10.8-24-24v-80c0-13.2 10.8-24 24-24h80c13.2 0 24 10.8 24 24v80zM512 168c0 13.2-10.8 24-24 24h-80c-13.2 0-24-10.8-24-24v-80c0-13.2 10.8-24 24-24h80c13.2 0 24 10.8 24 24v80zM512 424c0 13.2-10.8 24-24 24h-80c-13.2 0-24-10.8-24-24v-80c0-13.2 10.8-24 24-24h80c13.2 0 24 10.8 24 24v80zM768 168c0 13.2-10.8 24-24 24h-80c-13.2 0-24-10.8-24-24v-80c0-13.2 10.8-24 24-24h80c13.2 0 24 10.8 24 24v80zM768 424c0 13.2-10.8 24-24 24h-80c-13.2 0-24-10.8-24-24v-80c0-13.2 10.8-24 24-24h80c13.2 0 24 10.8 24 24v80z" />
<glyph unicode="&#xe914;" glyph-name="facebook1" d="M1024 448c0-282.77-229.23-512-512-512v0c-282.77 0-512 229.23-512 512v0c0 282.77 229.23 512 512 512v0c282.77 0 512-229.23 512-512v0zM676.379 776.724h-104.421c-98.493 0-142.215-43.352-142.215-126.451v-78.989h-82.189v-123.284h82.189v-328.724h123.284v328.724h113.549l9.768 123.284h-123.284v45.507c0 26.173 18.931 36.547 44.227 36.547h79.057z" />
<glyph unicode="&#xe915;" glyph-name="icon-phone1" horiz-adv-x="1020" d="M648.446 237.692c-14.515 0.339-27.882 4.98-38.95 12.69l0.232-0.153c-116.287 68.588-211.108 161.992-279.363 273.43l-1.987 3.49c-12.31 15.438-19.752 35.23-19.752 56.761 0 2.883 0.133 5.735 0.394 8.55l-0.027-0.361c7.955 43.3 62.634 60.419 78.595 101.353 2.239 8.414 3.525 18.073 3.525 28.033 0 30.108-11.75 57.471-30.915 77.754l0.051-0.054c-38.067 51.647-84.63 94.568-138.017 127.485l-2.105 1.208c-24.239 16.524-53.285 27.867-84.64 31.774l-0.954 0.097c-137.805 6.847-146.012-223.248-127.585-313.222 24.287-98.77 66.034-185.316 122.183-260.475l-1.345 1.882c124.825-189.561 302.511-335.305 512.036-417.76l7.365-2.554c46.761-19.438 101.076-30.728 158.028-30.728 26.686 0 52.793 2.479 78.104 7.218l-2.613-0.407c40.523 8.388 75.505 28.164 102.472 55.797l0.039 0.040c22.639 23.040 36.614 54.657 36.614 89.538 0 6.585-0.498 13.054-1.459 19.371l0.089-0.709c-10.645 40.119-32.216 74.242-61.318 100.064l-0.208 0.182c-39.284 40.195-82.524 76.208-129.189 107.509l-2.927 1.849c-8.028 5.998-17.623 10.379-28.048 12.462l-0.45 0.075c-11.935-0.026-22.985-3.792-32.047-10.188l0.176 0.118c-29.42-16.622-54.824-35.498-77.61-57.108l0.173 0.163c-9.014-10.753-21.026-18.721-34.747-22.636l-0.497-0.121c-0.806-1.309-2.165-2.417-3.323-2.417z" />
<glyph unicode="&#xe916;" glyph-name="icon-sms" horiz-adv-x="1153" d="M1153.305 242.443v589.207c-0.068 70.859-57.492 128.283-128.344 128.35h-896.133c-0.071 0-0.155 0-0.239 0-70.934 0-128.453-57.435-128.589-128.338v-848.605c0-0.025 0-0.056 0-0.086 0-19.839 12.199-36.828 29.505-43.876l0.317-0.114c4.996-2.115 10.805-3.345 16.901-3.345 0.223 0 0.446 0.002 0.668 0.005h-0.034c0 0 0 0 0 0 13.423 0 25.532 5.627 34.096 14.651l0.019 0.021 154.414 162.943h789.069c70.951 0.305 128.351 57.892 128.351 128.886 0 0.105 0 0.211 0 0.316v-0.016zM314.494 690.953h261.949c26.073-0.201 47.155-21.283 47.356-47.337v-0.019c-0.201-26.073-21.283-47.155-47.337-47.356h-261.968c-26.073 0.201-47.155 21.283-47.356 47.337v0.019c0.201 26.073 21.283 47.155 47.337 47.356h0.019zM838.81 383.079h-524.316c-26.073 0.201-47.155 21.283-47.356 47.337v0.019c0.201 26.073 21.283 47.155 47.337 47.356h524.335c26.073-0.201 47.155-21.283 47.356-47.337v-0.019c-0.201-26.073-21.283-47.155-47.337-47.356h-0.019z" />
<glyph unicode="&#xe917;" glyph-name="arrow-thin-right" d="M828.006 512l-310.835 310.835 72.397 72.397 434.432-434.432-434.432-434.432-72.397 72.397 310.835 310.835h-828.006v102.4z" />
<glyph unicode="&#xe918;" glyph-name="arrow-thin-left" d="M195.994 512l310.835 310.835-72.397 72.397-434.432-434.432 434.432-434.432 72.397 72.397-310.835 310.835h828.006v102.4h-828.006z" />
<glyph unicode="&#xe919;" glyph-name="instagram1" d="M512 867.715c136.704 0 152.904-0.513 206.926-2.969 138.757-6.304 203.554-72.164 209.894-209.894 2.492-53.985 2.932-70.185 2.932-206.889s-0.513-152.904-2.932-206.889c-6.34-137.584-70.991-203.554-209.894-209.894-54.022-2.492-70.148-2.969-206.926-2.969s-152.904 0.513-206.889 2.969c-139.27 6.34-203.554 72.494-209.894 209.931-2.492 53.985-2.969 70.148-2.969 206.889s0.55 152.83 3.042 206.889c6.304 137.694 70.954 203.554 209.821 209.821 54.059 2.492 70.185 3.005 206.889 3.005zM512 960c-139.050 0-156.495-0.586-211.067-3.079-185.962-8.539-289.278-111.709-297.818-297.818-2.529-54.608-3.115-72.054-3.115-211.104s0.586-156.495 3.079-211.104c8.539-185.815 111.709-289.315 297.818-297.854 54.645-2.492 72.054-3.079 211.104-3.079s156.495 0.586 211.104 3.079c185.779 8.539 289.535 111.709 297.781 297.818 2.529 54.608 3.115 72.054 3.115 211.104s-0.586 156.459-3.079 211.067c-8.356 185.815-111.636 289.315-297.744 297.854-54.682 2.529-72.127 3.115-211.177 3.115zM512 710.78c-145.21 0-262.927-117.716-262.927-262.927s117.716-262.927 262.927-262.927c145.21 0 262.927 117.716 262.927 262.927v0c0 145.21-117.716 262.927-262.927 262.927v0zM512 277.211c-94.263 0-170.679 76.416-170.679 170.679s76.416 170.679 170.679 170.679c94.263 0 170.679-76.416 170.679-170.679v0c-0.042-94.212-76.425-170.569-170.642-170.569-0.013 0-0.026 0-0.039 0h0.002zM785.335 782.614c-0.044 0-0.095 0-0.147 0-33.924 0-61.425-27.501-61.425-61.425s27.501-61.425 61.425-61.425c33.924 0 61.425 27.501 61.425 61.425 0 0.026 0 0.051 0 0.077v-0.004c0 0 0 0 0 0 0 33.88-27.413 61.357-61.269 61.462h-0.010z" />
<glyph unicode="&#xe91a;" glyph-name="close1" horiz-adv-x="1025" d="M905.26-64c-32.645 0.027-62.182 13.31-83.524 34.756l-787.040 787.104c-21.415 21.431-34.66 51.030-34.66 83.722 0 65.416 53.030 118.446 118.446 118.446 32.724 0 62.348-13.27 83.785-34.723l786.522-786.971c21.407-21.435 34.645-51.033 34.645-83.722 0-65.328-52.871-118.307-118.157-118.482h-0.017zM119.703-63.422c-65.331 0.139-118.238 53.132-118.238 118.482 0 32.721 13.264 62.344 34.709 83.786l787.099 786.521c21.431 21.415 51.030 34.66 83.722 34.66 65.416 0 118.446-53.030 118.446-118.446 0-32.724-13.27-62.348-34.723-83.785l-787.1-786.522c-21.401-21.436-50.986-34.697-83.667-34.697-0.087 0-0.174 0-0.26 0h0.013z" />
<glyph unicode="&#xe91b;" glyph-name="hamburger" horiz-adv-x="1207" d="M1151.982 850.308h-1097.111c-29.592 0.91-53.234 25.117-53.234 54.846s23.642 53.936 53.151 54.844l0.084 0.002h1097.111c0.487 0.016 1.061 0.024 1.636 0.024 30.304 0 54.87-24.566 54.87-54.87s-24.566-54.87-54.87-54.87c-0.575 0-1.148 0.009-1.719 0.026l0.084-0.002zM1151.982 393.154h-1097.111c-0.487-0.016-1.061-0.024-1.636-0.024-30.304 0-54.87 24.566-54.87 54.87s24.566 54.87 54.87 54.87c0.575 0 1.148-0.009 1.719-0.026l-0.084 0.002h1097.111c0.487 0.016 1.061 0.024 1.636 0.024 30.304 0 54.87-24.566 54.87-54.87s-24.566-54.87-54.87-54.87c-0.575 0-1.148 0.009-1.719 0.026l0.084-0.002zM1151.982-63.951h-1097.111c-29.592 0.91-53.234 25.117-53.234 54.846s23.642 53.936 53.151 54.844l0.084 0.002h1097.111c0.487 0.016 1.061 0.024 1.636 0.024 30.304 0 54.87-24.566 54.87-54.87s-24.566-54.87-54.87-54.87c-0.575 0-1.148 0.009-1.719 0.026l0.084-0.002z" />
<glyph unicode="&#xe91c;" glyph-name="arrow-right" horiz-adv-x="1355" d="M50.869 397.131h1131.1l-374.457-374.694c-9.194-9.194-14.88-21.895-14.88-35.924 0-28.058 22.746-50.804 50.804-50.804 14.029 0 26.73 5.686 35.924 14.88l461.21 461.21c9.197 9.192 14.886 21.894 14.886 35.924s-5.689 26.731-14.886 35.923v0l-461.131 461.526c-9.194 9.194-21.895 14.88-35.924 14.88-28.058 0-50.804-22.746-50.804-50.804 0-14.029 5.686-26.73 14.88-35.924l374.378-374.536h-1131.1c-0.597 0.025-1.298 0.039-2.003 0.039-28.094 0-50.869-22.775-50.869-50.869s22.775-50.869 50.869-50.869c0.704 0 1.405 0.014 2.102 0.043l-0.1-0.003z" />
<glyph unicode="&#xe91d;" glyph-name="check" horiz-adv-x="1331" d="M1300.46 929.059c-19.119 19.121-45.534 30.948-74.71 30.948s-55.591-11.827-74.71-30.948l-737.906-738.016-232.691 232.691c-19.044 18.687-45.163 30.222-73.977 30.222-58.349 0-105.651-47.302-105.651-105.651 0-28.82 11.54-54.946 30.251-74.007l307.247-307.357c19.122-19.114 45.536-30.936 74.71-30.936s55.588 11.822 74.71 30.937l812.725 812.753c19.105 19.117 30.92 45.52 30.92 74.682s-11.816 55.566-30.921 74.683l0.001-0.001z" />
<glyph unicode="&#xe91e;" glyph-name="add2" d="M810 384.667h-256v-256h-84v256h-256v84h256v256h84v-256h256v-84z" />
<glyph unicode="&#xe91f;" glyph-name="close" d="M810 664.667l-238-238 238-238-60-60-238 238-238-238-60 60 238 238-238 238 60 60 238-238 238 238z" />
<glyph unicode="&#xe920;" glyph-name="menu" d="M128 682.667h768v-86h-768v86zM128 384.667v84h768v-84h-768zM128 170.667v86h768v-86h-768z" />
<glyph unicode="&#xe921;" glyph-name="plus2" d="M810.667 469.334h-256v256c0 25.6-17.067 42.667-42.667 42.667s-42.667-17.067-42.667-42.667v-256h-256c-25.6 0-42.667-17.067-42.667-42.667s17.067-42.667 42.667-42.667h256v-256c0-25.6 17.067-42.667 42.667-42.667s42.667 17.067 42.667 42.667v256h256c25.6 0 42.667 17.067 42.667 42.667s-17.067 42.667-42.667 42.667z" />
<glyph unicode="&#xe922;" glyph-name="plus" d="M511.983 960c59.828-0.137 108.29-48.6 108.428-108.414v-295.106h295.093c59.892 0 108.445-48.552 108.445-108.445s-48.552-108.445-108.445-108.445h-295.093v-295.093c0-59.892-48.552-108.445-108.445-108.445s-108.445 48.552-108.445 108.445v0 295.093h-295.093c-59.892 0-108.445 48.552-108.445 108.445s48.552 108.445 108.445 108.445h295.093v295.058c0.118 59.855 48.608 108.345 108.451 108.462h0.011z" />
<glyph unicode="&#xe923;" glyph-name="arrow-link" d="M1024 448c0 282.77-229.23 512-512 512s-512-229.23-512-512c0-282.77 229.23-512 512-512v0c282.77 0 512 229.23 512 512v0zM401.12 209.408c-11.073 11.048-17.923 26.324-17.923 43.2s6.85 32.152 17.922 43.199l0.001 0.001 153.6 151.872-153.6 151.872c-11.073 11.048-17.923 26.324-17.923 43.2s6.85 32.152 17.922 43.199l0.001 0.001c11.224 11.039 26.632 17.855 43.632 17.855s32.408-6.815 43.64-17.863l-0.008 0.008 196.992-195.2c11.081-11.045 17.936-26.322 17.936-43.2s-6.856-32.155-17.935-43.198l-0.002-0.002-196.992-195.008c-11.207-11.050-26.606-17.874-43.6-17.874-17.025 0-32.45 6.85-43.67 17.944l0.006-0.006z" />
<glyph unicode="&#xe924;" glyph-name="comma" horiz-adv-x="546" d="M0 960h545.874v-420.408q0-232.013-96.625-366.403t-331.279-237.189l-117.791 223.375c78.039 32.139 144.467 77.829 199.366 134.717l0.165 0.172c36.837 44.761 61.501 158.733 61.501 158.733h-261.033z" />
<glyph unicode="&#xe925;" glyph-name="minus2" d="M819.2 460.8c0-28.314-2.458-51.2-30.771-51.2h-552.858c-28.262 0-30.771 22.886-30.771 51.2s2.509 51.2 30.771 51.2h552.909c28.262 0 30.72-22.886 30.72-51.2z" />
<glyph unicode="&#xe926;" glyph-name="minus3" d="M810.667 469.334h-597.333c-25.6 0-42.667-17.067-42.667-42.667s17.067-42.667 42.667-42.667h597.333c25.6 0 42.667 17.067 42.667 42.667s-17.067 42.667-42.667 42.667z" />
<glyph unicode="&#xe927;" glyph-name="Path-2121" horiz-adv-x="1364" d="M1360.035 426.446c2.623 6.421 4.145 13.873 4.145 21.68 0 15.604-6.082 29.788-16.005 40.311l0.027-0.029-454.949 454.87c-10.334 10.339-24.614 16.735-40.387 16.735-31.537 0-57.102-25.566-57.102-57.102 0-15.763 6.387-30.035 16.715-40.368v0l358.201-357.649h-1113.807c-0.446 0.013-0.971 0.020-1.498 0.020-31.41 0-56.874-25.463-56.874-56.874s25.463-56.874 56.874-56.874c0.527 0 1.051 0.007 1.575 0.021l-0.077-0.002h1113.846l-358.24-357.609c-10.393-10.303-16.827-24.584-16.827-40.368 0-15.607 6.291-29.745 16.476-40.017l0.351-0.351c10.303-10.393 24.584-16.827 40.368-16.827 15.607 0 29.745 6.291 40.017 16.476l455.221 455.182c5.028 5.251 9.075 11.489 11.815 18.388l0.135 0.386z" />
<glyph unicode="&#xe928;" glyph-name="Path-2122" horiz-adv-x="1364" d="M4.26 426.446c-2.623 6.421-4.145 13.873-4.145 21.68 0 15.604 6.082 29.788 16.005 40.311l-0.027-0.029 454.988 454.87c10.331 10.331 24.603 16.721 40.368 16.721 31.529 0 57.088-25.559 57.088-57.088 0-15.765-6.39-30.037-16.721-40.368v0l-358.201-357.609h1113.846c0.446 0.013 0.971 0.020 1.498 0.020 31.41 0 56.874-25.463 56.874-56.874s-25.463-56.874-56.874-56.874c-0.527 0-1.051 0.007-1.575 0.021l0.077-0.002h-1113.846l358.201-357.649c10.404-10.304 16.847-24.593 16.847-40.387 0-15.617-6.299-29.763-16.495-40.036l-0.352-0.352c-10.303-10.393-24.584-16.827-40.368-16.827-15.607 0-29.745 6.291-40.017 16.476l-455.221 455.221c-5.028 5.251-9.075 11.489-11.815 18.388l-0.135 0.386z" />
<glyph unicode="&#xe929;" glyph-name="start" horiz-adv-x="1079" d="M1068.642 536.276c6.458 6.455 10.453 15.374 10.453 25.225 0 17.921-13.218 32.755-30.437 35.283l-0.194 0.023-302.66 60.532c-10.248 2.022-18.978 7.46-25.16 15.055l-0.062 0.078-151.33 267.35c-6.399 10.812-17.296 18.382-30.049 20.153l-0.217 0.025c-0.283 0.009-0.617 0.014-0.951 0.014-13.308 0-24.68-8.285-29.241-19.978l-0.073-0.214-151.33-267.35c-4.692-9.056-13.993-15.138-24.714-15.138-0.178 0-0.356 0.002-0.534 0.005h0.027l-302.66-60.532c-16.748-3.915-29.032-18.72-29.032-36.394 0-9.229 3.349-17.675 8.898-24.19l-0.044 0.053 211.862-226.995c5.35-8.663 8.955-18.946 10.064-29.965l0.025-0.301-35.31-302.66c-0.188-1.379-0.296-2.972-0.296-4.591 0-19.697 15.922-35.674 35.598-35.764h0.009c0.686-0.090 1.479-0.141 2.283-0.141 4.993 0 9.525 1.977 12.855 5.191l-0.005-0.005 277.438 131.153c5.044 0 10.089 5.044 15.133 5.044 0.686 0.090 1.479 0.141 2.283 0.141 4.993 0 9.525-1.977 12.855-5.191l-0.005 0.005 277.438-131.153c5.044 0 10.089-5.044 15.133-5.044 19.696 0.219 35.579 16.236 35.579 35.964 0 1.548-0.098 3.072-0.287 4.568l0.018-0.178-35.31 302.66c-0.178 1.366-0.28 2.946-0.28 4.549 0 9.992 3.953 19.061 10.38 25.728l-0.011-0.011z" />
<glyph unicode="&#xe92a;" glyph-name="subtract" d="M768 512v-128h-512v128h512z" />
<glyph unicode="&#xe92b;" glyph-name="checkmark" d="M512 864c-229.76 0-416-186.24-416-416s186.24-416 416-416 416 186.24 416 416-186.24 416-416 416zM744.256 566.176l-303.552-303.52c-7.616-7.584-19.936-7.584-27.552 0l-6.112 6.112-0.032-0.032-167.008 168.192c-7.616 7.616-7.616 19.968 0 27.584l41.408 41.376c7.616 7.616 19.968 7.616 27.584 0l118.048-118.912 248.192 248.192c7.616 7.616 19.968 7.616 27.584 0l41.408-41.408c7.648-7.584 7.648-19.936 0.032-27.584z" />
<glyph unicode="&#xe92c;" glyph-name="plus-thin" d="M954.266 497.549l-257.038-0.113-3.657-3.657-128.434 3.686 0.057 389.157c0.316 13.262-4.576 26.597-14.676 36.697s-23.435 14.992-36.67 14.677l-0.028-0.001c-13.262 0.316-26.597-4.576-36.697-14.676s-14.992-23.435-14.677-36.67l0.001-0.028v-389.044l-389.072-0.028c-12.896 0.652-25.953-3.927-35.761-13.735-0.32-0.32-0.635-0.644-0.943-0.97l0.046 0.048c-9.568-10.481-14.445-23.573-14.715-36.742l0.001 0.027c-0.316-13.262 4.576-26.597 14.676-36.697s23.435-14.992 36.67-14.677l0.028 0.001 389.072-0.028v-124.748l-3.686-3.686v-256.924c0.27-13.143 5.147-26.235 14.631-36.626l0.083-0.090c0.271-0.288 0.595-0.621 0.925-0.951 9.808-9.808 22.866-14.388 35.708-13.738l0.055 0.003c13.262-0.316 26.597 4.576 36.697 14.676s14.992 23.435 14.677 36.67l-0.001 0.028v389.044h389.044c13.262-0.316 26.597 4.576 36.697 14.676s14.992 23.435 14.677 36.67l-0.001 0.028c-0.269 13.13-5.136 26.21-14.602 36.596l-0.085 0.091c-9.416 8.254-21.305 11.912-32.927 11.064l-0.075-0.006z" />
<glyph unicode="&#xe92d;" glyph-name="comma-v2" horiz-adv-x="1295" d="M854.592-64c-1.88-0.095-4.083-0.15-6.298-0.15-36.864 0-70.214 15.045-94.245 39.329l-0.011 0.011c-22.699 24.429-36.629 57.279-36.629 93.382 0 1.595 0.027 3.183 0.081 4.765l-0.006-0.23c-0.041 1.255-0.064 2.731-0.064 4.213 0 54.384 31.16 101.491 76.6 124.441l0.797 0.365c50.086 26.465 92.362 60.937 126.772 102.197l0.539 0.664c24.615 31.746 41.556 70.616 47.38 113.031l0.14 1.246c-69.379 2.634-131.461 31.853-176.753 77.697l-0.026 0.026c-50.534 47.528-82.007 114.827-82.007 189.476 0 1.951 0.022 3.898 0.064 5.839l-0.005-0.289c-0.046 1.787-0.073 3.89-0.073 6 0 73.225 31.766 139.032 82.27 184.389l0.229 0.203c50.761 46.058 118.464 74.252 192.752 74.252 2.591 0 5.173-0.034 7.748-0.102l-0.38 0.008c0.942 0.012 2.056 0.018 3.17 0.018 86.709 0 163.936-40.6 213.707-103.826l0.442-0.582c56.15-67.715 84.644-164.075 84.644-286.442 0.005-1 0.008-2.182 0.008-3.366 0-112.221-26.39-218.278-73.302-312.304l1.833 4.059c-43.087-90.959-102.166-167.695-174.31-229.648l-0.911-0.764c-71.91-59.206-135.431-87.91-194.157-87.91zM993.558 902.292c-2.357 0.086-5.126 0.135-7.907 0.135-59.97 0-114.613-22.81-155.725-60.228l0.187 0.167c-39.81-35.48-64.759-86.9-64.759-144.148 0-2.182 0.036-4.355 0.108-6.52l-0.008 0.315c-0.053-1.744-0.084-3.796-0.084-5.855 0-59.086 25.033-112.325 65.073-149.69l0.12-0.111c37.212-38.447 89.184-62.413 146.755-62.741h51.806l-1.948-29.064c-2.651-65.798-25.7-125.741-62.945-174.205l0.533 0.722c-39.495-47.616-87.307-86.772-141.442-115.624l-2.528-1.23c-29.165-13.792-48.981-42.974-48.981-76.784 0-1.532 0.041-3.054 0.121-4.566l-0.009 0.211c-0.068-1.264-0.107-2.743-0.107-4.232 0-21.686 8.257-41.443 21.8-56.299l-0.060 0.066c14.279-13.846 33.777-22.382 55.269-22.382 2.029 0 4.040 0.076 6.030 0.225l-0.265-0.016c44.944 0 98.697 25.378 159.67 75.416 67.103 57.833 121.358 128.548 159.268 208.52l1.631 3.824c41.583 83.028 65.925 180.899 65.925 284.456 0 1.12-0.003 2.239-0.009 3.357l0.001-0.173c0 109.303-24.27 193.978-72.090 251.685-40.036 51.775-102.168 84.791-172.010 84.791-1.203 0-2.403-0.010-3.601-0.029l0.181 0.002zM143.551-64c-2.241-0.134-4.862-0.211-7.5-0.211-36.613 0-69.784 14.738-93.904 38.604l0.011-0.011c-22.245 24.483-35.864 57.152-35.864 93.001 0 2.014 0.043 4.017 0.128 6.010l-0.010-0.285c-0.071 1.652-0.112 3.591-0.112 5.538 0 54.242 31.498 101.127 77.201 123.363l0.814 0.357c49.292 26.26 90.769 60.716 124.147 101.991l0.587 0.75c23.007 32.209 39.15 70.874 45.453 112.762l0.18 1.455c-67.892 3.577-128.387 32.588-172.67 77.598l-0.035 0.035c-50.534 47.528-82.007 114.827-82.007 189.476 0 1.951 0.022 3.898 0.064 5.839l-0.005-0.289c-0.023 1.264-0.036 2.755-0.036 4.25 0 73.841 31.558 140.311 81.923 186.658l0.18 0.163c50.405 47.681 118.614 76.996 193.669 76.996 2.395 0 4.782-0.030 7.162-0.089l-0.352 0.007c1.053 0.015 2.296 0.023 3.541 0.023 87.514 0 165.264-41.804 214.37-106.531l0.486-0.668c55.431-69.273 83.536-165.783 83.536-286.861 0.008-1.271 0.013-2.775 0.013-4.28 0-85.887-15.381-168.181-43.54-244.279l1.579 4.874c-27.575-76.032-64.216-141.84-109.598-200.548l1.254 1.687c-40.504-52.82-88.087-97.648-141.875-133.988l-2.125-1.353c-40.84-29.805-91.253-48.834-145.921-52.010l-0.746-0.035zM282.517 905.528c-2.172 0.075-4.724 0.117-7.286 0.117-60.42 0-115.31-23.678-155.897-62.261l0.096 0.091c-40.040-36.445-65.071-88.776-65.071-146.953 0-1.596 0.019-3.187 0.056-4.773l-0.004 0.236c-0.054-1.759-0.085-3.828-0.085-5.904 0-59.12 25.058-112.387 65.133-149.759l0.121-0.112c36.741-38.23 88.119-62.158 145.090-62.741l0.108-0.001h51.086l-2.996-29.963c-4.423-64.525-26.318-123.179-60.936-172.208l0.712 1.062c-38.736-48.346-86.158-87.961-140.146-116.928l-2.416-1.184c-29.314-13.272-49.341-42.269-49.341-75.944 0-1.88 0.062-3.746 0.185-5.595l-0.013 0.251c-0.102-1.558-0.16-3.378-0.16-5.212 0-21.538 8.010-41.205 21.214-56.184l-0.080 0.093c14.37-13.415 33.724-21.651 55.002-21.651 2.397 0 4.77 0.105 7.115 0.309l-0.304-0.021c44.301 3.407 84.367 19.136 117.457 43.724l-0.603-0.428c50.76 34.327 93.958 75.132 129.764 121.896l0.963 1.31c40.786 52.786 74.645 113.709 98.606 179.392l1.498 4.698c24.529 65.723 38.724 141.663 38.724 220.918 0 1.399-0.004 2.798-0.013 4.195l0.001-0.215c0 108.404-23.97 193.468-71.581 252.854-39.434 52.978-101.874 86.924-172.242 86.924-1.311 0-2.619-0.012-3.925-0.035l0.196 0.003z" />
<glyph unicode="&#xe92e;" glyph-name="arrow-thin-down" d="M460.8 144.794l-310.835 310.835-72.397-72.397 434.432-434.432 434.432 434.432-72.397 72.397-310.835-310.835v828.006h-102.4v-828.006z" />
<glyph unicode="&#xe92f;" d="M947.745 506.099c0-240.655-195.090-435.745-435.745-435.745s-435.745 195.090-435.745 435.745c0 240.655 195.090 435.745 435.745 435.745s435.745-195.090 435.745-435.745z" />
<glyph unicode="&#xe930;" d="M315.69 616.699h43.625v-98.159c0-12.033-9.754-21.787-21.787-21.787v0 0c-12.033 0-21.787 9.754-21.787 21.787v0 98.159z" />
<glyph unicode="&#xe931;" d="M359.286 616.699h43.625v-98.159c0-12.033-9.754-21.787-21.787-21.787v0 0c-12.033 0-21.787 9.754-21.787 21.787v0 98.159z" />
<glyph unicode="&#xe932;" d="M402.94 616.699h43.625v-98.159c0-12.033-9.754-21.787-21.787-21.787v0 0c-12.033 0-21.787 9.754-21.787 21.787v0 98.159z" />
<glyph unicode="&#xe933;" d="M446.566 616.699h43.625v-98.159c0-12.033-9.754-21.787-21.787-21.787v0 0c-12.033 0-21.787 9.754-21.787 21.787v0 98.159z" />
<glyph unicode="&#xe934;" d="M490.191 616.699h43.625v-98.159c0-12.033-9.754-21.787-21.787-21.787v0 0c-12.033 0-21.787 9.754-21.787 21.787v0 98.159z" />
<glyph unicode="&#xe935;" d="M533.809 616.699h43.625v-98.159c0-12.033-9.754-21.787-21.787-21.787v0 0c-12.033 0-21.787 9.754-21.787 21.787v0 98.159z" />
<glyph unicode="&#xe936;" d="M577.434 616.699h43.625v-98.159c0-12.033-9.754-21.787-21.787-21.787v0 0c-12.033 0-21.787 9.754-21.787 21.787v0 98.159z" />
<glyph unicode="&#xe937;" d="M621.060 616.699h43.625v-98.159c0-12.033-9.754-21.787-21.787-21.787v0 0c-12.033 0-21.787 9.754-21.787 21.787v0 98.159z" />
<glyph unicode="&#xe938;" d="M664.714 616.699h43.625v-98.159c0-12.033-9.754-21.787-21.787-21.787v0 0c-12.033 0-21.787 9.754-21.787 21.787v0 98.159z" />
<glyph unicode="&#xe939;" d="M708.31 616.699h43.625v-98.159c0-12.033-9.754-21.787-21.787-21.787v0 0c-12.033 0-21.787 9.754-21.787 21.787v0 98.159z" />
<glyph unicode="&#xe93a;" d="M272.064 616.699h43.625v-98.159c0-12.033-9.754-21.787-21.787-21.787v0 0c-12.033 0-21.787 9.754-21.787 21.787v0 98.159z" />
<glyph unicode="&#xe93b;" d="M424.757 289.512v163.593h174.494v-163.593" />
<glyph unicode="&#xe93c;" d="M315.697 289.512v163.593h109.060" />
<glyph unicode="&#xe93d;" d="M599.251 453.105h109.060v-163.593" />
<glyph unicode="&#xe93e;" d="M540.128 787.922c63.567-15.499 102.533-79.595 87.034-143.162s-79.595-102.533-143.162-87.034c-63.567 15.499-102.533 79.595-87.034 143.162s79.595 102.533 143.162 87.034z" />
<glyph unicode="&#xe93f;" d="M546.206 650.309l-10.894 6.297v12.593c0 12.045-9.764 21.809-21.809 21.809s-21.809-9.764-21.809-21.809v0-12.593l-10.894-6.297c-6.565-3.839-10.906-10.854-10.906-18.882 0-12.039 9.76-21.799 21.799-21.799 4.011 0 7.768 1.083 10.997 2.973l-0.103-0.056 10.894 6.297 10.894-6.297c3.125-1.834 6.883-2.917 10.894-2.917 12.039 0 21.799 9.76 21.799 21.799 0 8.029-4.34 15.044-10.803 18.827l-0.103 0.056z" />
<glyph unicode="&#xe940;" d="M459.481 708.146c8.828-1.93 14.42-10.651 12.49-19.479s-10.651-14.42-19.479-12.49c-8.828 1.93-14.42 10.651-12.49 19.479s10.651 14.42 19.479 12.49z" />
<glyph unicode="&#xe941;" d="M505.064 730.326c0-9.037-7.326-16.362-16.362-16.362s-16.362 7.326-16.362 16.362c0 9.037 7.326 16.362 16.362 16.362s16.362-7.326 16.362-16.362z" />
<glyph unicode="&#xe942;" d="M554.645 730.326c0-9.037-7.326-16.362-16.362-16.362s-16.362 7.326-16.362 16.362c0 9.037 7.326 16.362 16.362 16.362s16.362-7.326 16.362-16.362z" />
<glyph unicode="&#xe943;" glyph-name="phone" d="M704 320c-64-64-64-128-128-128s-128 64-192 128-128 128-128 192 64 64 128 128-128 256-192 256-192-192-192-192c0-128 131.5-387.5 256-512s384-256 512-256c0 0 192 128 192 192s-192 256-256 192z" />
<glyph unicode="&#xe944;" d="M587.122 694.942c1.54-8.904-4.43-17.371-13.335-18.911s-17.371 4.43-18.911 13.335c-1.54 8.904 4.43 17.371 13.335 18.911s17.371-4.43 18.911-13.335z" />
<glyph unicode="&#xe945;" d="M947.745 506.099c0-240.655-195.090-435.745-435.745-435.745s-435.745 195.090-435.745 435.745c0 240.655 195.090 435.745 435.745 435.745s435.745-195.090 435.745-435.745z" />
<glyph unicode="&#xe946;" d="M333.127 481.276c6.776-21.787 15.977-35.339 15.977-69.719 0.33-69.78 25.341-133.656 66.743-183.409l-0.379 0.469c6.485-7.67 16.114-12.508 26.872-12.508 0.125 0 0.249 0.001 0.373 0.002h-0.019c0.395-0.017 0.859-0.027 1.324-0.027 17.575 0 31.915 13.848 32.705 31.228l0.003 0.071c0 17.27 17.59 168.089 17.59 168.089" />
<glyph unicode="&#xe947;" d="M309.887 547.103l7.030-26.217" />
<glyph unicode="&#xe948;" d="M514.978 733.304c-0.061 0-0.133 0-0.205 0-15.934 0-30.907 4.118-43.911 11.347l0.462-0.236c-12.963 7.146-38.019 12.23-64.766 12.23-21.417 0-108.529 1.206-108.529-92.959 0.726-28.454 2.368-51.919 4.648-71.578" />
<glyph unicode="&#xe949;" d="M514.978 509.258s-23.458-46.908-70.358-46.908" />
<glyph unicode="&#xe94a;" d="M514.978 509.258s23.458-46.908 70.366-46.908" />
<glyph unicode="&#xe94b;" d="M562.604 579.617c0.256 15.534 12.909 28.028 28.48 28.028s28.224-12.494 28.479-28.004v-0.024" />
<glyph unicode="&#xe94c;" d="M411.111 579.617c0.256 15.534 12.909 28.028 28.48 28.028s28.224-12.494 28.479-28.004v-0.024" />
<glyph unicode="&#xe94d;" d="M535.675 415.435s17.59-150.818 17.59-168.089c0.792-17.451 15.133-31.299 32.707-31.299 0.466 0 0.929 0.010 1.39 0.029l-0.066-0.002c0.105-0.001 0.23-0.002 0.354-0.002 10.759 0 20.387 4.837 26.83 12.456l0.043 0.052c41.023 49.284 66.034 113.16 66.364 182.868v0.072c0 34.395 9.172 47.932 15.977 69.719" />
<glyph unicode="&#xe94e;" d="M713.045 520.878l7.030 26.217" />
<glyph unicode="&#xe94f;" d="M727.287 592.137c2.28 19.659 3.922 43.131 4.648 71.578 0 94.128-87.149 92.959-108.529 92.959-26.747 0-51.796-5.084-64.766-12.23v0c-12.543-6.994-27.515-11.112-43.449-11.112-0.072 0-0.144 0-0.216 0h0.011" />
<glyph unicode="&#xe950;" d="M444.619 706.389c9.379 0.827 18.032 2.935 26.118 6.159l-0.62-0.218c10.506 3.884 18.998 7.63 27.238 11.801l-1.486-0.682c8.497 4.176 16.914 8.671 25.302 13.327s16.704 9.485 25.295 14.351c1.66 0.956 3.651 1.519 5.774 1.519 6.478 0 11.73-5.252 11.73-11.73 0-4.356-2.374-8.157-5.899-10.181l-0.057-0.030-0.501-0.269-0.073-0.036c-8.548-4.263-17.285-8.766-26.145-13.072s-17.8-8.533-26.951-12.462c-7.348-3.338-16.735-6.905-26.347-9.966l-1.976-0.543c-2.404-0.799-4.946-1.409-7.437-2.077s-5.084-1.177-7.662-1.707-5.309-0.821-7.989-1.191c-1.234-0.168-2.672-0.271-4.131-0.283h-0.015l-4.212-0.131c-0.108-0.005-0.235-0.008-0.363-0.008-4.817 0-8.722 3.905-8.722 8.722 0 4.69 3.701 8.515 8.341 8.714l0.018 0.001z" />
<glyph unicode="&#xe951;" d="M532.567 559.1c0 4.857-3.938 8.795-8.795 8.795v0h-17.553c-4.857 0-8.795-3.938-8.795-8.795v0c0-9.753 8.795-6.122 8.795-11.62 0-4.857 3.938-8.795 8.795-8.795s8.795 3.938 8.795 8.795v0c-0.036 5.512 8.758 1.845 8.758 11.62z" />
<glyph unicode="&#xe952;" d="mNaNclNaNNaNclNaNNaNNaNNaNclNaNNaNclNaNNaN" />
<glyph unicode="&#xe953;" d="M759.917 474.072lNaNNaNclNaNNaNclNaNNaN" />
<glyph unicode="&#xe954;" horiz-adv-x="948" d="M452.169 662.572c13.795 0.69 26.689 3.783 38.526 8.869l-0.725-0.277c26.192 9.613 54.999 41.694 66.991 74.66 10.47 28.759 8.742 56.62-4.999 80.577-6.746 11.749-8.793 21.522-6.090 29.045 3.656 7.541 9.914 13.343 17.58 16.321l0.222 0.076-12.101 33.913c-2.994-1.049-29.514-11.047-39.352-37.576-6.709-18.050-3.832-38.129 8.545-59.683 8.409-14.649 9.21-31.58 2.389-50.314-9.988-27.457-32.873-48.52-45.554-53.172-13.801-5.064-26.797-9.182-33.974-3.935-5.547 4.043-18.153 20.767-15.399 88.541 3.874 95.362 77.523 122.355 80.657 123.461 140.218 45.554 180.788-65.961 182.456-70.739l34.002 11.834c-0.52 1.504-54.216 149.443-227.907 93.029-4.315-1.466-100.281-35.496-105.186-156.137-2.609-64.354 6.971-102.192 30.165-119.104 8.010-5.871 18.060-9.395 28.934-9.395 0.288 0 0.575 0.002 0.862 0.007l-0.043-0.001z" />
<glyph unicode="&#xe955;" horiz-adv-x="948" d="M651.485 390.91c1.9 11.537 2.985 24.833 2.985 38.382 0 30.666-5.561 60.032-15.729 87.147l0.563-1.712c-13.893 39.894-28.286 73.079-44.749 105.024l2.119-4.523c-0.857 1.616-2.872 5.406 2.024 13.586 13.736 22.955 58.948 44.645 83.974 44.734 12.827-0.2 25.228-1.231 37.374-3.046l-1.531 0.188c19.905-2.399 40.485-4.872 60.311-0.618 38.415 8.236 60.035 46.561 57.781 102.53-0.558 12.199-8.084 22.512-18.669 27.094l-0.201 0.077-75.316 31.753c-8.015 5.010-13.995 12.636-16.791 21.662l-0.074 0.277c-2.207 7.624-9.126 13.103-17.324 13.103-9.943 0-18.003-8.060-18.003-18.003 0-1.988 0.322-3.9 0.917-5.688l-0.037 0.127c5.708-18.493 17.846-33.565 33.745-42.937l0.35-0.191c0.57-0.34 1.25-0.685 1.954-0.986l0.117-0.045 73.466-30.975c0.365-19.17-2.45-56.807-29.443-62.593-13.932-2.994-30.722-0.97-48.477 1.162-12.014 1.86-25.963 2.988-40.152 3.114l-0.137 0.001c-35.89-0.131-93.83-27.354-114.724-62.241-9.889-16.514-10.939-33.899-2.942-48.96 13.634-26.131 27.332-57.782 38.896-90.441l1.669-5.408c8.255-21.789 13.034-46.98 13.034-73.287 0-11.566-0.924-22.917-2.702-33.982l0.161 1.216z" />
<glyph unicode="&#xe956;" horiz-adv-x="948" d="M146.533 95.843c7.093 102.984 29.898 200.581 65.956 282.254 88.939 201.443 217.057 312.752 218.336 313.876l-23.424 27.359c-5.486-4.685-135.426-117.305-227.869-326.675-38.246-86.686-61.435-185.712-68.931-294.322z" />
<glyph unicode="&#xe957;" horiz-adv-x="948" d="M256.769-63.888h120.158v36.007h-120.158c-97.484 0-166.19 28.024-198.698 81.046-33.594 54.811-27.963 137.979 15.066 222.524 54.226 106.526 47.259 253.846 40.898 317.765 70.959-35.477 76.764-88.185 76.993-90.659l35.894 2.844c-0.276 3.701-8.151 91.127-128.563 133.402-1.775 0.643-3.823 1.014-5.958 1.014-9.946 0-18.008-8.062-18.008-18.008 0-0.988 0.080-1.958 0.233-2.902l-0.014 0.104c0.314-1.996 30.671-201.031-33.561-327.223-49.485-97.222-54.469-191.137-13.675-257.66 27.471-44.833 89.577-98.253 229.392-98.253z" />
<glyph unicode="&#xe958;" horiz-adv-x="948" d="M493.507 21.487l35.646 5.074c-33.922 238.359 116.65 281.439 163.609 288.972 13.934 2.227 24.882 12.793 27.65 26.337l0.037 0.216c5.397 26.234 26.145 107.111 80.952 139.099l5.327-41.755 35.716 4.554-8.362 65.586c-1.172 8.915-8.722 15.725-17.863 15.725-1.9 0-3.73-0.294-5.449-0.839l0.128 0.035c-85.482-26.487-116.031-129.087-125.405-173.658-42.617-7.243-231.013-55.069-191.984-329.345z" />
<glyph unicode="&#xe959;" horiz-adv-x="948" d="M791.226-64h58.451c9.943 0 18.003 8.060 18.003 18.003v0c0 37.853-19.751 65.436-55.622 77.663-5.461 1.816-9.347 6.839-9.44 12.783v0.011c-0.394 21.718 0.468 40.996 1.274 53.406 0.678 8.636 4.783 16.199 10.94 21.414l0.045 0.038c58.198 50.754 51.223 119.086 47.873 151.921-0.595 5.79-1.101 10.775-1.101 13.904-0.035 0.834-0.056 1.812-0.056 2.795 0 3.28 0.225 6.507 0.659 9.667l-0.041-0.367c2.216 2.15 16.64 7.791 33.336 14.326l6.352 2.488c21.901 8.582 36.25 21.583 42.631 38.621 2.158 5.936 3.407 12.788 3.407 19.931 0 9.54-2.226 18.56-6.187 26.569l0.157-0.351c-2.036 3.863-5.321 6.838-9.309 8.427l-0.121 0.043-23.513 9.187c-16.148 54.619-61.042 69.334-84.081 69.334h-0.468l0.164-18.003v-18.003c4.183-0.052 41.226-1.916 51.677-50.525 1.316-5.975 5.463-10.758 10.93-12.939l0.121-0.043 24.304-9.496c0.291-1.323 0.457-2.843 0.457-4.402 0-2.633-0.475-5.156-1.344-7.486l0.048 0.148c-3.415-8.676-13.834-14.307-21.981-17.502l-6.329-2.474c-45.91-17.947-56.788-22.215-56.788-59.964 0-4.947 0.595-10.775 1.288-17.558 3.153-30.919 8.432-82.624-35.716-121.128-13.239-11.372-21.951-27.692-23.248-46.058l-0.012-0.212c-0.839-13.089-1.752-33.425-1.34-56.039 0.201-21.555 14.133-39.805 33.461-46.439l0.349-0.104c14.644-4.999 24.051-13.431 28.408-25.588h-37.614z" />
<glyph unicode="&#xe95a;" horiz-adv-x="948" d="M734.901-64c9.943 0 18.003 8.060 18.003 18.003v0c0 43.409-32.362 63.473-58.896 68.144 3.679 9.965 5.808 21.474 5.808 33.48 0 5.357-0.424 10.614-1.239 15.741l0.074-0.566c-7.585 53.738-57.378 63.679-59.496 64.073l-6.638-35.393c16.142-3.806 28.33-17.091 30.458-33.531l0.021-0.199c4.413-31.247-11.951-47.077-12.119-47.227-3.632-3.307-5.903-8.055-5.903-13.333 0-9.942 8.057-18.003 17.999-18.008h20.726c3.621-0.211 20.285-1.949 28.535-15.188l-164.733 0.103c-0.040 0-0.087 0-0.134 0-20.196 0-39.284 4.743-56.211 13.176l0.732-0.33c-27.345 13.534-45.76 30.451-56.287 51.733-21.395 43.263-4.483 99.316 21.746 173.803 11.351 32.254 11.15 60.691-0.6 84.526-19.043 38.635-62.775 53.509-64.626 54.127-4.396 1.381-7.529 5.419-7.529 10.188 0 1.115 0.171 2.191 0.489 3.201l-0.020-0.075c1.391 4.328 5.382 7.406 10.091 7.406 1.132 0 2.223-0.178 3.246-0.507l-0.075 0.021c0.557-0.173 53.481-17.188 77.12-64.424 6.791-13.319 10.967-28.982 11.446-45.571l0.004-0.157 35.988 1.171c-0.661 22.222-6.217 42.999-15.62 61.492l0.381-0.825c-30.418 60.784-95.779 81.809-98.552 82.671-4.054 1.278-8.716 2.014-13.55 2.014-25.728 0-46.585-20.857-46.585-46.585 0-20.522 13.27-37.945 31.698-44.156l0.328-0.096c0.070-0.033 31.181-10.878 43.479-35.815 7.308-14.827 6.952-33.88-1.063-56.643-29.181-82.863-47.704-145.835-20.055-201.729 14.157-28.624 37.899-50.876 72.58-68.036 20.868-10.46 45.469-16.584 71.501-16.584 0.017 0 0.034 0 0.051 0h-0.003z" />
<glyph unicode="&#xe95b;" glyph-name="Exotic-pet-care" d="M947.745 506.099c0-240.655-195.090-435.745-435.745-435.745s-435.745 195.090-435.745 435.745c0 240.655 195.090 435.745 435.745 435.745s435.745-195.090 435.745-435.745z" />
<glyph unicode="&#xe95c;" d="M947.745 506.099c0-240.655-195.090-435.745-435.745-435.745s-435.745 195.090-435.745 435.745c0 240.655 195.090 435.745 435.745 435.745s435.745-195.090 435.745-435.745z" />
<glyph unicode="&#xe95d;" d="M375.067 768.752c-35.23-66.538-60.59-159.962-60.59-238.164 0-64.468 17.234-149.657 60.38-192.795" />
<glyph unicode="&#xe95e;" d="M375.060 768.752c35.201-66.487 60.75-159.613 60.75-237.728 0-64.381-17.357-149.606-60.961-193.231" />
<glyph unicode="&#xe95f;" d="M374.857 303.769c0-31.317-25.388-56.705-56.705-56.705s-56.705 25.388-56.705 56.705c0 31.317 25.388 56.705 56.705 56.705v0" />
<glyph unicode="&#xe960;" d="M374.857 303.769c0.005 31.309 25.388 56.689 56.698 56.689 31.313 0 56.698-25.384 56.698-56.698s-25.384-56.698-56.698-56.698c-12.827 0-24.66 4.26-34.16 11.442l0.143-0.103" />
<glyph unicode="&#xe961;" d="M518.74 721.713c-0.002 0-0.004 0-0.006 0-1.654 0-3.153-0.666-4.243-1.744l0.001 0.001c-1.076-1.094-1.741-2.595-1.741-4.252s0.664-3.158 1.741-4.253l-0.001 0.001c1.083-1.090 2.583-1.765 4.241-1.765 0.013 0 0.026 0 0.039 0h-0.002c0.008 0 0.017 0 0.026 0 1.645 0 3.133 0.675 4.2 1.764l0.001 0.001c1.085 1.084 1.759 2.58 1.765 4.233v0.001c-0.102 3.282-2.738 5.916-6.011 6.013h-0.009z" />
<glyph unicode="&#xe962;" d="M551.508 713.398c0.136 0.314 0.26 0.689 0.353 1.077l0.010 0.049c0.063 0.348 0.102 0.751 0.109 1.163v0.006c-0.010 0.83-0.183 1.618-0.487 2.335l0.015-0.041c-0.173 0.413-0.358 0.764-0.569 1.096l0.017-0.029c-0.448 0.66-0.998 1.213-1.635 1.649l-0.021 0.014c-0.29 0.177-0.634 0.354-0.99 0.509l-0.056 0.022c-0.312 0.134-0.687 0.258-1.075 0.353l-0.051 0.010c-0.319 0.065-0.685 0.103-1.059 0.103-0.039 0-0.077 0-0.116-0.001h0.006c-0.009 0-0.019 0-0.029 0-3.309 0-5.991-2.682-5.991-5.991 0-0.008 0-0.015 0-0.023v0.001c0.019-0.831 0.191-1.617 0.488-2.338l-0.016 0.043c0.315-0.755 0.752-1.399 1.293-1.939v0c1.089-1.093 2.592-1.773 4.253-1.787h0.003c0.427 0.009 0.838 0.054 1.237 0.131l-0.046-0.007c0.427 0.095 0.796 0.212 1.15 0.358l-0.046-0.017c0.41 0.174 0.754 0.351 1.083 0.551l-0.037-0.021c0.338 0.25 0.637 0.508 0.915 0.785v0c0.269 0.27 0.519 0.559 0.748 0.865l0.015 0.021c0.186 0.298 0.364 0.644 0.513 1.006l0.017 0.047z" />
<glyph unicode="&#xe963;" d="M578.713 713.398c0.138 0.315 0.262 0.691 0.354 1.079l0.009 0.046c0.052 0.34 0.089 0.744 0.101 1.154v0.015c-0.004 2.080-1.054 3.914-2.652 5.005l-0.021 0.013c-0.626 0.394-1.354 0.702-2.13 0.884l-0.048 0.010c-0.322 0.070-0.692 0.11-1.072 0.11-0.034 0-0.068 0-0.102-0.001h0.005c-0.414-0.002-0.819-0.039-1.212-0.108l0.043 0.006c-0.436-0.102-0.811-0.227-1.171-0.381l0.046 0.017c-0.411-0.175-0.755-0.352-1.083-0.551l0.038 0.021c-0.342-0.235-0.64-0.473-0.921-0.731l0.006 0.005c-1.088-1.088-1.761-2.592-1.761-4.252s0.673-3.164 1.761-4.252v0c1.082-1.102 2.587-1.786 4.252-1.786s3.171 0.683 4.251 1.785l0.001 0.001c0.27 0.27 0.51 0.569 0.714 0.894l0.012 0.021c0.216 0.288 0.41 0.615 0.568 0.962l0.013 0.033z" />
<glyph unicode="&#xe964;" d="M605.925 713.398c0.146 0.33 0.264 0.715 0.337 1.116l0.005 0.031c0.066 0.307 0.104 0.66 0.104 1.022 0 0.052-0.001 0.103-0.002 0.155v-0.008c-0.101 3.269-2.723 5.893-5.982 5.999h-0.010c-0.013 0-0.028 0-0.043 0-1.645 0-3.134-0.666-4.213-1.743v0c-0.284-0.276-0.535-0.583-0.75-0.916l-0.012-0.021c-0.208-0.293-0.393-0.628-0.54-0.983l-0.012-0.034c-0.149-0.327-0.261-0.706-0.317-1.103l-0.003-0.022c-0.083-0.35-0.131-0.752-0.131-1.165 0-0.009 0-0.018 0-0.027v0.001c0.008-3.315 2.697-5.999 6.013-5.999 1.662 0 3.167 0.675 4.256 1.765v0c0.27 0.27 0.509 0.57 0.714 0.894l0.012 0.021c0.214 0.294 0.406 0.628 0.561 0.983l0.013 0.034z" />
<glyph unicode="&#xe965;" d="M633.13 713.405c0.133 0.321 0.243 0.699 0.314 1.091l0.005 0.035c0.080 0.357 0.127 0.767 0.131 1.189v0.002c-0.13 3.271-2.749 5.89-6.008 6.020h-0.012c-0.42-0.010-0.822-0.065-1.208-0.161l0.038 0.008c-0.419-0.057-0.799-0.169-1.151-0.33l0.025 0.010c-0.399-0.16-0.744-0.353-1.059-0.583l0.014 0.010c-0.664-0.445-1.218-0.999-1.65-1.642l-0.014-0.021c-0.212-0.295-0.398-0.633-0.541-0.992l-0.011-0.032c-0.137-0.315-0.262-0.691-0.354-1.079l-0.009-0.047c-0.051-0.337-0.087-0.741-0.101-1.151l-0.001-0.019c0-0.001 0-0.002 0-0.003 0-1.666 0.674-3.175 1.765-4.268v0c1.076-1.077 2.564-1.743 4.207-1.743 0.015 0 0.029 0 0.044 0h-0.002c0.015 0 0.033 0 0.051 0 0.817 0 1.596 0.163 2.306 0.458l-0.040-0.015c0.388 0.155 0.723 0.341 1.031 0.562l-0.014-0.010c0.668 0.441 1.222 0.996 1.65 1.642l0.013 0.021c0.221 0.302 0.416 0.646 0.569 1.013l0.012 0.033z" />
<glyph unicode="&#xe966;" d="M660.683 716.891c-0.103 0.436-0.227 0.812-0.381 1.172l0.018-0.047c-0.155 0.388-0.341 0.723-0.562 1.031l0.010-0.014c-1.093 1.626-2.919 2.685-4.994 2.702h-0.002c-0.418-0.007-0.821-0.060-1.207-0.153l0.038 0.008c-0.42-0.061-0.799-0.173-1.153-0.331l0.028 0.011c-0.399-0.162-0.744-0.355-1.060-0.584l0.015 0.010c-0.346-0.216-0.645-0.456-0.915-0.726v0c-1.090-1.087-1.764-2.591-1.764-4.252s0.674-3.165 1.764-4.252v0c1.093-1.078 2.595-1.744 4.252-1.744s3.159 0.666 4.253 1.744l-0.001-0.001c1.090 1.091 1.765 2.597 1.765 4.262 0 0.003 0 0.006 0 0.009v0c-0.005 0.411-0.042 0.811-0.108 1.2l0.006-0.045z" />
<glyph unicode="&#xe967;" d="M687.54 713.419c0.13 0.309 0.248 0.678 0.333 1.059l0.008 0.045c0.070 0.35 0.117 0.76 0.13 1.179v0.012c-0.008 0.419-0.048 0.823-0.116 1.217l0.007-0.048c-0.104 0.438-0.229 0.813-0.381 1.174l0.018-0.048c-0.155 0.388-0.341 0.723-0.562 1.031l0.010-0.014c-0.427 0.678-0.985 1.236-1.642 1.65l-0.021 0.013c-0.3 0.218-0.642 0.411-1.005 0.562l-0.033 0.012c-0.309 0.13-0.678 0.248-1.059 0.333l-0.045 0.008c-0.351 0.067-0.761 0.111-1.18 0.123h-0.011c-0.443-0.024-0.853-0.071-1.255-0.14l0.064 0.009c-0.423-0.090-0.792-0.208-1.145-0.357l0.041 0.015c-0.397-0.163-0.739-0.356-1.053-0.584l0.014 0.010c-0.345-0.218-0.645-0.458-0.915-0.726v0c-0.543-0.54-0.982-1.184-1.285-1.9l-0.015-0.039c-0.294-0.664-0.465-1.438-0.465-2.252 0-0.015 0-0.030 0-0.045v0.002c0-0.008 0-0.017 0-0.026 0-0.825 0.163-1.613 0.458-2.332l-0.015 0.041c0.325-0.76 0.771-1.409 1.321-1.953l0.001-0.001c1.079-1.077 2.568-1.743 4.213-1.743 0.013 0 0.025 0 0.038 0h-0.002c0.027 0 0.058-0.001 0.090-0.001 0.804 0 1.569 0.163 2.265 0.458l-0.038-0.014c0.754 0.319 1.398 0.758 1.939 1.3v0c0.253 0.275 0.491 0.573 0.708 0.888l0.018 0.027c0.198 0.3 0.387 0.645 0.548 1.007l0.018 0.046z" />
<glyph unicode="&#xe968;" d="M715.086 716.869c-0.079 0.433-0.197 0.818-0.355 1.182l0.013-0.034c-0.16 0.389-0.345 0.724-0.563 1.033l0.011-0.017c-1.091 1.624-2.92 2.679-4.996 2.679-1.66 0-3.162-0.674-4.248-1.764v0c-0.271-0.271-0.521-0.563-0.748-0.872l-0.015-0.021c-0.195-0.302-0.38-0.65-0.535-1.015l-0.017-0.046c-0.122-0.301-0.239-0.669-0.33-1.048l-0.011-0.056c-0.070-0.323-0.11-0.694-0.11-1.074 0-0.033 0-0.067 0.001-0.1v0.005c0-0.012 0-0.026 0-0.040 0-0.408 0.045-0.805 0.13-1.188l-0.007 0.036c0.069-0.423 0.181-0.801 0.332-1.159l-0.012 0.033c0.16-0.389 0.345-0.724 0.563-1.033l-0.011 0.017c0.23-0.353 0.484-0.66 0.768-0.936l0.001-0.001c0.27-0.269 0.57-0.508 0.894-0.714l0.021-0.013c0.295-0.211 0.633-0.396 0.991-0.54l0.033-0.012c0.33-0.145 0.715-0.263 1.115-0.336l0.032-0.005c0.327-0.070 0.702-0.11 1.087-0.11 0.029 0 0.058 0 0.087 0.001h-0.004c0.019 0 0.041 0 0.063 0 0.392 0 0.774 0.040 1.143 0.116l-0.037-0.006c0.419 0.084 0.789 0.202 1.139 0.355l-0.035-0.014c0.411 0.174 0.759 0.359 1.090 0.569l-0.029-0.017c0.342 0.234 0.641 0.472 0.92 0.731l-0.005-0.005c1.077 1.089 1.743 2.586 1.743 4.24 0 0.003 0 0.006 0 0.009v0c0.003 0.059 0.005 0.128 0.005 0.197 0 0.345-0.041 0.68-0.119 1.001l0.006-0.029z" />
<glyph unicode="&#xe969;" d="M742.298 716.869c-0.095 0.445-0.213 0.829-0.359 1.198l0.018-0.051c-0.159 0.392-0.344 0.729-0.563 1.041l0.011-0.017c-1.1 1.626-2.937 2.68-5.021 2.68-1.655 0-3.155-0.666-4.247-1.744l0.001 0.001c-1.077-1.071-1.743-2.554-1.743-4.192 0-0.020 0-0.040 0-0.060v0.003c0-0.006 0-0.014 0-0.022 0-3.309 2.682-5.991 5.991-5.991 0.008 0 0.015 0 0.023 0h-0.001c0.017 0 0.037 0 0.057 0 1.638 0 3.121 0.666 4.192 1.743v0c1.077 1.090 1.743 2.588 1.743 4.243 0 0.002 0 0.004 0 0.006v0c0.003 0.061 0.005 0.133 0.005 0.205 0 0.339-0.039 0.67-0.112 0.987l0.006-0.029z" />
<glyph unicode="&#xe96a;" d="M522.080 693.506c-0.291 0.191-0.627 0.376-0.978 0.533l-0.046 0.019c-0.318 0.128-0.702 0.245-1.097 0.332l-0.050 0.009c-0.296 0.072-0.636 0.113-0.985 0.113-0.065 0-0.129-0.001-0.193-0.004h0.009c-0.003 0-0.007 0-0.010 0-1.655 0-3.155-0.666-4.246-1.744l0.001 0.001c-0.546-0.546-0.99-1.194-1.299-1.914l-0.015-0.040c-0.272-0.639-0.43-1.382-0.43-2.162 0-0.047 0.001-0.093 0.002-0.14v0.007c0-0.006 0-0.014 0-0.022 0-3.309 2.682-5.991 5.991-5.991 0.010 0 0.020 0 0.031 0h-0.002c0.82 0.009 1.6 0.171 2.316 0.458l-0.043-0.015c0.763 0.326 1.414 0.772 1.961 1.321v0c1.090 1.086 1.764 2.589 1.764 4.249 0 2.076-1.055 3.906-2.657 4.983l-0.022 0.014z" />
<glyph unicode="&#xe96b;" d="M545.952 694.501c-0.002 0-0.004 0-0.006 0-1.654 0-3.153-0.666-4.243-1.744l0.001 0.001c-1.076-1.094-1.741-2.595-1.741-4.252s0.664-3.158 1.741-4.253l-0.001 0.001c1.089-1.090 2.593-1.765 4.256-1.765 3.313 0 6.001 2.68 6.013 5.991v0.001c-0.094 3.287-2.734 5.926-6.012 6.020h-0.009z" />
<glyph unicode="&#xe96c;" d="M576.505 693.506c-0.296 0.186-0.64 0.364-0.999 0.513l-0.047 0.017c-0.32 0.145-0.696 0.27-1.087 0.356l-0.038 0.007c-0.352 0.067-0.756 0.105-1.169 0.105s-0.818-0.038-1.21-0.112l0.040 0.006c-0.441-0.091-0.825-0.209-1.193-0.358l0.046 0.016c-0.395-0.172-0.731-0.356-1.049-0.567l0.025 0.015c-0.345-0.218-0.645-0.457-0.915-0.726v0c-1.090-1.080-1.765-2.577-1.765-4.232 0-0.014 0-0.027 0-0.041v0.002c0.004-0.416 0.041-0.82 0.108-1.214l-0.006 0.045c0.1-0.434 0.225-0.81 0.38-1.169l-0.017 0.043c0.151-0.391 0.337-0.729 0.561-1.037l-0.009 0.013c0.216-0.346 0.456-0.645 0.726-0.915v0c0.545-0.551 1.197-0.996 1.922-1.3l0.039-0.015c0.678-0.284 1.464-0.455 2.288-0.472h0.007c0.001 0 0.002 0 0.004 0 3.325 0 6.021 2.695 6.021 6.021 0 2.081-1.056 3.916-2.662 4.997l-0.021 0.014z" />
<glyph unicode="&#xe96d;" d="M605.925 686.2c0.132 0.322 0.25 0.706 0.333 1.103l0.008 0.045c0.066 0.307 0.104 0.66 0.104 1.022 0 0.052-0.001 0.103-0.002 0.155v-0.008c-0.086 3.275-2.717 5.908-5.983 5.999h-0.008c-0.029 0.001-0.064 0.001-0.099 0.001-0.379 0-0.749-0.040-1.105-0.116l0.035 0.006c-1.213-0.244-2.263-0.826-3.079-1.641v0c-0.552-0.543-0.999-1.192-1.307-1.915l-0.015-0.039c-0.285-0.679-0.45-1.469-0.45-2.297 0-0.007 0-0.014 0-0.020v0.001c0-0.023-0.001-0.050-0.001-0.076 0-0.794 0.166-1.549 0.465-2.233l-0.014 0.036c0.327-0.76 0.773-1.408 1.321-1.953v0c1.067-1.089 2.554-1.765 4.198-1.765 0.010 0 0.020 0 0.030 0h-0.002c0.018 0 0.040 0 0.061 0 1.65 0 3.142 0.675 4.216 1.764l0.001 0.001c0.533 0.545 0.969 1.188 1.277 1.898l0.016 0.041z" />
<glyph unicode="&#xe96e;" d="M633.13 686.185c0.13 0.32 0.248 0.704 0.333 1.1l0.009 0.047c0.065 0.351 0.102 0.756 0.102 1.169v0c-0.112 3.275-2.738 5.901-6.003 6.013h-0.010c-1.651-0.013-3.142-0.685-4.227-1.765v0c-0.285-0.276-0.537-0.583-0.75-0.917l-0.012-0.020c-0.207-0.293-0.392-0.628-0.539-0.982l-0.013-0.035c-0.141-0.316-0.259-0.685-0.336-1.070l-0.006-0.034c-0.060-0.338-0.107-0.748-0.13-1.164l-0.001-0.027c0.006-1.663 0.689-3.165 1.786-4.248l0.001-0.001c1.087-1.090 2.591-1.764 4.252-1.764s3.165 0.674 4.252 1.764v0c0.256 0.274 0.495 0.573 0.71 0.889l0.016 0.026c0.203 0.32 0.414 0.683 0.566 1.017z" />
<glyph unicode="&#xe96f;" d="M660.327 686.207c0.139 0.315 0.256 0.684 0.335 1.068l0.006 0.036c0.080 0.357 0.127 0.767 0.131 1.188v0.003c-0.13 3.267-2.746 5.883-6.001 6.013h-0.012c-0.43-0.012-0.84-0.057-1.24-0.131l0.049 0.008c-0.42-0.085-0.789-0.203-1.14-0.355l0.036 0.014c-0.397-0.165-0.739-0.357-1.054-0.584l0.015 0.011c-0.668-0.441-1.222-0.995-1.65-1.642l-0.013-0.021c-0.21-0.293-0.395-0.628-0.54-0.984l-0.012-0.033c-0.134-0.314-0.257-0.69-0.347-1.078l-0.009-0.047c-0.054-0.338-0.093-0.741-0.108-1.151l-0.001-0.018c0-0.006 0-0.014 0-0.022 0-3.309 2.682-5.991 5.991-5.991 0.010 0 0.020 0 0.031 0h-0.002c0.414 0.002 0.819 0.039 1.212 0.108l-0.043-0.006c0.445 0.096 0.829 0.213 1.199 0.359l-0.051-0.018c0.393 0.174 0.727 0.358 1.042 0.568l-0.025-0.016c0.345 0.219 0.644 0.459 0.916 0.727v0c0.269 0.27 0.508 0.57 0.714 0.894l0.013 0.021c0.197 0.307 0.384 0.663 0.541 1.034l0.018 0.048z" />
<glyph unicode="&#xe970;" d="M687.54 686.214c0.289 0.678 0.459 1.466 0.465 2.293v0.002c-0.127 3.269-2.745 5.886-6.001 6.013h-0.012c-0.43-0.012-0.84-0.057-1.24-0.131l0.049 0.008c-0.42-0.085-0.79-0.203-1.141-0.356l0.037 0.014c-0.399-0.164-0.744-0.359-1.060-0.591l0.014 0.010c-0.346-0.216-0.645-0.456-0.915-0.726v0c-1.096-1.086-1.774-2.592-1.774-4.256 0-3.309 2.682-5.991 5.991-5.991 0.011 0 0.022 0 0.033 0h-0.002c0.422 0 0.833 0.048 1.228 0.138l-0.037-0.007c0.413 0.067 0.784 0.186 1.129 0.352l-0.025-0.011c0.402 0.165 0.743 0.343 1.067 0.547l-0.028-0.017c0.342 0.234 0.641 0.472 0.92 0.731l-0.005-0.005c0.255 0.274 0.494 0.573 0.709 0.889l0.017 0.026c0.208 0.306 0.402 0.657 0.564 1.025l0.017 0.043z" />
<glyph unicode="&#xe971;" d="M714.752 686.207c0.13 0.309 0.247 0.678 0.333 1.058l0.009 0.045c0.069 0.353 0.114 0.763 0.123 1.183v0.008c-0.127 3.269-2.745 5.886-6.001 6.013h-0.012c-0.444-0.023-0.854-0.067-1.257-0.132l0.066 0.009c-0.425-0.092-0.794-0.21-1.147-0.357l0.043 0.016c-0.411-0.174-0.759-0.359-1.090-0.569l0.029 0.017c-0.342-0.234-0.64-0.473-0.92-0.731l0.005 0.005c-0.535-0.548-0.967-1.199-1.264-1.921l-0.015-0.040c-0.294-0.664-0.465-1.438-0.465-2.252 0-0.015 0-0.030 0-0.045v0.002c0.007-3.323 2.703-6.015 6.028-6.015 1.654 0 3.153 0.666 4.242 1.745v0c0.254 0.275 0.492 0.573 0.709 0.888l0.017 0.027c0.196 0.297 0.385 0.64 0.547 0.998l0.019 0.048z" />
<glyph unicode="&#xe972;" d="M730.846 690.804c-0.285-0.646-0.451-1.399-0.451-2.191 0-0.029 0-0.058 0.001-0.087v0.004c0-0.006 0-0.014 0-0.022 0-3.309 2.682-5.991 5.991-5.991 0.008 0 0.015 0 0.023 0h-0.001c0.009 0 0.019 0 0.029 0 1.644 0 3.131 0.675 4.197 1.764l0.001 0.001c1.084 1.081 1.757 2.575 1.765 4.225v0.001c0.001 0.040 0.002 0.088 0.002 0.136 0 0.375-0.048 0.739-0.14 1.085l0.007-0.030c-0.054 0.419-0.164 0.798-0.323 1.151l0.010-0.026c-0.161 0.389-0.348 0.723-0.57 1.032l0.010-0.015c-1.1 1.626-2.937 2.68-5.021 2.68-1.655 0-3.155-0.666-4.247-1.744l0.001 0.001c-0.254-0.275-0.493-0.573-0.709-0.888l-0.017-0.027c-0.196-0.301-0.383-0.65-0.541-1.013l-0.018-0.047z" />
<glyph unicode="&#xe973;" d="M518.754 667.31c-0.428-0.010-0.838-0.054-1.237-0.131l0.046 0.007c-0.426-0.093-0.794-0.211-1.148-0.358l0.044 0.016c-0.769-0.312-1.426-0.752-1.976-1.3v0c-0.254-0.275-0.493-0.573-0.709-0.888l-0.017-0.027c-0.194-0.293-0.386-0.634-0.552-0.988l-0.021-0.050c-0.133-0.321-0.244-0.699-0.314-1.091l-0.005-0.035c-0.072-0.296-0.113-0.636-0.113-0.985 0-0.065 0.001-0.129 0.004-0.193v0.009c0-0.005 0-0.012 0-0.018 0-2.488 1.511-4.622 3.664-5.537l0.039-0.015c0.675-0.285 1.46-0.45 2.283-0.45 0.012 0 0.023 0 0.035 0h-0.002c0.416 0.003 0.82 0.043 1.212 0.115l-0.043-0.007c0.431 0.099 0.799 0.216 1.155 0.359l-0.051-0.018c0.4 0.166 0.744 0.359 1.062 0.585l-0.016-0.011c0.343 0.216 0.641 0.455 0.907 0.726l0.001 0.001c1.088 1.090 1.767 2.588 1.787 4.245v0.004c-0.116 3.285-2.75 5.919-6.024 6.035h-0.011z" />
<glyph unicode="&#xe974;" d="M545.952 667.289c-0.003 0-0.007 0-0.010 0-1.655 0-3.155-0.666-4.246-1.744l0.001 0.001c-0.547-0.548-0.99-1.199-1.299-1.921l-0.015-0.040c-0.268-0.63-0.424-1.364-0.424-2.133 0-0.057 0.001-0.113 0.003-0.17v0.008c0-0.015 0-0.033 0-0.051 0-3.285 2.663-5.948 5.948-5.948 0.015 0 0.031 0 0.046 0h-0.002c0.042-0.001 0.092-0.002 0.141-0.002 0.777 0 1.517 0.155 2.191 0.437l-0.038-0.014c0.762 0.327 1.413 0.773 1.961 1.322v0c1.077 1.072 1.743 2.556 1.743 4.195 0 0.019 0 0.038 0 0.057v-0.003c-0.083 3.281-2.719 5.919-5.991 6.006h-0.008z" />
<glyph unicode="&#xe975;" d="M573.164 667.289c-0.013 0-0.028 0-0.044 0-3.285 0-5.948-2.663-5.948-5.948 0-0.015 0-0.031 0-0.046v0.002c0-0.027-0.001-0.059-0.001-0.091 0-1.63 0.667-3.104 1.743-4.164l0.001-0.001c1.086-1.096 2.592-1.774 4.256-1.774 3.309 0 5.991 2.682 5.991 5.991 0 0.014 0 0.027 0 0.041v-0.002c-0.091 3.274-2.724 5.905-5.991 5.991h-0.008z" />
<glyph unicode="&#xe976;" d="M605.918 658.973c0.13 0.322 0.248 0.709 0.333 1.107l0.008 0.048c0.066 0.312 0.103 0.67 0.103 1.037 0 0.046-0.001 0.093-0.002 0.139v-0.007c0.001 0.033 0.001 0.072 0.001 0.111 0 0.374-0.037 0.74-0.109 1.093l0.006-0.035c-0.104 0.438-0.229 0.813-0.381 1.174l0.018-0.048c-0.166 0.402-0.343 0.744-0.547 1.067l0.017-0.029c-1.104 1.62-2.937 2.672-5.017 2.68h-0.001c-1.655-0.005-3.151-0.679-4.234-1.765v0c-1.091-1.088-1.771-2.587-1.787-4.246v-0.003c0.019-0.831 0.191-1.617 0.488-2.338l-0.016 0.043c0.934-2.193 3.062-3.706 5.546-3.726h0.003c0.010 0 0.022 0 0.034 0 1.659 0 3.159 0.675 4.243 1.765v0c0.269 0.27 0.509 0.57 0.714 0.894l0.013 0.021c0.198 0.29 0.387 0.624 0.548 0.973l0.018 0.044z" />
<glyph unicode="&#xe977;" d="M633.115 659.002c0.138 0.316 0.263 0.692 0.354 1.080l0.009 0.045c0.063 0.35 0.1 0.755 0.102 1.168v0.002c0.001 0.044 0.002 0.095 0.002 0.147 0 0.362-0.038 0.715-0.11 1.055l0.006-0.033c-0.192 0.825-0.5 1.552-0.911 2.209l0.018-0.030c-1.114 1.609-2.941 2.656-5.015 2.68h-0.004c-0.431-0.017-0.834-0.056-1.23-0.117l0.061 0.008c-0.436-0.102-0.811-0.227-1.171-0.381l0.046 0.017c-0.391-0.157-0.729-0.342-1.039-0.562l0.015 0.010c-0.345-0.219-0.644-0.458-0.916-0.727v0c-1.094-1.088-1.775-2.591-1.787-4.254v-0.002c0.002-1.664 0.685-3.167 1.786-4.248l0.001-0.001c0.272-0.272 0.563-0.525 0.872-0.755l0.021-0.015c0.627-0.389 1.354-0.696 2.128-0.883l0.051-0.010c0.335-0.069 0.719-0.109 1.113-0.109 0.020 0 0.039 0 0.059 0h-0.003c0.003 0 0.006 0 0.009 0 0.832 0 1.625 0.165 2.348 0.465l-0.041-0.015c0.764 0.323 1.415 0.769 1.96 1.321l0.001 0.001c0.254 0.275 0.493 0.573 0.709 0.888l0.017 0.027c0.191 0.29 0.371 0.624 0.521 0.974l0.016 0.043z" />
<glyph unicode="&#xe978;" d="M660.683 662.481c-0.1 0.435-0.225 0.81-0.38 1.17l0.017-0.044c-0.172 0.409-0.349 0.752-0.55 1.080l0.020-0.035c-1.114 1.609-2.941 2.656-5.015 2.68h-0.004c-1.651-0.013-3.142-0.685-4.227-1.765v0c-0.284-0.276-0.536-0.583-0.75-0.916l-0.012-0.021c-0.208-0.293-0.393-0.628-0.54-0.983l-0.012-0.034c-0.141-0.316-0.259-0.685-0.336-1.070l-0.006-0.034c-0.073-0.353-0.12-0.763-0.131-1.182v-0.009c0.001-1.664 0.685-3.168 1.786-4.248l0.001-0.001c0.272-0.272 0.563-0.525 0.872-0.755l0.021-0.015c0.297-0.187 0.641-0.365 1-0.513l0.046-0.017c0.316-0.139 0.692-0.263 1.080-0.354l0.045-0.009c0.355-0.074 0.763-0.117 1.18-0.117s0.825 0.043 1.219 0.123l-0.039-0.007c0.425 0.074 0.803 0.185 1.162 0.333l-0.037-0.013c0.398 0.178 0.734 0.362 1.053 0.57l-0.029-0.018c0.346 0.241 0.65 0.491 0.931 0.764l-0.002-0.002c1.074 1.094 1.739 2.593 1.743 4.248v0.001c-0.005 0.425-0.045 0.836-0.116 1.237l0.007-0.046z" />
<glyph unicode="&#xe979;" d="M687.54 659.002c0.138 0.314 0.256 0.684 0.335 1.068l0.006 0.036c0.067 0.348 0.114 0.758 0.13 1.175v0.016c-0.13 3.271-2.749 5.89-6.008 6.020h-0.012c-0.424-0.004-0.835-0.051-1.231-0.138l0.039 0.007c-0.419-0.082-0.788-0.2-1.138-0.355l0.034 0.013c-0.413-0.171-0.764-0.356-1.095-0.569l0.028 0.017c-0.667-0.441-1.222-0.996-1.65-1.642l-0.013-0.021c-0.188-0.297-0.366-0.641-0.514-1.001l-0.016-0.045c-0.137-0.315-0.262-0.69-0.354-1.079l-0.009-0.047c-0.063-0.35-0.1-0.755-0.102-1.167v-0.002c0-0.006 0-0.014 0-0.022 0-3.309 2.682-5.991 5.991-5.991 0.008 0 0.015 0 0.023 0h-0.001c0.414 0.002 0.819 0.039 1.212 0.108l-0.043-0.006c0.438 0.104 0.813 0.229 1.174 0.381l-0.048-0.018c0.404 0.168 0.745 0.346 1.069 0.548l-0.031-0.018c0.667 0.441 1.222 0.996 1.65 1.642l0.013 0.021c0.196 0.303 0.383 0.654 0.541 1.020l0.018 0.047z" />
<glyph unicode="&#xe97a;" d="M714.752 659.002c0.139 0.315 0.256 0.684 0.335 1.068l0.006 0.036c0.080 0.358 0.126 0.769 0.126 1.191s-0.046 0.833-0.133 1.229l0.007-0.038c-0.085 0.42-0.203 0.789-0.355 1.14l0.014-0.036c-0.485 1.118-1.253 2.035-2.215 2.688l-0.022 0.014c-0.293 0.208-0.628 0.393-0.983 0.539l-0.034 0.013c-0.314 0.136-0.689 0.26-1.077 0.353l-0.049 0.010c-0.348 0.063-0.751 0.102-1.163 0.109h-0.006c-0.829-0.006-1.617-0.176-2.335-0.48l0.040 0.015c-0.412-0.173-0.763-0.36-1.094-0.575l0.027 0.016c-0.331-0.24-0.623-0.491-0.893-0.762v0c-1.090-1.086-1.764-2.589-1.764-4.249 0-3.313 2.686-5.999 5.999-5.999 0.005 0 0.010 0 0.014 0h-0.001c0.422 0 0.833 0.048 1.228 0.138l-0.037-0.007c0.418 0.081 0.788 0.199 1.137 0.355l-0.033-0.013c0.406 0.166 0.749 0.344 1.076 0.547l-0.030-0.017c0.661 0.444 1.212 0.995 1.642 1.635l0.013 0.021c0.195 0.301 0.382 0.649 0.541 1.013l0.018 0.047z" />
<glyph unicode="&#xe97b;" d="M741.964 658.995c0.13 0.311 0.245 0.68 0.327 1.062l0.008 0.042c0.060 0.339 0.107 0.748 0.13 1.164l0.001 0.027c-0.012 0.43-0.056 0.84-0.131 1.24l0.008-0.049c-0.086 0.421-0.204 0.79-0.356 1.141l0.014-0.037c-0.165 0.397-0.357 0.739-0.584 1.054l0.011-0.015c-1.093 1.611-2.909 2.661-4.972 2.68h-0.003c-0.428-0.011-0.838-0.058-1.236-0.138l0.045 0.008c-0.423-0.090-0.792-0.208-1.145-0.357l0.041 0.015c-0.411-0.174-0.759-0.359-1.090-0.569l0.029 0.017c-0.342-0.235-0.64-0.473-0.921-0.731l0.006 0.005c-0.541-0.542-0.979-1.185-1.285-1.9l-0.015-0.040c-0.281-0.658-0.444-1.423-0.444-2.227 0-0.032 0-0.063 0.001-0.095v0.005c0-0.006 0-0.014 0-0.022 0-3.309 2.682-5.991 5.991-5.991 0.008 0 0.015 0 0.023 0h-0.001c0.014 0 0.030 0 0.046 0 0.813 0 1.586 0.171 2.285 0.479l-0.036-0.014c0.755 0.318 1.399 0.757 1.939 1.3v0c0.269 0.27 0.508 0.57 0.714 0.894l0.013 0.021c0.221 0.298 0.418 0.637 0.575 0.998l0.013 0.033z" />
<glyph unicode="&#xe97c;" d="M524.31 631.79c0.141 0.325 0.253 0.704 0.316 1.098l0.004 0.027c0.083 0.35 0.131 0.752 0.131 1.165 0 0.009 0 0.019 0 0.028v-0.001c-0.119 3.261-2.731 5.875-5.98 5.998h-0.011c-0.428-0.010-0.838-0.054-1.237-0.131l0.046 0.007c-0.433-0.085-0.81-0.195-1.172-0.335l0.047 0.016c-0.405-0.183-0.748-0.375-1.074-0.591l0.028 0.017c-0.345-0.218-0.645-0.457-0.915-0.726v0c-1.088-1.088-1.761-2.592-1.761-4.252 0-3.321 2.692-6.013 6.013-6.013 1.661 0 3.164 0.673 4.252 1.761v0c0.27 0.27 0.51 0.569 0.714 0.894l0.012 0.021c0.224 0.294 0.421 0.629 0.576 0.985l0.012 0.031z" />
<glyph unicode="&#xe97d;" d="M551.522 631.79c0.126 0.317 0.237 0.694 0.313 1.084l0.007 0.042c0.079 0.341 0.124 0.733 0.124 1.135 0 0.020 0 0.039 0 0.059v-0.003c-0.127 3.269-2.745 5.886-6.001 6.013h-0.012c-0.425-0.017-0.826-0.069-1.216-0.154l0.046 0.008c-0.828-0.137-1.564-0.452-2.194-0.904l0.016 0.011c-0.345-0.218-0.645-0.458-0.915-0.726v0c-0.538-0.551-0.98-1.198-1.298-1.912l-0.017-0.042c-0.122-0.301-0.239-0.67-0.33-1.048l-0.011-0.056c-0.064-0.349-0.104-0.752-0.109-1.165v-0.005c0-0.009 0-0.019 0-0.030 0-1.658 0.675-3.158 1.765-4.24v0c1.071-1.077 2.554-1.743 4.192-1.743 0.020 0 0.040 0 0.060 0h-0.003c0.058-0.003 0.126-0.004 0.194-0.004 0.346 0 0.682 0.041 1.004 0.119l-0.029-0.006c0.426 0.075 0.804 0.186 1.163 0.333l-0.038-0.014c0.4 0.167 0.744 0.359 1.063 0.585l-0.017-0.011c0.666 0.442 1.221 0.997 1.65 1.642l0.013 0.021c0.22 0.292 0.414 0.624 0.569 0.978l0.012 0.032z" />
<glyph unicode="&#xe97e;" d="M579.054 635.254c-0.093 0.443-0.211 0.827-0.358 1.196l0.017-0.048c-0.174 0.396-0.359 0.732-0.568 1.050l0.016-0.026c-1.105 1.617-2.939 2.667-5.017 2.673h-0.001c-1.655-0.005-3.151-0.679-4.234-1.765v0c-0.547-0.545-0.99-1.194-1.299-1.914l-0.015-0.040c-0.267-0.659-0.422-1.423-0.422-2.223 0-3.349 2.715-6.064 6.064-6.064 0.8 0 1.565 0.155 2.264 0.437l-0.041-0.014c0.763 0.326 1.413 0.772 1.961 1.322v0c1.077 1.072 1.743 2.556 1.743 4.195 0 0.021 0 0.043 0 0.064v-0.003c0.002 0.053 0.004 0.115 0.004 0.178 0 0.349-0.041 0.688-0.119 1.014l0.006-0.030z" />
<glyph unicode="&#xe97f;" d="M603.71 639.081c-0.297 0.202-0.638 0.393-0.995 0.556l-0.044 0.018c-0.317 0.126-0.695 0.237-1.084 0.313l-0.041 0.007c-0.354 0.071-0.765 0.116-1.184 0.123h-0.007c-3.317 0-6.006-2.689-6.006-6.006s2.689-6.006 6.006-6.006v0c0.018 0 0.039 0 0.060 0 1.637 0 3.119 0.666 4.189 1.743v0c1.078 1.090 1.743 2.589 1.743 4.243 0 2.073-1.045 3.902-2.638 4.989l-0.021 0.013z" />
<glyph unicode="&#xe980;" d="M630.922 639.081c-0.3 0.191-0.648 0.376-1.011 0.533l-0.049 0.019c-0.678 0.288-1.466 0.458-2.292 0.465h-0.003c-0.418-0.006-0.821-0.046-1.214-0.116l0.045 0.007c-0.44-0.104-0.818-0.228-1.181-0.381l0.048 0.018c-0.403-0.167-0.745-0.345-1.069-0.548l0.030 0.018c-0.33-0.245-0.622-0.497-0.893-0.77v0c-1.103-1.080-1.786-2.585-1.787-4.248v0c0-0.407 0.065-0.792 0.131-1.191 0.091-0.424 0.209-0.793 0.357-1.146l-0.016 0.042c0.156-0.391 0.342-0.729 0.562-1.039l-0.010 0.015c0.227-0.354 0.478-0.661 0.761-0.936l0.001-0.001c0.54-0.542 1.184-0.979 1.9-1.278l0.039-0.014c0.678-0.281 1.464-0.453 2.287-0.472h0.008c0.010 0 0.021 0 0.033 0 1.657 0 3.156 0.675 4.237 1.764v0c1.078 1.090 1.743 2.589 1.743 4.243 0 2.073-1.045 3.902-2.638 4.989l-0.021 0.013z" />
<glyph unicode="&#xe981;" d="M660.327 631.783c0.136 0.314 0.26 0.689 0.353 1.077l0.010 0.048c0.064 0.351 0.101 0.756 0.102 1.169v0c-0.098 3.281-2.732 5.915-6.004 6.013h-0.009c-0.431-0.017-0.834-0.056-1.23-0.117l0.061 0.008c-0.436-0.102-0.811-0.227-1.171-0.381l0.046 0.017c-0.409-0.171-0.752-0.349-1.080-0.55l0.034 0.020c-0.342-0.235-0.64-0.473-0.921-0.731l0.006 0.005c-0.541-0.552-0.978-1.208-1.278-1.935l-0.015-0.040c-0.295-0.677-0.468-1.465-0.472-2.294v-0.001c0.020-3.313 2.7-5.993 6.011-6.013h0.002c0.010 0 0.022 0 0.034 0 1.659 0 3.159 0.675 4.243 1.765v0c0.254 0.275 0.493 0.573 0.709 0.888l0.017 0.027c0.187 0.289 0.371 0.624 0.531 0.974l0.021 0.050z" />
<glyph unicode="&#xe982;" d="M681.984 640.098c-0.030 0.001-0.066 0.001-0.101 0.001-0.795 0-1.549-0.174-2.227-0.487l0.033 0.014c-0.764-0.297-1.415-0.731-1.953-1.278l-0.001-0.001c-1.090-1.087-1.764-2.591-1.764-4.252s0.674-3.165 1.764-4.252v0c0.278-0.278 0.577-0.535 0.894-0.769l0.021-0.015c0.293-0.181 0.637-0.358 0.994-0.51l0.052-0.020c0.312-0.135 0.681-0.252 1.064-0.334l0.040-0.007c0.358-0.082 0.769-0.13 1.191-0.13s0.833 0.047 1.228 0.137l-0.037-0.007c0.418 0.082 0.788 0.2 1.138 0.355l-0.034-0.013c0.41 0.173 0.754 0.351 1.082 0.551l-0.036-0.021c0.336 0.248 0.632 0.505 0.907 0.784l0.001 0.001c1.080 1.084 1.752 2.576 1.765 4.224v0.003c-0.105 3.283-2.738 5.919-6.010 6.028h-0.010z" />
<glyph unicode="&#xe983;" d="M714.752 631.783c0.139 0.315 0.256 0.684 0.335 1.068l0.006 0.036c0.067 0.351 0.112 0.762 0.123 1.18v0.011c-0.127 3.269-2.745 5.886-6.001 6.013h-0.012c-0.002 0-0.004 0-0.006 0-0.42 0-0.829-0.045-1.223-0.13l0.038 0.007c-0.42-0.085-0.789-0.203-1.14-0.355l0.037 0.014c-0.412-0.176-0.76-0.361-1.091-0.57l0.031 0.018c-0.342-0.233-0.641-0.472-0.92-0.731l0.005 0.005c-0.253-0.275-0.492-0.573-0.709-0.888l-0.018-0.027c-0.192-0.29-0.377-0.623-0.534-0.972l-0.018-0.045c-0.128-0.32-0.243-0.705-0.326-1.101l-0.008-0.047c-0.070-0.317-0.11-0.68-0.11-1.053 0-0.041 0-0.082 0.001-0.122v0.006c0-0.006 0-0.014 0-0.022 0-3.309 2.682-5.991 5.991-5.991 0.008 0 0.015 0 0.023 0h-0.001c0.427 0.015 0.831 0.054 1.227 0.116l-0.057-0.007c0.435 0.099 0.811 0.221 1.172 0.373l-0.046-0.017c0.403 0.167 0.745 0.345 1.069 0.548l-0.030-0.018c0.643 0.471 1.192 1.021 1.648 1.642l0.015 0.021c0.183 0.293 0.36 0.634 0.511 0.989l0.019 0.050z" />
<glyph unicode="&#xe984;" d="M741.964 631.79c0.138 0.314 0.256 0.684 0.335 1.067l0.006 0.037c0.067 0.351 0.111 0.761 0.123 1.18v0.011c-0.127 3.269-2.745 5.886-6.001 6.013h-0.012c-0.829-0.006-1.617-0.176-2.335-0.48l0.040 0.015c-0.415-0.175-0.765-0.36-1.098-0.57l0.031 0.018c-0.339-0.23-0.636-0.469-0.911-0.729l0.003 0.003c-1.090-1.089-1.765-2.593-1.765-4.256 0-3.321 2.692-6.013 6.013-6.013 0.008 0 0.016 0 0.023 0h-0.001c1.651 0.013 3.142 0.685 4.227 1.765v0c0.269 0.268 0.509 0.565 0.714 0.887l0.012 0.021c0.226 0.298 0.426 0.638 0.583 0.999l0.012 0.032z" />
<glyph unicode="&#xe985;" d="M524.31 604.57c0.125 0.318 0.235 0.698 0.312 1.090l0.007 0.043c0.083 0.354 0.131 0.761 0.131 1.179 0 0.004 0 0.008 0 0.013v-0.001c-0.006 0.418-0.046 0.822-0.116 1.215l0.007-0.046c-0.093 0.429-0.218 0.805-0.378 1.162l0.015-0.037c-0.152 0.388-0.338 0.723-0.561 1.030l0.009-0.013c-0.424 0.678-0.98 1.236-1.635 1.651l-0.021 0.013c-0.302 0.216-0.646 0.408-1.011 0.561l-0.035 0.013c-0.311 0.133-0.68 0.25-1.062 0.334l-0.042 0.008c-0.338 0.057-0.747 0.101-1.163 0.122l-0.028 0.001c-0.425-0.017-0.826-0.069-1.216-0.154l0.046 0.008c-0.422-0.067-0.8-0.178-1.157-0.331l0.031 0.012c-0.399-0.161-0.744-0.354-1.060-0.584l0.014 0.010c-0.346-0.216-0.645-0.456-0.915-0.726v0c-0.268-0.269-0.507-0.566-0.713-0.887l-0.013-0.021c-0.213-0.295-0.399-0.633-0.541-0.992l-0.011-0.032c-0.136-0.314-0.261-0.69-0.353-1.078l-0.010-0.048c-0.036-0.385-0.102-0.784-0.102-1.169 0-0.002 0-0.004 0-0.006 0-1.665 0.674-3.173 1.765-4.265v0c1.095-1.072 2.594-1.735 4.247-1.743h0.001c0.017 0 0.038 0 0.059 0 0.4 0 0.792 0.032 1.174 0.093l-0.042-0.006c0.435 0.101 0.811 0.226 1.171 0.38l-0.045-0.017c0.391 0.152 0.729 0.338 1.037 0.561l-0.013-0.009c0.665 0.439 1.217 0.991 1.643 1.635l0.013 0.021c0.196 0.288 0.382 0.62 0.541 0.966l0.018 0.043z" />
<glyph unicode="&#xe986;" d="M551.522 604.57c0.126 0.317 0.236 0.694 0.313 1.083l0.007 0.042c0.071 0.352 0.118 0.762 0.13 1.18v0.011c-0.13 3.267-2.746 5.883-6.001 6.013h-0.012c-0.425-0.018-0.826-0.070-1.216-0.154l0.047 0.008c-0.423-0.068-0.801-0.18-1.158-0.332l0.032 0.012c-0.756-0.334-1.403-0.777-1.955-1.316l0.001 0.001c-0.543-0.541-0.982-1.185-1.285-1.9l-0.015-0.039c-0.289-0.678-0.459-1.466-0.465-2.293v-0.002c0-0.022-0.001-0.049-0.001-0.075 0-0.396 0.045-0.781 0.131-1.15l-0.007 0.034c0.066-0.424 0.178-0.806 0.331-1.164l-0.012 0.031c0.18-0.401 0.372-0.741 0.589-1.063l-0.016 0.024c0.216-0.346 0.456-0.645 0.726-0.915v0c0.267-0.271 0.565-0.51 0.887-0.714l0.020-0.012c0.291-0.198 0.625-0.382 0.976-0.536l0.041-0.016c0.333-0.148 0.72-0.267 1.125-0.337l0.030-0.004c0.291-0.072 0.625-0.114 0.968-0.114 0.071 0 0.141 0.002 0.211 0.005h-0.010c0.011 0 0.023 0 0.036 0 1.645 0 3.134 0.666 4.213 1.743v0c0.269 0.27 0.508 0.57 0.714 0.894l0.013 0.021c0.213 0.297 0.416 0.635 0.591 0.989l0.019 0.042z" />
<glyph unicode="&#xe987;" d="M578.713 604.599c0.132 0.311 0.25 0.68 0.334 1.061l0.008 0.042c0.071 0.352 0.118 0.762 0.13 1.181v0.010c-0.004 0.409-0.051 0.804-0.138 1.185l0.007-0.037c-0.077 0.433-0.196 0.818-0.354 1.181l0.013-0.034c-0.154 0.388-0.339 0.723-0.561 1.030l0.009-0.014c-1.103 1.615-2.923 2.669-4.992 2.702h-0.005c-0.441-0.021-0.851-0.065-1.253-0.132l0.062 0.008c-0.425-0.093-0.794-0.21-1.148-0.358l0.044 0.016c-0.397-0.163-0.739-0.356-1.053-0.584l0.015 0.010c-0.345-0.217-0.645-0.457-0.915-0.726v0c-0.271-0.269-0.511-0.569-0.714-0.894l-0.012-0.021c-0.213-0.3-0.405-0.641-0.56-1.003l-0.014-0.036c-0.123-0.302-0.24-0.67-0.33-1.049l-0.011-0.055c-0.063-0.348-0.102-0.751-0.109-1.163v-0.006c0-0.008 0-0.017 0-0.027 0-1.658 0.675-3.159 1.765-4.243v0c0.54-0.542 1.184-0.979 1.9-1.278l0.039-0.014c0.675-0.285 1.459-0.45 2.282-0.45 0.012 0 0.024 0 0.037 0h-0.002c0.027-0.001 0.060-0.001 0.092-0.001 0.381 0 0.754 0.040 1.112 0.116l-0.035-0.006c0.442 0.094 0.819 0.204 1.184 0.338l-0.058-0.019c0.363 0.189 0.726 0.363 1.046 0.574 0.339 0.231 0.635 0.47 0.912 0.73l-0.004-0.004c0.254 0.275 0.492 0.573 0.709 0.888l0.017 0.027c0.195 0.3 0.38 0.646 0.535 1.008l0.017 0.045z" />
<glyph unicode="&#xe988;" d="M606.259 608.064c-0.096 0.445-0.213 0.829-0.359 1.198l0.018-0.051c-0.18 0.396-0.364 0.729-0.57 1.047l0.019-0.030c-0.447 0.661-0.998 1.214-1.635 1.65l-0.021 0.014c-0.298 0.2-0.641 0.391-1 0.555l-0.046 0.019c-0.32 0.131-0.698 0.242-1.089 0.314l-0.036 0.006c-0.33 0.084-0.709 0.132-1.098 0.132-0.033 0-0.065 0-0.097-0.001h0.005c-1.654-0.006-3.15-0.679-4.234-1.765v0c-0.548-0.549-0.993-1.199-1.306-1.921l-0.016-0.040c-0.28-0.664-0.443-1.437-0.443-2.247 0-0.009 0-0.018 0-0.028v0.001c0-0.002 0-0.004 0-0.007 0-2.489 1.506-4.626 3.657-5.549l0.039-0.015c0.679-0.28 1.466-0.443 2.292-0.443 0.011 0 0.022 0 0.033 0h-0.002c0.025 0 0.055-0.001 0.085-0.001 0.796 0 1.555 0.155 2.25 0.436l-0.040-0.014c0.762 0.327 1.413 0.773 1.961 1.322v0c1.077 1.091 1.743 2.59 1.743 4.246 0 0.001 0 0.002 0 0.003v0c0.003 0.059 0.005 0.128 0.005 0.198 0 0.345-0.041 0.68-0.12 1l0.006-0.029z" />
<glyph unicode="&#xe989;" d="M633.478 608.071c-0.091 0.441-0.209 0.825-0.358 1.193l0.016-0.046c-0.18 0.396-0.364 0.73-0.571 1.047l0.019-0.030c-0.447 0.66-1 1.211-1.642 1.642l-0.022 0.014c-0.297 0.202-0.638 0.394-0.995 0.556l-0.044 0.018c-0.322 0.134-0.7 0.245-1.092 0.315l-0.034 0.005c-0.355 0.078-0.764 0.123-1.182 0.123-0.003 0-0.006 0-0.009 0v0c-1.652-0.007-3.145-0.68-4.227-1.765v0c-1.089-1.065-1.765-2.55-1.765-4.192 0-0.012 0-0.024 0-0.037v0.002c0.007-3.324 2.703-6.015 6.028-6.015 1.651 0 3.146 0.663 4.235 1.738l-0.001-0.001c1.077 1.090 1.743 2.588 1.743 4.243 0 0.002 0 0.004 0 0.006v0c0.001 0.042 0.002 0.091 0.002 0.14 0 0.369-0.038 0.73-0.109 1.078l0.006-0.034z" />
<glyph unicode="&#xe98a;" d="M658.112 611.891c-0.291 0.18-0.632 0.358-0.986 0.51l-0.052 0.020c-0.314 0.137-0.69 0.261-1.078 0.354l-0.048 0.010c-0.352 0.069-0.756 0.108-1.169 0.108s-0.818-0.039-1.209-0.115l0.040 0.006c-0.825-0.196-1.552-0.504-2.21-0.912l0.032 0.018c-0.342-0.233-0.641-0.472-0.92-0.731l0.005 0.005c-1.090-1.082-1.765-2.581-1.765-4.238 0-0.012 0-0.023 0-0.035v0.002c0.013-1.651 0.685-3.142 1.765-4.227v0c0.545-0.551 1.197-0.996 1.922-1.3l0.039-0.015c0.678-0.283 1.464-0.455 2.288-0.472h0.007c3.31 0.029 5.985 2.704 6.013 6.011v0.003c-0.013 2.071-1.061 3.895-2.652 4.983l-0.021 0.013z" />
<glyph unicode="&#xe98b;" d="M687.54 604.578c0.138 0.316 0.263 0.692 0.354 1.080l0.009 0.046c0.052 0.34 0.089 0.744 0.101 1.154v0.016c-0.008 0.426-0.052 0.837-0.131 1.235l0.007-0.044c-0.094 0.426-0.211 0.795-0.358 1.148l0.016-0.045c-0.175 0.414-0.36 0.765-0.57 1.098l0.018-0.031c-1.104 1.606-2.928 2.648-4.995 2.658h-0.002c-0.414-0.002-0.819-0.039-1.212-0.108l0.043 0.006c-0.434-0.1-0.81-0.225-1.169-0.38l0.044 0.017c-0.41-0.173-0.753-0.35-1.082-0.55l0.036 0.020c-0.342-0.233-0.641-0.472-0.92-0.731l0.005 0.005c-1.090-1.070-1.765-2.558-1.765-4.204 0-0.026 0-0.051 0-0.077v0.004c0 0 0-0.001 0-0.001 0-1.653 0.675-3.148 1.764-4.225l0.001-0.001c0.278-0.281 0.577-0.54 0.894-0.777l0.021-0.015c0.291-0.18 0.632-0.358 0.986-0.51l0.052-0.020c0.309-0.131 0.678-0.248 1.059-0.333l0.045-0.008c0.353-0.069 0.764-0.114 1.183-0.123h0.008c0.83 0.004 1.618 0.177 2.333 0.487l-0.038-0.015c0.763 0.321 1.415 0.765 1.961 1.314v0c0.268 0.271 0.507 0.57 0.713 0.893l0.013 0.022c0.219 0.288 0.411 0.615 0.562 0.964l0.012 0.031z" />
<glyph unicode="&#xe98c;" d="M709.196 612.886c-1.655-0.004-3.155-0.669-4.249-1.744l0.001 0.001c-1.090-1.083-1.765-2.583-1.765-4.241 0-0.010 0-0.021 0-0.031v0.002c0-0.011 0-0.024 0-0.037 0-0.817 0.174-1.593 0.486-2.294l-0.014 0.036c0.315-0.755 0.752-1.399 1.293-1.939v0c0.525-0.577 1.18-1.026 1.92-1.303l0.034-0.011c0.309-0.13 0.678-0.248 1.059-0.333l0.045-0.008c0.353-0.069 0.763-0.114 1.183-0.123h0.008c3.31 0.029 5.985 2.704 6.013 6.011v0.003c-0.112 3.275-2.738 5.901-6.003 6.013h-0.010z" />
<glyph unicode="&#xe98d;" d="M741.964 604.578c0.147 0.327 0.256 0.707 0.31 1.104l0.002 0.021c0.084 0.32 0.133 0.688 0.133 1.066 0 0.044-0.001 0.088-0.002 0.131v-0.006c-0.009 2.069-1.051 3.893-2.637 4.983l-0.021 0.013c-0.294 0.185-0.635 0.363-0.991 0.513l-0.047 0.018c-0.315 0.137-0.69 0.262-1.078 0.354l-0.047 0.009c-0.346 0.062-0.75 0.101-1.161 0.109h-0.008c-0.029 0.001-0.062 0.001-0.096 0.001-0.389 0-0.766-0.048-1.127-0.138l0.032 0.007c-0.427-0.076-0.805-0.187-1.164-0.333l0.039 0.014c-0.401-0.182-0.742-0.373-1.064-0.59l0.026 0.016c-0.668-0.44-1.223-0.995-1.65-1.642l-0.013-0.021c-0.21-0.293-0.395-0.628-0.54-0.984l-0.012-0.033c-0.144-0.329-0.263-0.714-0.336-1.115l-0.005-0.033c-0.066-0.311-0.103-0.669-0.103-1.035 0-0.047 0.001-0.094 0.002-0.141v0.007c0-0.011 0-0.024 0-0.036 0-3.289 2.666-5.955 5.955-5.955 0.013 0 0.026 0 0.038 0h-0.002c0.018 0 0.038 0 0.059 0 0.399 0 0.792 0.032 1.174 0.093l-0.042-0.006c0.435 0.101 0.811 0.226 1.171 0.38l-0.045-0.017c0.391 0.154 0.729 0.339 1.038 0.562l-0.014-0.010c0.345 0.219 0.644 0.458 0.916 0.727v0c0.269 0.27 0.509 0.57 0.714 0.894l0.013 0.021c0.225 0.304 0.422 0.651 0.576 1.020l0.012 0.033z" />
<glyph unicode="&#xe98e;" d="M524.651 580.851c-0.1 0.434-0.225 0.81-0.38 1.169l0.017-0.044c-0.166 0.406-0.344 0.75-0.548 1.076l0.017-0.030c-0.448 0.657-0.999 1.208-1.635 1.642l-0.021 0.014c-0.303 0.194-0.654 0.378-1.020 0.534l-0.048 0.018c-0.311 0.133-0.68 0.25-1.062 0.334l-0.042 0.008c-0.343 0.060-0.753 0.104-1.17 0.123l-0.021 0.001c-3.323-0.007-6.015-2.703-6.015-6.028 0-1.665 0.675-3.172 1.766-4.263v0c1.089-1.090 2.593-1.765 4.256-1.765 3.321 0 6.013 2.692 6.013 6.013 0 0.008 0 0.016 0 0.023v-0.001c-0.003 0.418-0.042 0.824-0.115 1.219l0.007-0.042z" />
<glyph unicode="&#xe98f;" d="M551.508 577.38c0.128 0.307 0.245 0.676 0.332 1.056l0.009 0.048c0.068 0.352 0.112 0.762 0.123 1.181v0.010c-0.006 0.418-0.046 0.822-0.116 1.215l0.007-0.046c-0.101 0.435-0.226 0.811-0.38 1.171l0.017-0.045c-0.153 0.388-0.338 0.723-0.561 1.030l0.009-0.013c-0.426 0.677-0.981 1.234-1.635 1.65l-0.021 0.013c-0.302 0.22-0.646 0.413-1.013 0.562l-0.032 0.012c-0.315 0.139-0.684 0.257-1.068 0.335l-0.036 0.006c-0.351 0.067-0.761 0.111-1.179 0.123h-0.012c-0.441-0.021-0.851-0.065-1.253-0.132l0.062 0.008c-0.428-0.093-0.8-0.211-1.156-0.358l0.045 0.016c-1.117-0.479-2.033-1.245-2.681-2.208l-0.014-0.022c-0.211-0.295-0.396-0.633-0.54-0.991l-0.012-0.033c-0.137-0.315-0.262-0.69-0.354-1.079l-0.009-0.047c-0.053-0.335-0.092-0.739-0.108-1.148l-0.001-0.022c0.013-0.43 0.060-0.84 0.139-1.238l-0.008 0.047c0.075-0.415 0.193-0.786 0.353-1.133l-0.012 0.029c0.173-0.41 0.35-0.753 0.55-1.081l-0.020 0.036c0.243-0.349 0.494-0.655 0.766-0.94l-0.003 0.003c0.537-0.549 1.189-0.984 1.917-1.266l0.037-0.013c0.677-0.294 1.465-0.467 2.293-0.472h0.002c0.040-0.001 0.088-0.002 0.135-0.002 0.366 0 0.723 0.038 1.068 0.109l-0.034-0.006c0.432 0.076 0.817 0.195 1.18 0.354l-0.033-0.013c0.394 0.17 0.731 0.354 1.047 0.566l-0.023-0.014c0.345 0.218 0.645 0.457 0.915 0.726v0c0.27 0.269 0.51 0.569 0.714 0.894l0.012 0.021c0.206 0.313 0.4 0.673 0.563 1.050l0.018 0.046z" />
<glyph unicode="&#xe990;" d="M578.713 577.387c0.132 0.311 0.25 0.68 0.334 1.061l0.008 0.042c0.070 0.35 0.117 0.76 0.13 1.178v0.013c-0.005 0.417-0.045 0.821-0.116 1.213l0.007-0.044c-0.103 0.436-0.227 0.812-0.381 1.172l0.018-0.046c-0.161 0.392-0.346 0.729-0.564 1.042l0.012-0.018c-1.104 1.614-2.924 2.668-4.991 2.702h-0.005c-0.407 0-0.784-0.065-1.191-0.131-0.426-0.094-0.795-0.211-1.149-0.358l0.045 0.017c-0.413-0.173-0.764-0.358-1.096-0.569l0.029 0.017c-0.33-0.243-0.622-0.493-0.894-0.763v0c-1.090-1.076-1.765-2.57-1.765-4.222 0-0.004 0-0.008 0-0.012v0.001c0-0.022-0.001-0.049-0.001-0.075 0-0.396 0.045-0.781 0.131-1.15l-0.007 0.034c0.067-0.422 0.179-0.801 0.332-1.157l-0.012 0.032c0.178-0.395 0.362-0.728 0.57-1.045l-0.018 0.029c0.227-0.354 0.478-0.661 0.761-0.936l0.001-0.001c1.079-1.077 2.568-1.743 4.213-1.743 0.015 0 0.030 0 0.045 0h-0.002c0.010 0 0.023 0 0.035 0 0.817 0 1.594 0.174 2.295 0.486l-0.036-0.014c0.762 0.311 1.413 0.743 1.962 1.279l-0.001-0.001c0.254 0.275 0.493 0.573 0.709 0.888l0.017 0.027c0.201 0.301 0.393 0.646 0.556 1.008l0.018 0.045z" />
<glyph unicode="&#xe991;" d="M605.925 577.387c0.131 0.309 0.248 0.678 0.333 1.059l0.008 0.045c0.069 0.353 0.114 0.763 0.123 1.183v0.008c-0.127 3.269-2.745 5.886-6.001 6.013h-0.012c-1.665-0.013-3.17-0.684-4.271-1.766l0.001 0.001c-0.545-0.55-0.983-1.206-1.279-1.936l-0.014-0.040c-0.122-0.301-0.239-0.67-0.33-1.048l-0.011-0.055c-0.070-0.33-0.109-0.708-0.109-1.096 0-0.026 0-0.051 0.001-0.077v0.004c0-0.006 0-0.014 0-0.022 0-3.309 2.682-5.991 5.991-5.991 0.008 0 0.015 0 0.023 0h-0.001c0.027-0.001 0.060-0.001 0.092-0.001 0.381 0 0.754 0.040 1.112 0.116l-0.035-0.006c0.825 0.177 1.554 0.487 2.204 0.909l-0.025-0.015c0.339 0.231 0.635 0.47 0.911 0.73l-0.004-0.003c0.255 0.274 0.494 0.573 0.709 0.889l0.017 0.026c0.202 0.307 0.391 0.66 0.549 1.030l0.017 0.045z" />
<glyph unicode="&#xe992;" d="M630.9 584.679c-0.286 0.186-0.619 0.37-0.966 0.531l-0.051 0.021c-0.318 0.128-0.702 0.245-1.097 0.332l-0.051 0.009c-0.299 0.071-0.642 0.112-0.995 0.112-0.061 0-0.122-0.001-0.183-0.004h0.009c-1.656 0-3.157-0.666-4.249-1.744l0.001 0.001c-0.552-0.545-0.991-1.204-1.28-1.937l-0.013-0.038c-0.285-0.665-0.45-1.44-0.45-2.253 0-0.007 0-0.014 0-0.021v0.001c0-0.006 0-0.014 0-0.022 0-3.309 2.682-5.991 5.991-5.991 0.008 0 0.015 0 0.023 0h-0.001c0.008 0 0.018 0 0.028 0 0.81 0 1.582 0.163 2.284 0.458l-0.039-0.014c0.762 0.327 1.413 0.773 1.961 1.322v0c1.085 1.084 1.759 2.58 1.765 4.233v0.001c-0.014 2.077-1.068 3.904-2.666 4.99l-0.021 0.014z" />
<glyph unicode="&#xe993;" d="M660.669 580.859c-0.074 0.425-0.185 0.803-0.333 1.162l0.013-0.036c-0.181 0.401-0.372 0.742-0.59 1.064l0.016-0.025c-0.448 0.662-1.001 1.215-1.642 1.649l-0.021 0.014c-0.619 0.428-1.352 0.741-2.144 0.888l-0.035 0.005c-0.319 0.065-0.685 0.103-1.061 0.103-0.038 0-0.076 0-0.114-0.001h0.006c-0.002 0-0.004 0-0.006 0-1.654 0-3.153-0.666-4.243-1.744l0.001 0.001c-1.076-1.094-1.741-2.595-1.741-4.252s0.664-3.158 1.741-4.253l-0.001 0.001c1.070-1.090 2.558-1.765 4.204-1.765 0.026 0 0.051 0 0.077 0h-0.004c0.009 0 0.019 0 0.029 0 1.644 0 3.131 0.675 4.197 1.764l0.001 0.001c1.086 1.083 1.759 2.579 1.765 4.233v0.001c0 0.019 0 0.041 0 0.063 0 0.4-0.042 0.789-0.123 1.165l0.007-0.036z" />
<glyph unicode="&#xe994;" d="M687.54 577.358c0.146 0.332 0.265 0.72 0.337 1.123l0.005 0.031c0.081 0.344 0.129 0.74 0.131 1.146v0.001c-0.098 3.283-2.736 5.919-6.012 6.013h-0.009c-0.009 0-0.019 0-0.029 0-3.305 0-5.984-2.679-5.984-5.984 0-0.010 0-0.020 0-0.031v0.002c0.011-0.83 0.184-1.618 0.487-2.336l-0.015 0.041c0.315-0.754 0.752-1.399 1.293-1.939v0c0.278-0.285 0.584-0.538 0.916-0.757l0.021-0.013c0.295-0.208 0.632-0.393 0.989-0.539l0.035-0.013c0.311-0.133 0.68-0.25 1.062-0.334l0.042-0.008c0.338-0.060 0.747-0.106 1.163-0.129l0.028-0.001c1.661 0.016 3.161 0.696 4.248 1.786v0c0.269 0.27 0.508 0.57 0.714 0.894l0.013 0.021c0.217 0.296 0.407 0.633 0.555 0.992l0.012 0.032z" />
<glyph unicode="&#xe995;" d="M714.752 577.373c0.146 0.33 0.265 0.715 0.337 1.116l0.005 0.031c0.069 0.34 0.114 0.735 0.123 1.139v0.008c-0.098 3.281-2.732 5.915-6.004 6.013h-0.009c-0.044 0.001-0.095 0.002-0.147 0.002-0.362 0-0.715-0.038-1.055-0.11l0.033 0.006c-0.441-0.091-0.825-0.209-1.194-0.358l0.046 0.016c-0.397-0.176-0.733-0.361-1.052-0.569l0.028 0.017c-0.345-0.219-0.644-0.458-0.916-0.727v0c-1.090-1.074-1.765-2.566-1.765-4.217 0-0.021 0-0.043 0-0.064v0.003c0-0.008 0-0.018 0-0.028 0-0.819 0.171-1.598 0.479-2.304l-0.014 0.037c0.32-0.751 0.759-1.393 1.3-1.932v0c0.546-0.548 1.194-0.994 1.914-1.306l0.040-0.015c0.677-0.291 1.466-0.461 2.294-0.461 1.661 0 3.164 0.682 4.242 1.781l0.001 0.001c0.533 0.545 0.969 1.188 1.277 1.898l0.016 0.041z" />
<glyph unicode="&#xe996;" d="M736.416 585.674c-0.006 0-0.014 0-0.022 0-3.309 0-5.991-2.682-5.991-5.991 0-0.008 0-0.015 0-0.023v0.001c0-0.027-0.001-0.058-0.001-0.089 0-0.789 0.166-1.54 0.465-2.219l-0.014 0.035c0.322-0.763 0.766-1.414 1.314-1.961v0c0.271-0.274 0.563-0.526 0.873-0.755l0.020-0.014c0.294-0.186 0.636-0.364 0.992-0.513l0.046-0.017c0.317-0.14 0.693-0.264 1.082-0.355l0.044-0.009c0.323-0.070 0.695-0.11 1.076-0.11 0.033 0 0.065 0 0.098 0.001h-0.005c0.006 0 0.014 0 0.022 0 3.309 0 5.991 2.682 5.991 5.991 0 0.008 0 0.015 0 0.023v-0.001c-0.097 3.272-2.721 5.9-5.982 6.006h-0.010z" />
<glyph unicode="&#xe997;" d="M764.957 570.372v154.639c0 10.428-8.454 18.882-18.882 18.882v0h-237.016c-10.428 0-18.882-8.454-18.882-18.882v0-154.639c0-10.428 8.454-18.882 18.882-18.882v0h237.038c10.419 0.012 18.86 8.462 18.86 18.882v0zM746.075 563.53h-237.016c-3.743 0.087-6.754 3.098-6.841 6.833v154.647c0.004 3.775 3.065 6.834 6.841 6.834h237.038c3.777-0.004 6.837-3.065 6.841-6.841v0-154.631c-0.016-3.769-3.071-6.818-6.84-6.827h-0.001z" />
<glyph unicode="&#xe998;" d="M683.727 278.067v158.575c-0.012 11.149-9.047 20.184-20.196 20.197h-0.001c-4.473 0.107-8.071 3.705-8.177 8.167v43.446c0.029 10.016 8.14 18.127 18.153 18.156h87.646c0.002 0 0.005 0 0.007 0 14.102 0 25.535 11.432 25.535 25.535 0 0.003 0 0.005 0 0.008v0 191.001c-0.017 14.1-11.442 25.525-25.54 25.542h-267.186c-14.101-0.021-25.525-11.448-25.542-25.548v-191.003c0-14.106 11.435-25.542 25.542-25.542v0h87.65c10.014-0.033 18.123-8.142 18.156-18.153v-43.439c-0.008-4.513-3.665-8.169-8.177-8.177h-0.001c-11.154 0-20.197-9.042-20.197-20.197v0-158.567c0.049-26.805 21.766-48.521 48.566-48.571h15.162c0.002 0 0.005 0 0.007 0 26.821 0 48.564 21.743 48.564 48.564 0 0.003 0 0.005 0 0.008v0zM635.156 241.522h-15.157c-20.173 0.025-36.52 16.371-36.544 36.542v158.577c0 4.516 3.661 8.177 8.177 8.177v0c11.149 0.012 20.184 9.047 20.197 20.196v43.437c-0.017 16.675-13.53 30.188-30.203 30.204h-87.659c-7.464 0-13.515 6.051-13.515 13.515v0 191.001c0.008 7.462 6.053 13.51 13.514 13.523h267.214c7.459-0.012 13.503-6.056 13.515-13.514v-191.002c0-7.464-6.051-13.515-13.515-13.515h-87.643c-16.675-0.017-30.188-13.53-30.204-30.203v-43.438c0.012-11.149 9.047-20.184 20.196-20.197h0.001c4.515-0.004 8.173-3.663 8.177-8.177v0-158.582c-0.025-20.18-16.379-36.531-36.557-36.552h-0.002z" />
<glyph unicode="&#xe999;" d="M652.237 281.851c0 0.007 0 0.016 0 0.024 0 13.637-11.055 24.692-24.692 24.692s-24.692-11.055-24.692-24.692c0-13.637 11.055-24.692 24.692-24.692 6.822 0 12.997 2.766 17.466 7.238v0c4.464 4.44 7.226 10.587 7.226 17.379 0 0.018 0 0.036 0 0.054v-0.003zM627.545 269.207c-6.983 0-12.644 5.661-12.644 12.644s5.661 12.644 12.644 12.644c6.983 0 12.644-5.661 12.644-12.644v0c0-6.983-5.661-12.644-12.644-12.644v0z" />
<glyph unicode="&#xe99a;" glyph-name="icon" d="M947.745 506.099c0-240.655-195.090-435.745-435.745-435.745s-435.745 195.090-435.745 435.745c0 240.655 195.090 435.745 435.745 435.745s435.745-195.090 435.745-435.745z" />
<glyph unicode="&#xe99b;" glyph-name="img-content" horiz-adv-x="1409" d="M1375.801 625.621h-201.415c-12.098 33.642-43.73 57.266-80.88 57.266-13.081 0-25.479-2.929-36.571-8.168l0.522 0.222-276.447 276.447c-5.313 5.174-12.578 8.364-20.589 8.364-16.305 0-29.523-13.218-29.523-29.523 0-8.011 3.191-15.277 8.371-20.596l276.441-276.441c-1.138-2.475-2.178-4.949-3.044-7.548h-616.197c-0.866 2.475-1.906 5.073-3.044 7.548l276.422 276.447c5.003 5.278 8.079 12.426 8.079 20.292 0 16.305-13.218 29.523-29.523 29.523-7.86 0-15.002-3.071-20.293-8.080l0.014 0.013-276.472-276.472c-10.571 5.017-22.968 7.946-36.049 7.946-37.149 0-68.781-23.624-80.691-56.669l-0.188-0.598h-201.439c-18.627-1.142-33.303-16.526-33.309-35.338v-0.001c0-0.038 0-0.083 0-0.128 0-3.266 0.452-6.426 1.296-9.421l-0.059 0.244 1.138-3.465 205.721-621.567c3.693-11.65 14.41-19.946 27.065-19.946 0.003 0 0.006 0 0.009 0h938.796c0.004 0 0.010 0 0.015 0 12.659 0 23.381 8.294 27.028 19.745l0.055 0.201 206.834 625.031c0.801 2.737 1.263 5.88 1.263 9.132 0 0.061 0 0.122 0 0.182v-0.009c0 0.003 0 0.008 0 0.012 0 18.827-14.691 34.222-33.235 35.347l-0.099 0.005zM1074.632 616.043c4.833 4.839 11.513 7.832 18.893 7.832 14.747 0 26.702-11.955 26.702-26.702s-11.955-26.702-26.702-26.702c-7.379 0-14.059 2.993-18.892 7.832v0c-4.8 4.838-7.766 11.501-7.766 18.857s2.966 14.019 7.768 18.859l-0.002-0.002zM296.74 616.043c4.831 4.824 11.501 7.808 18.868 7.808 14.747 0 26.702-11.955 26.702-26.702s-11.955-26.702-26.702-26.702c-7.367 0-14.037 2.983-18.868 7.808v0c-4.828 4.839-7.813 11.518-7.813 18.894s2.985 14.055 7.814 18.895v0zM1151.817-4.979h-894.549l-50.385 152.317h995.318zM1221.752 206.384h-1034.418l-50.855 153.703h1136.078zM1292.132 419.207h-1175.154l-48.801 147.417h167.363c0.693-1.831 1.46-3.687 2.301-5.469 13.939-29.591 43.515-49.706 77.79-49.706 36.362 0 67.436 22.639 79.895 54.591l0.2 0.584h617.681c4.518-11.741 11.127-21.761 19.45-30.066l0.002-0.002c15.518-15.519 36.956-25.117 60.635-25.117 34.273 0 63.85 20.107 77.577 49.169l0.222 0.522c0.817 1.807 1.609 3.638 2.301 5.469h167.313z" />
<glyph unicode="&#xe99c;" d="M947.745 506.099c0-240.655-195.090-435.745-435.745-435.745s-435.745 195.090-435.745 435.745c0 240.655 195.090 435.745 435.745 435.745s435.745-195.090 435.745-435.745z" />
<glyph unicode="&#xe99d;" d="M582.939 498.546h17.43c5.615 0 10.167 4.552 10.167 10.167s-4.552 10.167-10.167 10.167h-62.072c-4.77 0-8.772-3.285-9.869-7.715l-0.015-0.070-0.574-2.375c-2.614-10.894-5.708-23.639-8.795-36.254-0.85 11.337-1.75 23.668-2.658 36.254 0 0.232 0 0.458-0.051 0.69-0.77 10.647-1.532 21.431-2.288 32.042-0.465 6.58-0.915 13.072-1.358 19.376-0.617 8.904-1.206 17.481-1.743 25.418-0.264 3.198-1.993 5.943-4.508 7.588l-0.038 0.023-0.232 0.167c-1.243 0.85-2.735 1.432-4.346 1.629l-0.048 0.005c-0.279 0.029-0.603 0.046-0.931 0.046-1.729 0-3.349-0.465-4.742-1.276l0.045 0.024c-2.403-1.268-4.207-3.403-5.013-5.978l-0.019-0.072c0-0.094-0.094-0.167-0.123-0.269l-5.585-21.163-0.436-1.67-1.177-4.459-2.68-10.167-0.189-0.726-10.363-39.268-6.986 32.536c-0.683 3.057-2.669 5.548-5.331 6.902l-0.058 0.027c-0.422 0.19-0.93 0.369-1.454 0.507l-0.071 0.016c-0.318 0.137-0.714 0.276-1.12 0.39l-0.071 0.017c-0.51 0.094-1.096 0.147-1.695 0.147-1.165 0-2.283-0.203-3.319-0.576l0.068 0.021c-1.050-0.344-1.963-0.815-2.782-1.407l0.029 0.020c-1.058-0.734-1.946-1.629-2.65-2.659l-0.023-0.035-17.851-27.713h-41.461c-1.936-0.187-3.701-0.77-5.263-1.668l0.063 0.034c-2.965-1.749-4.923-4.926-4.923-8.561 0-4.596 3.13-8.46 7.374-9.579l0.069-0.015c0.79-0.287 1.703-0.479 2.653-0.536l0.027-0.001h47.002c0.502 0.030 0.968 0.092 1.422 0.185l-0.064-0.011c3.018 0.394 5.58 2.068 7.159 4.451l0.023 0.037 3.551 5.505 3.987 6.195 1.329-6.195 9.412-43.835c1.033-4.605 5.087-7.995 9.933-7.995 4.68 0 8.621 3.162 9.805 7.466l0.017 0.071 15.527 58.818c0.356-5.084 0.683-9.877 1.009-14.525 1.169-16.704 2.179-30.727 3.072-42.478 0.276-3.58 0.537-6.986 0.792-10.167 0.29-3.631 0.574-7.008 0.842-10.167 0.625-7.262 1.206-13.261 1.75-18.2 0.45-4.031 0.886-7.393 1.307-10.167 0.463-3.788 1.304-7.225 2.5-10.491l-0.104 0.324c0.706-2.195 2.499-3.851 4.729-4.349l0.043-0.008c0.979-0.344 2.109-0.542 3.284-0.542 3.041 0 5.772 1.328 7.644 3.437l0.009 0.011c0.383 0.422 0.718 0.899 0.991 1.415l0.018 0.038c1.302 2.865 2.465 6.255 3.311 9.77l0.081 0.398c0.726 2.644 1.634 5.991 2.716 10.167 1.249 4.837 2.745 10.748 4.597 18.2q1.162 4.684 2.506 10.167c0.777 3.152 1.612 6.587 2.484 10.167 2.259 9.267 4.822 19.855 7.829 32.325h36.632z" />
<glyph unicode="&#xe99e;" d="M620.762 370.038h19.107v-19.107c0-5.615 4.552-10.167 10.167-10.167s10.167 4.552 10.167 10.167v19.107h19.115c5.615 0 10.167 4.552 10.167 10.167s-4.552 10.167-10.167 10.167h-19.115v19.122c-0.128 4.957-3.763 9.029-8.509 9.832l-0.060 0.008c-0.452 0.137-0.991 0.249-1.545 0.315l-0.046 0.004c-5.51-0.254-9.913-4.657-10.167-10.144l-0.001-0.023v-19.122h-19.107c-5.615 0-10.167-4.552-10.167-10.167v0c0.033-1.695 0.487-3.276 1.26-4.654l-0.026 0.050c1.68-3.299 5.039-5.526 8.922-5.556h0.004z" />
<glyph unicode="&#xe99f;" d="M722.479 315.708c1.438 1.727 2.311 3.969 2.311 6.414 0 2.754-1.107 5.249-2.9 7.066l0.001-0.001s-0.065 0-0.094 0.058c10.374 14.246 16.597 32.094 16.597 51.396 0 25.034-10.468 47.624-27.266 63.629l-0.036 0.034v246.98c0 5.615-4.552 10.167-10.167 10.167v0h-90.352v28.323c0 5.615-4.552 10.167-10.167 10.167v0h-317.81c-5.615 0-10.167-4.552-10.167-10.167v0-273.698c0-5.615 4.552-10.167 10.167-10.167v0h41.047v-80.468c0-5.615 4.552-10.167 10.167-10.167v0h231.613c11.177-36.761 44.775-63.051 84.513-63.051 16.001 0 31.007 4.263 43.943 11.714l-0.427-0.227c0.354-0.682 0.75-1.27 1.203-1.808l-0.012 0.015c1.79-1.837 4.288-2.977 7.052-2.977 2.462 0 4.714 0.904 6.439 2.399l-0.012-0.010 26.145-26.145c1.865-2.031 4.533-3.3 7.497-3.3 5.615 0 10.167 4.552 10.167 10.167 0 2.964-1.268 5.632-3.292 7.491l-0.007 0.007zM583.767 365.434c-0.7 2.92-1.236 6.395-1.497 9.946l-0.013 0.222c-0.123 1.656-0.254 3.312-0.254 5.004 0 0.040 0 0.086 0 0.133 0 13.701 4.101 26.443 11.143 37.067l-0.155-0.249c12.392 18.695 33.274 30.9 57.019 31.083h0.028c0.537 0 1.053-0.065 1.59-0.080 36.882-0.872 66.446-30.977 66.446-67.987 0-37.558-30.447-68.005-68.005-68.005-28.447 0-52.815 17.467-62.963 42.26l-0.164 0.454c-1.178 2.813-2.271 6.203-3.091 9.698l-0.090 0.455zM343.97 375.601v253.4h297.497v-160.478c-11.447-1.157-21.914-4.348-31.379-9.213l0.492 0.23c-17.956-9.148-32.064-23.683-40.44-41.451l-0.229-0.54c-5.18-10.72-8.207-23.313-8.207-36.613 0-0.119 0-0.238 0.001-0.357v0.018c0-1.685 0.16-3.333 0.254-5.004zM292.762 719.629h297.505v-70.307h-116.090l-7.553 28.607c-1.127 4.388-5.048 7.58-9.714 7.58-3.429 0-6.455-1.723-8.26-4.35l-0.022-0.034c-1.074-1.41-1.785-3.149-1.965-5.044l-0.003-0.040c-0.566-8.301-1.184-17.314-1.837-26.711h-45.303l-7.553 28.607c-1.12 4.050-4.618 7.035-8.861 7.376l-0.035 0.002c-0.488 0.090-1.050 0.142-1.624 0.142-0.096 0-0.191-0.001-0.285-0.004h0.014c-4.951-0.486-8.836-4.46-9.178-9.409l-0.002-0.032c-0.566-8.279-1.191-17.35-1.837-26.711h-36.363c-5.615 0-10.167-4.552-10.167-10.167v0-172.889h-30.865zM690.786 458.908c-8.4 4.473-18.181 7.695-28.537 9.107l-0.454 0.051v171.095c0 5.615-4.552 10.167-10.167 10.167v0h-41.047v31.802h80.162z" />
<glyph unicode="&#xe9a0;" horiz-adv-x="1687" d="M1673.974 769.697h-33.863v84.652c0 0.012 0 0.026 0 0.040 0 2.174-0.841 4.151-2.216 5.623l0.004-0.005-84.64 93.136c-1.553 1.711-3.782 2.783-6.262 2.792h-270.893c-4.676 0-8.467-3.791-8.467-8.467v0-76.186h-50.809c-23.368-0.012-42.308-18.957-42.31-42.326v0-338.614c0.002-23.375 18.951-42.324 42.326-42.326h406.341c32.711 0.037 59.219 26.545 59.256 59.252v253.966c-0.002 4.674-3.792 8.463-8.467 8.463v0zM1555.462 925.543l57.057-62.727h-57.057zM1284.567 939.006h253.962v-84.657c0-4.676 3.791-8.467 8.467-8.467v0h76.19v-330.159h-42.33v211.647c-0.002 23.375-18.951 42.324-42.326 42.326h-169.309c-4.676 0-8.467 3.791-8.467 8.467v0 50.809c-0.012 23.37-18.959 42.31-42.33 42.31-0.004 0-0.009 0-0.013 0h-33.842zM1216.844 464.942c-14.009 0.041-25.355 11.387-25.397 25.393v338.622c0.041 14.009 11.387 25.355 25.393 25.397h101.57c14.009-0.041 25.355-11.387 25.397-25.393v-50.813c0.051-14.008 11.402-25.348 25.41-25.38h169.312c14.008-0.044 25.351-11.389 25.392-25.393v-220.106c0-0.010 0-0.022 0-0.033 0-16.579 6.838-31.561 17.847-42.28l0.013-0.013zM1665.511 507.268c0-0.015 0-0.032 0-0.049 0-23.376-18.95-42.326-42.326-42.326-20.397 0-37.424 14.427-41.433 33.634l-0.048 0.275h49.948c4.676 0 8.467 3.791 8.467 8.467v0 245.511h25.397z" />
<glyph unicode="&#xe9a1;" horiz-adv-x="1687" d="M1326.897 888.212h186.235c0.055-0.001 0.12-0.002 0.186-0.002 4.676 0 8.467 3.791 8.467 8.467s-3.791 8.467-8.467 8.467c-0.065 0-0.13-0.001-0.195-0.002h-186.225c-4.596-0.104-8.281-3.854-8.281-8.465s3.686-8.361 8.272-8.465h0.010z" />
<glyph unicode="&#xe9a2;" horiz-adv-x="1687" d="M1386.153 854.353h126.983c0.055-0.001 0.12-0.002 0.186-0.002 4.676 0 8.467 3.791 8.467 8.467s-3.791 8.467-8.467 8.467c-0.065 0-0.13-0.001-0.195-0.002h-126.973c-0.055 0.001-0.12 0.002-0.186 0.002-4.676 0-8.467-3.791-8.467-8.467s3.791-8.467 8.467-8.467c0.065 0 0.13 0.001 0.195 0.002h-0.010z" />
<glyph unicode="&#xe9a3;" horiz-adv-x="1687" d="M1386.153 820.49h126.983c0.055-0.001 0.12-0.002 0.186-0.002 4.676 0 8.467 3.791 8.467 8.467s-3.791 8.467-8.467 8.467c-0.065 0-0.13-0.001-0.195-0.002h-126.973c-0.055 0.001-0.12 0.002-0.186 0.002-4.676 0-8.467-3.791-8.467-8.467s3.791-8.467 8.467-8.467c0.065 0 0.13 0.001 0.195 0.002h-0.010z" />
<glyph unicode="&#xe9a4;" horiz-adv-x="1687" d="M1377.686 795.093c0-4.676 3.791-8.467 8.467-8.467v0h194.702c4.596 0.104 8.281 3.854 8.281 8.465s-3.686 8.361-8.272 8.465h-194.712c-4.675 0-8.465-3.788-8.467-8.463v0z" />
<glyph unicode="&#xe9a5;" horiz-adv-x="1687" d="M1018.509 259.534h-862.512c-18.040 0-32.664 14.624-32.664 32.664v0 600.636c0.104 27.122 22.062 49.080 49.174 49.183h829.487c27.122-0.104 49.080-22.062 49.183-49.174v-600.646c0-18.040-14.624-32.664-32.664-32.664v0zM158.936 295.133h856.638v597.701c0 7.5-6.080 13.58-13.58 13.58v0h-829.477c-7.5 0-13.58-6.080-13.58-13.58v0z" />
<glyph unicode="&#xe9a6;" horiz-adv-x="1687" d="M940.518 357.714h-706.523c-10.136 0-18.352 8.217-18.352 18.352v449.972c0 10.136 8.217 18.352 18.352 18.352v0h706.523c10.136 0 18.352-8.217 18.352-18.352v0-450.525c-0.308-9.895-8.403-17.8-18.344-17.8-0.003 0-0.006 0-0.009 0v0zM251.795 393.317h670.911v414.938h-670.911z" />
<glyph unicode="&#xe9a7;" horiz-adv-x="1687" d="M1121.095-63.984h-1067.68c-0.059 0-0.128 0-0.198 0-29.392 0-53.22 23.827-53.22 53.22 0 7.841 1.696 15.285 4.74 21.987l-0.136-0.334 111.025 252.311c8.529 18.967 27.259 31.935 49.017 31.935 0.187 0 0.374-0.001 0.561-0.003h-0.028c8.042-2.066 13.89-9.251 13.89-17.802s-5.848-15.736-13.763-17.774l-0.127-0.028c-7.212-0.132-13.395-4.404-16.285-10.534l-0.047-0.112-112.126-252.51c-0.739-1.914-1.168-4.128-1.168-6.442 0-9.836 7.738-17.865 17.458-18.331l0.042-0.002h1068.046c9.874 0.439 17.714 8.551 17.714 18.494 0 2.53-0.508 4.942-1.427 7.139l0.045-0.122-110.106 252.328c-2.937 6.242-9.12 10.514-16.315 10.645h-0.017c-1.34-0.35-2.878-0.551-4.462-0.551-10.136 0-18.352 8.217-18.352 18.352s8.217 18.352 18.352 18.352c1.585 0 3.123-0.201 4.59-0.579l-0.127 0.028c21.677-0.085 40.311-13.028 48.677-31.595l0.136-0.338 110.106-252.332c2.909-6.368 4.604-13.813 4.604-21.653 0-29.392-23.827-53.22-53.22-53.22-0.070 0-0.139 0-0.209 0h0.011z" />
<glyph unicode="&#xe9a8;" horiz-adv-x="1687" d="M827.108 97.675h-479.706c-8.042 2.066-13.89 9.251-13.89 17.802s5.848 15.736 13.763 17.774l0.127 0.028h479.706c1.34 0.35 2.878 0.551 4.462 0.551 10.136 0 18.352-8.217 18.352-18.352s-8.217-18.352-18.352-18.352c-1.585 0-3.123 0.201-4.59 0.579l0.127-0.028z" />
<glyph unicode="&#xe9a9;" horiz-adv-x="1687" d="M758.84 471.856c-0.080-0.001-0.174-0.002-0.269-0.002-4.783 0-9.107 1.967-12.207 5.137l-33.403 33.403-13.414-20.186c-3.387-4.404-8.658-7.215-14.586-7.215-8.191 0-15.129 5.366-17.49 12.775l-0.036 0.13-34.685 143.892c-0.207 1.035-0.326 2.226-0.326 3.444 0 10.136 8.217 18.352 18.352 18.352 1.218 0 2.408-0.119 3.56-0.345l-0.116 0.019 143.689-34.685c7.539-2.396 12.905-9.334 12.905-17.525 0-5.928-2.81-11.199-7.171-14.554l-0.043-0.032-20.003-13.414 33.416-33.408c3.085-3.276 4.981-7.702 4.981-12.57s-1.896-9.294-4.989-12.58l0.009 0.009-46.245-45.525c-3.106-2.997-7.276-4.911-11.89-5.12l-0.040-0.001zM710.027 556.090c4.922-0.020 9.384-1.975 12.667-5.143l36.7-36.696 20.368 20.385-36.701 36.701c-3.237 3.14-5.246 7.529-5.246 12.388 0 0.679 0.039 1.349 0.116 2.008l-0.008-0.080c0.655 5.435 3.6 10.075 7.828 12.987l4.281 2.792-75.791 18.336 18.352-75.783 2.935 4.219c2.953 4.289 7.592 7.235 12.94 7.881l0.088 0.009z" />
<glyph unicode="&#xe9aa;" d="M947.745 506.099c0-240.655-195.090-435.745-435.745-435.745s-435.745 195.090-435.745 435.745c0 240.655 195.090 435.745 435.745 435.745s435.745-195.090 435.745-435.745z" />
</font>
</defs>
</svg>
