<svg xmlns="http://www.w3.org/2000/svg" width="65.268" height="70.496" viewBox="0 0 65.268 70.496">
  <g id="Group_1310" data-name="Group 1310" transform="translate(-1784.78 -247.404)">
    <g id="Group_1303" data-name="Group 1303" transform="translate(1792.443 247.404)">
      <g id="Group_1300" data-name="Group 1300" transform="translate(0 0)">
        <g id="Group_1298" data-name="Group 1298" transform="translate(7.672)">
          <path id="Path_4824" data-name="Path 4824" d="M1902.566,267.881a7.658,7.658,0,0,1-2.6-.592,9.134,9.134,0,0,1-4.611-5.139,6.422,6.422,0,0,1,.344-5.546,2.45,2.45,0,0,0,.414-2.012,2.3,2.3,0,0,0-1.209-1.112l.823-2.338a4.7,4.7,0,0,1,2.711,2.587,4.749,4.749,0,0,1-.588,4.109,3.97,3.97,0,0,0-.165,3.464,6.707,6.707,0,0,0,3.136,3.66c.951.349,1.846.632,2.339.271.382-.278,1.25-1.43,1.06-6.1a9.151,9.151,0,0,0-5.547-8.5c-9.658-3.139-12.453,4.539-12.567,4.867l-2.341-.815c.036-.1,3.733-10.288,15.69-6.4.3.1,6.9,2.443,7.241,10.749.18,4.43-.48,7.036-2.076,8.2A3.391,3.391,0,0,1,1902.566,267.881Z" transform="translate(-1883.762 -247.404)" fill="#32abb2"/>
        </g>
        <g id="Group_1299" data-name="Group 1299" transform="translate(0 6.454)">
          <path id="Path_4825" data-name="Path 4825" d="M1846.994,321.789a17.084,17.084,0,0,1,.84-8.524,55.533,55.533,0,0,1,2.935-6.919c.059-.112.2-.373-.14-.935-.946-1.579-4.058-3.073-5.781-3.08a21.615,21.615,0,0,0-2.468.2,12.642,12.642,0,0,1-4.152.043c-2.646-.567-4.133-3.206-3.978-7.059a2.132,2.132,0,0,1,1.3-1.87l5.185-2.186a2.693,2.693,0,0,0,1.162-1.511,1.239,1.239,0,0,1,2.372.721,5.164,5.164,0,0,1-2.348,2.969,1.238,1.238,0,0,1-.142.071l-5.058,2.133c-.025,1.32.168,3.911,2.027,4.309a10.757,10.757,0,0,0,3.337-.08,25.835,25.835,0,0,1,2.773-.215c2.471.009,6.459,1.883,7.9,4.285a3.334,3.334,0,0,1,.2,3.371,53.182,53.182,0,0,0-2.793,6.6,14.632,14.632,0,0,0-.723,7.3Z" transform="translate(-1834.24 -289.065)" fill="#32abb2"/>
        </g>
      </g>
      <g id="Group_1301" data-name="Group 1301" transform="translate(27.946 16.57)">
        <path id="Path_4826" data-name="Path 4826" d="M2034.194,397.281a59.272,59.272,0,0,0-4.541-19.432,65.57,65.57,0,0,0-15.03-21.607l1.611-1.884c.378.323,9.323,8.076,15.687,22.49a60.31,60.31,0,0,1,4.746,20.263Z" transform="translate(-2014.623 -354.358)" fill="#32abb2"/>
      </g>
      <g id="Group_1302" data-name="Group 1302" transform="translate(31.656 22.027)">
        <path id="Path_4827" data-name="Path 4827" d="M2046.84,438.043h-8.272v-2.479h8.272c6.711,0,11.442-1.929,13.679-5.579,2.313-3.772,1.926-9.5-1.037-15.32-3.733-7.334-3.253-17.476-2.815-21.876-4.885,2.442-5.285,6.071-5.3,6.242l-2.471-.2c.019-.255.561-6.273,8.851-9.184a1.24,1.24,0,0,1,1.635,1.363c-.022.137-2.111,13.84,2.31,22.528,3.407,6.693,3.75,13.159.941,17.74C2060.741,434.365,2056.466,438.043,2046.84,438.043Z" transform="translate(-2038.568 -389.58)" fill="#32abb2"/>
      </g>
    </g>
    <g id="Group_1309" data-name="Group 1309" transform="translate(1784.78 277.333)">
      <g id="Group_1306" data-name="Group 1306" transform="translate(0 0)">
        <g id="Group_1304" data-name="Group 1304" transform="translate(7.271)">
          <path id="Path_4828" data-name="Path 4828" d="M1855.731,475.264l-2.454-.349c2.335-16.41-8.031-19.376-11.264-19.894a2.3,2.3,0,0,1-1.906-1.828c-.372-1.806-1.8-7.374-5.573-9.576l-.367,2.874-2.459-.313.576-4.514a1.24,1.24,0,0,1,1.6-1.027c5.885,1.823,7.988,8.887,8.633,11.956C1845.448,453.089,1858.418,456.382,1855.731,475.264Z" transform="translate(-1831.709 -440.581)" fill="#32abb2"/>
        </g>
        <g id="Group_1305" data-name="Group 1305" transform="translate(0 2.717)">
          <path id="Path_4829" data-name="Path 4829" d="M1795.577,495.971h-4.024a1.239,1.239,0,0,1-1.24-1.239,5.32,5.32,0,0,1,3.829-5.347.94.94,0,0,0,.65-.881c.027-1.5-.033-2.822-.088-3.677a2.146,2.146,0,0,0-.756-1.477c-4.007-3.494-3.526-8.2-3.3-10.459.041-.4.076-.743.076-.957a4.841,4.841,0,0,0-.039-.833,16.171,16.171,0,0,0-2.3-.986l-.438-.171a4.749,4.749,0,0,1-2.936-2.659,4.133,4.133,0,0,1,.181-3.177,1.241,1.241,0,0,1,.649-.583l1.619-.632a6.264,6.264,0,0,1,5.788-4.773h.033l-.011,1.239V460.6c-.288,0-2.837.132-3.558,3.478a1.239,1.239,0,0,1-.761.894l-1.673.654a1.475,1.475,0,0,0,.058.808,2.6,2.6,0,0,0,1.513,1.205l.436.17c3.159,1.236,3.91,1.529,3.91,4.127,0,.341-.041.743-.089,1.209-.217,2.127-.581,5.688,2.459,8.339a4.607,4.607,0,0,1,1.6,3.186c.058.9.121,2.3.092,3.858a3.411,3.411,0,0,1-2.328,3.2,2.9,2.9,0,0,0-1.955,1.761h2.59Z" transform="translate(-1784.78 -458.12)" fill="#32abb2"/>
        </g>
      </g>
      <g id="Group_1308" data-name="Group 1308" transform="translate(13.435 8.219)">
        <g id="Group_1307" data-name="Group 1307">
          <path id="Path_4830" data-name="Path 4830" d="M1877.938,525.981h-5.2a1.239,1.239,0,0,1-1.239-1.239,4.655,4.655,0,0,1,4.055-4.691,6.847,6.847,0,0,1-.32-3.35,5.237,5.237,0,0,1,4.1-4.411l.457,2.437a2.732,2.732,0,0,0-2.1,2.321,3.834,3.834,0,0,0,.848,3.264,1.252,1.252,0,0,1,.295,1.363,1.235,1.235,0,0,1-1.141.782h-1.427a2.562,2.562,0,0,0-1.964,1.045l11.341-.007a8.694,8.694,0,0,0,3.829-.885,8.033,8.033,0,0,0,3.875-3.562c1.474-2.978.309-6.838-1.5-11.966a7.341,7.341,0,0,1,.042-5.819,8.159,8.159,0,0,1,4.446-3.725.733.733,0,0,0,.489-.917.727.727,0,0,0-.913-.478,9.873,9.873,0,0,0-5.309,4.436,7.525,7.525,0,0,0-.788,3.147l-2.478-.08a9.982,9.982,0,0,1,1.049-4.177,12.123,12.123,0,0,1,6.782-5.691,3.207,3.207,0,0,1,1.938,6.115,5.824,5.824,0,0,0-2.993,2.466,4.993,4.993,0,0,0,.073,3.9c2.009,5.705,3.284,10.041,1.381,13.889a10.4,10.4,0,0,1-5,4.684,11.189,11.189,0,0,1-4.926,1.142Z" transform="translate(-1871.498 -493.632)" fill="#32abb2"/>
        </g>
      </g>
    </g>
  </g>
</svg>
