<svg xmlns="http://www.w3.org/2000/svg" xmlns:xlink="http://www.w3.org/1999/xlink" width="141" height="141" viewBox="0 0 141 141">
  <defs>
    <filter id="Ellipse_4" x="0" y="0" width="141" height="141" filterUnits="userSpaceOnUse">
      <feOffset dy="8" input="SourceAlpha"/>
      <feGaussianBlur stdDeviation="3" result="blur"/>
      <feFlood flood-opacity="0.161"/>
      <feComposite operator="in" in2="blur"/>
      <feComposite in="SourceGraphic"/>
    </filter>
  </defs>
  <g id="icon" transform="translate(-176 -3087)">
    <g transform="matrix(1, 0, 0, 1, 176, 3087)" filter="url(#Ellipse_4)">
      <circle id="Ellipse_4-2" data-name="Ellipse 4" cx="60" cy="60" r="60" transform="translate(10.5 2.5)" fill="#fff" stroke="#a0e1e5" stroke-linecap="round" stroke-linejoin="round" stroke-width="3"/>
    </g>
    <g id="Group_23" data-name="Group 23" transform="translate(-1826.698 2270.156)">
      <g id="Group_22" data-name="Group 22" transform="translate(2038.698 839.844)">
        <path id="Path_43" data-name="Path 43" d="M2249.5,1069.512l.1,10.689h0a4.121,4.121,0,0,1,4.121,4.12v2.239h-7.235" transform="translate(-2195.747 -1013.426)" fill="none" stroke="#a0e1e5" stroke-linecap="round" stroke-linejoin="round" stroke-width="3"/>
        <path id="Path_44" data-name="Path 44" d="M2284.951,921.02s.14,3.07-4.869,5.155a17.29,17.29,0,0,1-4.47,1.208v1.6c3.94,6.895,1.9,13.3-.709,17.788" transform="translate(-2217.221 -901.196)" fill="none" stroke="#a0e1e5" stroke-linecap="round" stroke-linejoin="round" stroke-width="3"/>
        <path id="Path_45" data-name="Path 45" d="M2211.8,860.617c.144-8.557,6.37-14.238,6.37-14.238l1.707-2.885a8.817,8.817,0,0,1,4.2-3.65l2.169,6.349,6.371,4.032,2.109,4.383,2.9,1.5" transform="translate(-2169.53 -839.844)" fill="none" stroke="#a0e1e5" stroke-linecap="round" stroke-linejoin="round" stroke-width="3"/>
        <path id="Path_46" data-name="Path 46" d="M2071.25,941.1h6.608a4.521,4.521,0,0,1,4.521,4.521v1.839H2052.04a15.985,15.985,0,0,1-7.3-2.083c-4.3-2.539-8.257-8.172-4.6-20.672,5.46-18.681,3.843-28.159.57-33.085a3.992,3.992,0,0,1,.009-4.68,3.826,3.826,0,0,1,6.2.229,26.142,26.142,0,0,1,4.275,10.752c1.125,7.658-.014,17.351-3.424,29.015-1.25,4.279-2.091,9.764,1.011,11.593" transform="translate(-2038.698 -874.327)" fill="none" stroke="#a0e1e5" stroke-linecap="round" stroke-linejoin="round" stroke-width="3"/>
        <path id="Path_47" data-name="Path 47" d="M2175.054,1087.757a20.1,20.1,0,0,1-3.06,6.233" transform="translate(-2139.442 -1027.215)" fill="none" stroke="#a0e1e5" stroke-linecap="round" stroke-linejoin="round" stroke-width="3"/>
      </g>
      <circle id="Ellipse_5" data-name="Ellipse 5" cx="17.944" cy="17.944" r="17.944" transform="translate(2052.74 868.229) rotate(-11.296)" fill="none" stroke="#32abb2" stroke-linecap="round" stroke-miterlimit="10" stroke-width="3"/>
      <path id="Path_48" data-name="Path 48" d="M2244.5,1037.8l18.84,11.091a3.051,3.051,0,0,1,1.2,4.144h0a3.051,3.051,0,0,1-4.143,1.2l-18.963-11.149" transform="translate(-153.232 -149.612)" fill="none" stroke="#32abb2" stroke-linecap="round" stroke-miterlimit="10" stroke-width="3"/>
      <path id="Path_49" data-name="Path 49" d="M2138.838,1011.394a9.016,9.016,0,0,1-2.064-11.218" transform="translate(-73.281 -121.178)" fill="none" stroke="#32abb2" stroke-linecap="round" stroke-miterlimit="10" stroke-width="3"/>
    </g>
  </g>
</svg>
