<svg xmlns="http://www.w3.org/2000/svg" width="83.879" height="193.571" viewBox="0 0 83.879 193.571">
  <g id="Group_1422" data-name="Group 1422" transform="matrix(-0.788, -0.616, 0.616, -0.788, 51.524, 230.36)" class="fill-neutral-2">
    <ellipse id="Ellipse_27" data-name="Ellipse 27" cx="2.684" cy="2.684" rx="2.684" ry="2.684" transform="matrix(0.653, 0.757, -0.757, 0.653, 117.206, 192.45)"/>
    <ellipse id="Ellipse_28" data-name="Ellipse 28" cx="2.684" cy="2.684" rx="2.684" ry="2.684" transform="matrix(0.55, 0.835, -0.835, 0.55, 137.697, 176.956)"/>
    <ellipse id="Ellipse_29" data-name="Ellipse 29" cx="2.684" cy="2.684" rx="2.684" ry="2.684" transform="matrix(0.322, 0.947, -0.947, 0.322, 158.614, 161.707)"/>
    <ellipse id="Ellipse_30" data-name="Ellipse 30" cx="2.684" cy="2.684" rx="2.684" ry="2.684" transform="translate(178.978 146.346) rotate(77.423)"/>
    <ellipse id="Ellipse_31" data-name="Ellipse 31" cx="2.684" cy="2.684" rx="2.684" ry="2.684" transform="matrix(0.696, 0.718, -0.718, 0.696, 104.291, 176.122)"/>
    <ellipse id="Ellipse_32" data-name="Ellipse 32" cx="2.684" cy="2.684" rx="2.684" ry="2.684" transform="matrix(0.495, 0.869, -0.869, 0.495, 125.242, 160.695)"/>
    <path id="Path_885" data-name="Path 885" d="M4.8,1.036A2.684,2.684,0,1,0,4.331,4.8,2.684,2.684,0,0,0,4.8,1.036Z" transform="translate(141.56 146.109)"/>
    <ellipse id="Ellipse_33" data-name="Ellipse 33" cx="2.684" cy="2.684" rx="2.684" ry="2.684" transform="matrix(0.15, 0.989, -0.989, 0.15, 166.499, 130.174)"/>
    <path id="Path_886" data-name="Path 886" d="M4.8,1.036A2.684,2.684,0,1,0,4.332,4.8,2.683,2.683,0,0,0,4.8,1.036Z" transform="translate(88.855 160.914)"/>
    <circle id="Ellipse_34" data-name="Ellipse 34" cx="2.684" cy="2.684" r="2.684" transform="matrix(0.567, 0.824, -0.824, 0.567, 112.232, 144.304)"/>
    <path id="Path_887" data-name="Path 887" d="M4.8,1.036A2.684,2.684,0,1,0,4.332,4.8,2.684,2.684,0,0,0,4.8,1.036Z" transform="translate(128.866 129.791)"/>
    <path id="Path_888" data-name="Path 888" d="M4.8,1.036A2.684,2.684,0,1,0,4.331,4.8,2.684,2.684,0,0,0,4.8,1.036Z" transform="translate(148.872 114.229)"/>
    <path id="Path_889" data-name="Path 889" d="M4.8,1.036A2.684,2.684,0,1,0,4.331,4.8,2.684,2.684,0,0,0,4.8,1.036Z" transform="translate(76.161 144.596)"/>
    <ellipse id="Ellipse_35" data-name="Ellipse 35" cx="2.684" cy="2.684" rx="2.684" ry="2.684" transform="matrix(0.504, 0.864, -0.864, 0.504, 99.815, 128.047)"/>
    <ellipse id="Ellipse_36" data-name="Ellipse 36" cx="2.684" cy="2.684" rx="2.684" ry="2.684" transform="translate(118.857 112.361) rotate(45)"/>
    <path id="Path_890" data-name="Path 890" d="M4.8,1.036A2.684,2.684,0,1,0,4.332,4.8,2.683,2.683,0,0,0,4.8,1.036Z" transform="translate(136.178 97.911)"/>
    <ellipse id="Ellipse_37" data-name="Ellipse 37" cx="2.684" cy="2.684" rx="2.684" ry="2.684" transform="matrix(0.137, 0.991, -0.991, 0.137, 68.442, 127.935)"/>
    <ellipse id="Ellipse_38" data-name="Ellipse 38" cx="2.684" cy="2.684" rx="2.684" ry="2.684" transform="translate(84.822 111.847) rotate(24.398)"/>
    <ellipse id="Ellipse_39" data-name="Ellipse 39" cx="2.684" cy="2.684" rx="2.684" ry="2.684" transform="translate(106.772 96.092) rotate(54.232)"/>
    <ellipse id="Ellipse_40" data-name="Ellipse 40" cx="2.684" cy="2.684" rx="2.684" ry="2.684" transform="translate(127.23 80.632) rotate(61.243)"/>
    <ellipse id="Ellipse_41" data-name="Ellipse 41" cx="2.684" cy="2.684" rx="2.684" ry="2.684" transform="matrix(0.916, 0.401, -0.401, 0.916, 52.075, 111.109)"/>
    <ellipse id="Ellipse_42" data-name="Ellipse 42" cx="2.684" cy="2.684" rx="2.684" ry="2.684" transform="translate(76.092 96.343) rotate(88.825)"/>
    <ellipse id="Ellipse_43" data-name="Ellipse 43" cx="2.684" cy="2.684" rx="2.684" ry="2.684" transform="translate(94.159 79.787) rotate(55.47)"/>
    <circle id="Ellipse_44" data-name="Ellipse 44" cx="2.684" cy="2.684" r="2.684" transform="matrix(0.54, 0.842, -0.842, 0.54, 114.285, 64.25)"/>
    <ellipse id="Ellipse_45" data-name="Ellipse 45" cx="2.684" cy="2.684" rx="2.684" ry="2.684" transform="translate(39.577 94.72) rotate(26.769)"/>
    <path id="Path_891" data-name="Path 891" d="M4.8,1.036A2.684,2.684,0,1,0,4.332,4.8,2.683,2.683,0,0,0,4.8,1.036Z" transform="translate(58.086 80.079)"/>
    <path id="Path_892" data-name="Path 892" d="M4.8,1.036A2.684,2.684,0,1,0,4.331,4.8,2.684,2.684,0,0,0,4.8,1.036Z" transform="translate(78.092 64.517)"/>
    <ellipse id="Ellipse_46" data-name="Ellipse 46" cx="2.684" cy="2.684" rx="2.684" ry="2.684" transform="translate(99.501 48.067) rotate(25.275)"/>
    <ellipse id="Ellipse_47" data-name="Ellipse 47" cx="2.684" cy="2.684" rx="2.684" ry="2.684" transform="matrix(0.916, 0.401, -0.401, 0.916, 26.688, 78.472)"/>
    <ellipse id="Ellipse_48" data-name="Ellipse 48" cx="2.684" cy="2.684" rx="2.684" ry="2.684" transform="translate(46.48 63.001) rotate(20.128)"/>
    <path id="Path_893" data-name="Path 893" d="M4.8,1.036A2.684,2.684,0,1,0,4.332,4.8,2.683,2.683,0,0,0,4.8,1.036Z" transform="translate(65.399 48.199)"/>
    <circle id="Ellipse_49" data-name="Ellipse 49" cx="2.684" cy="2.684" r="2.684" transform="translate(86.815 31.745) rotate(25.398)"/>
    <ellipse id="Ellipse_50" data-name="Ellipse 50" cx="2.684" cy="2.684" rx="2.684" ry="2.684" transform="translate(15.602 61.899) rotate(48.395)"/>
    <ellipse id="Ellipse_51" data-name="Ellipse 51" cx="2.684" cy="2.684" rx="2.684" ry="2.684" transform="translate(33.787 46.683) rotate(20.128)"/>
    <ellipse id="Ellipse_52" data-name="Ellipse 52" cx="2.684" cy="2.684" rx="2.684" ry="2.684" transform="matrix(0.916, 0.401, -0.401, 0.916, 54.006, 31.03)"/>
    <ellipse id="Ellipse_53" data-name="Ellipse 53" cx="2.684" cy="2.684" rx="2.684" ry="2.684" transform="matrix(0.991, 0.133, -0.133, 0.991, 73.092, 15.985)"/>
    <path id="Path_894" data-name="Path 894" d="M4.8,1.036A2.684,2.684,0,1,0,4.332,4.8,2.683,2.683,0,0,0,4.8,1.036Z" transform="translate(0 46.685)"/>
    <ellipse id="Ellipse_54" data-name="Ellipse 54" cx="2.684" cy="2.684" rx="2.684" ry="2.684" transform="translate(21.093 30.364) rotate(20.128)"/>
    <ellipse id="Ellipse_55" data-name="Ellipse 55" cx="2.684" cy="2.684" rx="2.684" ry="2.684" transform="matrix(0.916, 0.401, -0.401, 0.916, 41.312, 14.711)"/>
    <path id="Path_895" data-name="Path 895" d="M4.8,1.036A2.684,2.684,0,1,0,4.331,4.8,2.684,2.684,0,0,0,4.8,1.036Z" transform="translate(60.017 0)"/>
  </g>
</svg>
