<svg xmlns="http://www.w3.org/2000/svg" width="152.99" height="8" viewBox="0 0 152.99 8">
  <path id="line-box" d="M3212.468,2799.835c-.122.159-.235.311-.523.253a.569.569,0,0,0-.218.058c.035.3-.227.195-.375.216l-.114-.05c.1-.281-.157-.238-.332-.217-.13.015-.261-.275-.392.007-.009.028-.192-.007-.288-.007-.122.007-.279-.015-.349.043-.166.13-.244.253-.41-.014-.078-.13-.358-.05-.5.08-.07.057-.1.18-.183.014a.3.3,0,0,0-.227-.064,16.327,16.327,0,0,0-2.53.007c-.506-.167-1.064.057-1.57-.086h-.052c-.541.029-1.082.057-1.631.093-.122.015-.235.015-.235-.087.009-.224-.219-.209-.393-.3l.017.122c.035.087.2.167.017.247a.942.942,0,0,1-.227-.13c-.052-.05-.026-.137-.052-.2a.159.159,0,0,0-.279-.044.537.537,0,0,1-.6.26c-.244-.043-.27.037-.427-.1.009-.066.035-.13.043-.2l-.043-.058a.916.916,0,0,1-.1.065,1.175,1.175,0,0,0,.1.2.3.3,0,0,0-.3.108c-.175.246-.192.231-.445.072-.157-.093-.192-.187-.061-.317a.469.469,0,0,0,.1,0l.218-.044-.026-.064c-.079.021-.148.036-.218.058l-.079.057v-.209c-.192.015-.1.325-.375.231a.641.641,0,0,1-.044.115c.174.152.009.224-.07.3-.027.029-.148.014-.148.014a1.029,1.029,0,0,0-1.108.087c-.009-.029-.017-.05-.026-.08l-.026-.021c.017.029.043.065.061.094-.052.037-.1.1-.157.1-.462,0-.916-.013-1.378-.013-.585,0-1.169.013-1.762.021a3.726,3.726,0,0,1-.41.007,3.215,3.215,0,0,1-.375-.079l.3-.2a.593.593,0,0,0-.61-.072,2.266,2.266,0,0,1-.907-.022c-.035,0-.062-.107-.1-.166a.949.949,0,0,1-.262.13c-.149.036-.314.065-.419-.072l.1.008a.185.185,0,0,0,.07-.044c.035-.03.018-.043.018-.043l-.1.036-.078.051c-.079.072-.227.13-.114.244a.292.292,0,0,0,.366.073c.183-.145.314-.073.5-.022a3.559,3.559,0,0,0,.558.014c.052,0,.1.05.157.08-.044.036-.087.1-.139.1-.306.014-.62.014-.925.014-.07,0-.166-.029-.2,0-.253.246-.5.043-.846.036.261-.151.331-.3.209-.441a1.923,1.923,0,0,0-.419-.3c-.052.166-.1.3-.148.456-.287-.066-.1-.34-.314-.463-.043.073-.07.174-.131.2-.079.036-.2-.022-.3,0a.274.274,0,0,0-.175.137c-.044.123-.053.253-.279.224s-.218-.159-.209-.289c.026-.015.061-.021.1-.036-.035.015-.061.029-.061.029-.1.022-.192.014-.227.051-.227.224-.227.224-.436.007a1.868,1.868,0,0,0-.375.563,1.8,1.8,0,0,1-.192-.145c-.219-.217-.219-.223-.55-.072a.251.251,0,0,1-.314-.058c.1-.065.2-.13.3-.195h.026l-.017.008c-.166-.008-.314.014-.3.2-.087-.094-.183-.181-.3-.289l-.235.411a1.6,1.6,0,0,0-.341-.166,4.275,4.275,0,0,0-.427-.064c-.183.3-.314.122-.471.086a2.508,2.508,0,0,0-.689.108,2.589,2.589,0,0,1-.689-.1l-.1.022a3.306,3.306,0,0,1-1.012.188c-.279,0-.549.007-.82,0-.183-.008-.444.094-.5-.167a1.235,1.235,0,0,1-.549-.2c-.061-.022-.218-.008-.192.13a.4.4,0,0,1,0,.2.227.227,0,0,1-.166.072c-.043-.007-.061-.087-.061-.087l-.026-.073.009.03c-.157-.022-.314-.051-.419.094-.035.057-.07.115-.131.029s-.1-.109-.183-.029a.332.332,0,0,1-.5,0c-.157-.173-.358-.137-.558-.13s-.4-.03-.541.18c-.052.08-.314.093-.48.093-.75-.006-1.509-.029-2.259-.05a2.973,2.973,0,0,1-.567-.065.827.827,0,0,0-.418.014,2.512,2.512,0,0,1-.8-.051c-.226-.036-.436-.094-.637.08a.418.418,0,0,1-.288.036c-.175-.043-.349-.188-.489.058,0,0-.131.015-.148-.008-.209-.268-.584-.079-.855-.188-.052-.014-.175.065-.253.116a.466.466,0,0,1-.462.057,3.964,3.964,0,0,0-.776-.036,3.029,3.029,0,0,1-1.082-.1.615.615,0,0,0-.576.1.678.678,0,0,1-.82.022.844.844,0,0,0-.776-.015c-.21.094-.358.224-.585.08-.026-.014-.1.03-.1.03h-.192c-.279-.232-.279-.239-.558-.109-.087.044-.175.1-.262.145-.035.015-.131-.022-.131-.022.009-.318-.279-.173-.445-.195,0,0-.131.057-.131.087.009.072.07.158-.07.158-.113-.007-.3-.036-.3-.036-.078-.288-.27-.209-.453-.152a1.134,1.134,0,0,0,.122.008.27.27,0,0,1,.123.073l-.087.094c-.21-.066-.506.1-.619-.21-.044-.115-.428-.094-.567.008a1.671,1.671,0,0,1-.271.195c-.166.087-.357.087-.436-.079-.087-.181-.227-.174-.41-.174-.349.008-.689,0-1.029,0a2.451,2.451,0,0,1-.41-.036c-.1-.013-.2-.108-.244.022-.018.043.114.115.114.115a.444.444,0,0,1,.1.123c-.2.015-.384.094-.532-.1-.044-.065-.2-.094-.314-.094-.393-.007-.794.008-1.2.021-.219,0-.489-.115-.6.181a.339.339,0,0,1-.227.007c-.192-.115-.358-.245-.558-.39-.027.057-.061.122-.087.188-.061.166-.209.209-.4.187-.1-.014-.2-.007-.288-.021a.716.716,0,0,1-.131-.051c-.122-.13-.175-.239-.262-.311-.113-.094-.218-.13-.3.051-.018.043-.157.064-.245.094-.218.051-.506-.043-.628.209,0,0-.183.015-.218-.021-.174-.218-.366-.181-.576-.051-.131.079-.236.1-.349-.029s-.288-.115-.454-.029a.694.694,0,0,1-.261.115c-.463,0-.916-.021-1.378-.044-.087-.007-.209-.028-.235-.071-.183-.347-.41-.137-.619-.036-.139.065-.262.145-.427.051a.214.214,0,0,0-.149-.03c-.488.188-.942-.087-1.413-.1-.314-.008-.62-.124-.933.072a.64.64,0,0,1-.5-.036.976.976,0,0,0-.837-.015c-.148.044-.375.188-.384-.13-.009-.043-.157-.116-.245-.123-.427-.035-.855-.065-1.282-.073a.7.7,0,0,0-.366.152,1.182,1.182,0,0,1-.986.13,1.731,1.731,0,0,0-1.16-.022,2.13,2.13,0,0,1-.218-.064c-.07-.028-.157-.123-.209-.109-.462.13-.89-.224-1.352-.057a.743.743,0,0,1-.349-.037c-.227-.029-.445-.08-.672-.093a.393.393,0,0,0-.235.1c-.244.21-.235.2-.593.123a.814.814,0,0,0-.393.021.869.869,0,0,1-.986-.26c-.227.1-.462.209-.7.325-.026-.131-.026-.275-.27-.21a2.884,2.884,0,0,1-.445.094,2.776,2.776,0,0,1-.5,0c-.052,0-.148-.087-.148-.087.122-.325-.131-.26-.323-.26-.087,0-.174.007-.261,0-.192-.008-.366-.008-.34.216l-.052.116c-.035.029-.1.073-.1.073a1.233,1.233,0,0,1-.166-.08c.018-.145.044-.238-.14-.26l.009.006c-.087-.137-.166-.26-.384-.094a.976.976,0,0,1-.419.116c-.166.021-.375-.051-.34.2a1.24,1.24,0,0,1-.384.021,1.761,1.761,0,0,0-1.788-.021.458.458,0,0,1-.489-.037.771.771,0,0,0-.933-.021.437.437,0,0,1-.419.043.779.779,0,0,0-.811.123.266.266,0,0,1-.393-.008.249.249,0,0,0-.358.008.491.491,0,0,1-.567.072c-.061-.028-.157.008-.236.008a.92.92,0,0,1-.349-.014.8.8,0,0,0-.733-.03.351.351,0,0,1-.053.008c-.636.036-1.273.086-1.91.086a.529.529,0,0,1-.541-.5c-.035-.2-.131-.274-.332-.333a2.543,2.543,0,0,1-.331-.13c-.123-.051-.219-.138-.1-.239.192-.151.079-.26-.078-.346-.183-.094-.175-.181-.061-.311.1-.108.366-.122.3-.3-.052-.13-.209-.231-.3-.361a1.2,1.2,0,0,1-.183-.34,7.179,7.179,0,0,1-.192-.715c-.026-.136-.131-.158-.262-.158-.209,0-.271-.094-.253-.245s.087-.188.218-.116c.061.036.1.108.148.122.114.022.288.058.34.015.087-.079.236-.173.114-.332-.1-.131-.174-.282-.288-.455.436-.167.855-.354,1.3-.477a2.363,2.363,0,0,1,.663.036,2.4,2.4,0,0,0,.445-.058c.384-.072.759-.159,1.143-.238a.637.637,0,0,0,.2-.008,8.218,8.218,0,0,1,1.928-.209c.087-.007.174-.028.262-.028.252.007.314.057.235.288-.043.152.026.217.157.2a1.166,1.166,0,0,0,.6-.2c.123-.144.271-.115.4-.173.436-.188.89,0,1.308-.087.4-.072.794.145,1.187.015.148-.051.3-.065.454-.1.331-.087.331-.087.5.188.1.173.437.224.506.064.218-.534.707-.39,1.16-.354h.1c.07.1.131.282.219.3.218.029.174-.167.227-.282a.238.238,0,0,1,.07-.058.541.541,0,0,1,.2-.021,5.7,5.7,0,0,0,1.047-.015,1.434,1.434,0,0,1,.506.094,4.011,4.011,0,0,1,.427.145c.244.094.471-.239.768.014a1.229,1.229,0,0,0,.715.144c.14.008.271-.13.384-.281h-.619l-.009-.087a1.053,1.053,0,0,1,.253-.05c.174-.015.34-.015.515-.015.192,0,.375,0,.471.2a.3.3,0,0,0,.209.151,2.134,2.134,0,0,0,.89-.13c-.113-.051-.192-.087-.279-.123l.017-.043a3.77,3.77,0,0,1,.506-.008s.087.072.1.115c.1.253.1.261.366.217.14-.028.462.037.261-.252-.009-.007.035-.058.035-.058.235-.007.454-.014.672-.007a.415.415,0,0,1,.1.137c.009.108.079.144.2.151.654.043,1.3.079,1.954.122.175.015.314.03.332-.173,0,0,.166-.094.236-.079a1.364,1.364,0,0,0,.706.086c.044-.014.1.051.1.051a4.376,4.376,0,0,0,.654.26.667.667,0,0,0,.384-.072c.192-.094.366-.21.567-.3a1.047,1.047,0,0,1,.34-.073c.114-.014.219.022.192.137-.035.094-.061.188.079.2a2.523,2.523,0,0,0,.454-.043s.044-.058.027-.073c-.236-.282.086-.238.235-.245a2.258,2.258,0,0,1,1.291.23c.1.058.2.058.236-.064a.2.2,0,0,1,.261-.152c.175.08.419-.1.55.116a.4.4,0,0,0,.236.145q.484.086.968.13a1.038,1.038,0,0,0,.837-.282.282.282,0,0,1,.427.015c.2.217.41.3.567.173a1.336,1.336,0,0,1,.873-.188c.418-.008.829-.015,1.247-.008.227,0,.288.029.567.26.122.093.236.072.279-.087.035-.13.1-.166.245-.166s.27-.015.41-.015c.114,0,.2.015.209.137,0,.058.087.159.122.159.375-.043.253.187.322.36a4.394,4.394,0,0,0,.445-.512c.122-.18.3-.173.489-.152s.279.109.253.267c-.026.116.044.152.175.159.427.008.855.021,1.291.043.358.021.715.051,1.073.1.4.05.767.057.959-.317.026-.044.061-.094.061-.094a4.692,4.692,0,0,1,.523-.036l.07.1c-.114.188.044.231.209.254a3.961,3.961,0,0,0,.41.029.61.61,0,0,0,.7-.419.183.183,0,0,1,.149-.079s.1.065.1.109c.017.08-.035.194.017.238.1.1.323.087.358.267.035-.014.079-.014.087-.028.1-.159.34-.087.445-.152.28-.159.55-.044.82-.073.244-.021.48-.007.724-.021a.261.261,0,0,0,.157-.08c.139-.158.2-.1.262.043l.148.153c.218,0,.445-.037.663-.037.245-.007.358-.13.437-.383a1.287,1.287,0,0,0,.175.31.36.36,0,0,0,.227.124c.279-.008.549-.058.82-.073a1.868,1.868,0,0,1,.454.014c.288.044.541.072.732-.188.131-.174.331-.138.436.065a.27.27,0,0,0,.34.158c.218-.029.445-.05.663-.058s.366-.05.41-.245l.157-.152a2.281,2.281,0,0,1,.1.218c.009.021-.009.058-.009.058a.16.16,0,0,1-.026.043l.009-.028c.393.028.776.05,1.169.064a.392.392,0,0,0,.157-.064c.1-.224.192-.209.314-.094a.246.246,0,0,0,.384.014c.061-.058.192-.058.3-.073.131-.021.2.007.174.137-.009.035.07.116.07.116.3-.116.34.087.41.238a1.286,1.286,0,0,1,.3-.181c.07-.021.323-.087.131.123a2.021,2.021,0,0,1,.192.08c.175-.181.471-.173.611-.3.175-.159.183-.086.262.021.026.037.122.037.183.043.113.008.157-.238.261-.108s.358.159.366.375.009.253-.279.354c-.122.043-.183.224-.375.13,0,0-.079.065-.079.094,0,0,.062.087.088.087.2-.014.462.007.584-.087.227-.173.175.116.34.065-.1-.2.218-.4-.009-.621a.9.9,0,0,1,.131-.217,1.349,1.349,0,0,1,.68-.159.093.093,0,0,1,.061.015c.209.18.209.18.445,0,.105.151.218.281.053.477-.122.145-.2.3-.471.282-.1,0-.209.115-.34.188.332.13.332.13.619-.124.1.21.419.289.358.571-.026.108.1.123.209.116.375-.015.75-.022,1.152-.028-.044-.188-.052-.333-.3-.218-.148.065-.331.218-.454.087-.1-.1-.052-.3-.034-.448a1.855,1.855,0,0,1,.148-.4,1.314,1.314,0,0,1,.087.224.865.865,0,0,1-.018.253,1.2,1.2,0,0,0,.5.036c.07-.014.34-.065.1-.217a.183.183,0,0,1-.035-.166c.052-.153-.035-.231-.166-.318-.209-.13-.1-.232.087-.311l-.009-.007c.043.036.078.1.122,0l-.017.007c.043.043.1.079.131.13.061.094.314.08.192.288-.035.066.131.188.148.3.087.418.131.433.628.137.061.158.279.267.131.469-.018.022.07.079.1.123l.113-.116c.017-.051-.009-.13.026-.159a.35.35,0,0,1,.218-.079l.139.094a2.656,2.656,0,0,1-.018.354,1.652,1.652,0,0,1,.332-.036c.227.007.305-.1.323-.267a.389.389,0,0,1,.018-.122l.131-.094c.052.007.139.057.139.1.009.072-.052.158-.043.238a.661.661,0,0,0,.1.2l.009-.008c-.07.036-.139.072-.262.137.227.094.489.108.523.332-.087-.007-.174-.007-.261-.014a.38.38,0,0,0,.113.043,1.07,1.07,0,0,0,.14-.037,3.8,3.8,0,0,1,.3-.441c.131-.158.271-.3.1-.491,0,0,.07-.108.1-.166a.609.609,0,0,1,.2.094c.035.036.009.109.009.109.052.195.175.166.3.136-.087.116-.183.231-.331.412.236-.05.41.123.5-.115.061-.152.1-.289-.175-.289-.009-.1-.166-.224.009-.3a.813.813,0,0,1,.419,0,.412.412,0,0,1,.21.094.652.652,0,0,1,.069.158c-.244.086-.078.275-.166.39l-.114.021.026.015a.249.249,0,0,0,.052-.029.193.193,0,0,1,.1-.014c.262-.145.384-.073.471.115.018.051.14.065.209.094-.044.065-.087.13-.166.239.175-.073.271-.124.157-.231a.64.64,0,0,0,.27-.621c-.052-.282.122-.39.445-.346.14.013.27.05.4.072.227.044.288.166.209.347h.009l-.113.1.009-.014c-.1-.043-.271-.108-.271-.108.061-.145.035-.21-.139-.2-.07.007-.183.028-.209.065a1,1,0,0,0-.061.267c.174.036.253.094.174.238l.026.036c.1.094.375-.058.358.136-.009.137.078.181.148.253.113.138.192.065.253-.036a.292.292,0,0,0,.026-.116c0-.18.078-.252.218-.216.288.072.5-.094.724-.173l-.009-.007c-.087.346-.087.346-.515.39.052.043.1.094.166.144a.183.183,0,0,0,.3-.014c.1-.181.148-.093.261-.007a.623.623,0,0,0,.454.137c.349-.131.305.093.393.224a.528.528,0,0,1,.018-.2.482.482,0,0,1,.113-.1,2.839,2.839,0,0,0,1.413,0c.1-.022.21.072.314.094a.49.49,0,0,0,.279-.014.3.3,0,0,0,.087-.267c-.018-.058-.157-.08-.245-.116l-.052-.007c-.131.015-.253.021-.384.029v-.506c.271.477.689.376,1.065.346.261-.021.253-.029.27.217,0,.065.122.18.122.18.2-.072.3.03.428.087.305.124.619-.036.925-.043a.212.212,0,0,0,.139-.1.789.789,0,0,1,.027-.47c.018-.115-.157-.239-.235-.362a.158.158,0,0,1-.044-.115.225.225,0,0,1,.078-.153l.131.03a.5.5,0,0,1,.331.426c.009.195.1.289.41.289-.393.1-.5.209-.419.383.026.058.192.145.192.145.27-.21.41.051.628.079a1.556,1.556,0,0,0,.017-.722l-.009.007c.14-.007.306.145.375-.123.044-.173.279-.116.437-.116.227.007.148.181.192.282a1.167,1.167,0,0,1-.157.007l-.052-.029c0-.007.035.007.061.022h.139a1.034,1.034,0,0,0,.767-.094c-.087-.043-.2-.137-.244-.115-.279.115-.271-.03-.279-.18a.2.2,0,0,0-.07-.137.555.555,0,0,0-.122-.073.241.241,0,0,1,.183-.137,1.445,1.445,0,0,1,.349-.05c.515.021.532.043.445.484l-.017.029a.123.123,0,0,0,.009-.036.121.121,0,0,1,.035.029,1.069,1.069,0,0,1,.14.274,2.614,2.614,0,0,0,.829-.094c.079-.014.13-.145.174-.231,0,0-.052-.08-.044-.115.035-.123.044-.3.131-.339a1.021,1.021,0,0,1,.489.014s.113.116.1.166a.955.955,0,0,1-.157.267.5.5,0,0,1-.078.007l-.018.022.1-.036a1.978,1.978,0,0,0,.227.072.714.714,0,0,1-.192.109.685.685,0,0,0-.305.086,1.784,1.784,0,0,0,.253.043c.244,0,.48-.015.724-.007.157,0,.279-.015.253-.188,0,0,.052-.08.087-.087a.373.373,0,0,1,.113.058c.131.145.113.137.253.021a.554.554,0,0,1,.271-.086c.131-.014.174-.072.183-.173s-.07-.145-.2-.137a.5.5,0,0,1-.148-.007.5.5,0,0,1-.079-.087.165.165,0,0,1,.122-.13c.3,0,.584.008.925.015a1.365,1.365,0,0,0-.157.4,1.316,1.316,0,0,0,.192.383c.131-.115.209-.2.3-.289.1.116.14.3.375.145l-.009-.007c.035.1.087.209.236.159.288-.079.375.036.384.239a.621.621,0,0,1,.009.1c.087.051.175.094.175.094a.567.567,0,0,0,.209-.1,1.478,1.478,0,0,0,.035-.42c-.017-.188.027-.3.306-.282.07,0,.183-.108.227-.187a.779.779,0,0,0,.052-.289c.3.209.122.376.017.542a.287.287,0,0,1-.1.087c-.122.051-.3.087.009.13a.2.2,0,0,1,.122.137,1.065,1.065,0,0,1,.018.288l-.157-.043-.009.037h.166l.114-.052c-.027-.21.035-.433-.175-.592a1.58,1.58,0,0,1,.253-.021.511.511,0,0,1,.148.072c-.131.188.018.2.166.252.061.022.035.188.079.275,0,0,.122.13.166.116a.421.421,0,0,0,.244-.145c.018-.022-.061-.109-.1-.159s-.183-.087-.175-.108a2.4,2.4,0,0,1,.183-.4l.166.029c.323.426.323.426.776.1l.1-.022a.589.589,0,0,1-.052.167.241.241,0,0,0,.375-.044,1.147,1.147,0,0,0,.148-.26,1.993,1.993,0,0,0,.044-.339c-.366.2-.366.2-.558-.072.192-.058.392-.116.646-.188-.166-.123-.288-.217-.41-.31.236-.16.472-.325.715-.491.053.115.1.224.157.324.157.283.122.348-.262.513-.061.029-.07.159-.1.245-.044.109.052.109.139.131.183.043.1-.116.166-.159l.122-.036c.035.137.07.267.113.447a1.647,1.647,0,0,1,.183-.152c.113-.094.235-.115.235.051-.009.412.489.39.724.592.1.094.271-.03.332-.137a.931.931,0,0,1,.576-.484.842.842,0,0,0,.593-.4c.035.158.061.318.1.476,0,0,.018.144.061.18.087.073.209.13.236-.058a1.168,1.168,0,0,1,.078-.151l.088-.036a.157.157,0,0,1,.078.086c.009.094-.034.188.131.238.244.08.305.044.393-.281l-.009.006c.148.159.279.318.584.159a.549.549,0,0,1,.366.029c.445.188.436.188.8-.087a1.085,1.085,0,0,1,.349-.166.285.285,0,0,1,.366.152c.113.267.122.26.453.2-.026-.058-.061-.123-.1-.188.192-.013.375-.029.558-.043a1.259,1.259,0,0,1,.018.361.783.783,0,0,1-.157.267c.288.043.288.043.358-.123s.122-.325.2-.521a2.2,2.2,0,0,1,.288.21c.122.123.148.253-.079.346a.737.737,0,0,0-.131.087,1.7,1.7,0,0,0,.122.166c.462-.109.95.029,1.343-.238,0,0,.026.036.044.057a.326.326,0,0,0-.035-.036l-.157-.072c-.157-.072-.192-.173-.07-.238.157-.087.332-.159.489-.238.2.238.209.238.846.18a1.726,1.726,0,0,1-.192-.029l-.079-.036s.035-.094.061-.1c.157-.029.314-.043.462-.058a1.22,1.22,0,0,0,.8-.2l.1-.029a.854.854,0,0,1,.166.079l-.052.1c-.1.072-.2.137-.384.267.279,0,.419,0,.524-.159.061-.094.166-.079.236.022.035.051.078.1.078.1.079-.014.114-.08.157-.152l.061-.108c.175.014.349.029.506.058a.788.788,0,0,1,.166.065c.035.273.227.187.375.187.018-.007.035-.043.053-.064-.227-.116.043-.21.026-.274-.061-.3.131-.231.209-.094.122.2.349.152.523.209.139.043.305.03.384.167.044.079.087.158.131.245-.113.007-.244.058-.332.022-.131-.043-.192-.051-.209.072s.052.181.2.181c.462.007.933-.008,1.4.029a1.49,1.49,0,0,0,.881-.217,3.443,3.443,0,0,1-.55.008c-.166-.022-.384.109-.5-.094l-.183.007a3.122,3.122,0,0,0-.375.094c-.1-.13-.052-.231.053-.325l-.009.007a3.986,3.986,0,0,0,.5.065l.227-.065c.035-.318.314-.231.532-.246a1.494,1.494,0,0,0,.183-.036c.044-.281.28-.238.471-.246a1,1,0,0,0,.724-.231l-.009-.007a.146.146,0,0,0,.2.137c.245-.05.48.109.724-.014a2.3,2.3,0,0,0,.227.065c.1.021.209.021.357.036-.009.051-.026.13-.035.2-.017.136-.044.267.183.288.183.022.131.13.1.231-.009.036.07.1.122.115,0,0,.157-.021.166-.05.14-.325.454-.253.724-.238.235.014.479.115.645-.123l.07-.037c.166.1.331.21.5.318a.841.841,0,0,0,.061.116c.079.115.114.311.349.23.166-.057.044-.195.044-.3,0-.051.079-.108.114-.166a.8.8,0,0,0,.148.1,2.817,2.817,0,0,1-.052.505c-.017.1-.279.21-.4.181a1.7,1.7,0,0,0-.245-.029c-.07.115-.113.253-.061.3a.621.621,0,0,0,.34.138c.113.022.244-.015.349.014a.229.229,0,0,1,.13.1c.131-.008.183-.08.27-.131a.387.387,0,0,1,.183-.014c.384.064.384.064.454-.239l.009-.086s-.018-.021-.044-.058c-.209-.007-.384.267-.628.116,0,0,.009,0,.009.007-.175-.174-.3-.347-.052-.55.183.029.366.065.55.087a.316.316,0,0,0,.122-.015.149.149,0,0,0-.035-.188.427.427,0,0,0-.157-.028c-.227,0-.375.007-.576.007.122-.267.21-.506.332-.73.044-.072.166-.115.253-.173a.794.794,0,0,1,.026.282,2.108,2.108,0,0,1-.175.347.253.253,0,0,0,.358,0c.122-.137.175-.137.314-.029a.908.908,0,0,0,.331.072c-.052.116-.1.231-.166.346l-.035.087c.139.007.279.007.41.014a.34.34,0,0,0,.375-.224c.14-.318.166-.311.576-.289.087.007.175.007.261.007.323-.007.323-.007.375.282a.52.52,0,0,0,.087.159c.131-.022.305-.015.279-.159a.143.143,0,0,1,.113-.2.9.9,0,0,1,.358-.03c.043.022.026.173.043.26-.052.03-.1.058-.149.088a.322.322,0,0,1,.062.043c.026-.043.052-.094.052-.094.271.13.271.13.331-.065a1.023,1.023,0,0,0,.044-.137.234.234,0,0,1,.235-.079c.044.007.087.086.087.086-.035.123-.1.21.044.246.113.029.192.195.358.057.043-.029.183.007.271.036.122.043.227.014.244-.08,0,0-.1-.144-.174-.158-.087-.022-.192.036-.3.036a.646.646,0,0,1-.261-.058c-.018-.007,0-.108,0-.108.087-.123.174-.152.288-.094a.375.375,0,0,0,.236.014.316.316,0,0,1,.41.166,3.646,3.646,0,0,0,.358.412c.113-.145.183-.239.262-.333,0-.007-.009-.007-.009-.007.017.13.035.275.27.217.183-.043.279-.115.157-.281a.127.127,0,0,1-.018-.087.472.472,0,0,1,.079-.116.229.229,0,0,1,.131.015,1.523,1.523,0,0,1,.113.181c.052.072.087.173.166.2a2.087,2.087,0,0,0,.444.065s.035-.079.079-.094.148-.036.157-.022c.209.267.488.158.768.13-.148-.4-.087-.469.489-.578l-.018-.007c.271.2.018.39-.069.585a1.96,1.96,0,0,0,.889.036,2.35,2.35,0,0,1,.811-.014,8.9,8.9,0,0,0,1.745.058c.148,0,.3.021.445.014a.763.763,0,0,0,.3-.115,3.727,3.727,0,0,0-.9-.079,4.006,4.006,0,0,1-.951-.137c-.061-.015-.166-.043-.192-.022-.236.21-.515-.072-.759.043,0,0-.087-.065-.131-.1.052-.037.122-.108.157-.1.445.159.916-.152,1.37.029l.1-.021c.271.029.4-.18.62-.239.122.282.418.079.619.195-.043-.18-.131-.325-.1-.455s.166-.231.253-.34c.087.145.166.3.253.434s.2.3.3.441c.418-.2.541-.159.951.275.052-.094.078-.224.174-.26.07-.036.218.029.332.058-.087.1-.175.21-.27.332H3246c-.114-.115-.218-.216-.323-.325l.131-.152c.288.159.5-.058.733-.108.4-.094.436-.18.454-.562,0-.037.061-.081.1-.116a.822.822,0,0,0,.13.094,6.375,6.375,0,0,1-.148.8c-.027.087-.148.145-.253.231a1.276,1.276,0,0,0,.218.108c.236.051.271.029.288-.174.026-.3.079-.324.436-.238.262.064.262.064.314-.167,0,0,.018-.05.026-.079.131-.578.131-.578.837-.542a.947.947,0,0,1,.488.145c-.244-.008-.5-.015-.75,0s-.323.086-.314.346.052.3.349.3c.253,0,.506.115.75-.058.035-.029.183.036.271.072.131.043.21.05.279-.08.114-.209.166-.216.332-.087a.2.2,0,0,1,.052.08c.209.188.3.073.384-.051l-.018.007c.1.029.2.051.305.072.175.044.314.065.418-.123.087-.151.323-.209.384-.411.044-.145.279-.173.489-.094-.087.029-.166.057-.253.086a.553.553,0,0,0,.454.542.536.536,0,0,0,.192-.072l.052-.151c.227-.108.1-.2-.026-.289a1.382,1.382,0,0,1-.166-.158,1.878,1.878,0,0,0,.3-.03,2.217,2.217,0,0,0,.244-.108c-.052-.066-.078-.167-.157-.188a.6.6,0,0,0-.619.008.721.721,0,0,1-.34.072.23.23,0,0,1-.148-.087.429.429,0,0,0-.48-.252,1.372,1.372,0,0,1-.593-.022c-.174-.043-.453.108-.575.036-.3-.166-.349.094-.55.152-.052-.058-.113-.123-.174-.181-.131-.115-.253-.2-.419-.028-.157.151-.332.224-.48-.022-.017-.028-.078-.028-.078-.028-.131.318-.689.014-.707.4-.375-.333-.375-.333-.358-.6-.471.008-.707.3-.995.629a.589.589,0,0,0-.026-.151,1.853,1.853,0,0,1,.157-.281,1.071,1.071,0,0,0-.375-.094c-.244.043-.5.209-.715.18a3.792,3.792,0,0,0-.733-.158,2.024,2.024,0,0,0-.515-.007,3.332,3.332,0,0,1-.959.31c-.131.311-.384.115-.62.115.053-.151.1-.282.148-.426a.45.45,0,0,0-.4.115c-.331.224-.418.2-.549-.144-.026-.065-.061-.13-.1-.209q.262-.065.5-.13h-.009a2.055,2.055,0,0,0,.916.021c.166,0,.34-.006.506-.006l.052.014c.227-.008.462-.021.7-.014s.471.021.707.021a2.8,2.8,0,0,1,1.125.051.613.613,0,0,0,.2.051c.8-.043,1.605-.1,2.407-.13.209-.008.41.08.637.065.34-.014.689.03,1.038.037a1.713,1.713,0,0,0,.611-.065,5.011,5.011,0,0,1,1.082-.137.53.53,0,0,1,.3.014.715.715,0,0,0,.532.014,4.05,4.05,0,0,1,.672-.007c.707-.015,1.413-.051,2.128-.058a18.755,18.755,0,0,1,2.3.058,4.815,4.815,0,0,1,1.517.13l.1.007a12.787,12.787,0,0,1,2.1-.124,7.515,7.515,0,0,1,1.064.043c.227,0,.445-.064.663-.079a.844.844,0,0,1,.724.152.584.584,0,0,0,.418.029.256.256,0,0,0,.1-.26.407.407,0,0,0-.279-.145c-.445-.035-.89-.043-1.334-.064,0-.029-.009-.058-.009-.094a5.025,5.025,0,0,1,.733-.1,8.867,8.867,0,0,1,.968.108c.14.022.149.08.149.21a1.027,1.027,0,0,0,.209.491.514.514,0,0,0,.279.1,2.093,2.093,0,0,1,.89.2,1.052,1.052,0,0,0,.192.015c.227-.007.523.123.567.281a.762.762,0,0,1,.009.282c-.1-.007-.218-.015-.323-.029-.087-.014-.166-.051-.253-.073-.262-.051-.279-.044-.314.188l-.018.13a.778.778,0,0,0,.009.188c-.392-.332-.811-.181-1.239-.158.166.057.34.1.323.288-.018.224.157.267.366.252a2.42,2.42,0,0,0,.4-.072c.07-.022.131-.094.209.014a.583.583,0,0,0,.6.151.525.525,0,0,1,.236.065l-.009-.007a.08.08,0,0,0,.026.007c.183.043.462.058.489.13.061.145-.018.325-.035.491a.837.837,0,0,0,0,.151c.314-.072.628-.144.82.239-.271.007-.524.029-.768.029-.148.007-.279.007-.34.144-.061.152-.166.181-.288.03,0,0-.113-.08-.131,0-.018.064-.018.159.026.195a.639.639,0,0,0,.244.051c.332.022.663.051.986.058.157.007.227.064.236.18.009.072.009.145.017.217.018.245-.07.31-.34.245a2.589,2.589,0,0,0-.4-.079c-.236-.015-.305.05-.314.246-.009.253-.009.26-.288.253-.192,0-.384-.008-.575.007-.043,0-.122.058-.122.086,0,0,.07.123.1.123a9.4,9.4,0,0,0,1.744.13.332.332,0,0,1,.227.036.2.2,0,0,1,.018.2.258.258,0,0,1-.192.087.352.352,0,0,0-.384.008,2.059,2.059,0,0,1-1.187.2h-.366l-.061.058c0,.036,0,.1.026.116.1.042.2.064.288.108.052.022.122.079.122.115a.158.158,0,0,1-.114.123,2.693,2.693,0,0,1-1.178.014.232.232,0,0,1-.114-.1.141.141,0,0,1,.07-.152c.113-.072.218-.152.41-.3-.436-.015-.733-.217-1.055-.03a.336.336,0,0,1-.113.03c-.384-.2-.672.064-.995.051-.061,0-.114.057-.157.144.061,0,.131.008.131.008.227-.051.331.014.349.152s-.1.166-.235.159c-.157,0-.314-.014-.471-.029-.419-.043-.837-.094-1.361-.152a1.136,1.136,0,0,0,.846.376,3.571,3.571,0,0,1,.716.1.99.99,0,0,1-1.151.621,3.267,3.267,0,0,1-.672-.267l-.009-.087c.009-.217.253-.246.419-.34-.174-.13-.279.007-.4.043-.183.058-.349.066-.436-.107-.122-.268-.366-.261-.646-.246a3.031,3.031,0,0,1-.768.008,12.034,12.034,0,0,0-1.692-.13c-.262-.015-.514.015-.767.015a.422.422,0,0,1-.471-.405c0-.116.035-.224.043-.34.009-.158-.113-.253-.3-.188-.148.05-.244.094-.349-.036l-.131.051c-.061.021-.157.065-.157.065-.253-.26-.471-.058-.646.036-.2.108-.009.289,0,.441a.543.543,0,0,0,.061.079c.035-.13.07-.245.131-.433.166.224.183.5.532.469l.087.087a.663.663,0,0,1-.061.116,1.162,1.162,0,0,1-.34.014c-.122-.007-.245-.037-.358-.051-.244-.03-.271,0-.271.224,0,.028.035.072.017.079-.078.058-.175.158-.262.152-.148-.008-.175-.116-.1-.224a.239.239,0,0,0,.035-.081,9.729,9.729,0,0,0-1.361-.181l-.009-.079a1.2,1.2,0,0,1,.2-.071c.392-.058.445-.1.5-.419a.725.725,0,0,0-.148-.115s-.1.057-.114.094l.027.122c-.027.159-.087.174-.271.08-.061-.029-.114-.064-.183-.1-.114.145-.218.267-.349.427-.052-.051-.113-.087-.122-.123-.027-.18-.175-.21-.34-.18a.806.806,0,0,0-.366.122c-.174.137-.236.145-.314-.058-.018-.043-.157-.064-.245-.094l.009.008c.009-.044,0-.094.026-.123.219-.253.219-.3-.122-.318a6.965,6.965,0,0,0-1.4.057c.218.052.436.095.68.144-.079.188-.148.355-.227.556-.253-.173-.637.029-.838-.252l-.079-.008c-.305.267-.689.064-1.029.107a3.733,3.733,0,0,1-1.03-.021c-.27-.05-.48.079-.741.065a2.965,2.965,0,0,0-1.378-.007c-.053.021-.166-.037-.227-.08a.4.4,0,0,0-.427-.043c-.236.123-.305.029-.366-.137-.009-.021-.044-.036-.078-.057-.07.079-.14.217-.227.231a5.7,5.7,0,0,1-.776.072l-.1-.08a.2.2,0,0,1,.087-.137,1.716,1.716,0,0,1,.34-.079c-.218-.174-.532.014-.689-.224a2.359,2.359,0,0,1,.244-.052c.087-.007.192.037.261.008.166-.058.314-.2.48-.2.114,0,.165.252.384.208.3-.057.288.13.358.333.087-.361.357-.252.584-.252l-.009-.007a.186.186,0,0,0,.253.043c.165-.073.322-.094.418.1.07.131.166.144.271-.021s.253-.158.314.015c.052.137.131.151.262.137.288-.037.6.014.811-.246.1-.13.5-.044.628.109.157.187.175.194.28.028a.392.392,0,0,1,.384-.166c.227-.008.454-.015.672-.036.044,0,.07-.08.1-.116a.32.32,0,0,0-.113-.072c-.366-.03-.724-.058-1.091-.073-.279-.006-.558-.166-.855-.021l-.1-.073c-.166-.115-.305-.173-.419.066-.052.108-.2.108-.27-.021-.1-.188-.192-.094-.288,0v-.007a1.45,1.45,0,0,0-.27-.13s-.14.029-.166.064.1.166-.087.144a8.757,8.757,0,0,0-1.152.065c-.139,0-.34.014-.393-.05-.253-.261-.619-.137-.916-.218-.14-.036-.34.086-.523.137-.035-.043-.078-.1-.122-.159-.043-.079-.262-.122-.131-.231a.79.79,0,0,1,.41-.108c.044-.007.1.087.157.093a.759.759,0,0,0,.166-.057c.079-.065.079-.109-.044-.137,0,0-.052-.065-.079-.1a.479.479,0,0,0,.1-.064c.288-.015.523-.007.785-.007-.017-.181-.34-.232-.218-.427,0,0-.14-.029-.148-.014-.035.057-.044.137-.079.195l-.157.073c-.07-.022-.166-.073-.174-.123a1.106,1.106,0,0,1-.009-.3c.026-.289.1-.346.445-.289.166.029.3.029.34-.108.018-.079-.052-.188-.1-.267a.624.624,0,0,0-.227.036c-.1.036-.209.1-.314.145-.078.029-.183.079-.235.058-.288-.116-.62-.058-.916-.152a1.014,1.014,0,0,0-.218-.022c-.183.167-.305.181-.445.08a.213.213,0,0,0-.305.014h-.192c-.209-.079-.41-.187-.584.036a.29.29,0,0,1-.079.029c-.244-.18-.567-.043-.8-.159a1.24,1.24,0,0,0-1.168.03l.017-.015c-.07-.029-.14-.064-.2-.094l.009.007a.193.193,0,0,0-.026-.043.643.643,0,0,0-.1.043.007.007,0,0,0,.008-.007,1.281,1.281,0,0,1-.113.1l.009-.007a1.441,1.441,0,0,0-.985-.036.384.384,0,0,1-.236-.015c-.419-.137-.55-.094-.829.34a.614.614,0,0,0-.052-.174c.087-.23-.052-.26-.192-.267-.567-.014-1.134-.014-1.71-.014-.3-.007-.384.094-.349.347a3.816,3.816,0,0,1,.061.636c0,.086-.253.188.009.275-.052.087-.113.181-.175.274l-.026-.007.018.007a2.631,2.631,0,0,1,.41-.029c.175,0,.122.094.087.18l.009-.007v.1l-.009-.007a1.7,1.7,0,0,0-.331.043.332.332,0,0,0-.209.188c.174,0,.357-.015.531,0,.236.014.5.021.541.288l.009-.007c-.148.014-.227-.2-.41-.086a.346.346,0,0,0-.183.448c.009.036,0,.079.009.13-.166.021-.323.036-.48.044-.288.014-.576.014-.864.014-.253.007-.55.094-.6-.245a.534.534,0,0,0-.192,0c-.052.028-.07.1-.113.145a.226.226,0,0,1-.1.043c-.079-.022-.123-.073-.123-.1a2.17,2.17,0,0,1,.123-.542c.035-.066.236-.066.357-.109.044-.007.1-.05.1-.072,0,0-.035-.094-.069-.1a3.205,3.205,0,0,0-.454-.057c-.157-.007-.244.079-.166.195.209.3-.07.527-.166.773a.446.446,0,0,1-.175.064.18.18,0,0,1-.113-.115,1.984,1.984,0,0,1,0-.325s-.079,0-.087.023c-.262.4-.262.39-.837.325-.244-.029-.48-.007-.532-.274,0-.022-.113-.03-.113-.03-.079.037-.122.094-.113.13.061.167.009.218-.209.232-.157.007-.157-.028-.192-.123-.079-.275-.209-.354-.471-.289-.1.021-.174.08-.27.108l-.087-.044c-.148-.058-.3-.122-.445-.18a.287.287,0,0,0,.043-.094c.515-.043,1-.072,1.5-.107a.818.818,0,0,0,.192-.022c.078-.036.174-.087.174-.087a.192.192,0,0,0-.13-.2c-.053-.029-.192-.037-.218-.007-.114.151-.245.137-.437.1a3.416,3.416,0,0,0-.645.036.758.758,0,0,1,.026-.275c.078-.13.218-.029.323-.022a.343.343,0,0,0,.148-.028l.07-.058-.043-.1c-.279.007-.34-.21-.5-.318a1.146,1.146,0,0,0-.436-.2c-.183-.043-.253.072-.2.224s.183.145.314.166l-.009-.008c-.035.043-.1.124-.1.124-.166-.073-.358.122-.506-.036l-.009.006s.1-.1.1-.144a1.049,1.049,0,0,0-.07-.275c-.087.057-.175.115-.262.166,0,0-.061.022-.131.051.017-.13.026-.246.043-.47-.166.231-.261.4-.514.354l-.018-.014.009.007a.492.492,0,0,0,.07.115c.131.13.114.224-.1.282l-.123.029.087.072c.166.007.279.094.253.21s-.183.158-.341.1a.4.4,0,0,0-.139-.03c-.035.008-.1.058-.1.086a.373.373,0,0,0,.043.123c.192,0,.384-.021.4.144a1.176,1.176,0,0,1-.1.441c-.018.08-.018.188-.087.239h-.27c.035-.051.079-.1.114-.152,0,0,0-.014-.009-.014a.021.021,0,0,1,.009.014.116.116,0,0,1-.027-.006c-.462-.145-.471-.145-.288-.534.061-.116.087-.21-.017-.311-.14-.131-.235-.008-.367.006a1.536,1.536,0,0,1-.514-.014c-.148-.03-.1-.152-.035-.2a2.254,2.254,0,0,1,.384-.194c-.07-.246-.244-.2-.427-.094a2.208,2.208,0,0,0-.018-.34l-.114-.057a.334.334,0,0,1-.07.08c.07.122.148.216.209.31-.209.108-.4.173-.576-.043,0,0-.157-.073-.244-.1-.026.086-.061.18-.087.267a.234.234,0,0,0-.323-.087,1.567,1.567,0,0,1-.419.066c-.044,0-.087-.008-.131-.008-.349-.123-.018-.318-.052-.47-.332-.115-.332-.115-.532.124a.79.79,0,0,1-.218.18c-.07.05-.183.152-.183.152-.227-.1-.026-.166.017-.245a.359.359,0,0,0,.035-.167c-.017-.094-.087-.151-.218-.122-.166.043-.34.188-.261.267.131.13-.2.412.21.419.07,0,.139.094.2.144a.828.828,0,0,1-.183.109c-.2.029-.122.115-.061.166.148.13.244.079.341-.137a4.819,4.819,0,0,1,.322-.52,1.437,1.437,0,0,1,.2.158c.175.188.279.094.375-.064a.671.671,0,0,1,.1.007.8.8,0,0,0,.777.021.6.6,0,0,1,.1.1c.157.195.114.318-.157.346a7.216,7.216,0,0,1-.9.022.526.526,0,0,0-.419.08.425.425,0,0,1,.061.064,5.659,5.659,0,0,1,1.352.037c.41.057.41.036.524-.29a.373.373,0,0,0,.026-.079l.009-.036c.227.166.044.354.027.535a.581.581,0,0,1-.1.188.258.258,0,0,1-.471.072c-.052-.051-.061-.115-.114-.217-.07.123-.113.195-.148.267l.009-.007c-.1.282-.323.369-.663.361-.427-.014-.846.015-1.273.015-.262.006-.314-.124-.279-.312l.017-.014-.017.021a1.338,1.338,0,0,1-.306.152c-.174.036-.375.021-.549.064-.253.065-.227-.115-.314-.2-.235-.231-.418-.2-.619.115l.009-.007c-.078-.043-.157-.086-.236-.123v.007c.087-.064.166-.173.026-.2a4.867,4.867,0,0,0-.8-.065.208.208,0,0,0-.114.159c.009.05.166.115.166.115.245-.224.253.022.349.094a.3.3,0,0,1,.043.065c-.384.057-.759.087-1.168.123-.027-.116-.053-.224-.079-.34-.009-.051.079-.166-.087-.137a.338.338,0,0,0-.209.145,1.138,1.138,0,0,0-.009.361,2.955,2.955,0,0,0-.236-.181c-.043-.029-.1-.064-.1-.064-.253.05-.454.108-.7.166a2.179,2.179,0,0,0-.087-.361c-.026-.044-.13-.058-.2-.087v.122c.017.173.009.3-.279.325-.227.021-.114.151-.044.252.009.015-.026.058-.044.087a.24.24,0,0,0-.079-.014c-.314-.36-.55-.412-1.125-.274-.253.057-.253.057-.279-.167v-.123a4.786,4.786,0,0,0-.262-.715,1.56,1.56,0,0,1-.444,1.272c-.21-.014-.1-.3-.419-.289-.262.014-.357.109-.462.354-.043-.145-.061-.194-.061-.194-.052-.2-.148-.2-.279-.13l-.235.13c-.113-.109-.323-.181-.253-.376a.805.805,0,0,1,.061-.115c-.026-.008-.052-.008-.078-.015C3212.451,2799.741,3212.459,2799.784,3212.468,2799.835Zm-16.216-2.455h.035a.107.107,0,0,1-.026.007v-.014Zm62.746-1.4.009-.006.018.013A.1.1,0,0,0,3259,2795.978Zm-52.566.925a.094.094,0,0,0-.026-.008h.009a.11.11,0,0,0,.026-.014C3206.44,2796.888,3206.432,2796.9,3206.432,2796.9Zm21.241-.008a.2.2,0,0,0-.026-.043l-.061.014c.035.007.061.014.061.014l.044.008C3227.69,2796.9,3227.682,2796.9,3227.673,2796.9Zm30.54-.007.017.043.035.015a.347.347,0,0,1-.061-.052.45.45,0,0,0-.088.008C3258.152,2796.9,3258.178,2796.9,3258.213,2796.888Zm-55.245.621-.026.015.017-.007.114-.051Zm14.83.015a.588.588,0,0,0,.148.08l.1-.058-.078-.036a1.894,1.894,0,0,0-.192.022c-.027-.08-.07-.058-.07-.058a.951.951,0,0,1-.375.007,1.286,1.286,0,0,0-.166-.022l-.035.065a.839.839,0,0,1,.1.072c.183.008.331.066.41-.079C3217.7,2797.517,3217.746,2797.524,3217.8,2797.524Zm-2.2,1.625v-.021l.009.028c-.148-.079-.288-.144-.437.087C3215.347,2799.207,3215.469,2799.178,3215.6,2799.149Zm-18.493-.866.009.007c-.305-.065-.305-.065-.428.18-.192.081-.165.2-.087.312l.183.064c.061-.051.148-.145.131-.188-.044-.08-.157-.13-.244-.195C3196.819,2798.4,3196.958,2798.34,3197.107,2798.282Zm31.744-1.156c.026-.137.061-.274.078-.4l-.1-.051c-.009,0-.052.043-.052.043.018.152.052.282.078.412-.227.187-.253.281-.1.39a.3.3,0,0,0,.1.029c.035-.029.018-.065.018-.108C3228.859,2797.336,3228.859,2797.228,3228.85,2797.127Zm35.957-.643c-.017-.087-.026-.252-.061-.26-.2-.014-.218.123-.261.253.122,0,.227,0,.323.007l.1-.007.114-.014c.052-.037.035-.058.035-.058a.351.351,0,0,0-.175.029Zm-76.59,2.341c.017-.087.017-.188-.113-.181a.314.314,0,0,0-.219.138s.044.115.061.173l.235-.109.044-.029a.371.371,0,0,1,.052.036l.114.036.026-.029a.346.346,0,0,0-.1-.036Zm39.054-1.33c-.061-.108-.113-.209-.183-.354a1.426,1.426,0,0,0-.218.239c-.079.137-.009.224.175.2a1.523,1.523,0,0,0,.235-.093c.035.079.07.166.21.087a.089.089,0,0,0,.035-.051.466.466,0,0,0-.209-.022Zm-6.3-.585c-.018-.1.061-.252-.192-.209-.1.022-.2.015-.305.036a.542.542,0,0,0-.166.1.423.423,0,0,0,.157.079c.166.007.34-.008.506-.014a.523.523,0,0,0,.1-.008l.261-.043-.026-.065a1.3,1.3,0,0,0-.262.065A.49.49,0,0,0,3220.973,2796.909Zm-.253,2.29h-.026l.018-.015a1,1,0,0,0,.7.043l.087-.086c-.009-.036-.07-.087-.1-.08C3221.165,2799.1,3220.947,2799.149,3220.72,2799.2Zm31.962.39c.044.043.1.137.14.137.271-.021.541-.057.811-.086l-.009-.036c-.314-.007-.628-.007-.95-.007l-.087-.014-.087.021.1.023Zm-4.1-1.971c-.026.093-.114.217.07.238a8.11,8.11,0,0,0,.829.073.18.18,0,0,0,.113-.051c-.323-.109-.724.014-1.021-.253l-.052-.05-.026.043Zm-44.925,1.531c.043-.311.34-.367.646-.433a2.019,2.019,0,0,0-.532-.094c-.175-.014-.314,0-.227.209.035.08-.009.188-.009.282,0,.015.087.022.087.022l.436.072c.009-.029.009-.058.017-.087C3203.937,2799.127,3203.8,2799.141,3203.658,2799.149Zm-.741-.729h.009c-.07-.015-.157-.051-.2-.03-.1.043-.227.116-.244.188-.026.115.044.224.227.232l.471.043c-.062-.152-.1-.282-.157-.412Zm18.2-.976c.113.015.209,0,.192-.122a.133.133,0,0,0-.044-.043.37.37,0,0,0-.139.13v.043s-.123-.123-.175-.181c-.122-.137-.183-.137-.3.008a1.676,1.676,0,0,0-.123.21c-.044-.066-.07-.116-.1-.159-.1-.108-.174-.072-.209.036-.078.2-.017.253.2.275.157.008.305.043.454.036S3221.2,2797.647,3221.113,2797.444Zm-14.481.911c-.043-.087-.078-.188-.235-.181-.14.008-.14.087-.175.173a3.1,3.1,0,0,1-.219.29s0,.115.044.145a.515.515,0,0,0,.724-.254s-.1-.123-.149-.181Zm27.2-.672a1.813,1.813,0,0,0,.079-.3s-.009-.166-.052-.18a.438.438,0,0,0-.289,0c-.078.036-.113.145-.192.195a.8.8,0,0,1-.209.043c-.131-.23-.375-.136-.584-.216.035.073.052.1.052.1,0,.079.149.2.219.209a1.532,1.532,0,0,1,.384.1.8.8,0,0,0,.593.036.386.386,0,0,1,.07.007l.1-.043-.026-.064-.052.029A.459.459,0,0,0,3233.831,2797.683Zm-41.165.888.009-.007c-.148-.007-.3-.014-.454-.014-.07,0-.209.007-.218.036a.61.61,0,0,0-.044.325.6.6,0,0,0,.262.087,2.88,2.88,0,0,0,.593-.145,1.036,1.036,0,0,1,.881.036c.192.1.332-.072.5-.036a.512.512,0,0,0,.069-.18l-.113-.108c-.218.007-.427-.181-.671-.007l-.219-.014A.481.481,0,0,0,3192.666,2798.571Zm38.915-.614-.017-.022s.017.022.017.03c-.1-.036-.192-.188-.323-.008a.229.229,0,0,1-.375.043c-.1-.079-.244-.072-.288.051a.37.37,0,0,0,.035.3.321.321,0,0,0,.279.072.37.37,0,0,1,.436.21c.139.2.061.318-.218.324-.166.007-.34.007-.506,0-.123-.007-.253-.021-.271.123s.1.144.244.115a.927.927,0,0,1,.166.007c.061.209.14.115.236.044s.227-.115.331-.181c.061-.043.14-.086.166-.145a.508.508,0,0,0,.026-.253c0-.216.14-.267.366-.274.166,0,.34-.029.506-.043l-.009.007c-.131-.109-.358-.079-.445-.26-.061-.123-.122-.051-.174.051-.114.209-.323.23-.628.072C3231.363,2798.2,3231.6,2798.2,3231.581,2797.957Zm2.094,1.026c.113-.3.235-.606.34-.917.052-.18-.061-.274-.279-.253a.335.335,0,0,0-.314.195c-.026.065-.07.13-.122.232-.175-.391-.175-.391-.646-.34.035.152,0,.361.1.441a1.385,1.385,0,0,0,.55.137c-.148.051-.323.116-.576.2.122.044.174.072.227.087.122.036.166.086.1.195-.14.232-.14.232.166.232a1.6,1.6,0,0,0,.462-.037c.14-.043.088-.122-.017-.18Zm-15.789.2.009.007c-.2.015-.3-.231-.541-.13l-.062-.05a.911.911,0,0,1,.183-.2c.018-.021.114.015.166.036a1.486,1.486,0,0,1,.174.145c.026-.173.026-.311.053-.44a.581.581,0,0,1,.139-.08s.078.065.078.1c.009.238,0,.484,0,.752.489-.218.393-.572.393-.846-.009-.209.079-.245.253-.281a3.777,3.777,0,0,0,.166.425c.009.022.148.007.218-.007.026-.006.044-.064.061-.1-.192-.058-.148-.362-.454-.311-.166-.124-.34.035-.488.014-.183-.036-.349-.1-.524.007-.236-.238-.34.036-.506.087,0,0-.122-.021-.183-.036a8.864,8.864,0,0,0-1.247-.072,1.192,1.192,0,0,0-.479.006,1.415,1.415,0,0,1-.9.014s-.166.022-.192.066c-.061.1.043.094.131.108.175.03.393.036.349.26-.017.087-.061.188.078.2.175.015.183-.094.183-.2,0-.043.061-.093.087-.143a.85.85,0,0,1,.157.13c.148.209.165.224.366.007.148-.152.235-.043.357-.022l-.009-.007c-.139.16-.139.174.027.188s.122.1.114.181c-.018.245.009.275.27.289.1.007.2-.007.305-.007.3,0,.3,0,.34-.247.026-.224.026-.224.288-.318-.044.138-.1.267-.14.405-.009.043.062.137.062.137C3217.414,2799.192,3217.685,2799.459,3217.885,2799.178Zm41.026-2.947c-.044-.109-.07-.217-.114-.325-.052-.13.009-.181.166-.173.375.029.75.044,1.125.072.14.008.218.073.183.2-.175-.051-.314.252-.523.015-.07-.073-.183.028-.192.123a.216.216,0,0,0,.218.245,3.788,3.788,0,0,0,.489.007v-.4c.1.015.279.166.27-.072,0-.137.113-.123.218-.123.261,0,.523-.007.907-.007-.48-.3-.959-.123-1.334-.31-.035-.022-.157.086-.244.122-.061.021-.139.043-.139.043a10.962,10.962,0,0,0-2.364-.1,1.557,1.557,0,0,0-.305.051.362.362,0,0,0,.009.079c.271.051.541.094.811.145-.846.058-1.675.051-2.5.036,0,0-.114-.036-.175-.058,0-.021.009-.05.009-.072l.96-.043v-.08c-.96-.043-1.919-.086-2.879-.122a4.825,4.825,0,0,0,1.806.252,1.423,1.423,0,0,1-1.1.441c-.149-.015-.306,0-.367.2a2.213,2.213,0,0,1,.384.007c.331.05.681-.13,1,.058.017.014.148-.051.183-.094a1.29,1.29,0,0,0,.1-.267c.2.109-.078.325.2.376a.851.851,0,0,0,.55-.029c.149-.073.209-.13.114-.268l.035-.1a4.841,4.841,0,0,1,.558.014.29.29,0,0,1,.174.145.3.3,0,0,0,.4.173c.07-.014.175.08.262.094a1.878,1.878,0,0,0,.6.029,1.76,1.76,0,0,0,.506-.282.4.4,0,0,0,.043.079l.061.022A1.454,1.454,0,0,1,3258.911,2796.231Zm4.117,2.542c-.192-.051-.366-.058-.3.18.026.057-.052.13-.044.195s.07.145.114.145a1.143,1.143,0,0,0,.384-.021c.043-.007.052-.087.052-.087a.5.5,0,0,0-.114-.072c-.052-.015-.1-.043-.157-.065a.434.434,0,0,0,.079-.094c.14-.029.27-.043.27-.043.279.26.741.094.934.4,0,0,.1.036.14.021.331-.158.628.036.942.066a3.623,3.623,0,0,0,.55.036.289.289,0,0,0,.218-.137c.035-.13-.131-.094-.2-.138-.262-.151-.741.16-.872-.282l-.148-.021C3264.267,2798.824,3263.647,2798.8,3263.028,2798.774Zm-42.16-.593c-.271-.036-.5-.086-.733-.1-.262-.008-.506.021-.628.282-.1.2-.271.382-.087.6.027.037-.009.109-.035.159a.223.223,0,0,1-.131-.022c-.227-.23-.271.008-.48.13.576.015,1.039.023,1.51.023l.166-.123a.288.288,0,0,0,.017-.16C3220.781,2798.716,3220.72,2798.426,3220.868,2798.181Zm42.046-2.26c-.305-.015-.506-.029-.567-.275,0,0-.14-.065-.21-.1a.343.343,0,0,0-.061.145c-.017.173-.026.339-.035.512a.232.232,0,0,0,.27.275,1.931,1.931,0,0,0,.366-.08c-.114-.079-.183-.137-.262-.188.087-.036.166-.072.253-.1.2-.05.236.037.236.18,0,.058.1.109.148.167.061-.044.148-.073.183-.13.061-.094.078-.21.14-.31l.131-.1a1.324,1.324,0,0,1,.506.13c.183.138.253.174.314-.051.009-.029.131-.036.2-.051.026-.008.061-.014.087-.021l-.061-.1c-.114-.029-.236-.051-.358-.072-.471-.073-.942.064-1.422-.03l-.052.05C3262.775,2795.8,3262.819,2795.84,3262.915,2795.921Zm-5.653,2.795c-.3-.008-.611-.26-.881-.008a1.141,1.141,0,0,0-.227-.043c-.227-.021-.471-.1-.558.188-.027.087-.183.153-.279.231.462.159.462.159.584-.347a1.739,1.739,0,0,0,.149.188.556.556,0,0,0,.855.015A2.666,2.666,0,0,1,3257.262,2798.716Zm-44.942-.369c-.1-.028-.218-.072-.332-.115-.079-.029-.157-.073-.236-.108a.822.822,0,0,0-.017.253c0,.043.07.093.122.108a3.479,3.479,0,0,0,.471.108.857.857,0,0,0,.271-.015,1.807,1.807,0,0,1,.9-.064.589.589,0,0,1,.148.05c.2.073.332.08.366-.05s-.087-.181-.218-.181c-.157-.008-.314.014-.472.007a.991.991,0,0,1-.375-.072.255.255,0,0,0-.357.022C3212.547,2798.333,3212.433,2798.325,3212.32,2798.347Zm-1.021.463h.114a2.2,2.2,0,0,0-.009-.412l-.166-.115c-.323.072-.645.014-.969.057a.467.467,0,0,0-.148.086.777.777,0,0,0,.131.311.281.281,0,0,0,.1.08c.1-.007.122-.086.157-.123a.9.9,0,0,1,.087-.087c.183.152.288-.021.4-.079.166-.072.253-.029.288.122A.489.489,0,0,1,3211.3,2798.81Zm10.345-1.242c.384-.051.741.137,1.126.021.183-.051.261-.108.166-.231s-.663-.245-.741-.13C3222.064,2797.438,3221.793,2797.386,3221.645,2797.567Zm36.681,1.423a3.74,3.74,0,0,0,.55.065.768.768,0,0,0,.611-.245c.087-.116.026-.166-.079-.181a5.6,5.6,0,0,0-.611.008C3258.448,2798.644,3258.448,2798.644,3258.326,2798.99Zm-53.8-.152c.34-.007.549-.007.75-.021.157-.007.3-.043.305-.231.009-.123.087-.246-.175-.217l-.035-.094c-.035-.159-.1-.122-.244-.058C3204.818,2798.354,3204.914,2798.672,3204.521,2798.838Zm43.73-1.43a2.542,2.542,0,0,1-1.2.109c-.157-.015-.349-.16-.506.007.131.051.262.1.384.151.017.007.026.014.043.022.087.058.183.151.279.151s.192-.087.28-.151a.246.246,0,0,1,.349.028c.183.166.253.16.323-.021C3248.233,2797.625,3248.225,2797.538,3248.251,2797.408Zm-3.306.13a1.365,1.365,0,0,1,.183.087c.175.123.323.354.559.058l.14.065.262.065a.815.815,0,0,0,.1-.275c0-.036-.113-.094-.192-.108a.99.99,0,0,0-.3,0C3245.459,2797.459,3245.224,2797.495,3244.945,2797.538Zm2.844.593c.14.094.227.137.3.195.087.073.14.181.236.217a1.119,1.119,0,0,0,.384.028c.026,0,.044-.036.044-.036a1.049,1.049,0,0,0-.244-.158l-.053-.1c.078-.022.148-.036.227-.058s.139-.051.27-.086A2.2,2.2,0,0,0,3247.788,2798.131Zm-58.3.643c-.087-.167-.14-.282-.21-.391l-.122-.057a.348.348,0,0,0-.113.051c.043.252-.122.26-.332.252-.148,0-.209.108-.113.2.061.073.1.152.279.043A2.088,2.088,0,0,1,3189.491,2798.774Zm63.183.166a1.832,1.832,0,0,0-.245-.079c-.235-.008-.567.1-.5-.282a.848.848,0,0,0-.305-.064c-.14.006-.052.1-.044.166s.009.166.035.253c.017.043.087.116.122.116C3252.019,2799.026,3252.29,2798.99,3252.674,2798.939Zm-5.949-.751a.9.9,0,0,1,.288.058.169.169,0,0,1,.018.158s-.087.087-.209.188c.271-.022.488.008.584-.065s.1-.253.087-.383c0-.036-.227-.079-.349-.073A2.261,2.261,0,0,0,3246.725,2798.189Zm-55.681.758c.245-.043.436-.058.611-.109.1-.028.157-.115.044-.2-.087-.066-.157-.13-.244-.2l-.087-.014c-.017.2-.236.116-.34.181-.07.043-.079.174-.079.267C3190.948,2798.9,3191.035,2798.939,3191.043,2798.947Zm35.242-2.528h.1c.183-.014.305-.144.244-.274-.061-.152-.148-.029-.226.013-.131.073-.166-.036-.253-.072-.235-.109-.48-.044-.532.145-.009.021.009.057.009.079l.079-.015c.087-.086.227-.2.236-.086C3225.963,2796.448,3226.12,2796.433,3226.286,2796.419Zm.279.823c-.375.087-.724.173-1.073.26a.982.982,0,0,0,.375.066,1.237,1.237,0,0,1,.288.008c.393.115.41.108.419-.267C3226.574,2797.308,3226.565,2797.257,3226.565,2797.242Zm-81.877-1.545a3.3,3.3,0,0,0-.524-.173.582.582,0,0,0-.331.057c-.052.022-.079.124-.07.181,0,.036.1.087.148.094A.969.969,0,0,0,3144.688,2795.7Zm84.494,2.412c.087.238.366-.073.471.166.087.2-.044.3-.209.412a.609.609,0,0,0,.349-.058.822.822,0,0,0,.14-.3c-.3-.022-.026-.26-.175-.333C3229.566,2798.037,3229.391,2798.073,3229.182,2798.109Zm17.15.418a1.238,1.238,0,0,0-.087-.361.543.543,0,0,0-.27-.159.646.646,0,0,0-.14.1l.044.108c.122.043.227.066.026.145,0,0-.1.1-.079.13a.345.345,0,0,0,.1.072A2.329,2.329,0,0,0,3246.332,2798.528Zm-49.383-1.625v.021l-.1-.007a1,1,0,0,0-.139.058c-.018.094.017.2.087.2a1.779,1.779,0,0,0,.436-.007.579.579,0,0,0,.218-.065c-.052-.043-.1-.115-.157-.137A2.532,2.532,0,0,0,3196.949,2796.9Zm.838,1.841a2.637,2.637,0,0,0,.393.08,1.616,1.616,0,0,0,.454-.03c.043-.007.061-.129.087-.2l-.209-.015c-.131.174-.253.122-.358.008-.157-.166-.209-.043-.288.058A.76.76,0,0,1,3197.787,2798.744Zm26.955-2.3.227-.109a.732.732,0,0,0-.192-.281.3.3,0,0,0-.271-.007.2.2,0,0,0-.061.224A.984.984,0,0,0,3224.742,2796.441Zm-37.1,2.008s-.078-.029-.114-.044c-.131.123-.262.245-.4.369l-.113.115a.687.687,0,0,0,.166.043c.366.022.384.007.392-.3A.515.515,0,0,1,3187.642,2798.448Zm30.845-.9v.058c.244.007.5.029.741.029l.157-.087a1.714,1.714,0,0,0-.192-.282l-.1.043c.1.2-.087.174-.218.2Zm7.877.83c.183-.006.252-.043.218-.166a.314.314,0,0,0-.174-.216.351.351,0,0,0-.358.246C3226.05,2798.426,3226.242,2798.362,3226.365,2798.383Zm-35.687.513a.431.431,0,0,0-.279-.433c-.07.13-.139.253-.209.383,0,0,.018.043.035.079C3190.372,2798.917,3190.52,2798.9,3190.677,2798.9Zm33.271-1.394c.349.03.645.051.933.066.027.008.087-.036.078-.043s-.035-.08-.061-.086A1.254,1.254,0,0,0,3223.948,2797.5Zm-.663.166c.122-.029.192-.057.253-.064.122-.022.271-.008.2-.173-.052-.123-.131-.152-.253-.044-.07.057-.131.036-.218-.022a.107.107,0,0,0-.166.022A.791.791,0,0,0,3223.285,2797.668Zm43.468,1.17-.009.022c-.087-.008-.175-.029-.253-.029a.124.124,0,0,0-.079.037c-.009.057.009.107.043.115a1.465,1.465,0,0,0,.253.029c.157.014.34.13.453-.057C3267.023,2798.917,3266.884,2798.874,3266.753,2798.838Zm-9.281.737c-.1.086-.226.144-.226.2a.739.739,0,0,0,.1.354c.1.16.252.066.514.023C3257.376,2800.074,3257.5,2799.828,3257.471,2799.575Zm-101.067-4.362a1.435,1.435,0,0,0,.314.058.626.626,0,0,0,.192-.058.544.544,0,0,0-.087-.26,1,1,0,0,0-.209.065A1.417,1.417,0,0,0,3156.4,2795.213Zm103.467,2.311s-.044.008-.044.021a.681.681,0,0,0,.009.231c.026.079.078.115.183.043.087-.058.279.065.305-.109,0,0,0-.064-.017-.072C3260.176,2797.6,3260.036,2797.567,3259.87,2797.524Zm-54.346,1.6c-.541-.036-.541-.036-.785.123C3205.045,2799.192,3205.289,2799.156,3205.524,2799.12Zm-.3-1.965c-.053.145-.087.239-.114.333l.052.093a.207.207,0,0,0,.113.007c.087-.072.192-.151.183-.2C3205.463,2797.386,3205.341,2797.264,3205.228,2797.155Zm12.884-.289c-.052-.174-.175-.2-.331-.174a.375.375,0,0,0-.131.073c.009.2.2.144.314.166A.438.438,0,0,0,3218.112,2796.866Zm40.808.686a.456.456,0,0,0-.009.065c.122.043.235.1.357.138h.122a.3.3,0,0,0,.07-.08.221.221,0,0,0-.148-.115A3.569,3.569,0,0,0,3258.92,2797.553Zm-113.158-1.8a.763.763,0,0,0,.593.13l.087-.079a.312.312,0,0,0-.061-.079C3146.18,2795.725,3146.014,2795.74,3145.762,2795.754Zm53.848,2.442a1.6,1.6,0,0,1,0-.354c.061-.167-.026-.159-.166-.123a.742.742,0,0,0-.131.058A1.487,1.487,0,0,0,3199.61,2798.2Zm3.873-.8a.931.931,0,0,0,.227.145l.157-.108a2.1,2.1,0,0,0-.2-.21C3203.614,2797.278,3203.562,2797.329,3203.483,2797.4Zm44.253-.476a.256.256,0,0,0,.314-.217s-.035-.087-.07-.1c-.087-.036-.271.109-.3.231Zm11.68,3.229c.175.007.349.014.524.007.026,0,.061-.058.061-.058a.107.107,0,0,0-.009-.1C3259.774,2800,3259.521,2799.915,3259.417,2800.153Zm-61.865-1.43c-.148-.065-.261-.116-.436-.2.026.152.035.254.052.39C3197.316,2798.845,3197.429,2798.788,3197.551,2798.723Zm56.527-2.817V2796c.209-.065.436.043.741-.145Zm-32.974,3.937a.912.912,0,0,0,.3.021s.139-.094.148-.145-.052-.122-.1-.173c0,0-.1.038-.148.051C3221.5,2799.813,3221.191,2799.749,3221.1,2799.843Zm45.474-2.362-.1.043c.1.151.2.3.314.484C3266.954,2797.733,3266.727,2797.625,3266.579,2797.48Zm-18.6,1.365a2.377,2.377,0,0,0,.114-.26.508.508,0,0,0-.035-.13,1.14,1.14,0,0,0-.244.036.788.788,0,0,0,.061.072A2.971,2.971,0,0,1,3247.98,2798.845Zm-46.259-.361a1.833,1.833,0,0,1-.2.144c-.209.079-.026.159-.009.231.009.036.1.079.1.079.209-.029.148-.123.139-.2C3201.738,2798.672,3201.73,2798.607,3201.721,2798.484Zm24.4.34a1.973,1.973,0,0,0,.218-.231l-.1-.079c-.1.043-.183.1-.279.151Zm-30.558,1.286c0,.043-.009.079-.009.115l.654-.021v-.043C3196,2800.131,3195.781,2800.124,3195.562,2800.11Zm6.665-1.257a.233.233,0,0,0,.053-.376c0-.007-.043-.007-.043-.007-.035.109-.061.21-.087.312A1.039,1.039,0,0,1,3202.227,2798.853Zm-19.008.015v.064a3.063,3.063,0,0,0,.454-.015.538.538,0,0,0,.069-.13s-.087-.051-.113-.044C3183.49,2798.781,3183.359,2798.824,3183.219,2798.868Zm13.1-1.72.1-.014a1.1,1.1,0,0,0,0-.239c-.009-.029-.079-.05-.079-.05a.26.26,0,0,0-.1.044A1.281,1.281,0,0,0,3196.322,2797.148Zm27.243,2.723.017-.072-.314-.13c-.009.1.017.159.07.173A1.067,1.067,0,0,0,3223.564,2799.871Zm-41.933-1.018-.148-.094a2.774,2.774,0,0,0-.2.224.847.847,0,0,0,.1.072A3,3,0,0,0,3181.632,2798.853Zm4.336-.071a.573.573,0,0,1-.166-.073.42.42,0,0,0-.183.073.164.164,0,0,0,.026.136A.527.527,0,0,0,3185.967,2798.781Zm13.084.079a1.3,1.3,0,0,0,.183-.2l-.122-.108a1.772,1.772,0,0,0-.192.173S3198.99,2798.794,3199.052,2798.86Zm10.852-2.369c.1-.072.174-.1.21-.159,0,0-.061-.08-.1-.115a.719.719,0,0,0-.183.115Zm5.5,3.214c-.1-.065-.157-.108-.218-.144l-.087.122a.332.332,0,0,0,.148.13S3215.338,2799.756,3215.408,2799.705Zm-19.959-1.574a.706.706,0,0,0-.271-.094c-.052.007-.1.086-.139.137.052.029.1.087.148.079A1.222,1.222,0,0,0,3195.449,2798.131Zm.959.556a.955.955,0,0,1-.218-.094c-.122.029-.157.108-.21.159a.45.45,0,0,1,.131.073C3196.234,2798.817,3196.287,2798.759,3196.408,2798.687Zm31.666-1.047a1.347,1.347,0,0,0,.053-.282s-.079-.064-.114-.1a.758.758,0,0,0-.1.209S3227.987,2797.538,3228.074,2797.639Zm-12.326-.2c.271,0,.271,0,.375-.218C3215.984,2797.3,3215.87,2797.365,3215.748,2797.438Zm-20.692,1.126c-.1.13-.131.231.017.3l.14-.03c-.035-.08-.061-.159-.1-.238C3195.118,2798.6,3195.091,2798.586,3195.057,2798.564Zm67.064,2.593s.026.058.044.086c.131-.051.262-.1.4-.144l-.043-.08C3262.391,2801.07,3262.252,2801.113,3262.121,2801.157Zm-9.866-2.614a.9.9,0,0,1-.018.1c.166,0,.332,0,.62.006C3252.578,2798.6,3252.42,2798.571,3252.255,2798.542Zm-1.448.318c.07.094.1.137.1.137l.139-.073a.151.151,0,0,0-.1-.108Zm-49.757.816a.2.2,0,0,0-.027.043,1.411,1.411,0,0,0,.332.138l.078-.029a.346.346,0,0,0-.017-.087A2.594,2.594,0,0,0,3201.05,2799.676ZM3216.6,2798c.079-.029.139-.058.192-.079-.052-.043-.087-.116-.157-.13-.035-.015-.1.064-.166.107C3216.472,2797.9,3216.559,2797.965,3216.6,2798Zm15.623-.477a.245.245,0,0,0-.044-.08,2.636,2.636,0,0,0-.322.065l-.035.058.1.064C3232.034,2797.6,3232.13,2797.56,3232.226,2797.524Zm-6.595-.758.017.064a.974.974,0,0,0,.244.03.467.467,0,0,0,.157-.058.68.68,0,0,1-.122-.079A.941.941,0,0,0,3225.632,2796.766Zm-96.575-1.531c.131.057.253.065.332-.066.009-.021-.018-.072-.035-.107-.1.043-.192.086-.279.13Zm-1.753,4.29a.534.534,0,0,1,.114.094.6.6,0,0,0,.174-.094l-.087-.08A.856.856,0,0,0,3127.3,2799.525Zm62.485-.571a1.121,1.121,0,0,0,.209-.167c.018-.029-.052-.087-.079-.13a.68.68,0,0,0-.174.116C3189.726,2798.8,3189.762,2798.86,3189.788,2798.954Zm38.339-2.131a.273.273,0,0,1-.018.058c.149,0,.3,0,.445-.007v-.057C3228.414,2796.816,3228.266,2796.823,3228.127,2796.823Zm4.335,1.813a.157.157,0,0,0,.009-.051,2.217,2.217,0,0,0-.428-.043.227.227,0,0,0-.009.079C3232.174,2798.629,3232.323,2798.629,3232.462,2798.636Zm-1.248-1.148a.273.273,0,0,1-.017.057,1.143,1.143,0,0,0,.209.073c.044.007.088-.022.131-.03-.035-.036-.061-.087-.1-.1Zm-23.474,1.17c.061-.08.113-.138.113-.138a2.118,2.118,0,0,0-.209-.166.431.431,0,0,1-.07.072A1.271,1.271,0,0,0,3207.74,2798.658Zm2.486,1.127a.723.723,0,0,0,.122-.066l-.13-.151-.149.115C3210.122,2799.713,3210.165,2799.749,3210.226,2799.784Zm-17.219-2.557.035-.13a.4.4,0,0,0-.035-.1.139.139,0,0,0-.114-.044.81.81,0,0,0-.009.2C3192.893,2797.177,3192.954,2797.2,3193.007,2797.228Zm8.226,1.452a.851.851,0,0,1-.123-.094.453.453,0,0,0-.131.058l.009.115C3201.058,2798.744,3201.119,2798.716,3201.233,2798.679Zm31.421-1.857a.8.8,0,0,0,.2-.108l-.044-.1a1.306,1.306,0,0,0-.122.079S3232.671,2796.751,3232.654,2796.823Zm16.521.124a.789.789,0,0,0,.1-.052.14.14,0,0,0-.113-.094c-.035-.007-.079.029-.122.051A1.3,1.3,0,0,1,3249.176,2796.947Zm5.731,1.957c-.087-.008-.166-.022-.235-.022a.626.626,0,0,0-.035.065c.07.021.148.036.218.051C3254.854,2799,3254.881,2798.954,3254.907,2798.9Zm-50.49-.542c.061-.065.122-.1.122-.115l-.1-.124s-.1.05-.087.079C3204.347,2798.2,3204.382,2798.29,3204.417,2798.362Zm-22.41-1.748c.052-.058.1-.115.148-.173,0,0-.087-.036-.1-.029-.052.044-.1.1-.139.144A.734.734,0,0,1,3182.007,2796.614Zm21.154.427c.052-.109.1-.16.087-.2s-.078-.072-.113-.115a.726.726,0,0,1-.087.087C3203.047,2796.9,3203.1,2796.947,3203.16,2797.041Zm5.539,1.4.044.073a.661.661,0,0,1,.122.043c.078,0,.1-.058.131-.094a.754.754,0,0,0-.166-.058A.3.3,0,0,0,3208.7,2798.441Zm48.7.535a.416.416,0,0,1-.1-.058.255.255,0,0,0-.131.08.41.41,0,0,0,.131.072Zm-8.932-2.015a.987.987,0,0,1,.192-.151c0-.079-.1-.152-.1-.152a.317.317,0,0,0-.183.123C3248.364,2796.816,3248.425,2796.881,3248.469,2796.96Zm-4.309-.1c.052-.03.087-.043.131-.065-.026-.029-.07-.087-.07-.087a.738.738,0,0,0-.157.079A.825.825,0,0,1,3244.16,2796.86Zm-43.45,1.884c-.113-.036-.148-.05-.148-.05a1.5,1.5,0,0,0-.279.022l-.009.072c.079-.006.148-.014.227-.021C3200.5,2798.766,3200.6,2798.759,3200.709,2798.744Zm31.16-1.408a.814.814,0,0,1,.122-.036l-.1-.109c-.035-.007-.079.029-.122.043A1.047,1.047,0,0,0,3231.869,2797.336Zm-76.617-2.268a.645.645,0,0,1,.123.072l.156-.107-.1-.065S3155.331,2795.025,3155.252,2795.068Zm38.19,3.047s.052.081.07.081c0,0,.131-.007.2-.015,0,0-.043-.08-.069-.086C3193.644,2798.095,3193.521,2798.109,3193.443,2798.115Zm23.038-.592a1.284,1.284,0,0,0,.017-.152.66.66,0,0,1-.07-.028c-.017.05-.035.1-.052.144C3216.376,2797.488,3216.428,2797.509,3216.481,2797.524Zm-13.469,1.647c.07.051.1.087.14.094a.471.471,0,0,0,.14-.037l-.061-.086A1.1,1.1,0,0,0,3203.012,2799.171Zm18.11-.4a.7.7,0,0,1,.07-.109.132.132,0,0,0-.078-.072.15.15,0,0,0-.079.051C3221.034,2798.7,3221.078,2798.73,3221.122,2798.774Zm28.865-.224a.068.068,0,0,1-.009-.03.953.953,0,0,0-.236,0l.018.022S3249.908,2798.55,3249.987,2798.55Zm-65.721.194a.512.512,0,0,0-.139-.064l-.079.044.07.087Zm17.377.585.1-.1-.113-.064c-.044.014-.07.064-.1.1C3201.555,2799.286,3201.59,2799.3,3201.643,2799.329Zm-7.04-1.191c.035.021.079.043.131.072l.044-.072a.422.422,0,0,0-.1-.058C3194.62,2798.066,3194.612,2798.087,3194.6,2798.138Zm-18.694-2.146a.938.938,0,0,1-.14-.065.45.45,0,0,0-.1.094l.079.094A1.094,1.094,0,0,0,3175.909,2795.992Zm78.343,3.033a.8.8,0,0,0,.131-.13l-.087-.072a.157.157,0,0,0-.1.079C3254.191,2798.925,3254.226,2798.961,3254.252,2799.026Zm.113-.39v.021h.323v-.021Zm-53.343.693.105-.036a.271.271,0,0,0-.035-.109.752.752,0,0,1-.079.015Zm26.327-2.448c-.07-.036-.1-.058-.1-.058l-.122.03a.273.273,0,0,1,.043.079A1.241,1.241,0,0,0,3227.35,2796.881Zm-91.856,3.229a.478.478,0,0,0-.122-.065s-.061.022-.087.03l.07.086S3135.425,2800.131,3135.494,2800.11Zm61.028-1.871c-.079-.051-.114-.081-.148-.081l-.131.044s.035.08.061.08A1.864,1.864,0,0,0,3196.522,2798.239Zm22.61-1.25a.455.455,0,0,1,.087-.109s-.07-.1-.114-.115l-.1.079A.613.613,0,0,0,3219.133,2796.99Zm-23.37,1.69a.9.9,0,0,1-.122-.051l-.07.123c0,.022.061.043.061.043C3195.694,2798.781,3195.711,2798.752,3195.763,2798.679Zm-.7,1.156a.308.308,0,0,1,.052-.036.274.274,0,0,0-.07-.051l-.1.036C3194.987,2799.8,3195.031,2799.821,3195.065,2799.835Zm7.31-.635a.175.175,0,0,1-.043-.036c-.044.007-.078.021-.087.043l.052.051A.512.512,0,0,0,3202.375,2799.2Zm9.753-.282a1.63,1.63,0,0,0,.131-.1.944.944,0,0,0-.061-.08c-.043.037-.087.065-.131.1A.483.483,0,0,0,3212.128,2798.917Zm-31.238.094c.035-.051.061-.079.061-.115l-.07-.036a.949.949,0,0,0-.1.065Zm13.547-.181a.646.646,0,0,1,.1-.021l-.043-.1-.07.022C3194.42,2798.759,3194.437,2798.794,3194.437,2798.831Zm11.314-1.256.087.043a.52.52,0,0,0,.1-.094l-.087-.029Zm-62.049,1.155s.035-.037.052-.051l-.07-.043c-.017,0-.035.029-.052.051A.709.709,0,0,1,3143.7,2798.73Zm101.652.484-.14-.021-.009.051c.052,0,.1-.008.148-.008Zm-35.617-.773a.37.37,0,0,0-.131-.043l-.043.065a.113.113,0,0,0,.043.051A.184.184,0,0,0,3209.738,2798.441Zm15.676-2.188a.407.407,0,0,0,.044-.058.1.1,0,0,0-.044-.064.862.862,0,0,0-.087.1C3225.353,2796.239,3225.379,2796.245,3225.413,2796.252Zm-.7.585a.813.813,0,0,0,.1-.051l-.052-.057-.1.014S3224.7,2796.809,3224.716,2796.838Zm-32.084,1.5a.261.261,0,0,1,.052-.043l-.043-.08-.052.058A.14.14,0,0,0,3192.632,2798.34Zm18.266,1.423s.044-.036.044-.057-.035-.029-.035-.029l-.06.043Zm-17.35.124c-.061-.008-.1-.008-.149-.015v.058a.147.147,0,0,0,.061.014C3193.5,2799.937,3193.521,2799.907,3193.548,2799.886Zm24.076-.275s-.026-.058-.044-.058-.052.008-.052.008-.009.065.018.072Zm-11.209-.448a.29.29,0,0,1-.026-.058.758.758,0,0,0-.131.022l.043.079A.5.5,0,0,0,3206.414,2799.164Zm4.632-2.311a.369.369,0,0,1,.1.065.113.113,0,0,0,.1-.014c.009-.036-.009-.086-.035-.094S3211.125,2796.83,3211.046,2796.852Zm4.867,2.947a.523.523,0,0,0-.009-.123l-.069-.05a.538.538,0,0,1-.027.087A.355.355,0,0,0,3215.914,2799.8Zm29.554-1.712.044.015.009-.036-.07-.015Zm-57.922-1a.275.275,0,0,1,.026.065l.1-.022-.052-.087Zm28.106.8-.07-.006v.006Zm35.285.643-.087-.021a.436.436,0,0,0-.052.036.276.276,0,0,1,.052.021A.108.108,0,0,0,3250.938,2798.535Zm-66.986-1.293c.035-.022.061-.036.061-.036a.263.263,0,0,0-.026-.065l-.113.015Zm74.069,2.882a.523.523,0,0,1,.07.037.45.45,0,0,0,.052-.073c-.026-.008-.061-.029-.079-.021S3258.038,2800.1,3258.021,2800.124Zm-103.161.4s.061-.036.087-.05a.388.388,0,0,0-.122-.037s-.052.022-.078.037C3154.79,2800.485,3154.825,2800.507,3154.86,2800.521Zm63.174-3.25.027.03.052-.043a.1.1,0,0,0-.017-.022A.284.284,0,0,0,3218.033,2797.271Zm-65.782,3.331.026-.058-.078-.036s-.035.05-.026.064S3152.225,2800.594,3152.251,2800.6Zm108.125-.506-.052.043.026.029.079-.029Zm-111.849-4.962a.452.452,0,0,1,.052.036.393.393,0,0,0,.079-.036.06.06,0,0,1-.026-.021Zm49.164,3.026.1-.036a.334.334,0,0,0-.043-.094.789.789,0,0,1-.079.015Zm57.844-1.169.044.007a.512.512,0,0,1,.018-.065l-.079.021A.052.052,0,0,0,3255.535,2796.99Zm-38.2,2.845.018-.116h-.07a.264.264,0,0,0-.026.073A.894.894,0,0,1,3217.336,2799.835Zm45.2.325a.186.186,0,0,0,.052-.007c-.009,0-.026-.015-.026-.015a.539.539,0,0,1-.061.008C3262.5,2800.153,3262.522,2800.153,3262.531,2800.16Zm-40.895-2c.018.022.018.058.035.066,0,0,.061-.008.1-.008a.271.271,0,0,1-.027-.058Zm-93.269,1.409a.362.362,0,0,1-.035-.023.357.357,0,0,0-.018.038l.026.021Zm38.008.975a.3.3,0,0,0-.044-.029l-.052.021a.05.05,0,0,0,.018.036A.3.3,0,0,0,3166.375,2800.543Zm32.145-.578s.044-.036.044-.058l-.026-.064c-.026.021-.061.043-.061.043C3198.459,2799.922,3198.5,2799.943,3198.52,2799.965Zm-3.28.181-.035-.043-.043.058a.63.63,0,0,1,.043.05A.234.234,0,0,0,3195.24,2800.146Zm18.868-1.185a.43.43,0,0,0-.122-.05l-.044.057a.248.248,0,0,0,.07.051A.216.216,0,0,0,3214.108,2798.961Zm32.337-.065a.35.35,0,0,0,.043-.028l-.035-.044a.079.079,0,0,0-.035.036Zm-67.021-2.448-.044-.065c-.017-.007-.061.014-.061.014l.035.094C3179.381,2796.477,3179.4,2796.462,3179.425,2796.448Zm74.872.484a.344.344,0,0,1-.035.036l.027.043a.134.134,0,0,0,.043-.021Zm-36.9-.2a.488.488,0,0,1-.114-.036l-.017.058.078.036Zm-20.5,1.162a.142.142,0,0,0,.026.03h.052l-.009-.065A.464.464,0,0,0,3196.9,2797.9Zm21.625-.621.061.022.018-.022Zm-19.688-.369a.233.233,0,0,1-.07-.029c-.044.014-.044.051-.062.079a.6.6,0,0,1,.062.022S3198.816,2796.932,3198.834,2796.909Zm17.865.7a.2.2,0,0,1,.018-.043l-.035-.008S3216.69,2797.581,3216.7,2797.611Zm5.033-1.257-.026-.029a.147.147,0,0,0-.043.007.143.143,0,0,0,.035.043C3221.706,2796.368,3221.723,2796.361,3221.732,2796.354Zm-92.711-.83c.018-.007.035-.007.052-.015l-.07-.022Zm92.58,1.119-.052.058.018.036a.437.437,0,0,0,.043-.014S3221.619,2796.664,3221.6,2796.643Zm-.061.671h.043v-.036l-.035-.021Zm-18.869-.346h.078v-.029h-.052Zm12.736.636.061.028.026-.021a.169.169,0,0,0-.035-.043A.148.148,0,0,0,3215.408,2797.6Zm-26.832,2.412a.135.135,0,0,0,.043-.007.477.477,0,0,0-.017-.065l-.043.007Zm57.4-1.308-.078-.021-.018.029.078.021Zm-58.734-1.965.009.03.044-.015-.026-.043A.163.163,0,0,0,3187.24,2796.743Zm18.8.015-.07-.051c-.009,0-.026.015-.026.015a.224.224,0,0,0,.026.043Zm-19.845,2.159a.249.249,0,0,0,.043-.021v-.058l-.035.007A.464.464,0,0,0,3186.194,2798.917Zm-.576-1.74a.144.144,0,0,1-.017-.065.108.108,0,0,0-.079.008l.017.079Zm64.491.658-.052-.008v.044l.043-.008Zm-51.066-.86a.112.112,0,0,0,.043-.007v-.029h-.035Zm29.3.426a.446.446,0,0,1,.035.058.055.055,0,0,1,.026-.021s-.026-.051-.035-.066Zm33.279-1.069.052-.007-.026-.058-.035.028A.287.287,0,0,1,3261.624,2796.332Zm-35.067,3.221a.1.1,0,0,1,.026-.014.615.615,0,0,0-.044-.065l-.035.029Zm-14.428-.354a.213.213,0,0,1,.026-.044l-.026-.043a.236.236,0,0,0-.052.036A.4.4,0,0,1,3212.128,2799.2Zm50.15.086a.337.337,0,0,0,.052.008v-.036h-.035Zm-37.58-1.127.061.03.026-.03s-.035-.036-.052-.057A.348.348,0,0,1,3224.7,2798.159Zm5.4-.072.018.022a.358.358,0,0,0,.061-.008l.009-.036Zm-32.642.376-.035-.05c0,.007-.018.021-.018.021Zm9.185-1-.017.036.035.007a.112.112,0,0,0,.018-.021Zm-8.427-.476.009-.044-.026.008A.134.134,0,0,0,3198.214,2796.982Zm-1.125,3.25.018.021h.043l-.026-.044Zm-1.125-2.03.035-.014a.228.228,0,0,0-.035-.008Zm-66.21-3.062a.123.123,0,0,1,.027.015v-.015Zm45.187.109.044.014-.026-.036Zm-.846.108a.149.149,0,0,1,.035.014.064.064,0,0,0-.009-.029Zm-4.048.014.044-.014-.044-.014Zm86.736,2.962.043.007a.068.068,0,0,0,.009-.021.1.1,0,0,1-.026-.008Zm-93.74-2.89c.017,0,.035-.007.052-.007,0,0-.043-.014-.061-.021Zm61.01,2.672a.235.235,0,0,0-.044-.006l-.009.021.035.007Zm-3.864-1.74.009.029.035-.015a.065.065,0,0,1-.009-.021A.237.237,0,0,1,3220.188,2796.375Zm-.253,1.156h-.026l-.018.043.053-.008Zm-1.16,2.08.009-.022-.027-.006Zm-.427-2.81a.026.026,0,0,1-.009.015.13.13,0,0,0,.043-.008A.223.223,0,0,0,3218.348,2796.8Zm-4.178,2.983.035-.008a.026.026,0,0,0-.009-.021h-.035A.122.122,0,0,1,3214.169,2799.784Zm-.768-.881v-.015h-.035A.124.124,0,0,1,3213.4,2798.9Zm-30.653.007a.131.131,0,0,0,.035-.015l.009-.036-.061.014A.083.083,0,0,1,3182.748,2798.911Zm82.452.845a.035.035,0,0,1-.018.006c0,.008.009.014.018.022Zm-60.836-1.192s.017-.014.017-.021l-.027-.008A.047.047,0,0,1,3204.365,2798.564Zm6.813-3.625c.087.008.175.014.262.029a.121.121,0,0,1-.018.036c-.122.137-.2,0-.3-.029a.145.145,0,0,0-.026-.015c-.078.058-.271.073-.122.217.078.065.113.18.2.238a.338.338,0,0,1,.175.4c-.026.123-.026.267.166.325l-.009.006.026-.173.122.044a1.123,1.123,0,0,1,.157.08.245.245,0,0,0,.148-.167s-.026-.086-.061-.1c-.175-.086-.148-.167-.07-.318.062-.109.253-.369-.148-.4l-.026-.2a.955.955,0,0,1,.209.022c.331.1.262.354.3.578a.728.728,0,0,0,.043.187c.087-.043.175-.079.262-.115l-.026-.015.009.022c.1-.029.279-.022.174-.188l.026-.123a2.57,2.57,0,0,1,.262-.079,1.251,1.251,0,0,1-.192-.174s-.009-.079-.009-.137a2.625,2.625,0,0,0,.393.116.46.46,0,0,0,.175-.043.345.345,0,0,0-.009-.209,5.642,5.642,0,0,0-.759-.037c-.061,0-.122.094-.192.137s-.087.036-.114-.036-.035-.072-.131-.072a12.24,12.24,0,0,1-1.858-.051,3.579,3.579,0,0,0-1.3.028c-.166.022-.506-.072-.244.253.017.021-.052.093-.052.093a4.142,4.142,0,0,0-.009.478c.227-.217.366-.354.559-.534a1.533,1.533,0,0,0,.279.917c.061-.325.253-.555.122-.816-.052-.115.035-.209.183-.209.436-.007.872,0,1.308,0l.009.043Zm28.918,4.861a1.963,1.963,0,0,0,.14-.268,3.259,3.259,0,0,0,.052-.5c.009-.318-.087-.376-.707-.368.227.087.358.137.506.2-.454.086-.454.086-.392.426-.166-.115-.288-.224-.437-.311-.13-.087-.244-.079-.3.079-.052.123-.14.232-.175.347s-.009.218-.044.325a.429.429,0,0,1-.061-.5,3.057,3.057,0,0,0,.253-.657.186.186,0,0,1,.131-.094c.061-.015.13.022.2.03.41.021.437,0,.585-.3a.321.321,0,0,1,.628-.043l-.035.1c-.1.015-.21.007-.306.029l-.078.086c-.009.015.035.058.035.058.157.036.358-.036.384.166l.07-.05c.087-.21.262-.08.384-.058.183.029.1.159.07.245a1.183,1.183,0,0,1-.218.514c-.209.2.061.274.122.267.175-.03.227.014.279.151.043.087.166.159.271.253a1.307,1.307,0,0,1-.34.108c-.113.015-.192-.036-.175-.151a.386.386,0,0,0-.026-.137c-.044.021-.1.043-.1.043-.061.158-.123.181-.271.115s-.3-.079-.445-.122Zm.471-.144v-.036l-.079.007v.035C3240.514,2799.662,3240.54,2799.655,3240.566,2799.655Zm-1.186-1.011a.2.2,0,0,1-.026.014s.017.014.026.014Zm-53.953-2.788a.991.991,0,0,1,.113-.13.136.136,0,0,1,.113-.015c.192.188.183.188.375.044a1.492,1.492,0,0,1,.349-.238c.306-.1.5-.224.393-.527,0,0,.1-.159-.052-.181-.131-.022-.314-.073-.341.1-.044.253-.271.224-.462.246-.148.007-.3-.03-.453-.03a4.561,4.561,0,0,1-1.178.007c-.113-.028-.3.073-.427.138-.157.086-.044.21-.027.318.009.072.009.152.027.289.209-.152.462-.137.515-.391.027-.13.515-.158.6-.028.148.231.2-.051.314-.022.018.131.035.268.053.4Zm3.454-.252c-.052-.2-.113-.238-.262-.13-.113.072-.148.166-.192-.03-.017-.072-.418-.1-.558-.043s-.07.13-.052.216c.043.167-.079.282-.279.253a3.213,3.213,0,0,0-.742-.1c-.052.008-.131-.079-.157-.137a.854.854,0,0,1,.1-.13,1.988,1.988,0,0,1,.855-.419.479.479,0,0,1,.279.03.748.748,0,0,0,.584.007l.175-.065c.253.209.332-.043.462-.13v-.014c-.017.137-.043.267.21.26.148-.014.3,0,.453-.006.105-.007.227-.037.227.094,0,.159-.14.123-.262.115a2.639,2.639,0,0,0-.41.008.517.517,0,0,0-.149.079s.114.043.166.065c0,0,.114.036.175.057a.218.218,0,0,0-.061.08c-.209-.021-.392-.044-.567-.065Zm-1.649-.188a.3.3,0,0,1,.078.058l.1-.037c0-.029-.026-.057-.044-.087C3187.328,2795.365,3187.293,2795.386,3187.232,2795.415Zm10.032.109c-.009.1.166.166.331.13a4.688,4.688,0,0,1,.55-.094.326.326,0,0,0,.271-.159.405.405,0,0,1,.671.036c.07.109.245.094.245.065-.026-.252.323-.245.41-.419.052-.093.069-.173-.087-.173-.244,0-.489.014-.733.029-.131,0-.271.014-.4.021l-1.587.087a.564.564,0,0,0-.148.058C3196.984,2795.227,3197.281,2795.241,3197.263,2795.523Zm4.117-.043.035.014-.018-.021c-.087-.008-.165-.008-.244-.008l.061.115a1.5,1.5,0,0,0,.89,0c.1-.014.192-.158.253-.26,0,0-.1-.1-.148-.152l-.009.029v-.021a.294.294,0,0,1,.07-.065c.131-.173.175-.289-.1-.267l-.1-.007c-.489-.166-.777-.1-1.029.224a.326.326,0,0,0-.07.238c.026.072.122.115.192.174C3201.233,2795.473,3201.311,2795.48,3201.381,2795.48Zm-5.54-.246c-.174.057-.348.115-.567.18.236.13.489.036.794.079a.853.853,0,0,1-.218.086,3.888,3.888,0,0,1-1.326.044,1.047,1.047,0,0,0-.253.014c-.139.015-.166-.029-.122-.152.061-.187.035-.2-.209-.158-.087.021-.192.122-.245-.022-.035-.115.017-.187.175-.209a1,1,0,0,1,.2-.058c.48-.006.96-.006,1.44-.006.166,0,.3.057.331.209Zm-.854.086c-.052.029-.1.051-.1.051a.67.67,0,0,0,.052.087.156.156,0,0,0,.1.015A.82.82,0,0,0,3194.987,2795.321Zm42.22,4.507c.009.166.183.166.305.173.332.008.672,0,1.073-.007-.079-.123-.114-.2-.166-.268-.14-.209-.113-.2-.07-.512a2.164,2.164,0,0,0-.026-.628.154.154,0,0,0-.1-.116,2.467,2.467,0,0,0-.506-.065l-.156.13c.209.173-.027.318-.044.47,0,0,.026.093.061.108s.113-.007.113-.007c.087-.151.139-.281.209-.405.017-.035.07-.057.1-.086l.079.138c-.262.166-.148.39-.166.592l-.078.151-.018-.007v.187l.009-.007a1.151,1.151,0,0,1-.2.093c-.139.03-.279.05-.427.073Zm-17.036-4.716c.183-.015.244-.073.174-.231-.061-.137-.131-.072-.253-.051a.806.806,0,0,1-.489-.021c-.209-.1-.323-.015-.506.05-.157.051-.366-.006-.5.152-.062.079-.183.145-.07.26.1.086,0,.116-.087.144s-.166.072-.262.109c0,0,.07.072.087.093.113.088.218.261.332-.021.009-.043.209-.058.235-.209.026-.124.166-.058.244-.008s.087.173.227.1.34-.138.392-.246c.123-.246.262-.217.462-.116Zm-99.576,4.037c.052-.087-.227-.231.052-.289.166-.036.139-.167.061-.246a.929.929,0,0,0-.672-.31c-.261-.021-.331.152-.4.318l-.1.137C3119.932,2799.105,3119.932,2799.105,3120.595,2799.149Zm106.511-3.864a.116.116,0,0,0,.192.108,1.141,1.141,0,0,1,.576-.166c.026-.217.262-.217.427-.3.035-.015.027-.094.035-.145-.157.058-.209-.18-.4-.086a.609.609,0,0,1-.375.015c-.192-.073-.305.036-.419.094,0,0-.009.151-.009.224,0,.043.017.086.017.115Zm-34.954-.2.82-.021c.192-.015.209.122.279.209a.581.581,0,0,1-.061.094.186.186,0,0,0-.236.116c-.078.173-.244.166-.427.173-.122,0-.27.1-.358.072-.1-.043-.148-.181-.227-.275a.349.349,0,0,1-.026-.036l-.157-.282c.131-.028.262-.051.393-.079Zm.314.4.052.006c.087.022.2.094.227-.043.009-.029-.131-.086-.21-.1a1.735,1.735,0,0,0-.253.007.382.382,0,0,0-.1.051.175.175,0,0,0,.052.1A.561.561,0,0,0,3192.466,2795.48Zm31.526-.448c-.026-.073-.044-.2-.079-.2a9.775,9.775,0,0,0-1.116-.043c-.192.008-.2.094-.061.239a1.493,1.493,0,0,0,.061.158c.052.13.166.13.288.073l.157-.109c.183-.1.244-.079.3.115a.985.985,0,0,1,.026.239C3223.782,2795.3,3223.73,2795.068,3223.992,2795.032Zm18.581,3.813a.983.983,0,0,0,0-.224.541.541,0,0,0-.087-.115.4.4,0,0,0-.218.115c-.027.015.035.079.035.079a1.139,1.139,0,0,1-.061.167.256.256,0,0,1-.244.021s-.07-.123-.053-.181.07-.13.087-.194l-.079-.088s-.1.014-.122.043c-.236.391-.062.636.445.65a.456.456,0,0,0,.1,0,1.687,1.687,0,0,0,.392-.051c.061-.028.053-.159.1-.239a.329.329,0,0,1,.148-.144c.078-.043.166-.086.061-.152a.27.27,0,0,0-.236.015,1.138,1.138,0,0,0-.166.3Zm-9.508-3.886a.4.4,0,0,0-.114.3c.009.137.175.152.314.16a.254.254,0,0,0,.3-.181c.079-.195.166-.368.5-.274.061.014.166-.066.314-.13A1.377,1.377,0,0,0,3233.064,2794.959Zm-.183.831c-.078.13-.209.281-.078.375a.677.677,0,0,0,.479.015.459.459,0,0,0,.244-.289c.017-.087-.018-.152.131-.166a.841.841,0,0,0,.21-.079c-.079-.014-.157-.022-.236-.036l-.4-.065C3233,2795.523,3232.959,2795.66,3232.881,2795.791Zm-6.961,3.893a1.781,1.781,0,0,1,.07-.2c.052-.144-.009-.216-.183-.231a2.157,2.157,0,0,0-.306-.044c-.156.007-.209.13-.122.274.017.036.061.1.043.115-.131.137-.271.26-.419.4a2.973,2.973,0,0,0,.358.087c.07,0,.2-.087.192-.115-.07-.268.227-.217.375-.3Zm19.208-3.358c.332-.051.367-.058.384-.333,0-.115.018-.216.148-.238a2.177,2.177,0,0,1,.611.007c.061.007.079.173.139.3.166-.13.288-.23.515-.418-.489-.022-.837-.043-1.187-.051a.8.8,0,0,0-.4.029c-.07.043-.035.2-.062.3-.035.137-.1.274-.139.412Zm-7.929,3.51c-.009-.079-.017-.166-.027-.252l.009.006a.426.426,0,0,1-.114.087c-.288.137-.41.08-.445-.181a.784.784,0,0,0-.061-.288c-.026-.043-.14-.065-.219-.058-.035,0-.113.1-.113.1.192.144.017.26-.035.382s-.044.3.139.311c.3.029.62.123.873-.115Zm-22.454-4.81c-.183-.044-.3-.325-.567-.116-.009-.014-.035-.044-.026-.057.114-.224-.061-.159-.192-.137-.279.051-.279.224-.27.4.009.224.044.267.279.195a7.594,7.594,0,0,0,.785-.289Zm25.559-.311c-.331-.3-.314-.282-.646.021-.1.094-.192.166-.183.282a.263.263,0,0,0,.122.2.61.61,0,0,0,.253-.022c.052-.282.375-.253.55-.39A1.007,1.007,0,0,0,3240.3,2794.715Zm-18.711.476.122.007c.078-.267.332-.137.506-.188a.164.164,0,0,0,.079-.043.371.371,0,0,0-.035-.138c-.323-.021-.61-.021-.89-.036-.122-.008-.253-.173-.349-.028-.044.072.043.2.079.31,0,0,.026.108.043.173C3221.34,2795.206,3221.418,2794.858,3221.593,2795.191Zm-15.091-.3a1.629,1.629,0,0,0,.192-.043s.1-.043.157-.073c-.043-.029-.087-.087-.139-.087a4.751,4.751,0,0,0-.558.03c-.044.006-.131.093-.131.093.131.174-.008.289-.087.434-.1.216.044.332.331.274.087-.015.175-.037.245-.043.122-.246-.428.021-.227-.268.078-.108-.052-.3.227-.325Zm35.826,4.861-.035-.03c.043-.028.088-.065.088-.065-.437-.159-.541-.079-.533.39a1.085,1.085,0,0,1,.366-.043c.349.065.349.072.454-.188.1-.224.07-.245-.262-.194Zm-14.533-.369c-.175-.224-.41-.028-.646-.1.1.275.166.491.253.7.018.044.1.08.157.116a.536.536,0,0,1,.079-.116c-.009-.281-.009-.288.261-.238a1.676,1.676,0,0,0,.2.028.356.356,0,0,0-.253-.13c-.244-.051-.244-.051-.044-.268Zm1.274-4.355-.027.006c.28.159.358.138.62-.181a7.362,7.362,0,0,0-.8-.093.331.331,0,0,0-.209.187c0,.123.1.173.253.1a.185.185,0,0,1,.1-.007Zm6.385.288c-.052-.029-.113-.065-.113-.065-.262-.123-.375-.224-.079-.354,0,0-.017-.115-.044-.13a1.038,1.038,0,0,0-.253-.028c-.314,0-.436.109-.41.368l.131.086c.148-.188.235-.094.314.043.114.181.279.13.445.072Zm-.331,4.125c-.1.057-.227.094-.288.174a.281.281,0,0,0-.07.267c.009.043.166.072.253.079.14.008.192-.05.244-.166a1.829,1.829,0,0,0,.1-.664c-.122.158-.192.237-.253.317Zm2.416.737a1.421,1.421,0,0,0-.305.007.65.65,0,0,0-.149.094.214.214,0,0,0,.157.181,5.073,5.073,0,0,0,.654.064.263.263,0,0,0,.192-.144c.009-.051-.079-.144-.148-.167a2.385,2.385,0,0,0-.4-.029Zm4.894-1.892c.1-.022.262-.051.262-.051a.638.638,0,0,0-.122-.4c-.079-.08-.2.021-.271.115-.026.043-.113.051-.166.087-.078.043-.148.087-.148.087.018.086.1.13.192.152l.113.007A.767.767,0,0,0,3242.432,2798.29Zm4.431,2.224c-.41-.043-.811-.086-1.221-.116,0,0-.1.051-.157.079a.559.559,0,0,1,.1.109c.462.022.864.029,1.265.044Zm-8.854-2.672a1.019,1.019,0,0,1-.741-.152l-.1.036c-.009.066-.035.173-.035.173a2.037,2.037,0,0,0,.6.26s.174-.209.261-.324Zm-34.927-2.412c.026.043.131.057.2.087.034-.058.1-.124.087-.174-.027-.13-.2-.238-.044-.4l-.1-.1a2.833,2.833,0,0,0-.366.057A4.975,4.975,0,0,0,3203.082,2795.43Zm-12.64.115c.131-.086.245-.224.445-.166.1.021.175.051.175-.066a.317.317,0,0,0-.044-.115c-.271-.058-.506-.086-.741-.116a.4.4,0,0,0,.174.478A.024.024,0,0,1,3190.442,2795.545Zm48.484.621a.353.353,0,0,0,.227.007,2.736,2.736,0,0,0,.323-.166s.052-.051.052-.065-.061-.087-.087-.087c-.262.008-.532.029-.863.051A2.989,2.989,0,0,0,3238.926,2796.166Zm-24.172-1.148v.874c.113-.13.235-.224.262-.325a1.3,1.3,0,0,0-.017-.448.559.559,0,0,0-.018-.124.331.331,0,0,0-.235.03Zm53.918,3.265a2.529,2.529,0,0,0,1.369.028A2.5,2.5,0,0,0,3268.672,2798.282Zm-28.682-1.806a.364.364,0,0,0-.1.079.191.191,0,0,0,.131.145c.14.036.288.058.471.1.018-.152.035-.289.061-.476C3240.313,2796.39,3240.147,2796.419,3239.99,2796.477Zm-23.483-1.415c.026.144.113.2.253.137a1.189,1.189,0,0,0,.279-.188c.078-.072-.009-.209-.131-.2a.424.424,0,0,0-.148.057C3216.446,2794.722,3216.49,2794.9,3216.507,2795.061Zm-27.226,1.386a1.056,1.056,0,0,0,.131-.137c.078-.087.122-.2-.009-.246-.1-.036-.271-.065-.349.08l-.017.029c.017.166-.366.173-.219.332.052.05.314-.043.471-.065Zm46.757,1.163c-.017-.015-.052,0-.079.007a1.522,1.522,0,0,0-.323.093c-.052.014-.1.1-.087.131l.166.108c.174-.015.358-.064.584-.108C3236.187,2797.741,3236.117,2797.675,3236.038,2797.611Zm.611-2.817c0-.022-.1-.051-.157-.051,0,0-.079.079-.07.1.079.115.131.281.253.339a.284.284,0,0,0,.34-.194c.018-.043.026-.08.052-.167C3236.893,2794.83,3236.71,2795.155,3236.649,2794.794Zm-1.2.52a.759.759,0,0,1,.3-.151c.218-.022.253-.188.349-.289.026-.029-.017-.138-.07-.173a.272.272,0,0,0-.209.028,1.811,1.811,0,0,0-.349.348c-.044.064-.009.166-.009.245Zm35.381,3.069c.122.261.393.311.672.325l.157-.072a.235.235,0,0,0-.026-.109.713.713,0,0,0-.157-.1c-.261-.021-.453-.021-.654-.036Zm-87.677-3.011c.017-.065-.035-.145-.061-.209-.087.021-.218.021-.253.072a.275.275,0,0,0,.1.469A2.33,2.33,0,0,0,3183.149,2795.371Zm42.43-.339c.1-.007.218.006.209-.123,0-.072,0-.166-.052-.195-.157-.1-.123.079-.2.1a.131.131,0,0,1-.07.007c-.078.051-.157.109-.157.145s.1.079.131.108A.82.82,0,0,1,3225.579,2795.032Zm2.32,1.069c-.043-.152-.07-.3-.122-.455-.017-.043-.078-.079-.122-.116l-.157.152-.009-.008c.017.073.079.188.052.209-.166.1-.139.138.044.152a.377.377,0,0,1,.122.065h-.009s.139-.008.209-.008Zm-38.094.5c.183.015.131-.144.166-.224a.39.39,0,0,0-.035-.238l-.078-.13a.571.571,0,0,1-.114.079.729.729,0,0,0-.018.26C3189.753,2796.462,3189.57,2796.6,3189.8,2796.606Zm1.44.231c-.052.152.114.152.2.188a.391.391,0,0,0,.166-.022c.1-.065.1-.137.018-.217-.1-.087-.175-.188-.288-.3C3191.305,2796.621,3191.279,2796.729,3191.245,2796.838Zm36.053,2.044c0,.058.166.18.227.167.114-.022.2-.123.305-.188l-.122-.086C3227.481,2798.759,3227.306,2798.708,3227.3,2798.882Zm26.536,1.885c.069-.029.139-.066.209-.094a1.819,1.819,0,0,0-.192-.166.109.109,0,0,0-.1-.022c-.113.043-.227.094-.34.145.1.058.183.122.209.137C3253.764,2800.774,3253.807,2800.782,3253.834,2800.767ZM3203.815,2795l.017-.1a.494.494,0,0,0-.14-.022l-.157.094c-.009.158-.122.325.026.534C3203.719,2795.306,3203.562,2795.089,3203.815,2795Zm-7.974.239a2.973,2.973,0,0,0,.48.072c.052,0,.131-.108.157-.181l-.175-.108c-.227-.043-.34.108-.462.224Zm66.864-1.525c-.009-.145-.192-.051-.3-.051-.131-.008-.3-.079-.323.094,0,0,.183.051.288.087C3262.522,2793.827,3262.714,2793.883,3262.706,2793.71Zm-24.216,2.962c.052.008.13-.05.192-.079-.035-.066-.062-.167-.123-.181a.414.414,0,0,0-.471.108A2.948,2.948,0,0,0,3238.49,2796.671Zm3.916-.75a3.124,3.124,0,0,0,.358-.167c.026-.014-.009-.13-.009-.13-.149,0-.288.014-.437.022.035.087.062.181.1.267Zm-122.143,3.886a1.393,1.393,0,0,0-.323-.2l-.236.087.139.158a2.2,2.2,0,0,0,.384.022Zm114.588-3.9c-.009-.036-.122-.087-.122-.087-.227.036,0,.289-.279.274,0,0-.035.051-.026.064a.756.756,0,0,0,.087.073C3234.748,2796.2,3234.9,2796.058,3234.852,2795.906Zm-34.867-.744c.07.115.2.123.349.043-.07-.109-.131-.217-.192-.332C3199.95,2794.946,3199.924,2795.061,3199.985,2795.162Zm16.068,1.271c-.149-.087-.175.029-.2.094,0,0,.026.137.079.152a.358.358,0,0,0,.419-.109A2.621,2.621,0,0,1,3216.053,2796.433Zm9.081-1.784a3.284,3.284,0,0,0,.087-.4c.009-.043-.035-.1-.078-.13l-.14.015a1.084,1.084,0,0,0-.1.094,3.054,3.054,0,0,0,.156.433C3225.091,2794.656,3225.108,2794.649,3225.134,2794.649Zm15.746.058c-.148-.015-.174.115-.166.209a.4.4,0,0,0,.087.123,1.213,1.213,0,0,0,.331-.1C3241.028,2794.83,3240.967,2794.715,3240.88,2794.707Zm-32.739.621a.472.472,0,0,0-.009-.247,1.581,1.581,0,0,0-.114-.238c-.244.051-.026.159-.061.238a.487.487,0,0,0-.061.2c0,.051.069.087.113.137C3208.072,2795.379,3208.141,2795.357,3208.141,2795.329Zm-5.836.765s.131.051.192.072a.637.637,0,0,1,.079-.108.422.422,0,0,0-.131-.218.363.363,0,0,0-.14-.014l-.069.094C3202.262,2795.985,3202.262,2796.058,3202.305,2796.094Zm20.491,4.268c-.2-.058-.4-.115-.6-.158-.035-.015-.087.021-.131.036.017.036.035.1.052.1.227.029.445.05.672.073Zm33.349-.672c-.035.043-.114.1-.1.13a.776.776,0,0,0,.192.217s.1-.051.192-.108Zm-4.31.224a1.129,1.129,0,0,0-.227-.166.255.255,0,0,0-.209,0,.182.182,0,0,0-.061.188.531.531,0,0,0,.209.072,1.432,1.432,0,0,0,.279-.1Zm-42.979-5.561c.009-.007-.113-.087-.113-.087a.964.964,0,0,0-.288.115c.061.073.122.145.209.26A1.467,1.467,0,0,0,3208.857,2794.353Zm-3.228,1.127a.32.32,0,0,0-.087,0c-.043.108-.078.209-.113.317l.087.029c.061-.087.113-.167.175-.253l.009-.037Zm13.923.548c.026-.079.052-.166.079-.245l.017-.036a1.033,1.033,0,0,0-.1-.16c-.07.043-.14.079-.253.145C3219.394,2795.848,3219.473,2795.934,3219.552,2796.029Zm47.777.333a2.755,2.755,0,0,0-.114-.354.4.4,0,0,0-.131-.051l-.061.087c.053.115.123.232.183.347C3267.206,2796.39,3267.285,2796.375,3267.329,2796.361Zm-146.856-.845c.017-.022-.087-.124-.087-.124a.517.517,0,0,0-.227.131s.061.108.122.209A.838.838,0,0,0,3120.473,2795.516Zm109.494.736c.079-.2.131-.354.227-.606C3229.845,2795.834,3229.749,2795.985,3229.967,2796.252Zm4.7,1.6a.772.772,0,0,0,.1-.159.852.852,0,0,1-.209,0c-.1.072-.1.166-.122.339A1.749,1.749,0,0,0,3234.669,2797.849Zm-7.764-3.011a.84.84,0,0,0-.227-.051c-.044,0-.131.066-.122.087a.817.817,0,0,0,.139.188Zm-22.82,1.061a.617.617,0,0,0,.244-.491l.009.007c-.253-.007-.384.066-.3.3a1.371,1.371,0,0,1,.052.2Zm32.816,2.427c-.017.051,0,.174.044.181.139.05.07-.073.1-.116a1.125,1.125,0,0,1,.236-.194C3237.112,2798.181,3236.963,2798.173,3236.9,2798.325Zm-21.511-2.3a1.609,1.609,0,0,0,.1-.26s-.052-.094-.078-.137c-.044.036-.1.073-.114.116a1.421,1.421,0,0,0,.026.274Zm-34.649-.657a1.552,1.552,0,0,0-.279-.137s-.1.079-.157.122c.079.058.157.116.253.2C3180.646,2795.465,3180.7,2795.422,3180.742,2795.371Zm48.466.563a.971.971,0,0,0-.253-.108s-.14.079-.148.13c0,0,.087.094.157.159C3229.069,2796.043,3229.138,2795.992,3229.208,2795.934Zm7.746,3.568c.1-.057.2-.123.314-.174.1-.043.123-.1.027-.151a.339.339,0,0,0-.148-.029,2.893,2.893,0,0,0-.245.325A.187.187,0,0,1,3236.954,2799.5Zm-13.128.989c.1-.064.227-.144.061-.224a1.11,1.11,0,0,0-.323-.043c-.139.188.07.16.148.2,0,0,.087.049.122.072Zm13.355-4.521c-.07-.037-.148-.065-.227-.1,0,.086-.009.18-.018.268l.157-.036a.31.31,0,0,0,.07-.094Zm-8.514,4.3a2.042,2.042,0,0,0-.357-.05c-.044,0-.1.058-.14.094a2.521,2.521,0,0,0,.253.1.336.336,0,0,0,.148,0l.14-.043A.568.568,0,0,1,3228.667,2800.268Zm30.924-6.24-.1-.051a1.848,1.848,0,0,0-.166.181c.044.022.079.043.157.079A1.246,1.246,0,0,0,3259.591,2794.028Zm-20.5,1.539-.1.072c0,.138.122.152.253.138a1.893,1.893,0,0,0,.235-.116A2.539,2.539,0,0,0,3239.092,2795.567Zm23.745-1.178c.017-.224-.044-.339-.392-.252Zm-26.344,2.153c-.017-.065-.1-.123-.139-.188-.07.043-.183.08-.183.123s.078.122.148.224C3236.4,2796.628,3236.5,2796.57,3236.492,2796.542Zm-54.031-1.163c-.009-.066-.1-.123-.14-.181-.061.043-.149.087-.157.131,0,.064.062.13.114.252C3182.373,2795.48,3182.469,2795.422,3182.46,2795.379Zm53.456,3.344c-.262.137-.192.31-.148.469C3235.855,2799.055,3236,2798.932,3235.916,2798.723Zm-35.73-2.825-.079.022c.018.086.052.18.079.267a.6.6,0,0,0,.1.057C3200.352,2796.079,3200.36,2795.971,3200.186,2795.9Zm34.4,2.94v.1l-.009-.007c.183.007.366.029.55.029a.582.582,0,0,0,.07-.093s-.035-.037-.052-.051c-.175.173-.385-.058-.568.029Zm-114.083.607a1.166,1.166,0,0,0-.218-.108.568.568,0,0,0-.175.035c.035.036.062.1.1.109a1.391,1.391,0,0,0,.3.029Zm-.55.614a.647.647,0,0,0-.2.072,1.329,1.329,0,0,1,.122.1.878.878,0,0,0,.366-.058A1,1,0,0,0,3119.958,2800.059Zm80.908-4.977a.784.784,0,0,0-.21-.187l-.1.058c.035.1.079.195.148.354C3200.788,2795.191,3200.884,2795.112,3200.866,2795.082Zm36.4,3.677c-.078.023-.156.058-.244.087l.139.1a1.583,1.583,0,0,0,.3-.13C3237.355,2798.788,3237.3,2798.752,3237.268,2798.759Zm-.959-3.134a.8.8,0,0,0,.209.073,1.714,1.714,0,0,0,.2-.087c-.052-.036-.1-.073-.183-.13C3236.448,2795.537,3236.378,2795.581,3236.309,2795.624Zm.323,2.21-.114.086a.275.275,0,0,0,.087.159s.114-.036.183-.065C3236.7,2797.914,3236.667,2797.871,3236.632,2797.835Zm-44.28-1.7c.009-.123-.087-.181-.227-.174a.411.411,0,0,0-.1.065,2.17,2.17,0,0,0,.192.274C3192.283,2796.224,3192.352,2796.181,3192.352,2796.137Zm49.086,2.773a1.418,1.418,0,0,1-.166-.129c-.027.05-.1.122-.07.144a.235.235,0,0,0,.113.08.8.8,0,0,0,.315,0A1.278,1.278,0,0,1,3241.438,2798.911Zm-98.7-4.145.131-.109a.776.776,0,0,0-.209-.094c-.035,0-.087.058-.183.13A1,1,0,0,0,3142.743,2794.765Zm97.823,3.026a.75.75,0,0,0-.148.036l-.061.094a1.163,1.163,0,0,0,.218.007.631.631,0,0,0,.2-.073A1.336,1.336,0,0,0,3240.566,2797.792Zm30.252.6c-.1-.08-.2-.166-.34-.065-.027.015-.018.087-.018.087.166.13.262.028.366-.03Zm-27.661,1.668c.061-.028.087-.094.122-.144,0,0-.122-.08-.148-.072a1.175,1.175,0,0,0-.2.18C3243.043,2800.044,3243.122,2800.08,3243.156,2800.059Zm-39.874-4.2.009-.043c-.131-.007-.271-.022-.41-.029l-.026.029C3203.16,2795.942,3203.221,2795.949,3203.283,2795.863Zm28.246-1.062c-.061.014-.148.094-.148.137.009.13.114.057.183.029a2.873,2.873,0,0,0,.305-.13A1.145,1.145,0,0,0,3231.528,2794.8Zm-26.388.288c.113-.057.218-.115.332-.173l-.009.007a.821.821,0,0,1-.07-.145.5.5,0,0,0-.3.086c-.035.058.035.152.052.231Zm25.481-.1a1.466,1.466,0,0,0,.174.021c.009-.058.035-.115.009-.158,0,0-.1-.073-.157-.066s-.113.051-.2.094A1.518,1.518,0,0,0,3230.621,2794.989Zm-21.965.851a.8.8,0,0,0,.087-.144s-.061-.043-.079-.037a.5.5,0,0,0-.148.1c-.026.043-.009.109-.009.188A1.15,1.15,0,0,0,3208.656,2795.84Zm-79.312,4.725c-.148-.008-.3-.008-.445-.015v.036a2.324,2.324,0,0,0,.445.08Zm65.241-5.822s-.087.022-.131.028a.319.319,0,0,0,.1.109l.157-.058A.465.465,0,0,0,3194.585,2794.743Zm42.037,4.182a.392.392,0,0,0,.157-.087l-.043-.08c-.07.015-.14.043-.245.072C3236.562,2798.882,3236.605,2798.932,3236.623,2798.925Zm32.634-2.426.105-.094a.2.2,0,0,0-.131-.1c-.044-.007-.087.051-.175.094C3269.152,2796.448,3269.2,2796.5,3269.256,2796.5Zm-53.709-1.539-.061-.094c-.061.036-.122.066-.122.066-.07.064-.027.115,0,.194A1.087,1.087,0,0,0,3215.547,2794.959Zm-10.852.066a1.125,1.125,0,0,0,.009.13l.1.036a.746.746,0,0,0,.018-.2s-.061-.064-.114-.115A1.329,1.329,0,0,0,3204.7,2795.025Zm19.13.9-.131-.044a.663.663,0,0,0-.166.131s.043.043.079.086C3223.7,2796.029,3223.756,2795.978,3223.826,2795.927Zm-102.167-1.416a.247.247,0,0,0-.087.066.131.131,0,0,0,.087.13.924.924,0,0,0,.227-.051C3121.729,2794.555,3121.676,2794.5,3121.659,2794.512Zm150.572,4.232-.122-.115a.458.458,0,0,1-.114.072c.018.073.079.1.14.16C3272.179,2798.8,3272.24,2798.766,3272.231,2798.744Zm-75.517-2.643c-.1-.2-.236-.2-.4-.094C3196.426,2796.036,3196.539,2796.058,3196.714,2796.1Zm42.046,1.812c-.078-.036-.148-.079-.227-.115l-.1.057c.07.051.14.1.227.167C3238.708,2797.971,3238.734,2797.942,3238.76,2797.914Zm-102.507-3.344a.343.343,0,0,0-.079-.036s-.079.028-.122.051a1.486,1.486,0,0,0,.131.072C3136.209,2794.62,3136.236,2794.6,3136.253,2794.57Zm44.253.231c.018-.073.035-.152.052-.231l-.026-.015a.724.724,0,0,0-.114.167l.035.108Zm6.953-.354-.131.043a.423.423,0,0,1,.078.094,1.183,1.183,0,0,0,.375-.051A2.171,2.171,0,0,0,3187.459,2794.447Zm38.941.91s-.079-.051-.131-.079c-.035.043-.087.087-.087.13s.052.087.113.159A.621.621,0,0,0,3226.4,2795.357Zm3.646-.375c.044.007.1-.051.157-.08a1.332,1.332,0,0,0-.175-.123,1.267,1.267,0,0,0-.122.086Zm-5.059.151.1-.107a.546.546,0,0,0-.139-.138l-.122.094C3224.881,2795.039,3224.934,2795.082,3224.986,2795.133Zm-10.765.513s-.052-.116-.087-.173l-.087.028c.035.058.07.123.1.181l.052.043C3214.221,2795.667,3214.23,2795.653,3214.221,2795.646Zm23.98,2.469c-.018-.006-.052.03-.052.03a.131.131,0,0,0,.087.108c.026.015.079-.021.166-.043A1.14,1.14,0,0,0,3238.2,2798.115Zm-46.12-3.271-.122.065a.791.791,0,0,1,.07.05.414.414,0,0,0,.192-.036A.721.721,0,0,0,3192.082,2794.844Zm63-.91a1.867,1.867,0,0,0-.122.152s.017.043.026.072l.148-.123C3255.107,2793.985,3255.09,2793.956,3255.081,2793.934Zm-13.355,1.827-.044-.108c-.043.029-.1.057-.113.094-.009.021.035.064.035.064C3241.674,2795.819,3241.726,2795.791,3241.726,2795.761Zm-9.761,4.572s-.079-.087-.122-.094c0,0-.1.05-.157.072.035.043.07.079.113.137C3231.869,2800.4,3231.921,2800.37,3231.965,2800.333Zm7.267-5.049a.493.493,0,0,0-.157-.079l-.079.086a1.3,1.3,0,0,0,.157.108C3239.2,2795.349,3239.24,2795.292,3239.231,2795.285Zm-49.557,1.756s.061-.044.1-.066a1.1,1.1,0,0,0-.131-.137,1.463,1.463,0,0,0-.148.065A1.552,1.552,0,0,0,3189.675,2797.041Zm23.352-1.135a.177.177,0,0,1,.044-.051l-.1-.13s-.035.051-.061.094Zm7.336-.188c.009-.008-.044-.08-.044-.08a.226.226,0,0,0-.139.058s0,.064.009.144A1.1,1.1,0,0,0,3220.363,2795.718Zm16.879-.145-.1.058a.57.57,0,0,0,.157.058l.148-.094A.875.875,0,0,0,3237.242,2795.574Zm-21.049-.426.052-.043c-.026-.043-.061-.072-.087-.109l-.035.043A.213.213,0,0,0,3216.193,2795.147Zm-35.879,1.2a.289.289,0,0,0,.1-.051l-.069-.122c-.044,0-.087.058-.157.108C3180.245,2796.318,3180.288,2796.354,3180.314,2796.346Zm-3.751-1.321a1.312,1.312,0,0,1,.1-.1c-.035-.022-.079-.058-.113-.058,0,0-.061.044-.1.08C3176.493,2794.974,3176.528,2795,3176.563,2795.025Zm64.648,3.062a.637.637,0,0,1-.1-.058.2.2,0,0,0-.148.051.792.792,0,0,0,.131.144C3241.15,2798.159,3241.177,2798.123,3241.211,2798.087Zm-47.847-2.022c.061,0,.122,0,.192-.007a.6.6,0,0,1,.018-.058,1.056,1.056,0,0,0-.183-.007l-.061.051Zm30.2-1.5-.1-.043a.592.592,0,0,0-.1.122l.131.08A.555.555,0,0,0,3223.564,2794.562Zm13.9.427a.241.241,0,0,0-.035-.073l-.079.007c.018.036.044.072.07.115Zm-14.289,1.263a.372.372,0,0,0-.148-.064l-.1.08.114.058C3223.1,2796.3,3223.146,2796.275,3223.18,2796.252Zm14.577.347c.009-.021-.027-.072-.035-.064l-.122.043c-.009.021.026.065.052.123A.755.755,0,0,0,3237.757,2796.6Zm-55.306-.932a.3.3,0,0,0-.131-.029l-.1.08c-.009.03.034.072.061.137C3182.382,2795.748,3182.417,2795.7,3182.451,2795.667Zm30.366-1.668-.07-.03-.07.058.079.036C3212.773,2794.043,3212.8,2794.021,3212.817,2794Zm31.273,6.508a.293.293,0,0,1-.052-.022,1.57,1.57,0,0,0-.166.029l.113.036A.715.715,0,0,0,3244.09,2800.507Zm-41.261-4.052a1.415,1.415,0,0,0,.253-.03c.035-.007.043-.064.043-.064s-.087-.073-.1-.058a1.684,1.684,0,0,0-.183.159Zm41.444-.751-.07-.088a.132.132,0,0,0-.1.051l.07.116C3244.212,2795.748,3244.264,2795.725,3244.273,2795.7Zm-53.238-1.315a.4.4,0,0,1-.078.015l.035.043.1-.007C3191.079,2794.426,3191.062,2794.4,3191.035,2794.389Zm52.279,1.214a.1.1,0,0,0-.053.021c0,.036.027.058.062.073a.547.547,0,0,0,.052-.051Zm-52.837,1.336.035-.079-.148-.08a.209.209,0,0,0-.026.043A.227.227,0,0,0,3190.477,2796.939Zm41.427-.52a.545.545,0,0,0-.114.123c-.009.008.079.072.1.065a.92.92,0,0,0,.157-.108Zm.087-1.582c0,.028.087.051.087.051a.169.169,0,0,0,.114-.122s-.027-.073-.061-.174C3232.034,2794.743,3231.991,2794.794,3231.991,2794.837Zm19.051.86c-.026.051-.061.094-.078.137l.052.043a.8.8,0,0,0,.061-.087Zm5.845-1.914a.293.293,0,0,0-.052-.108l-.078.014c.017.05.035.094.061.158C3256.852,2793.811,3256.9,2793.8,3256.887,2793.783Zm-96.3,1.025c.017-.043.052-.08.043-.123l-.087-.079c-.026.043-.07.087-.061.122a1.172,1.172,0,0,0,.113.073Zm-.768.036-.131.036.113.1s.07-.036.131-.073C3159.875,2794.88,3159.85,2794.844,3159.815,2794.844Zm44.75-.462-.07-.094a.632.632,0,0,1-.1.065.42.42,0,0,0,.07.166C3204.5,2794.461,3204.556,2794.426,3204.565,2794.382Zm59.954,6.024-.061-.051-.122.043c.035.03.061.058.1.1A.32.32,0,0,0,3264.52,2800.406Zm-59.047-5.49a.2.2,0,0,1-.027.087l.131.116s.052-.094.035-.109a.674.674,0,0,0-.148-.087Zm-86.073,3s-.052-.043-.07-.043l-.087.064c-.009.03.026.066.061.138A.72.72,0,0,0,3119.4,2797.914Zm76.407-1.871c-.009-.036-.079-.072-.113-.109-.035.043-.079.087-.079.087-.009.086.044.13.1.21C3195.763,2796.137,3195.807,2796.087,3195.807,2796.043Zm40.415,2.174s-.009-.072-.009-.108a.468.468,0,0,1-.087.021v.13C3236.17,2798.239,3236.221,2798.231,3236.221,2798.217Zm-10.974-4.326a.068.068,0,0,0-.009-.051.835.835,0,0,0-.114.007s.026.043.044.065Zm-75.544.519a.368.368,0,0,1-.035.044.312.312,0,0,0,.079.05c.009-.021.017-.036.017-.036Zm15.7.088-.131.043c.017.029.044.064.061.093l.114-.057C3165.432,2794.541,3165.415,2794.5,3165.406,2794.5Zm28.97,2.2a.191.191,0,0,0,.018.073h.078a.634.634,0,0,0-.009-.109C3194.42,2796.679,3194.367,2796.693,3194.376,2796.7Zm38.217-1.892c-.009-.029-.052-.058-.052-.058-.052,0-.1.021-.113.051a.948.948,0,0,0,.078.108Zm.009.454a.08.08,0,0,0-.061.015.107.107,0,0,0,.052.079l.061-.058C3232.636,2795.292,3232.619,2795.263,3232.6,2795.263Zm6.883,1.019.1-.014.1-.1-.026-.029a.54.54,0,0,0-.148.079l-.009.072Zm-.122,3.488a.341.341,0,0,1,.053.1.183.183,0,0,0,.148.029s.018-.079-.017-.093c0,0-.131-.022-.192-.03Zm-11.454-3.676.017.115a.464.464,0,0,0,.166.058l.044-.066a.344.344,0,0,0-.052-.072.208.208,0,0,0-.131-.022Zm5.757,4.261a.634.634,0,0,0-.1-.1.892.892,0,0,0-.087.029s.061.079.087.115Zm-45.526-3.965-.113.1.009-.014.1.094.035-.108a.106.106,0,0,0-.026-.051Zm16.19-.982c.052-.1.174-.195.009-.39v.4Zm.026-.628a.263.263,0,0,1-.078.043c-.035.036.009.094.009.094a.485.485,0,0,0,.131-.058C3204.391,2794.822,3204.373,2794.8,3204.355,2794.779Zm30.174,5.5-.07.043c0,.029.026.058.044.087,0,0,.07-.029.2-.073A.787.787,0,0,0,3234.529,2800.283Zm-26.527.181-.035-.058-.043.007a.17.17,0,0,1,.026.043Zm-69.045-.058a.486.486,0,0,0-.1.079.142.142,0,0,1,.052.036.349.349,0,0,0,.1-.05Zm100.082-5.532a.227.227,0,0,1-.009-.058.517.517,0,0,0-.1,0l.035.073A.427.427,0,0,1,3239.039,2794.873Zm3.376,1.04c.009.043.009.079.017.123,0,0,.018.051.027.072l.061-.058c.044-.086,0-.129-.114-.129Zm-3.873-.34-.078.021.044.051a.066.066,0,0,0,.052-.014Zm-112.826-.946a.629.629,0,0,0,.009-.073.4.4,0,0,1-.07-.007.055.055,0,0,0-.026.058S3125.7,2794.634,3125.715,2794.628Zm142.39,2.376-.079.015c.017.028.035.058.052.094a.367.367,0,0,0,.043-.028Zm-17.324,3.611.078-.029a.365.365,0,0,1-.061-.094l-.07.058C3250.746,2800.572,3250.755,2800.608,3250.781,2800.615Zm-64.273-6.111c.018-.014.061-.043.061-.043a.522.522,0,0,0-.087-.1c-.009-.007-.052.007-.1.021C3186.429,2794.426,3186.464,2794.461,3186.508,2794.5Zm6.176,1.8v-.036l-.017.028a.249.249,0,0,0,0,.08A.264.264,0,0,0,3192.684,2796.3Zm-8.993-.072a.472.472,0,0,0-.026-.109l-.079.022a.241.241,0,0,0,0,.087C3183.638,2796.252,3183.69,2796.245,3183.69,2796.231Zm54.128,3.444v-.123l.018-.058c-.07.036-.14.066-.209.1a1.557,1.557,0,0,1,.2.073Zm-42.482-5.3c-.018-.029-.035-.064-.035-.064-.035-.036-.1,0-.1,0l.053.107S3195.31,2794.389,3195.336,2794.375Zm27.792,1.257-.017.058s.044.007.052.007a.4.4,0,0,0,.061-.051A.568.568,0,0,0,3223.128,2795.632Zm-33.078,1.343.017.036a.129.129,0,0,0,.052-.014l-.009-.065A.394.394,0,0,0,3190.05,2796.975Zm-.777-.361.183-.108s-.113-.036-.175-.058l.009-.007a1.241,1.241,0,0,1-.009.18Zm16.888-.809a.436.436,0,0,0-.044-.014l-.044.036s.035.036.053.051A.661.661,0,0,0,3206.161,2795.8Zm-22.846-.939-.035.015v.036a.226.226,0,0,0,.052-.007Zm45.37,3.655a.44.44,0,0,0-.018-.064.715.715,0,0,1-.07.036l.018.072Zm2.346-3.632s.009.029.017.051a.1.1,0,0,0,.026-.015v-.043Zm2.809-.3s.035-.021.053-.029a.1.1,0,0,0-.035-.007s-.044.015-.062.023Zm.332.577-.017-.057-.035.014a.034.034,0,0,0,.009.037Zm-7.284-1.27.07.028a.162.162,0,0,0,.052-.051c0-.043-.026-.049-.026-.049Zm8.549,3.517s-.053-.021-.079-.036c-.017.021-.044.051-.044.051a.127.127,0,0,0,.052.043Zm-9.177-2.463-.087.029a.447.447,0,0,0,.044.057.256.256,0,0,0,.087-.021C3226.294,2794.989,3226.277,2794.953,3226.26,2794.953Zm10.354.9-.026-.029a.321.321,0,0,1-.052.021.086.086,0,0,0,.017.051S3236.605,2795.877,3236.614,2795.855Zm-52.662-1.3a.559.559,0,0,0-.061-.035l-.026.022.061.036Zm-22.977.325s.061-.007.1-.007l-.009-.029H3161Zm.114.137s-.026.044-.035.064l.07.023c.026-.008.026-.043.026-.043Zm97.221-1.4-.017-.029-.061.043.026.028Zm-15.178,2.253-.035.014a.325.325,0,0,0,.044.051l.035-.021A.5.5,0,0,0,3243.131,2795.87Zm-1.605,4.543-.026-.015-.052.043a.346.346,0,0,1,.035.022A.451.451,0,0,0,3241.525,2800.413Zm-48.405-5.583-.044-.036-.035.029.026.065Zm-40.677-.375-.026.043.035.006.017-.028Zm25.882.137a.6.6,0,0,1,.087-.115.911.911,0,0,0-.131-.029l.052.151Zm62.188,5.793-.035.021a.151.151,0,0,0,.044.028l.043-.014A.208.208,0,0,0,3240.514,2800.384Zm-.829-4.687s.035-.007.043-.007a.065.065,0,0,0-.009-.03.052.052,0,0,0-.035,0Zm-19.531-1.322v-.108l-.114.008c.044.036.087.064.122.093Zm-75.665,6.1a.2.2,0,0,0-.061.043l.044.058a.374.374,0,0,0,.1-.058C3144.531,2800.5,3144.505,2800.471,3144.488,2800.477Zm-1.667-6.2-.035-.022-.052.05.07.028A.188.188,0,0,0,3142.822,2794.274Zm-22.89,3.04a.187.187,0,0,1-.035-.043.1.1,0,0,0-.061.022l.009.036C3119.871,2797.322,3119.906,2797.322,3119.932,2797.314Zm91.1-1.647.061-.051a.343.343,0,0,0-.043-.05.692.692,0,0,1-.061.043C3210.985,2795.653,3211.011,2795.675,3211.029,2795.667Zm58.2,2.954a1.065,1.065,0,0,0-.131-.071.264.264,0,0,0-.061-.008l.052.058c.043.006.1.006.148.013C3269.23,2798.614,3269.23,2798.614,3269.23,2798.621Zm-55.532-2.932s-.07.029-.07.036.026.058.043.087a.323.323,0,0,0,.035-.036Zm9.064.224-.018-.079-.026.021a.153.153,0,0,0,.009.051ZM3129,2800.29s-.052.036-.078.057a.167.167,0,0,1,.052.03.642.642,0,0,0,.078-.044Zm108.666-5.764-.1-.015a.3.3,0,0,0-.035.022c.027.014.052.021.079.036Zm-39.229-.109.062-.014-.035-.03a.1.1,0,0,0-.027.007Zm-2.512,2.2a.372.372,0,0,1,.026-.051.27.27,0,0,0-.052-.123h-.043a.36.36,0,0,0,.026.1l.052.065Zm68.591,3.987a.427.427,0,0,1-.052-.037.149.149,0,0,0-.087.014.2.2,0,0,0,.052.058C3264.459,2800.63,3264.485,2800.623,3264.52,2800.608Zm-87.285-6.01.044.007a.388.388,0,0,1,.044-.051l-.035-.014C3177.27,2794.562,3177.252,2794.578,3177.235,2794.6Zm74.9-1.039c-.009.013-.026.036-.026.036l.035.021.026-.036Zm-33.567,6.767-.026-.065a.246.246,0,0,1-.069.022.329.329,0,0,0,.009.079Zm-94.97-5.489s-.044.028-.061.043a.1.1,0,0,1,.017.021.368.368,0,0,0,.07-.036C3123.613,2794.858,3123.6,2794.837,3123.6,2794.837Zm45.2,0,.035.015.035-.037-.043-.014Zm55.733.31v-.036l-.035.036a.025.025,0,0,0,.009.015S3224.524,2795.155,3224.524,2795.147Zm31.988,5.143.035.021.052-.014a.086.086,0,0,0-.035-.066S3256.53,2800.268,3256.512,2800.29Zm-54.642-6.074c.017,0,.052-.029.052-.029a.5.5,0,0,0-.052-.065.17.17,0,0,0-.044.036Zm22.375,5.683c.078.015.165.029.244.051a.333.333,0,0,0,.009-.051c-.087,0-.174,0-.261.007Zm12.422-3.243c.043-.029.1-.058.139-.087l-.035-.021a.8.8,0,0,1-.062.072C3236.675,2796.657,3236.667,2796.657,3236.667,2796.657Zm11.1-.953a.315.315,0,0,0-.035-.037.128.128,0,0,0-.07-.007l.017.058A.6.6,0,0,1,3247.762,2795.7Zm-10.572.26c.043.021.1.051.139.072a.1.1,0,0,1,.017-.029s-.113-.03-.165-.036Zm.488-1.17a.127.127,0,0,1,.026-.028l-.026-.03-.017.03ZM3222.6,2794l-.018.036.052.021Zm-13.207,0,.009-.015h-.035C3209.371,2793.992,3209.38,2793.992,3209.389,2794Zm29.066-.21.009.03.035-.022Zm-28.865.585-.017-.036-.061.029a.372.372,0,0,1,.035.021Zm29.179,2.867h-.122a.007.007,0,0,0,.008-.007,1.281,1.281,0,0,1-.113.1l.009-.007c.14.087.183.007.21-.094Zm-72.6-2.434.027.043.035-.022-.018-.028Zm55.035.917.009.036.035-.013Zm-55.611-.982a.516.516,0,0,0-.087.051.253.253,0,0,1-.018.036.457.457,0,0,1,.044-.014l.07-.08Zm48.292-.708.035-.007s-.009-.029-.018-.029l-.035.007Zm6.865.96.009-.064h-.035a.125.125,0,0,0-.009.043Zm35.853-.9a.237.237,0,0,0-.061-.037l-.035.022a.437.437,0,0,1,.061.036Zm-16.487,3.648s.035-.065.053-.1a.487.487,0,0,1-.044.058Zm-41.766-1.777a.309.309,0,0,0-.062-.03l-.017.015.035.029Zm42.683,1.69.017-.036-.035-.007-.017.029A.136.136,0,0,0,3241.037,2797.654Zm-.009-2.044s-.018.036-.026.05.026.007.035,0l.026-.029Zm1.064,4.8a.061.061,0,0,1-.009.028c0,.015.017.008.017.008Zm-51.642-4.846c-.043.007-.1.021-.139.029l.043.058c.026-.036.052-.065.052-.065C3190.442,2795.552,3190.45,2795.552,3190.45,2795.559Zm-70.2,1.423s0-.022.009-.03a.438.438,0,0,0-.052-.006v.036C3120.228,2796.982,3120.246,2796.99,3120.255,2796.982Zm80.463-1.084-.026-.021s-.044.029-.061.043a.281.281,0,0,1,.044.028Zm-15.039,4.673a.076.076,0,0,1,.009-.036l-.026.008A.087.087,0,0,0,3185.679,2800.572Zm84.276-1.841-.114-.065-.035.014.105.029Zm-113.481-4.16h-.043l.017.015S3156.473,2794.578,3156.473,2794.57Zm92.763,1.675a.088.088,0,0,0,.017-.021l-.035-.029-.026.029C3249.21,2796.231,3249.219,2796.239,3249.237,2796.245Zm-53.369-1.985-.044.015a.057.057,0,0,0-.009.028l.052-.007Zm1.875.339a.237.237,0,0,1,.035-.007l-.026-.043a.294.294,0,0,0-.035.022Zm-50.831-.137-.009.022a.138.138,0,0,0,.052.021.119.119,0,0,0,.043-.028A.353.353,0,0,0,3146.913,2794.461Zm58.237.635s-.044.043-.061.065l-.026.036.052-.029a.106.106,0,0,0,.018-.05Zm25.7,5.237h.043l-.018-.014Zm-25.943-4.377-.017.029a.372.372,0,0,1,.035.022l.018-.03Zm27.827,4.363h.044l-.017-.043-.035.014Zm-86.787-5.554-.044-.03v.03Zm82.6.939-.009.029a.16.16,0,0,1,.035.021A.293.293,0,0,0,3228.545,2795.7Zm-12.84-.557-.035-.015a.1.1,0,0,1-.017.03.055.055,0,0,0,.026.006S3215.7,2795.155,3215.7,2795.147Zm11.035.484.035.029c.017-.021.035-.036.052-.057a.176.176,0,0,0-.035-.022C3226.774,2795.6,3226.757,2795.616,3226.74,2795.632Zm-.148-.3h.034v-.065h-.043Zm-84.825-.672a.2.2,0,0,1-.043-.007l.009.022A.124.124,0,0,0,3141.766,2794.664Zm93.435.924-.009.036c0,.007.026.007.026.007Zm26.9-1.365.053-.029v-.044a.314.314,0,0,0-.053.022Zm-53.613,2.094c.017.008.052-.015.052-.015l-.009-.079-.087.029ZM3169.558,2795a.022.022,0,0,1,.009.015.124.124,0,0,0,.035-.015Zm49.461,5.331-.043-.043-.044.015s.026.028.044.05Zm-14.925-4.42-.026.036a.024.024,0,0,0,.009.014l.009-.058Zm-22.75-.794h.122l-.017.007-.044-.086-.052.086Zm-2.259-.224-.009.036.053-.014-.009-.029Zm-9.055-.361-.017.021h.035A.106.106,0,0,0,3170.029,2794.526Zm72.421,5.887.009.021a.1.1,0,0,1,.017-.021Zm-2.364-.629.009.043v-.029Zm-.506-.158.035-.015-.026-.014Zm-.218.144a.344.344,0,0,1-.017-.08c0,.028.009.058.009.086Zm-.418-2.426h.1a.208.208,0,0,0-.052-.008Zm-50.063-1.741h-.061v.043l.052-.051Zm49.749,3.337h-.043l.017.036Zm-.628-1.1.009.007Zm-49.5-1.323a.155.155,0,0,0-.035.022.319.319,0,0,0,.035.064.079.079,0,0,0,.017-.021A.518.518,0,0,0,3188.505,2796.512Zm-.733-1.675s-.026.015-.026.028l.017.022Zm-27.182-.036v.043l.026.021c-.009-.014-.026-.036-.026-.036Zm71.112,1.141h.027c0-.008-.009-.014-.009-.014S3231.7,2795.934,3231.7,2795.942Zm-2.712,3.72-.035-.014v.029Zm-73.607,1.148a.068.068,0,0,1-.009-.021l-.035.006.009.022A.073.073,0,0,0,3155.383,2800.81Zm31.316-4.708.035.007a.324.324,0,0,1,.017-.036l-.035-.007Zm41,2.419c-.017-.021-.035-.036-.052-.057l-.018.029a.3.3,0,0,0,.079.022Zm-2.172-2.888a.091.091,0,0,0,.018.029.1.1,0,0,0,.017-.021Zm-.558,3.221-.009-.036v.043Zm-39.656,1.7a.309.309,0,0,0-.052.021.173.173,0,0,0,.043.037l.035-.029Zm38.845-.845c.026.065.052.13.078.2l.009-.007c-.027-.072-.053-.137-.053-.137Zm-1.483-3.315a.227.227,0,0,0-.027-.043s.009.029.018.051Zm-.349-1.2.017-.029h-.035Zm-71.758-.369-.009-.029-.061.008Zm69.367,4.955v0Zm-36.306-4.506-.009-.036-.052.028.026.029Zm30.968,4.564a.071.071,0,0,1-.017.021.1.1,0,0,0,.026.007C3214.6,2799.856,3214.6,2799.85,3214.6,2799.835Zm5.557-5.46.026-.007h-.018Zm-26.763.788h.026a.034.034,0,0,0-.009-.022C3193.408,2795.147,3193.4,2795.155,3193.39,2795.162Zm30.436,5.33.009.008Zm1.474-4.853-.009-.007Zm.62,4.044.017.007-.009-.015Zm-34.562-3.625.009-.008Zm.009-.008v-.014l-.009.022Zm36.123-.376-.018.022.027-.014Zm.209.427c-.035.021-.079.043-.122.065v.007a1.367,1.367,0,0,0,.131-.072Zm.1,3.286.009-.008Zm.532-.953-.009-.008ZM3206.5,2794.9l.026.014-.017-.021Zm23.806,2.456c0-.007-.009-.007-.009-.007S3230.307,2797.344,3230.307,2797.351Zm-41.218-2.442v0Zm46.853.975h0Zm-.009,0,.009.008v-.008Zm1.37,3.626c-.044.021-.087.051-.131.073l.009.006c.043-.021.087-.05.13-.072Zm0,0,.009.007Zm1.875-1.589.009-.008Zm-105.857-3.287.009.008Zm105.857,3.287.009-.008Zm-106.049,2.153c-.035.029-.07.057-.113.086l.009.007a1.083,1.083,0,0,0,.113-.087Zm-.1.093-.009-.007Zm107.087-2.434v0Zm2.181-3.121h0Zm-57.286-.109.017.008-.009-.014Zm.009-.006-.017-.008.009.014Zm-.741,2.173-.009.008Zm60.853-.346-.017.021.026-.007Zm.419,3.3.009-.015-.017.008Zm1.248-.361Zm2.948,1.408-.026.007h.017Zm0,0-.009-.021v.029Zm1.038-4.341-.018.007Zm-72.455-1.74-.009.029a.024.024,0,0,1,.009-.015Zm38.949.549-.026.008h.018A.008.008,0,0,0,3217.275,2795.14Zm0,0v-.021s0,.021-.009.029A.008.008,0,0,0,3217.275,2795.14Zm51.964,3.474h0Zm.716.116.009-.007Zm-42.378-2.557.009.021-.009-.028Zm-61.97-1.438v-.014l-.009.021Zm54.555.383v.021l.009-.028Zm.009,4.774-.009.007Zm37.274-3.814-.017.029.026.015.026-.029Zm-41.174,2.888c-.018.037.035.094.035.094.069.015.165-.007.174-.043.069-.18.113-.368.183-.6C3216.28,2798.528,3216.35,2798.781,3216.271,2798.968Zm-.375-.354c.123-.028.236-.064.192-.194-.009-.03-.069-.043-.1-.058a1.805,1.805,0,0,0-.079.224.08.08,0,0,0,.009.036Zm3.873.224a.364.364,0,0,0,.192.26c.061.037.192-.028.288-.05a.916.916,0,0,0-.07-.26,2.143,2.143,0,0,0-.218-.245C3219.874,2798.672,3219.761,2798.766,3219.769,2798.838Zm.62-.151a.166.166,0,0,0,.026.029h-.009a.266.266,0,0,1-.009-.036Zm-.654-.167-.026.037.035-.007C3219.743,2798.542,3219.735,2798.528,3219.735,2798.52Zm.663.159-.017-.014.009.022Zm13.277.3c-.052-.051-.087-.123-.157-.159,0,0-.157-.058-.245-.08a1.127,1.127,0,0,1,.018.2.9.9,0,0,0,.384.036Zm-41-.419-.079.1a.129.129,0,0,0,.035.065l.061.014v-.1l-.026-.073Zm66.044.3-.052-.058c-.017,0-.044.022-.07.029l.053.051A.638.638,0,0,0,3258.719,2798.86Zm-52.1-.513-.017.008h.026Zm-3.7.073a.545.545,0,0,0-.122.123.46.46,0,0,0,.035.086l.061-.036a.615.615,0,0,0,.017-.173Z" transform="translate(-3119.241 -2793.559)" fill="#209198"/>
</svg>
